<?xml version="1.0" encoding="UTF-8" standalone="no"?>
<!DOCTYPE svg PUBLIC "-//W3C//DTD SVG 1.1//EN"
 "http://www.w3.org/Graphics/SVG/1.1/DTD/svg11.dtd">
<!-- Generated by graphviz version 14.0.0 (20250921.2048)
 -->
<!-- Title: classes_MMS Pages: 1 -->
<svg width="1738pt" height="1135pt"
 viewBox="0.00 0.00 1738.00 1135.00" xmlns="http://www.w3.org/2000/svg" xmlns:xlink="http://www.w3.org/1999/xlink">
<g id="graph0" class="graph" transform="scale(1 1) rotate(0) translate(4 1131.25)">
<title>classes_MMS</title>
<polygon fill="white" stroke="none" points="-4,4 -4,-1131.25 1734,-1131.25 1734,4 -4,4"/>
<g id="clust1" class="cluster">
<title>cluster_core</title>
<polygon fill="none" stroke="black" points="211,-410.25 211,-1119.25 1693,-1119.25 1693,-410.25 211,-410.25"/>
<text xml:space="preserve" text-anchor="middle" x="952" y="-417.45" font-family="Courier New" font-size="14.00">Core Classes</text>
</g>
<g id="clust3" class="cluster">
<title>cluster_utils</title>
<polygon fill="none" stroke="black" points="8,-98.75 8,-279.75 257,-279.75 257,-98.75 8,-98.75"/>
<text xml:space="preserve" text-anchor="middle" x="132.5" y="-105.95" font-family="Courier New" font-size="14.00">Coordinates Classes</text>
</g>
<g id="clust4" class="cluster">
<title>cluster_solutions</title>
<polygon fill="none" stroke="black" points="278,-16.25 278,-362.25 668,-362.25 668,-16.25 278,-16.25"/>
<text xml:space="preserve" text-anchor="middle" x="473" y="-23.45" font-family="Courier New" font-size="14.00">Solution Classes</text>
</g>
<g id="clust5" class="cluster">
<title>cluster_forcing</title>
<polygon fill="none" stroke="black" points="687,-107 687,-271.5 1062,-271.5 1062,-107 687,-107"/>
<text xml:space="preserve" text-anchor="middle" x="874.5" y="-114.2" font-family="Courier New" font-size="14.00">Forcing Classes</text>
</g>
<g id="clust6" class="cluster">
<title>cluster_substitutions</title>
<polygon fill="none" stroke="black" points="1082,-32.75 1082,-345.75 1438,-345.75 1438,-32.75 1082,-32.75"/>
<text xml:space="preserve" text-anchor="middle" x="1260" y="-39.95" font-family="Courier New" font-size="14.00">Substitution Classes</text>
</g>
<g id="clust7" class="cluster">
<title>cluster_stability</title>
<polygon fill="none" stroke="black" points="1458,-8 1458,-370.5 1722,-370.5 1722,-8 1458,-8"/>
<text xml:space="preserve" text-anchor="middle" x="1590" y="-15.2" font-family="Courier New" font-size="14.00">Stability Analysis</text>
</g>
<!-- OSCILATE.MMS.MMS.Dynamical_system -->
<g id="node1" class="node">
<title>OSCILATE.MMS.MMS.Dynamical_system</title>
<polygon fill="lightblue" stroke="black" points="651,-699 651,-855 799,-855 799,-699 651,-699"/>
<text xml:space="preserve" text-anchor="start" x="659" y="-837.7" font-family="Courier New" font-size="14.00">Dynamical_system</text>
<polyline fill="none" stroke="black" points="651,-830.5 799,-830.5"/>
<text xml:space="preserve" text-anchor="start" x="671.38" y="-813.2" font-family="Courier New" font-size="14.00">Eq : list</text>
<text xml:space="preserve" text-anchor="start" x="671.38" y="-796.7" font-family="Courier New" font-size="14.00">forcing</text>
<text xml:space="preserve" text-anchor="start" x="671.38" y="-780.2" font-family="Courier New" font-size="14.00">ndof : int</text>
<text xml:space="preserve" text-anchor="start" x="671.38" y="-763.7" font-family="Courier New" font-size="14.00">omegas : list</text>
<text xml:space="preserve" text-anchor="start" x="671.38" y="-747.2" font-family="Courier New" font-size="14.00">t</text>
<text xml:space="preserve" text-anchor="start" x="671.38" y="-730.7" font-family="Courier New" font-size="14.00">x : list</text>
<polyline fill="none" stroke="black" points="651,-723.5 799,-723.5"/>
<text xml:space="preserve" text-anchor="start" x="720.88" y="-706.2" font-family="Courier New" font-size="14.00"> </text>
</g>
<!-- OSCILATE.MMS.MMS.Multiple_scales_system -->
<g id="node2" class="node">
<title>OSCILATE.MMS.MMS.Multiple_scales_system</title>
<polygon fill="lightblue" stroke="black" points="219.25,-443.25 219.25,-1110.75 614.75,-1110.75 614.75,-443.25 219.25,-443.25"/>
<text xml:space="preserve" text-anchor="start" x="326.25" y="-1093.45" font-family="Courier New" font-size="14.00">Multiple_scales_system</text>
<polyline fill="none" stroke="black" points="219.25,-1086.25 614.75,-1086.25"/>
<text xml:space="preserve" text-anchor="start" x="334.5" y="-1068.95" font-family="Courier New" font-size="14.00">EqMMS : list</text>
<text xml:space="preserve" text-anchor="start" x="334.5" y="-1052.45" font-family="Courier New" font-size="14.00">EqMMS_t0 : list</text>
<text xml:space="preserve" text-anchor="start" x="334.5" y="-1035.95" font-family="Courier New" font-size="14.00">Ne</text>
<text xml:space="preserve" text-anchor="start" x="334.5" y="-1019.45" font-family="Courier New" font-size="14.00">coord</text>
<text xml:space="preserve" text-anchor="start" x="334.5" y="-1002.95" font-family="Courier New" font-size="14.00">detunings</text>
<text xml:space="preserve" text-anchor="start" x="334.5" y="-986.45" font-family="Courier New" font-size="14.00">eps</text>
<text xml:space="preserve" text-anchor="start" x="334.5" y="-969.95" font-family="Courier New" font-size="14.00">eps_pow_0 : int</text>
<text xml:space="preserve" text-anchor="start" x="334.5" y="-953.45" font-family="Courier New" font-size="14.00">forcing</text>
<text xml:space="preserve" text-anchor="start" x="334.5" y="-936.95" font-family="Courier New" font-size="14.00">ndof</text>
<text xml:space="preserve" text-anchor="start" x="334.5" y="-920.45" font-family="Courier New" font-size="14.00">omega : str, tuple</text>
<text xml:space="preserve" text-anchor="start" x="334.5" y="-903.95" font-family="Courier New" font-size="14.00">omegaMMS</text>
<text xml:space="preserve" text-anchor="start" x="334.5" y="-887.45" font-family="Courier New" font-size="14.00">omega_ref</text>
<text xml:space="preserve" text-anchor="start" x="334.5" y="-870.95" font-family="Courier New" font-size="14.00">omegas</text>
<text xml:space="preserve" text-anchor="start" x="334.5" y="-854.45" font-family="Courier New" font-size="14.00">omegas_O0 : list</text>
<text xml:space="preserve" text-anchor="start" x="334.5" y="-837.95" font-family="Courier New" font-size="14.00">ratio_omegaMMS : int</text>
<text xml:space="preserve" text-anchor="start" x="334.5" y="-821.45" font-family="Courier New" font-size="14.00">ratio_omega_osc</text>
<text xml:space="preserve" text-anchor="start" x="334.5" y="-804.95" font-family="Courier New" font-size="14.00">sigma : str, tuple</text>
<text xml:space="preserve" text-anchor="start" x="334.5" y="-788.45" font-family="Courier New" font-size="14.00">sol</text>
<text xml:space="preserve" text-anchor="start" x="334.5" y="-771.95" font-family="Courier New" font-size="14.00">sub</text>
<text xml:space="preserve" text-anchor="start" x="334.5" y="-755.45" font-family="Courier New" font-size="14.00">t</text>
<text xml:space="preserve" text-anchor="start" x="334.5" y="-738.95" font-family="Courier New" font-size="14.00">tS : list</text>
<text xml:space="preserve" text-anchor="start" x="334.5" y="-722.45" font-family="Courier New" font-size="14.00">xMMS : list</text>
<text xml:space="preserve" text-anchor="start" x="334.5" y="-705.95" font-family="Courier New" font-size="14.00">xMMS_t0 : list</text>
<polyline fill="none" stroke="black" points="219.25,-698.75 614.75,-698.75"/>
<text xml:space="preserve" text-anchor="start" x="227.25" y="-681.45" font-family="Courier New" font-size="14.00">apply_MMS(rewrite_polar)</text>
<text xml:space="preserve" text-anchor="start" x="227.25" y="-664.95" font-family="Courier New" font-size="14.00">asymptotic_series(dynamical_system, eps_pow_0)</text>
<text xml:space="preserve" text-anchor="start" x="227.25" y="-648.45" font-family="Courier New" font-size="14.00">autonomous_phases()</text>
<text xml:space="preserve" text-anchor="start" x="227.25" y="-631.95" font-family="Courier New" font-size="14.00">compute_EqMMS(dynamical_system)</text>
<text xml:space="preserve" text-anchor="start" x="227.25" y="-615.45" font-family="Courier New" font-size="14.00">evolution_equations()</text>
<text xml:space="preserve" text-anchor="start" x="227.25" y="-598.95" font-family="Courier New" font-size="14.00">find_harmonics()</text>
<text xml:space="preserve" text-anchor="start" x="227.25" y="-582.45" font-family="Courier New" font-size="14.00">forcing_MMS(dynamical_system)</text>
<text xml:space="preserve" text-anchor="start" x="227.25" y="-565.95" font-family="Courier New" font-size="14.00">oscillators_frequencies()</text>
<text xml:space="preserve" text-anchor="start" x="227.25" y="-549.45" font-family="Courier New" font-size="14.00">polar_coordinates()</text>
<text xml:space="preserve" text-anchor="start" x="227.25" y="-532.95" font-family="Courier New" font-size="14.00">secular_analysis()</text>
<text xml:space="preserve" text-anchor="start" x="227.25" y="-516.45" font-family="Courier New" font-size="14.00">sol_higher_order(EqMMS_t0, xMMS_t0, io, ix)</text>
<text xml:space="preserve" text-anchor="start" x="227.25" y="-499.95" font-family="Courier New" font-size="14.00">sol_order_0()</text>
<text xml:space="preserve" text-anchor="start" x="227.25" y="-483.45" font-family="Courier New" font-size="14.00">sol_xMMS_polar(rewrite_polar)</text>
<text xml:space="preserve" text-anchor="start" x="227.25" y="-466.95" font-family="Courier New" font-size="14.00">system_t0()</text>
<text xml:space="preserve" text-anchor="start" x="227.25" y="-450.45" font-family="Courier New" font-size="14.00">time_scales()</text>
</g>
<!-- OSCILATE.MMS.MMS.Steady_state -->
<g id="node3" class="node">
<title>OSCILATE.MMS.MMS.Steady_state</title>
<polygon fill="lightblue" stroke="black" points="835.38,-492.75 835.38,-1061.25 1684.62,-1061.25 1684.62,-492.75 835.38,-492.75"/>
<text xml:space="preserve" text-anchor="start" x="1210.5" y="-1043.95" font-family="Courier New" font-size="14.00">Steady_state</text>
<polyline fill="none" stroke="black" points="835.38,-1036.75 1684.62,-1036.75"/>
<text xml:space="preserve" text-anchor="start" x="1198.12" y="-1019.45" font-family="Courier New" font-size="14.00">coord</text>
<text xml:space="preserve" text-anchor="start" x="1198.12" y="-1002.95" font-family="Courier New" font-size="14.00">eps</text>
<text xml:space="preserve" text-anchor="start" x="1198.12" y="-986.45" font-family="Courier New" font-size="14.00">forcing</text>
<text xml:space="preserve" text-anchor="start" x="1198.12" y="-969.95" font-family="Courier New" font-size="14.00">ndof</text>
<text xml:space="preserve" text-anchor="start" x="1198.12" y="-953.45" font-family="Courier New" font-size="14.00">omegaMMS</text>
<text xml:space="preserve" text-anchor="start" x="1198.12" y="-936.95" font-family="Courier New" font-size="14.00">omega_ref</text>
<text xml:space="preserve" text-anchor="start" x="1198.12" y="-920.45" font-family="Courier New" font-size="14.00">ratio_omegaMMS</text>
<text xml:space="preserve" text-anchor="start" x="1198.12" y="-903.95" font-family="Courier New" font-size="14.00">ratio_omega_osc</text>
<text xml:space="preserve" text-anchor="start" x="1198.12" y="-887.45" font-family="Courier New" font-size="14.00">sigma</text>
<text xml:space="preserve" text-anchor="start" x="1198.12" y="-870.95" font-family="Courier New" font-size="14.00">sol</text>
<text xml:space="preserve" text-anchor="start" x="1198.12" y="-854.45" font-family="Courier New" font-size="14.00">stab</text>
<text xml:space="preserve" text-anchor="start" x="1198.12" y="-837.95" font-family="Courier New" font-size="14.00">sub</text>
<polyline fill="none" stroke="black" points="835.38,-830.75 1684.62,-830.75"/>
<text xml:space="preserve" text-anchor="start" x="843.38" y="-813.45" font-family="Courier New" font-size="14.00">Jacobian_cartesian()</text>
<text xml:space="preserve" text-anchor="start" x="843.38" y="-796.95" font-family="Courier New" font-size="14.00">Jacobian_polar()</text>
<text xml:space="preserve" text-anchor="start" x="843.38" y="-780.45" font-family="Courier New" font-size="14.00">additional_cartesian_substitutions(fp, fq)</text>
<text xml:space="preserve" text-anchor="start" x="843.38" y="-763.95" font-family="Courier New" font-size="14.00">bifurcation_curves(detJ, trJ, var_a, var_sig, solver)</text>
<text xml:space="preserve" text-anchor="start" x="843.38" y="-747.45" font-family="Courier New" font-size="14.00">cartesian_coordinates()</text>
<text xml:space="preserve" text-anchor="start" x="843.38" y="-730.95" font-family="Courier New" font-size="14.00">check_cartesian_substitutions(a, beta, fp, fq)</text>
<text xml:space="preserve" text-anchor="start" x="843.38" y="-714.45" font-family="Courier New" font-size="14.00">eigenvalues(A, detA, trA)</text>
<text xml:space="preserve" text-anchor="start" x="843.38" y="-697.95" font-family="Courier New" font-size="14.00">evolution_equations_SS(mms)</text>
<text xml:space="preserve" text-anchor="start" x="843.38" y="-681.45" font-family="Courier New" font-size="14.00">evolution_equations_cartesian()</text>
<text xml:space="preserve" text-anchor="start" x="843.38" y="-664.95" font-family="Courier New" font-size="14.00">plot_ARC(ARC)</text>
<text xml:space="preserve" text-anchor="start" x="843.38" y="-648.45" font-family="Courier New" font-size="14.00">plot_FRC(FRC)</text>
<text xml:space="preserve" text-anchor="start" x="843.38" y="-631.95" font-family="Courier New" font-size="14.00">polar_coordinates_SS(mms)</text>
<text xml:space="preserve" text-anchor="start" x="843.38" y="-615.45" font-family="Courier New" font-size="14.00">solve_F()</text>
<text xml:space="preserve" text-anchor="start" x="843.38" y="-598.95" font-family="Courier New" font-size="14.00">solve_a()</text>
<text xml:space="preserve" text-anchor="start" x="843.38" y="-582.45" font-family="Courier New" font-size="14.00">solve_bbc(c, solve_dof)</text>
<text xml:space="preserve" text-anchor="start" x="843.38" y="-565.95" font-family="Courier New" font-size="14.00">solve_forced(solve_dof)</text>
<text xml:space="preserve" text-anchor="start" x="843.38" y="-549.45" font-family="Courier New" font-size="14.00">solve_phase()</text>
<text xml:space="preserve" text-anchor="start" x="843.38" y="-532.95" font-family="Courier New" font-size="14.00">solve_sigma()</text>
<text xml:space="preserve" text-anchor="start" x="843.38" y="-516.45" font-family="Courier New" font-size="14.00">stability_analysis(coord, rewrite_polar, eigenvalues, bifurcation_curves, analyse_blocks, kwargs_bif)</text>
<text xml:space="preserve" text-anchor="start" x="843.38" y="-499.95" font-family="Courier New" font-size="14.00">substitution_solve_dof(solve_dof)</text>
</g>
<!-- OSCILATE.MMS.MMS.Coord_MMS -->
<g id="node4" class="node">
<title>OSCILATE.MMS.MMS.Coord_MMS</title>
<polygon fill="lightgreen" stroke="black" points="15.88,-131.75 15.88,-271.25 106.12,-271.25 106.12,-131.75 15.88,-131.75"/>
<text xml:space="preserve" text-anchor="start" x="23.88" y="-253.95" font-family="Courier New" font-size="14.00">Coord_MMS</text>
<polyline fill="none" stroke="black" points="15.88,-246.75 106.12,-246.75"/>
<text xml:space="preserve" text-anchor="start" x="28" y="-229.45" font-family="Courier New" font-size="14.00">A : list</text>
<text xml:space="preserve" text-anchor="start" x="28" y="-212.95" font-family="Courier New" font-size="14.00">B : list</text>
<text xml:space="preserve" text-anchor="start" x="28" y="-196.45" font-family="Courier New" font-size="14.00">a</text>
<text xml:space="preserve" text-anchor="start" x="28" y="-179.95" font-family="Courier New" font-size="14.00">beta</text>
<text xml:space="preserve" text-anchor="start" x="28" y="-163.45" font-family="Courier New" font-size="14.00">phi</text>
<polyline fill="none" stroke="black" points="15.88,-156.25 106.12,-156.25"/>
<text xml:space="preserve" text-anchor="start" x="56.88" y="-138.95" font-family="Courier New" font-size="14.00"> </text>
</g>
<!-- OSCILATE.MMS.MMS.Coord_MMS&#45;&gt;OSCILATE.MMS.MMS.Multiple_scales_system -->
<g id="edge1" class="edge">
<title>OSCILATE.MMS.MMS.Coord_MMS&#45;&gt;OSCILATE.MMS.MMS.Multiple_scales_system</title>
<path fill="none" stroke="gray" d="M82.8,-271.72C93.72,-302.75 108.2,-339.31 125,-370.5 150.38,-417.62 180.48,-465.58 211.56,-511.24"/>
<polygon fill="gray" stroke="gray" points="211.55,-511.22 218.24,-513.91 218.33,-521.12 211.64,-518.43 211.55,-511.22"/>
<text xml:space="preserve" text-anchor="middle" x="153.01" y="-392.75" font-family="Courier New" font-size="10.00" fill="green">coord</text>
</g>
<!-- OSCILATE.MMS.MMS.Coord_SS -->
<g id="node5" class="node">
<title>OSCILATE.MMS.MMS.Coord_SS</title>
<polygon fill="lightgreen" stroke="black" points="142.62,-140 142.62,-263 249.38,-263 249.38,-140 142.62,-140"/>
<text xml:space="preserve" text-anchor="start" x="163" y="-245.7" font-family="Courier New" font-size="14.00">Coord_SS</text>
<polyline fill="none" stroke="black" points="142.62,-238.5 249.38,-238.5"/>
<text xml:space="preserve" text-anchor="start" x="150.62" y="-221.2" font-family="Courier New" font-size="14.00">a : list</text>
<text xml:space="preserve" text-anchor="start" x="150.62" y="-204.7" font-family="Courier New" font-size="14.00">beta : list</text>
<text xml:space="preserve" text-anchor="start" x="150.62" y="-188.2" font-family="Courier New" font-size="14.00">p</text>
<text xml:space="preserve" text-anchor="start" x="150.62" y="-171.7" font-family="Courier New" font-size="14.00">q</text>
<polyline fill="none" stroke="black" points="142.62,-164.5 249.38,-164.5"/>
<text xml:space="preserve" text-anchor="start" x="191.88" y="-147.2" font-family="Courier New" font-size="14.00"> </text>
</g>
<!-- OSCILATE.MMS.MMS.Coord_SS&#45;&gt;OSCILATE.MMS.MMS.Steady_state -->
<g id="edge2" class="edge">
<title>OSCILATE.MMS.MMS.Coord_SS&#45;&gt;OSCILATE.MMS.MMS.Steady_state</title>
<path fill="none" stroke="gray" d="M205.73,-263.41C215.16,-300.93 233.52,-346.32 269,-370.5 318.15,-404 748.53,-368.03 804,-389.5 862.98,-412.33 919.71,-446.19 971.93,-484.53"/>
<polygon fill="gray" stroke="gray" points="971.97,-484.56 979.17,-484.93 981.6,-491.72 974.39,-491.35 971.97,-484.56"/>
<text xml:space="preserve" text-anchor="middle" x="848.53" y="-392.75" font-family="Courier New" font-size="10.00" fill="green">coord</text>
</g>
<!-- OSCILATE.MMS.MMS.Sol_MMS -->
<g id="node6" class="node">
<title>OSCILATE.MMS.MMS.Sol_MMS</title>
<polygon fill="pink" stroke="black" points="285.88,-98.75 285.88,-304.25 442.12,-304.25 442.12,-98.75 285.88,-98.75"/>
<text xml:space="preserve" text-anchor="start" x="335.12" y="-286.95" font-family="Courier New" font-size="14.00">Sol_MMS</text>
<polyline fill="none" stroke="black" points="285.88,-279.75 442.12,-279.75"/>
<text xml:space="preserve" text-anchor="start" x="293.88" y="-262.45" font-family="Courier New" font-size="14.00">DA : list</text>
<text xml:space="preserve" text-anchor="start" x="293.88" y="-245.95" font-family="Courier New" font-size="14.00">fa</text>
<text xml:space="preserve" text-anchor="start" x="293.88" y="-229.45" font-family="Courier New" font-size="14.00">faO</text>
<text xml:space="preserve" text-anchor="start" x="293.88" y="-212.95" font-family="Courier New" font-size="14.00">fbeta</text>
<text xml:space="preserve" text-anchor="start" x="293.88" y="-196.45" font-family="Courier New" font-size="14.00">fbetaO</text>
<text xml:space="preserve" text-anchor="start" x="293.88" y="-179.95" font-family="Courier New" font-size="14.00">sec : list</text>
<text xml:space="preserve" text-anchor="start" x="293.88" y="-163.45" font-family="Courier New" font-size="14.00">x</text>
<text xml:space="preserve" text-anchor="start" x="293.88" y="-146.95" font-family="Courier New" font-size="14.00">xMMS</text>
<text xml:space="preserve" text-anchor="start" x="293.88" y="-130.45" font-family="Courier New" font-size="14.00">xMMS_polar : list</text>
<polyline fill="none" stroke="black" points="285.88,-123.25 442.12,-123.25"/>
<text xml:space="preserve" text-anchor="start" x="359.88" y="-105.95" font-family="Courier New" font-size="14.00"> </text>
</g>
<!-- OSCILATE.MMS.MMS.Sol_MMS&#45;&gt;OSCILATE.MMS.MMS.Multiple_scales_system -->
<g id="edge6" class="edge">
<title>OSCILATE.MMS.MMS.Sol_MMS&#45;&gt;OSCILATE.MMS.MMS.Multiple_scales_system</title>
<path fill="none" stroke="gray" d="M373.44,-304.7C376.82,-341.2 380.83,-384.64 385.04,-430.15"/>
<polygon fill="gray" stroke="gray" points="385.04,-430.19 389.58,-435.8 386.15,-442.14 381.61,-436.53 385.04,-430.19"/>
<text xml:space="preserve" text-anchor="middle" x="390.9" y="-392.75" font-family="Courier New" font-size="10.00" fill="green">sol</text>
</g>
<!-- OSCILATE.MMS.MMS.Sol_SS -->
<g id="node7" class="node">
<title>OSCILATE.MMS.MMS.Sol_SS</title>
<polygon fill="pink" stroke="black" points="478.5,-49.25 478.5,-353.75 659.5,-353.75 659.5,-49.25 478.5,-49.25"/>
<text xml:space="preserve" text-anchor="start" x="544.25" y="-336.45" font-family="Courier New" font-size="14.00">Sol_SS</text>
<polyline fill="none" stroke="black" points="478.5,-329.25 659.5,-329.25"/>
<text xml:space="preserve" text-anchor="start" x="486.5" y="-311.95" font-family="Courier New" font-size="14.00">F : NoneType</text>
<text xml:space="preserve" text-anchor="start" x="486.5" y="-295.45" font-family="Courier New" font-size="14.00">cos_phase : tuple</text>
<text xml:space="preserve" text-anchor="start" x="486.5" y="-278.95" font-family="Courier New" font-size="14.00">fa : list</text>
<text xml:space="preserve" text-anchor="start" x="486.5" y="-262.45" font-family="Courier New" font-size="14.00">faO : list</text>
<text xml:space="preserve" text-anchor="start" x="486.5" y="-245.95" font-family="Courier New" font-size="14.00">fbeta : list</text>
<text xml:space="preserve" text-anchor="start" x="486.5" y="-229.45" font-family="Courier New" font-size="14.00">fbetaO : list</text>
<text xml:space="preserve" text-anchor="start" x="486.5" y="-212.95" font-family="Courier New" font-size="14.00">fp : list</text>
<text xml:space="preserve" text-anchor="start" x="486.5" y="-196.45" font-family="Courier New" font-size="14.00">fq : list</text>
<text xml:space="preserve" text-anchor="start" x="486.5" y="-179.95" font-family="Courier New" font-size="14.00">omega_bbc</text>
<text xml:space="preserve" text-anchor="start" x="486.5" y="-163.45" font-family="Courier New" font-size="14.00">sigma</text>
<text xml:space="preserve" text-anchor="start" x="486.5" y="-146.95" font-family="Courier New" font-size="14.00">sigma_bbc</text>
<text xml:space="preserve" text-anchor="start" x="486.5" y="-130.45" font-family="Courier New" font-size="14.00">sin_phase : tuple</text>
<text xml:space="preserve" text-anchor="start" x="486.5" y="-113.95" font-family="Courier New" font-size="14.00">sol_a2 : NoneType</text>
<text xml:space="preserve" text-anchor="start" x="486.5" y="-97.45" font-family="Courier New" font-size="14.00">solve_dof : NoneType</text>
<text xml:space="preserve" text-anchor="start" x="486.5" y="-80.95" font-family="Courier New" font-size="14.00">x : list</text>
<polyline fill="none" stroke="black" points="478.5,-73.75 659.5,-73.75"/>
<text xml:space="preserve" text-anchor="start" x="564.88" y="-56.45" font-family="Courier New" font-size="14.00"> </text>
</g>
<!-- OSCILATE.MMS.MMS.Sol_SS&#45;&gt;OSCILATE.MMS.MMS.Steady_state -->
<g id="edge7" class="edge">
<title>OSCILATE.MMS.MMS.Sol_SS&#45;&gt;OSCILATE.MMS.MMS.Steady_state</title>
<path fill="none" stroke="gray" d="M655.73,-353.98C662.7,-360.15 670.12,-365.73 678,-370.5 756.3,-417.85 800.41,-350.1 883,-389.5 932.85,-413.28 979.72,-446.59 1022.34,-483.78"/>
<polygon fill="gray" stroke="gray" points="1022.28,-483.72 1029.43,-484.71 1031.27,-491.68 1024.12,-490.7 1022.28,-483.72"/>
<text xml:space="preserve" text-anchor="middle" x="904.93" y="-392.75" font-family="Courier New" font-size="10.00" fill="green">sol</text>
</g>
<!-- OSCILATE.MMS.MMS.Forcing -->
<g id="node8" class="node">
<title>OSCILATE.MMS.MMS.Forcing</title>
<polygon fill="cyan" stroke="black" points="846.12,-156.5 846.12,-246.5 919.88,-246.5 919.88,-156.5 846.12,-156.5"/>
<text xml:space="preserve" text-anchor="start" x="854.12" y="-229.2" font-family="Courier New" font-size="14.00">Forcing</text>
<polyline fill="none" stroke="black" points="846.12,-222 919.88,-222"/>
<text xml:space="preserve" text-anchor="start" x="874.75" y="-204.7" font-family="Courier New" font-size="14.00">F</text>
<text xml:space="preserve" text-anchor="start" x="874.75" y="-188.2" font-family="Courier New" font-size="14.00">fF</text>
<polyline fill="none" stroke="black" points="846.12,-181 919.88,-181"/>
<text xml:space="preserve" text-anchor="start" x="878.88" y="-163.7" font-family="Courier New" font-size="14.00"> </text>
</g>
<!-- OSCILATE.MMS.MMS.Forcing&#45;&gt;OSCILATE.MMS.MMS.Dynamical_system -->
<g id="edge3" class="edge">
<title>OSCILATE.MMS.MMS.Forcing&#45;&gt;OSCILATE.MMS.MMS.Dynamical_system</title>
<path fill="none" stroke="gray" d="M880.28,-246.91C875.57,-284.89 862.9,-338.35 829,-370.5 804.99,-393.27 778.26,-364.14 757,-389.5 688.42,-471.3 692.51,-600.01 705.56,-686.16"/>
<polygon fill="gray" stroke="gray" points="705.55,-686.07 710.45,-691.36 707.45,-697.92 702.55,-692.63 705.55,-686.07"/>
<text xml:space="preserve" text-anchor="middle" x="778" y="-392.75" font-family="Courier New" font-size="10.00" fill="green">forcing</text>
</g>
<!-- OSCILATE.MMS.MMS.Forcing_MMS -->
<g id="node9" class="node">
<title>OSCILATE.MMS.MMS.Forcing_MMS</title>
<polygon fill="cyan" stroke="black" points="695.5,-140 695.5,-263 810.5,-263 810.5,-140 695.5,-140"/>
<text xml:space="preserve" text-anchor="start" x="707.62" y="-245.7" font-family="Courier New" font-size="14.00">Forcing_MMS</text>
<polyline fill="none" stroke="black" points="695.5,-238.5 810.5,-238.5"/>
<text xml:space="preserve" text-anchor="start" x="703.5" y="-221.2" font-family="Courier New" font-size="14.00">F</text>
<text xml:space="preserve" text-anchor="start" x="703.5" y="-204.7" font-family="Courier New" font-size="14.00">fF</text>
<text xml:space="preserve" text-anchor="start" x="703.5" y="-188.2" font-family="Courier New" font-size="14.00">f_order</text>
<text xml:space="preserve" text-anchor="start" x="703.5" y="-171.7" font-family="Courier New" font-size="14.00">forcing_term</text>
<polyline fill="none" stroke="black" points="695.5,-164.5 810.5,-164.5"/>
<text xml:space="preserve" text-anchor="start" x="748.88" y="-147.2" font-family="Courier New" font-size="14.00"> </text>
</g>
<!-- OSCILATE.MMS.MMS.Forcing_MMS&#45;&gt;OSCILATE.MMS.MMS.Multiple_scales_system -->
<g id="edge4" class="edge">
<title>OSCILATE.MMS.MMS.Forcing_MMS&#45;&gt;OSCILATE.MMS.MMS.Multiple_scales_system</title>
<path fill="none" stroke="gray" d="M740.41,-263.36C729.68,-299.88 710.48,-344.2 677,-370.5 641.08,-398.72 611.42,-360.66 576,-389.5 560.27,-402.3 546.08,-416.92 533.29,-432.79"/>
<polygon fill="gray" stroke="gray" points="533.4,-432.64 532.89,-439.84 526.05,-442.12 526.57,-434.93 533.4,-432.64"/>
<text xml:space="preserve" text-anchor="middle" x="597" y="-392.75" font-family="Courier New" font-size="10.00" fill="green">forcing</text>
</g>
<!-- OSCILATE.MMS.MMS.Forcing_SS -->
<g id="node10" class="node">
<title>OSCILATE.MMS.MMS.Forcing_SS</title>
<polygon fill="cyan" stroke="black" points="955.75,-156.5 955.75,-246.5 1054.25,-246.5 1054.25,-156.5 955.75,-156.5"/>
<text xml:space="preserve" text-anchor="start" x="963.75" y="-229.2" font-family="Courier New" font-size="14.00">Forcing_SS</text>
<polyline fill="none" stroke="black" points="955.75,-222 1054.25,-222"/>
<text xml:space="preserve" text-anchor="start" x="976.12" y="-204.7" font-family="Courier New" font-size="14.00">F</text>
<text xml:space="preserve" text-anchor="start" x="976.12" y="-188.2" font-family="Courier New" font-size="14.00">f_order</text>
<polyline fill="none" stroke="black" points="955.75,-181 1054.25,-181"/>
<text xml:space="preserve" text-anchor="start" x="1000.88" y="-163.7" font-family="Courier New" font-size="14.00"> </text>
</g>
<!-- OSCILATE.MMS.MMS.Forcing_SS&#45;&gt;OSCILATE.MMS.MMS.Steady_state -->
<g id="edge5" class="edge">
<title>OSCILATE.MMS.MMS.Forcing_SS&#45;&gt;OSCILATE.MMS.MMS.Steady_state</title>
<path fill="none" stroke="gray" d="M1022.33,-246.95C1035.74,-280.96 1055.01,-328.92 1073,-370.5 1088.52,-406.37 1105.18,-443.83 1121.92,-480.87"/>
<polygon fill="gray" stroke="gray" points="1121.8,-480.6 1127.92,-484.42 1126.75,-491.53 1120.63,-487.72 1121.8,-480.6"/>
<text xml:space="preserve" text-anchor="middle" x="1103.59" y="-392.75" font-family="Courier New" font-size="10.00" fill="green">forcing</text>
</g>
<!-- OSCILATE.MMS.MMS.Substitutions_MMS -->
<g id="node11" class="node">
<title>OSCILATE.MMS.MMS.Substitutions_MMS</title>
<polygon fill="orange" stroke="black" points="1089.88,-65.75 1089.88,-337.25 1246.12,-337.25 1246.12,-65.75 1089.88,-65.75"/>
<text xml:space="preserve" text-anchor="start" x="1097.88" y="-319.95" font-family="Courier New" font-size="14.00">Substitutions_MMS</text>
<polyline fill="none" stroke="black" points="1089.88,-312.75 1246.12,-312.75"/>
<text xml:space="preserve" text-anchor="start" x="1097.88" y="-295.45" font-family="Courier New" font-size="14.00">sub_A</text>
<text xml:space="preserve" text-anchor="start" x="1097.88" y="-278.95" font-family="Courier New" font-size="14.00">sub_B : list</text>
<text xml:space="preserve" text-anchor="start" x="1097.88" y="-262.45" font-family="Courier New" font-size="14.00">sub_beta</text>
<text xml:space="preserve" text-anchor="start" x="1097.88" y="-245.95" font-family="Courier New" font-size="14.00">sub_omega</text>
<text xml:space="preserve" text-anchor="start" x="1097.88" y="-229.45" font-family="Courier New" font-size="14.00">sub_omegas : list</text>
<text xml:space="preserve" text-anchor="start" x="1097.88" y="-212.95" font-family="Courier New" font-size="14.00">sub_phi</text>
<text xml:space="preserve" text-anchor="start" x="1097.88" y="-196.45" font-family="Courier New" font-size="14.00">sub_scaling</text>
<text xml:space="preserve" text-anchor="start" x="1097.88" y="-179.95" font-family="Courier New" font-size="14.00">sub_scaling_back</text>
<text xml:space="preserve" text-anchor="start" x="1097.88" y="-163.45" font-family="Courier New" font-size="14.00">sub_sigma</text>
<text xml:space="preserve" text-anchor="start" x="1097.88" y="-146.95" font-family="Courier New" font-size="14.00">sub_t</text>
<text xml:space="preserve" text-anchor="start" x="1097.88" y="-130.45" font-family="Courier New" font-size="14.00">sub_x</text>
<text xml:space="preserve" text-anchor="start" x="1097.88" y="-113.95" font-family="Courier New" font-size="14.00">sub_xMMS : list</text>
<text xml:space="preserve" text-anchor="start" x="1097.88" y="-97.45" font-family="Courier New" font-size="14.00">sub_xMMS_t</text>
<polyline fill="none" stroke="black" points="1089.88,-90.25 1246.12,-90.25"/>
<text xml:space="preserve" text-anchor="start" x="1163.88" y="-72.95" font-family="Courier New" font-size="14.00"> </text>
</g>
<!-- OSCILATE.MMS.MMS.Substitutions_MMS&#45;&gt;OSCILATE.MMS.MMS.Multiple_scales_system -->
<g id="edge9" class="edge">
<title>OSCILATE.MMS.MMS.Substitutions_MMS&#45;&gt;OSCILATE.MMS.MMS.Multiple_scales_system</title>
<path fill="none" stroke="gray" d="M1107.88,-337.45C1097.29,-350.37 1085.06,-361.86 1071,-370.5 1038.1,-390.71 762.24,-384.13 724,-389.5 682.92,-395.27 666.5,-385.79 633,-410.25 622.84,-417.67 613.07,-425.73 603.69,-434.3"/>
<polygon fill="gray" stroke="gray" points="603.82,-434.18 602.21,-441.21 595.1,-442.42 596.71,-435.4 603.82,-434.18"/>
<text xml:space="preserve" text-anchor="middle" x="733" y="-392.75" font-family="Courier New" font-size="10.00" fill="green">sub</text>
</g>
<!-- OSCILATE.MMS.MMS.Substitutions_SS -->
<g id="node12" class="node">
<title>OSCILATE.MMS.MMS.Substitutions_SS</title>
<polygon fill="orange" stroke="black" points="1282,-107 1282,-296 1430,-296 1430,-107 1282,-107"/>
<text xml:space="preserve" text-anchor="start" x="1290" y="-278.7" font-family="Courier New" font-size="14.00">Substitutions_SS</text>
<polyline fill="none" stroke="black" points="1282,-271.5 1430,-271.5"/>
<text xml:space="preserve" text-anchor="start" x="1290" y="-254.2" font-family="Courier New" font-size="14.00">sub_B</text>
<text xml:space="preserve" text-anchor="start" x="1290" y="-237.7" font-family="Courier New" font-size="14.00">sub_SS : list</text>
<text xml:space="preserve" text-anchor="start" x="1290" y="-221.2" font-family="Courier New" font-size="14.00">sub_cart : list</text>
<text xml:space="preserve" text-anchor="start" x="1290" y="-204.7" font-family="Courier New" font-size="14.00">sub_free</text>
<text xml:space="preserve" text-anchor="start" x="1290" y="-188.2" font-family="Courier New" font-size="14.00">sub_phase : list</text>
<text xml:space="preserve" text-anchor="start" x="1290" y="-171.7" font-family="Courier New" font-size="14.00">sub_polar : list</text>
<text xml:space="preserve" text-anchor="start" x="1290" y="-155.2" font-family="Courier New" font-size="14.00">sub_scaling_back</text>
<text xml:space="preserve" text-anchor="start" x="1290" y="-138.7" font-family="Courier New" font-size="14.00">sub_solve : list</text>
<polyline fill="none" stroke="black" points="1282,-131.5 1430,-131.5"/>
<text xml:space="preserve" text-anchor="start" x="1351.88" y="-114.2" font-family="Courier New" font-size="14.00"> </text>
</g>
<!-- OSCILATE.MMS.MMS.Substitutions_SS&#45;&gt;OSCILATE.MMS.MMS.Steady_state -->
<g id="edge10" class="edge">
<title>OSCILATE.MMS.MMS.Substitutions_SS&#45;&gt;OSCILATE.MMS.MMS.Steady_state</title>
<path fill="none" stroke="gray" d="M1340.31,-296.24C1331.79,-347.14 1320.73,-413.19 1309.56,-479.91"/>
<polygon fill="gray" stroke="gray" points="1309.61,-479.65 1312.56,-486.22 1307.63,-491.48 1304.67,-484.9 1309.61,-479.65"/>
<text xml:space="preserve" text-anchor="middle" x="1332.58" y="-392.75" font-family="Courier New" font-size="10.00" fill="green">sub</text>
</g>
<!-- OSCILATE.MMS.MMS.Stab_SS -->
<g id="node13" class="node">
<title>OSCILATE.MMS.MMS.Stab_SS</title>
<polygon fill="violet" stroke="black" points="1466.5,-41 1466.5,-362 1713.5,-362 1713.5,-41 1466.5,-41"/>
<text xml:space="preserve" text-anchor="start" x="1561.12" y="-344.7" font-family="Courier New" font-size="14.00">Stab_SS</text>
<polyline fill="none" stroke="black" points="1466.5,-337.5 1713.5,-337.5"/>
<text xml:space="preserve" text-anchor="start" x="1474.5" y="-320.2" font-family="Courier New" font-size="14.00">Jsol : NoneType</text>
<text xml:space="preserve" text-anchor="start" x="1474.5" y="-303.7" font-family="Courier New" font-size="14.00">Jsolc : NoneType</text>
<text xml:space="preserve" text-anchor="start" x="1474.5" y="-287.2" font-family="Courier New" font-size="14.00">analysis_coord : str</text>
<text xml:space="preserve" text-anchor="start" x="1474.5" y="-270.7" font-family="Courier New" font-size="14.00">bif_a</text>
<text xml:space="preserve" text-anchor="start" x="1474.5" y="-254.2" font-family="Courier New" font-size="14.00">bif_sigma</text>
<text xml:space="preserve" text-anchor="start" x="1474.5" y="-237.7" font-family="Courier New" font-size="14.00">blocks : list</text>
<text xml:space="preserve" text-anchor="start" x="1474.5" y="-221.2" font-family="Courier New" font-size="14.00">blocks_bif_a : list</text>
<text xml:space="preserve" text-anchor="start" x="1474.5" y="-204.7" font-family="Courier New" font-size="14.00">blocks_bif_sig : list</text>
<text xml:space="preserve" text-anchor="start" x="1474.5" y="-188.2" font-family="Courier New" font-size="14.00">blocks_det : list</text>
<text xml:space="preserve" text-anchor="start" x="1474.5" y="-171.7" font-family="Courier New" font-size="14.00">blocks_eigvals : list</text>
<text xml:space="preserve" text-anchor="start" x="1474.5" y="-155.2" font-family="Courier New" font-size="14.00">blocks_tr : list</text>
<text xml:space="preserve" text-anchor="start" x="1474.5" y="-138.7" font-family="Courier New" font-size="14.00">det_Jsol : NoneType</text>
<text xml:space="preserve" text-anchor="start" x="1474.5" y="-122.2" font-family="Courier New" font-size="14.00">det_Jsolc : NoneType</text>
<text xml:space="preserve" text-anchor="start" x="1474.5" y="-105.7" font-family="Courier New" font-size="14.00">eigvals : BooleanFalse, list</text>
<text xml:space="preserve" text-anchor="start" x="1474.5" y="-89.2" font-family="Courier New" font-size="14.00">tr_Jsol : NoneType</text>
<text xml:space="preserve" text-anchor="start" x="1474.5" y="-72.7" font-family="Courier New" font-size="14.00">tr_Jsolc</text>
<polyline fill="none" stroke="black" points="1466.5,-65.5 1713.5,-65.5"/>
<text xml:space="preserve" text-anchor="start" x="1585.88" y="-48.2" font-family="Courier New" font-size="14.00"> </text>
</g>
<!-- OSCILATE.MMS.MMS.Stab_SS&#45;&gt;OSCILATE.MMS.MMS.Steady_state -->
<g id="edge8" class="edge">
<title>OSCILATE.MMS.MMS.Stab_SS&#45;&gt;OSCILATE.MMS.MMS.Steady_state</title>
<path fill="none" stroke="gray" d="M1498.08,-362.25C1476.68,-399.44 1453.22,-440.21 1429.64,-481.19"/>
<polygon fill="gray" stroke="gray" points="1429.59,-481.28 1430.06,-488.48 1423.6,-491.68 1423.13,-484.49 1429.59,-481.28"/>
<text xml:space="preserve" text-anchor="middle" x="1490.57" y="-392.75" font-family="Courier New" font-size="10.00" fill="green">stab</text>
</g>
</g>
</svg>
