<?xml version="1.0" encoding="utf-8" standalone="no"?>
<!DOCTYPE svg PUBLIC "-//W3C//DTD SVG 1.1//EN"
  "http://www.w3.org/Graphics/SVG/1.1/DTD/svg11.dtd">
<svg xmlns:xlink="http://www.w3.org/1999/xlink" width="460.8pt" height="345.6pt" viewBox="0 0 460.8 345.6" xmlns="http://www.w3.org/2000/svg" version="1.1">
 <metadata>
  <rdf:RDF xmlns:dc="http://purl.org/dc/elements/1.1/" xmlns:cc="http://creativecommons.org/ns#" xmlns:rdf="http://www.w3.org/1999/02/22-rdf-syntax-ns#">
   <cc:Work>
    <dc:type rdf:resource="http://purl.org/dc/dcmitype/StillImage"/>
    <dc:date>2026-04-03T12:05:03.293080</dc:date>
    <dc:format>image/svg+xml</dc:format>
    <dc:creator>
     <cc:Agent>
      <dc:title>Matplotlib v3.10.6, https://matplotlib.org/</dc:title>
     </cc:Agent>
    </dc:creator>
   </cc:Work>
  </rdf:RDF>
 </metadata>
 <defs>
  <style type="text/css">*{stroke-linejoin: round; stroke-linecap: butt}</style>
 </defs>
 <g id="figure_1">
  <g id="patch_1">
   <path d="M 0 345.6 
L 460.8 345.6 
L 460.8 0 
L 0 0 
z
" style="fill: #ffffff"/>
  </g>
  <g id="axes_1">
   <g id="patch_2">
    <path d="M 57.6 307.584 
L 414.72 307.584 
L 414.72 41.472 
L 57.6 41.472 
z
" style="fill: #ffffff"/>
   </g>
   <g id="matplotlib.axis_1">
    <g id="xtick_1">
     <g id="line2d_1">
      <defs>
       <path id="mffabef8f20" d="M 0 0 
L 0 3.5 
" style="stroke: #000000; stroke-width: 0.8"/>
      </defs>
      <g>
       <use xlink:href="#mffabef8f20" x="95.978781" y="307.584" style="stroke: #000000; stroke-width: 0.8"/>
      </g>
     </g>
     <g id="text_1">
      <!-- −2 -->
      <g transform="translate(88.607687 322.182437) scale(0.1 -0.1)">
       <defs>
        <path id="DejaVuSans-2212" d="M 678 2272 
L 4684 2272 
L 4684 1741 
L 678 1741 
L 678 2272 
z
" transform="scale(0.015625)"/>
        <path id="DejaVuSans-32" d="M 1228 531 
L 3431 531 
L 3431 0 
L 469 0 
L 469 531 
Q 828 903 1448 1529 
Q 2069 2156 2228 2338 
Q 2531 2678 2651 2914 
Q 2772 3150 2772 3378 
Q 2772 3750 2511 3984 
Q 2250 4219 1831 4219 
Q 1534 4219 1204 4116 
Q 875 4013 500 3803 
L 500 4441 
Q 881 4594 1212 4672 
Q 1544 4750 1819 4750 
Q 2544 4750 2975 4387 
Q 3406 4025 3406 3419 
Q 3406 3131 3298 2873 
Q 3191 2616 2906 2266 
Q 2828 2175 2409 1742 
Q 1991 1309 1228 531 
z
" transform="scale(0.015625)"/>
       </defs>
       <use xlink:href="#DejaVuSans-2212"/>
       <use xlink:href="#DejaVuSans-32" transform="translate(83.789062 0)"/>
      </g>
     </g>
    </g>
    <g id="xtick_2">
     <g id="line2d_2">
      <g>
       <use xlink:href="#mffabef8f20" x="152.556737" y="307.584" style="stroke: #000000; stroke-width: 0.8"/>
      </g>
     </g>
     <g id="text_2">
      <!-- −1 -->
      <g transform="translate(145.185643 322.182437) scale(0.1 -0.1)">
       <defs>
        <path id="DejaVuSans-31" d="M 794 531 
L 1825 531 
L 1825 4091 
L 703 3866 
L 703 4441 
L 1819 4666 
L 2450 4666 
L 2450 531 
L 3481 531 
L 3481 0 
L 794 0 
L 794 531 
z
" transform="scale(0.015625)"/>
       </defs>
       <use xlink:href="#DejaVuSans-2212"/>
       <use xlink:href="#DejaVuSans-31" transform="translate(83.789062 0)"/>
      </g>
     </g>
    </g>
    <g id="xtick_3">
     <g id="line2d_3">
      <g>
       <use xlink:href="#mffabef8f20" x="209.134693" y="307.584" style="stroke: #000000; stroke-width: 0.8"/>
      </g>
     </g>
     <g id="text_3">
      <!-- 0 -->
      <g transform="translate(205.953443 322.182437) scale(0.1 -0.1)">
       <defs>
        <path id="DejaVuSans-30" d="M 2034 4250 
Q 1547 4250 1301 3770 
Q 1056 3291 1056 2328 
Q 1056 1369 1301 889 
Q 1547 409 2034 409 
Q 2525 409 2770 889 
Q 3016 1369 3016 2328 
Q 3016 3291 2770 3770 
Q 2525 4250 2034 4250 
z
M 2034 4750 
Q 2819 4750 3233 4129 
Q 3647 3509 3647 2328 
Q 3647 1150 3233 529 
Q 2819 -91 2034 -91 
Q 1250 -91 836 529 
Q 422 1150 422 2328 
Q 422 3509 836 4129 
Q 1250 4750 2034 4750 
z
" transform="scale(0.015625)"/>
       </defs>
       <use xlink:href="#DejaVuSans-30"/>
      </g>
     </g>
    </g>
    <g id="xtick_4">
     <g id="line2d_4">
      <g>
       <use xlink:href="#mffabef8f20" x="265.71265" y="307.584" style="stroke: #000000; stroke-width: 0.8"/>
      </g>
     </g>
     <g id="text_4">
      <!-- 1 -->
      <g transform="translate(262.5314 322.182437) scale(0.1 -0.1)">
       <use xlink:href="#DejaVuSans-31"/>
      </g>
     </g>
    </g>
    <g id="xtick_5">
     <g id="line2d_5">
      <g>
       <use xlink:href="#mffabef8f20" x="322.290606" y="307.584" style="stroke: #000000; stroke-width: 0.8"/>
      </g>
     </g>
     <g id="text_5">
      <!-- 2 -->
      <g transform="translate(319.109356 322.182437) scale(0.1 -0.1)">
       <use xlink:href="#DejaVuSans-32"/>
      </g>
     </g>
    </g>
    <g id="xtick_6">
     <g id="line2d_6">
      <g>
       <use xlink:href="#mffabef8f20" x="378.868562" y="307.584" style="stroke: #000000; stroke-width: 0.8"/>
      </g>
     </g>
     <g id="text_6">
      <!-- 3 -->
      <g transform="translate(375.687312 322.182437) scale(0.1 -0.1)">
       <defs>
        <path id="DejaVuSans-33" d="M 2597 2516 
Q 3050 2419 3304 2112 
Q 3559 1806 3559 1356 
Q 3559 666 3084 287 
Q 2609 -91 1734 -91 
Q 1441 -91 1130 -33 
Q 819 25 488 141 
L 488 750 
Q 750 597 1062 519 
Q 1375 441 1716 441 
Q 2309 441 2620 675 
Q 2931 909 2931 1356 
Q 2931 1769 2642 2001 
Q 2353 2234 1838 2234 
L 1294 2234 
L 1294 2753 
L 1863 2753 
Q 2328 2753 2575 2939 
Q 2822 3125 2822 3475 
Q 2822 3834 2567 4026 
Q 2313 4219 1838 4219 
Q 1578 4219 1281 4162 
Q 984 4106 628 3988 
L 628 4550 
Q 988 4650 1302 4700 
Q 1616 4750 1894 4750 
Q 2613 4750 3031 4423 
Q 3450 4097 3450 3541 
Q 3450 3153 3228 2886 
Q 3006 2619 2597 2516 
z
" transform="scale(0.015625)"/>
       </defs>
       <use xlink:href="#DejaVuSans-33"/>
      </g>
     </g>
    </g>
    <g id="text_7">
     <!-- $x$ -->
     <g transform="translate(233.16 335.860562) scale(0.1 -0.1)">
      <defs>
       <path id="DejaVuSans-Oblique-78" d="M 3841 3500 
L 2234 1784 
L 3219 0 
L 2559 0 
L 1819 1388 
L 531 0 
L -166 0 
L 1556 1844 
L 641 3500 
L 1300 3500 
L 1972 2234 
L 3144 3500 
L 3841 3500 
z
" transform="scale(0.015625)"/>
      </defs>
      <use xlink:href="#DejaVuSans-Oblique-78" transform="translate(0 0.3125)"/>
     </g>
    </g>
   </g>
   <g id="matplotlib.axis_2">
    <g id="ytick_1">
     <g id="line2d_7">
      <defs>
       <path id="mc46a826f53" d="M 0 0 
L -3.5 0 
" style="stroke: #000000; stroke-width: 0.8"/>
      </defs>
      <g>
       <use xlink:href="#mc46a826f53" x="57.6" y="287.106891" style="stroke: #000000; stroke-width: 0.8"/>
      </g>
     </g>
     <g id="text_8">
      <!-- −3 -->
      <g transform="translate(35.857813 290.90611) scale(0.1 -0.1)">
       <use xlink:href="#DejaVuSans-2212"/>
       <use xlink:href="#DejaVuSans-33" transform="translate(83.789062 0)"/>
      </g>
     </g>
    </g>
    <g id="ytick_2">
     <g id="line2d_8">
      <g>
       <use xlink:href="#mc46a826f53" x="57.6" y="246.439366" style="stroke: #000000; stroke-width: 0.8"/>
      </g>
     </g>
     <g id="text_9">
      <!-- −2 -->
      <g transform="translate(35.857813 250.238585) scale(0.1 -0.1)">
       <use xlink:href="#DejaVuSans-2212"/>
       <use xlink:href="#DejaVuSans-32" transform="translate(83.789062 0)"/>
      </g>
     </g>
    </g>
    <g id="ytick_3">
     <g id="line2d_9">
      <g>
       <use xlink:href="#mc46a826f53" x="57.6" y="205.771842" style="stroke: #000000; stroke-width: 0.8"/>
      </g>
     </g>
     <g id="text_10">
      <!-- −1 -->
      <g transform="translate(35.857813 209.57106) scale(0.1 -0.1)">
       <use xlink:href="#DejaVuSans-2212"/>
       <use xlink:href="#DejaVuSans-31" transform="translate(83.789062 0)"/>
      </g>
     </g>
    </g>
    <g id="ytick_4">
     <g id="line2d_10">
      <g>
       <use xlink:href="#mc46a826f53" x="57.6" y="165.104317" style="stroke: #000000; stroke-width: 0.8"/>
      </g>
     </g>
     <g id="text_11">
      <!-- 0 -->
      <g transform="translate(44.2375 168.903536) scale(0.1 -0.1)">
       <use xlink:href="#DejaVuSans-30"/>
      </g>
     </g>
    </g>
    <g id="ytick_5">
     <g id="line2d_11">
      <g>
       <use xlink:href="#mc46a826f53" x="57.6" y="124.436792" style="stroke: #000000; stroke-width: 0.8"/>
      </g>
     </g>
     <g id="text_12">
      <!-- 1 -->
      <g transform="translate(44.2375 128.236011) scale(0.1 -0.1)">
       <use xlink:href="#DejaVuSans-31"/>
      </g>
     </g>
    </g>
    <g id="ytick_6">
     <g id="line2d_12">
      <g>
       <use xlink:href="#mc46a826f53" x="57.6" y="83.769267" style="stroke: #000000; stroke-width: 0.8"/>
      </g>
     </g>
     <g id="text_13">
      <!-- 2 -->
      <g transform="translate(44.2375 87.568486) scale(0.1 -0.1)">
       <use xlink:href="#DejaVuSans-32"/>
      </g>
     </g>
    </g>
    <g id="ytick_7">
     <g id="line2d_13">
      <g>
       <use xlink:href="#mc46a826f53" x="57.6" y="43.101743" style="stroke: #000000; stroke-width: 0.8"/>
      </g>
     </g>
     <g id="text_14">
      <!-- 3 -->
      <g transform="translate(44.2375 46.900962) scale(0.1 -0.1)">
       <use xlink:href="#DejaVuSans-33"/>
      </g>
     </g>
    </g>
    <g id="text_15">
     <!-- $\dot{x}$ -->
     <g transform="translate(29.778125 177.528) rotate(-90) scale(0.1 -0.1)">
      <defs>
       <path id="DejaVuSans-307" d="M -1894 4863 
L -1319 4863 
L -1319 4134 
L -1894 4134 
L -1894 4863 
z
M -1600 3584 
L -1600 3584 
z
" transform="scale(0.015625)"/>
      </defs>
      <use xlink:href="#DejaVuSans-307" transform="translate(62.388672 12.015625)"/>
      <use xlink:href="#DejaVuSans-Oblique-78" transform="translate(0 0.828125)"/>
     </g>
    </g>
   </g>
   <g id="line2d_14">
    <path d="M 237.418285 162.382869 
L 237.587003 164.465203 
L 237.545027 166.586739 
L 237.289183 168.732401 
L 236.817809 170.887186 
L 236.130734 173.03625 
L 235.229267 175.164951 
L 234.116173 177.258875 
L 232.676406 179.471575 
L 231.000428 181.60896 
L 229.097372 183.653375 
L 226.978282 185.587263 
L 224.656102 187.393093 
L 222.145684 189.053318 
L 219.463782 190.550365 
L 216.629058 191.86668 
L 213.662076 192.984838 
L 210.825306 193.826305 
L 207.913972 194.471339 
L 204.948377 194.907612 
L 201.950013 195.123769 
L 198.941444 195.109786 
L 195.94616 194.857335 
L 193.232828 194.411072 
L 190.570041 193.756183 
L 187.977018 192.891655 
L 185.472976 191.818628 
L 183.076921 190.540525 
L 180.80744 189.063111 
L 178.682482 187.394478 
L 176.719147 185.544949 
L 175.088086 183.716959 
L 173.615078 181.760273 
L 172.31039 179.686531 
L 171.183277 177.508201 
L 170.241929 175.238343 
L 169.493428 172.890385 
L 168.943727 170.477894 
L 168.597651 168.014374 
L 168.458901 165.513098 
L 168.53009 162.98696 
L 168.81277 160.448388 
L 169.307479 157.909278 
L 170.013785 155.380982 
L 170.930329 152.874327 
L 172.054869 150.399663 
L 173.384317 147.96694 
L 175.078693 145.350888 
L 177.009956 142.809801 
L 179.17065 140.356113 
L 181.552178 138.002306 
L 184.144786 135.761085 
L 186.937539 133.645524 
L 189.918277 131.669203 
L 193.073569 129.846306 
L 196.388648 128.191681 
L 199.847354 126.720856 
L 203.432072 125.449975 
L 207.12368 124.395667 
L 210.555086 123.639337 
L 214.04114 123.088559 
L 217.564165 122.755615 
L 221.105485 122.652107 
L 224.645498 122.788569 
L 227.813528 123.124074 
L 230.948603 123.666575 
L 234.035018 124.41982 
L 237.056854 125.385792 
L 239.998114 126.564508 
L 242.84288 127.953858 
L 245.575474 129.549508 
L 248.180629 131.344867 
L 250.643658 133.331133 
L 252.950614 135.497415 
L 255.08844 137.830932 
L 257.045104 140.317277 
L 258.809706 142.940739 
L 260.372564 145.684669 
L 261.725273 148.531861 
L 262.860724 151.464941 
L 263.773115 154.466736 
L 264.45791 157.520612 
L 264.911796 160.610747 
L 265.132613 163.722358 
L 265.119264 166.841839 
L 264.871632 169.95684 
L 264.390476 173.056265 
L 263.677347 176.130212 
L 262.734496 179.169858 
L 261.564803 182.16731 
L 260.171709 185.115419 
L 258.559174 188.007594 
L 256.731635 190.83761 
L 254.69399 193.599424 
L 252.451589 196.287007 
L 250.010241 198.894187 
L 247.071954 201.688901 
L 243.905159 204.366943 
L 240.520019 206.918057 
L 236.927593 209.330978 
L 233.139927 211.593242 
L 229.170168 213.691006 
L 225.032678 215.608891 
L 220.743173 217.329873 
L 216.766835 218.694983 
L 212.694949 219.870732 
L 208.542326 220.84146 
L 204.32498 221.590819 
L 200.060171 222.102105 
L 196.244322 222.343267 
L 192.419404 222.371892 
L 188.599967 222.177423 
L 184.801235 221.750403 
L 181.039013 221.082864 
L 177.789808 220.296626 
L 174.592135 219.318854 
L 171.457231 218.148336 
L 168.396354 216.785475 
L 165.420693 215.232393 
L 162.541258 213.492991 
L 159.768779 211.572967 
L 157.113601 209.479781 
L 154.585585 207.222569 
L 152.194011 204.812016 
L 149.947494 202.260169 
L 147.853911 199.580223 
L 145.920338 196.786269 
L 143.914432 193.472459 
L 142.133547 190.051403 
L 140.584097 186.545535 
L 139.271009 182.976726 
L 138.197787 179.365794 
L 137.366587 175.732068 
L 136.778337 172.093055 
L 136.432862 168.464211 
L 136.329027 164.858812 
L 136.464884 161.287947 
L 136.837815 157.760603 
L 137.444668 154.283838 
L 138.281877 150.863032 
L 139.345564 147.502171 
L 140.631624 144.204172 
L 142.135783 140.971194 
L 143.853639 137.804945 
L 145.780685 134.706947 
L 147.912311 131.67876 
L 150.243797 128.72216 
L 153.09957 125.484206 
L 156.195007 122.343218 
L 159.522658 119.303658 
L 163.07471 116.370851 
L 166.842912 113.551072 
L 170.818504 110.851653 
L 174.992128 108.281164 
L 179.35373 105.849645 
L 183.892438 103.568899 
L 188.596417 101.452809 
L 193.452698 99.517648 
L 198.446997 97.78231 
L 202.989496 96.424967 
L 207.616337 95.259531 
L 212.314095 94.304467 
L 217.068067 93.579444 
L 221.261329 93.149805 
L 225.473757 92.925759 
L 229.69294 92.92089 
L 233.905685 93.148138 
L 238.098077 93.619363 
L 241.664328 94.225339 
L 245.195431 95.023558 
L 248.681649 96.018128 
L 252.113072 97.211719 
L 255.4797 98.605398 
L 258.771518 100.198515 
L 261.97859 101.988602 
L 265.091151 103.971334 
L 268.099699 106.140516 
L 270.995089 108.488129 
L 273.768619 111.004416 
L 276.41212 113.678016 
L 278.918026 116.496136 
L 281.279445 119.444765 
L 283.843636 123.02975 
L 286.19434 126.746983 
L 288.324579 130.570811 
L 290.228874 134.475523 
L 291.903239 138.435972 
L 293.345125 142.428159 
L 294.553337 146.429746 
L 295.527931 150.4205 
L 296.27007 154.382624 
L 296.781885 158.300982 
L 297.066306 162.163213 
L 297.126909 165.959721 
L 296.967748 169.683562 
L 296.593213 173.330232 
L 296.007893 176.897382 
L 295.216457 180.384463 
L 294.223567 183.792345 
L 293.033797 187.122916 
L 291.651596 190.378699 
L 290.081252 193.562484 
L 288.061481 197.116453 
L 285.807272 200.583578 
L 283.32433 203.966607 
L 280.618207 207.267224 
L 277.694384 210.485969 
L 274.558341 213.622279 
L 271.21563 216.674608 
L 267.215132 220.005093 
L 262.968645 223.221798 
L 258.484916 226.31929 
L 253.773136 229.291114 
L 248.843029 232.129534 
L 243.704963 234.825047 
L 238.370105 237.365706 
L 232.850639 239.73633 
L 227.160032 241.917714 
L 221.970195 243.678652 
L 216.668925 245.251104 
L 211.269573 246.611709 
L 206.47644 247.607806 
L 201.63089 248.402312 
L 196.745296 248.974876 
L 191.833236 249.304549 
L 187.613027 249.377922 
L 183.394266 249.244654 
L 179.187609 248.892673 
L 175.004292 248.310998 
L 170.856066 247.490103 
L 166.755114 246.42226 
L 162.713957 245.101868 
L 159.40119 243.806239 
L 156.146221 242.332509 
L 152.956472 240.681569 
L 149.839296 238.855707 
L 146.801922 236.858626 
L 143.851396 234.695444 
L 140.434959 231.889625 
L 137.164537 228.867797 
L 134.050552 225.646234 
L 131.102553 222.243453 
L 128.329113 218.679862 
L 125.737744 214.977356 
L 123.334833 211.158865 
L 121.125603 207.247886 
L 119.114095 203.267995 
L 117.303178 199.242371 
L 115.694579 195.193334 
L 114.074383 190.467853 
L 112.729678 185.76961 
L 111.658068 181.125427 
L 110.855711 176.557935 
L 110.317574 172.08529 
L 110.037694 167.721085 
L 110.009446 163.474464 
L 110.225793 159.350402 
L 110.679522 155.350152 
L 111.363437 151.471803 
L 112.270534 147.710929 
L 113.394125 144.061275 
L 114.72792 140.515454 
L 116.266083 137.065598 
L 118.003232 133.703953 
L 119.934427 130.423359 
L 122.055117 127.217635 
L 124.705392 123.639325 
L 127.591748 120.147119 
L 130.708548 116.73805 
L 134.050279 113.411212 
L 137.611432 110.167399 
L 141.386399 107.008651 
L 145.369407 103.93782 
L 150.091511 100.592349 
L 155.060478 97.367401 
L 160.267052 94.268434 
L 165.701538 91.301733 
L 171.353714 88.475253 
L 177.21266 85.799806 
L 183.266495 83.29042 
L 189.502007 80.967695 
L 195.185122 79.081656 
L 200.9879 77.388637 
L 206.896514 75.917397 
L 212.14093 74.837949 
L 217.442132 73.978175 
L 222.786525 73.364231 
L 227.390365 73.054139 
L 232.004361 72.96158 
L 236.617196 73.10316 
L 241.216747 73.494545 
L 245.030288 74.02184 
L 248.817865 74.739749 
L 252.571389 75.654372 
L 256.282544 76.770503 
L 259.942845 78.091475 
L 263.543698 79.619017 
L 267.076475 81.353149 
L 270.532584 83.292098 
L 273.903544 85.432258 
L 277.181063 87.768178 
L 280.357116 90.292587 
L 283.424018 92.996463 
L 286.374494 95.869128 
L 289.201748 98.898388 
L 291.899523 102.070697 
L 294.958004 106.045522 
L 297.813325 110.177967 
L 300.458299 114.439534 
L 302.88719 118.800998 
L 305.095728 123.233054 
L 307.081101 127.706948 
L 308.841911 132.195082 
L 310.378101 136.671575 
L 311.690858 141.112746 
L 312.782489 145.497525 
L 313.656287 149.807762 
L 314.316375 154.028439 
L 314.767548 158.14777 
L 315.01511 162.157201 
L 315.064714 166.051305 
L 314.922211 169.827584 
L 314.593509 173.486188 
L 313.982474 177.609222 
L 313.134912 181.582644 
L 312.059292 185.416203 
L 310.76346 189.121326 
L 309.254565 192.710204 
L 307.539045 196.19496 
L 305.622647 199.586938 
L 303.510494 202.896137 
L 301.207172 206.130824 
L 298.346041 209.744381 
L 295.246369 213.275048 
L 291.913573 216.725903 
L 288.352957 220.09734 
L 284.56987 223.387728 
L 280.569817 226.594128 
L 276.358525 229.712968 
L 271.37577 233.112432 
L 266.142093 236.39151 
L 260.666712 239.545598 
L 254.959196 242.569816 
L 249.029529 245.457855 
L 242.888265 248.200397 
L 236.546834 250.783303 
L 230.01796 253.185835 
L 224.068893 255.146892 
L 217.995084 256.916584 
L 212.588978 258.283117 
L 207.108606 259.453973 
L 201.566193 260.401622 
L 196.776665 261.013823 
L 191.961528 261.420878 
L 187.131549 261.603174 
L 182.298471 261.541432 
L 178.277668 261.290264 
L 174.271325 260.84697 
L 170.287652 260.202638 
L 166.335207 259.349544 
L 162.422841 258.281364 
L 158.559636 256.99338 
L 154.754835 255.48264 
L 151.017764 253.748109 
L 147.357752 251.790771 
L 143.784041 249.613698 
L 140.305704 247.222075 
L 136.93155 244.623185 
L 133.670044 241.826349 
L 130.52922 238.842823 
L 127.516603 235.685654 
L 124.639143 232.3695 
L 121.903143 228.910413 
L 119.314215 225.325596 
L 116.408445 220.883362 
L 113.728391 216.318483 
L 111.279375 211.663796 
L 109.065077 206.951901 
L 107.087563 202.214444 
L 105.347356 197.481442 
L 103.843525 192.780673 
L 102.573817 188.137157 
L 101.534802 183.572736 
L 100.722045 179.105769 
L 100.13028 174.75095 
L 99.7536 170.519245 
L 99.58564 166.417957 
L 99.619758 162.450898 
L 99.849204 158.618665 
L 100.267268 154.919003 
L 100.867419 151.347234 
L 101.643409 147.896739 
L 102.763155 144.013622 
L 104.105666 140.270219 
L 105.663215 136.651513 
L 107.428951 133.14276 
L 109.396853 129.730303 
L 111.561652 126.402202 
L 113.918718 123.148665 
L 116.842655 119.512237 
L 120.006735 115.956349 
L 123.405715 112.477529 
L 127.034474 109.075462 
L 130.887827 105.752179 
L 134.960404 102.511159 
L 139.246574 99.356504 
L 144.316464 95.915766 
L 149.640412 92.594469 
L 155.209282 89.396798 
L 161.013641 86.326663 
L 167.043734 83.388948 
L 173.289348 80.591265 
L 179.739535 77.946006 
L 186.382168 75.472407 
L 192.437116 73.440058 
L 198.62183 71.591237 
L 204.923007 69.958313 
L 210.519821 68.736673 
L 216.181636 67.738725 
L 221.075809 67.085167 
L 225.997593 66.639725 
L 230.93604 66.423376 
L 235.879152 66.456802 
L 239.992619 66.689765 
L 244.092268 67.12059 
L 248.169634 67.758924 
L 252.215877 68.613159 
L 256.221833 69.6902 
L 260.178089 70.995253 
L 264.075051 72.531635 
L 267.903029 74.300624 
L 271.652323 76.301343 
L 275.31332 78.530686 
L 278.876578 80.983291 
L 282.332931 83.651556 
L 285.673573 86.525701 
L 288.890151 89.593885 
L 291.974846 92.842353 
L 294.920449 96.255637 
L 297.720431 99.816783 
L 300.368995 103.507615 
L 302.861124 107.309021 
L 305.639323 111.98885 
L 308.180558 116.764819 
L 310.480883 121.602428 
L 312.538054 126.468091 
L 314.351476 131.329872 
L 315.922096 136.158141 
L 317.252275 140.92615 
L 318.345632 145.610494 
L 319.206869 150.191453 
L 319.841576 154.653206 
L 320.256038 158.983911 
L 320.457033 163.175652 
L 320.451641 167.224274 
L 320.247061 171.129093 
L 319.850449 174.892521 
L 319.268769 178.519611 
L 318.508679 182.017552 
L 317.576433 185.395126 
L 316.278918 189.196654 
L 314.763247 192.864196 
L 313.036769 196.414104 
L 311.105902 199.86172 
L 308.976217 203.220657 
L 306.652553 206.502266 
L 303.76484 210.169156 
L 300.634962 213.755379 
L 297.268128 217.265634 
L 293.669356 220.700992 
L 289.843694 224.059756 
L 285.796365 227.338426 
L 281.532863 230.532655 
L 276.485245 234.01978 
L 271.180022 237.389049 
L 265.626218 240.636182 
L 259.833141 243.757681 
L 253.810369 246.749704 
L 247.567834 249.606344 
L 241.116051 252.317508 
L 234.466526 254.866686 
L 227.632306 257.228939 
L 221.414689 259.143851 
L 215.075888 260.85217 
L 209.44178 262.147777 
L 203.738128 263.227149 
L 198.804156 263.95617 
L 193.838671 264.481854 
L 188.852399 264.782587 
L 183.857146 264.836848 
L 179.696831 264.678755 
L 175.547188 264.323716 
L 171.416657 263.761344 
L 167.314089 262.982448 
L 163.24869 261.979288 
L 159.229953 260.745801 
L 155.267587 259.277803 
L 151.371432 257.573165 
L 147.551371 255.631942 
L 143.817241 253.456466 
L 140.17873 251.051392 
L 136.645284 248.423695 
L 133.22601 245.582624 
L 129.929584 242.539596 
L 126.764161 239.30806 
L 123.737298 235.903304 
L 120.855877 232.342229 
L 118.126047 228.643089 
L 115.55317 224.825203 
L 113.141786 220.90864 
L 110.466433 216.107389 
L 108.033649 211.229126 
L 105.846411 206.308805 
L 103.905977 201.380002 
L 102.211974 196.474198 
L 100.762517 191.62015 
L 99.55436 186.843357 
L 98.583071 182.165656 
L 97.843221 177.604943 
L 97.328588 173.175031 
L 97.032359 168.885643 
L 96.947335 164.742537 
L 97.066123 160.747751 
L 97.381314 156.899955 
L 97.885641 153.194887 
L 98.572113 149.625856 
L 99.434125 146.184289 
L 100.465534 142.860293 
L 101.875472 139.116659 
L 103.500348 135.501291 
L 105.333157 131.997531 
L 107.367832 128.590173 
L 109.599133 125.266114 
L 112.022514 122.014785 
L 115.02217 118.378104 
L 118.262089 114.818878 
L 121.737226 111.333901 
L 125.442634 107.923387 
L 129.373259 104.590021 
L 133.523817 101.337931 
L 138.449121 97.782226 
L 143.637301 94.341359 
L 149.079533 91.020283 
L 154.766672 87.822722 
L 160.689315 84.751915 
L 166.837795 81.812055 
L 173.202028 79.010283 
L 179.771217 76.358956 
L 186.533366 73.877888 
L 192.695035 71.83876 
L 198.986887 69.984484 
L 204.588535 68.540367 
L 210.269026 67.290855 
L 216.01612 66.266219 
L 220.984583 65.591782 
L 225.981636 65.128308 
L 230.996162 64.897765 
L 236.015947 64.921834 
L 240.193572 65.151391 
L 244.357427 65.583362 
L 248.498848 66.227868 
L 252.608776 67.093718 
L 256.677813 68.188157 
L 260.696298 69.516649 
L 264.654382 71.082678 
L 268.542113 72.88759 
L 272.349531 74.930471 
L 276.066762 77.208077 
L 279.684118 79.714801 
L 283.192193 82.442697 
L 286.581961 85.381549 
L 289.844866 88.51899 
L 292.972913 91.840666 
L 295.958742 95.330441 
L 298.7957 98.970646 
L 301.4779 102.742352 
L 304.000265 106.625675 
L 306.810221 111.40408 
L 309.378296 116.277678 
L 311.70062 121.210696 
L 313.775092 126.168374 
L 315.601313 131.117716 
L 317.180476 136.028187 
L 318.515232 140.872296 
L 319.609519 145.626079 
L 320.468383 150.269441 
L 321.097771 154.786378 
L 321.504331 159.165045 
L 321.6952 163.397698 
L 321.677802 167.480502 
L 321.459664 171.41323 
L 321.048241 175.198856 
L 320.450768 178.843079 
L 319.67414 182.353785 
L 318.72481 185.740483 
L 317.406892 189.549017 
L 315.870497 193.220695 
L 314.123113 196.77288 
L 312.171239 200.221799 
L 310.020482 203.581796 
L 307.675676 206.864788 
L 304.763675 210.534154 
L 301.609303 214.124125 
L 298.217678 217.639498 
L 294.593731 221.081259 
L 290.742427 224.447497 
L 286.668931 227.734439 
L 282.378689 230.937467 
L 277.300272 234.434857 
L 271.963469 237.814637 
L 266.377285 241.072578 
L 260.550998 244.205439 
L 254.494128 247.209826 
L 248.216509 250.080403 
L 241.728519 252.807687 
L 235.041474 255.375724 
L 228.168203 257.759971 
L 221.91439 259.697193 
L 215.537819 261.430311 
L 209.869246 262.749404 
L 204.129718 263.853542 
L 199.163825 264.604431 
L 194.165317 265.152162 
L 189.144921 265.474672 
L 184.114472 265.54995 
L 179.924042 265.408411 
L 175.743617 265.068723 
L 171.581694 264.520186 
L 167.447194 263.753306 
L 163.349404 262.760052 
L 159.297911 261.534089 
L 155.302529 260.070994 
L 151.373211 258.368429 
L 147.519965 256.426279 
L 143.752751 254.246751 
L 140.081393 251.834421 
L 136.51547 249.196235 
L 133.064224 246.341463 
L 129.736464 243.281596 
L 126.540474 240.030204 
L 123.483932 236.602745 
L 120.573836 233.016337 
L 117.816438 229.289487 
L 115.217194 225.441803 
L 112.780726 221.493675 
L 110.077057 216.652693 
L 107.617985 211.733265 
L 105.406544 206.770977 
L 103.444016 201.800035 
L 101.730021 196.852527 
L 100.262639 191.95778 
L 99.038559 187.141811 
L 98.053261 182.42691 
L 97.301209 177.831352 
L 96.776053 173.369243 
L 96.470843 169.050517 
L 96.378233 164.881053 
L 96.49068 160.862927 
L 96.800625 156.994764 
L 97.300653 153.272184 
L 97.983635 149.688315 
L 98.842838 146.234348 
L 99.872005 142.900115 
L 101.279908 139.146869 
L 102.903248 135.523916 
L 104.734919 132.014094 
L 106.768777 128.601718 
L 108.999534 125.273252 
L 111.42262 122.017754 
L 114.422237 118.376222 
L 117.662454 114.811751 
L 121.138259 111.320943 
L 124.844745 107.903944 
L 128.776904 104.563461 
L 132.929488 101.303713 
L 137.29695 98.129437 
L 142.459882 94.666083 
L 147.878586 91.321744 
L 153.543969 88.100255 
L 159.446684 85.0047 
L 165.577139 82.038783 
L 171.925382 79.208778 
L 178.480819 76.525814 
L 185.231769 74.008193 
L 191.385971 71.93109 
L 197.6731 70.032445 
L 204.080169 68.34539 
L 209.772686 67.073887 
L 215.533156 66.025028 
L 220.514256 65.328148 
L 225.525106 64.840837 
L 230.554653 64.585273 
L 235.590738 64.583404 
L 239.782948 64.790876 
L 243.962317 65.200561 
L 248.120182 65.822809 
L 252.247477 66.666674 
L 256.33479 67.739658 
L 260.37243 69.047484 
L 264.350511 70.593896 
L 268.259031 72.380494 
L 272.087971 74.406609 
L 275.827389 76.669222 
L 279.467516 79.16293 
L 282.998862 81.879967 
L 286.412305 84.810264 
L 289.699193 87.941568 
L 292.851427 91.259603 
L 295.861542 94.748273 
L 298.722779 98.389908 
L 301.429147 102.165541 
L 303.975464 106.05521 
L 306.3574 110.038281 
L 308.993928 114.911724 
L 311.384492 119.853288 
L 313.526571 124.827621 
L 315.419377 129.800972 
L 317.063758 134.741912 
L 318.462063 139.621951 
L 319.617985 144.416052 
L 320.536378 149.103012 
L 321.223052 153.665717 
L 321.684575 158.091245 
L 321.928052 162.370842 
L 321.960929 166.499756 
L 321.790793 170.476961 
L 321.4252 174.304769 
L 320.871513 177.988364 
L 320.136776 181.535272 
L 319.227609 184.954796 
L 318.150132 188.257433 
L 316.687763 191.977637 
L 315.011766 195.571669 
L 313.129013 199.056469 
L 311.045431 202.447304 
L 308.766121 205.757155 
L 305.927169 209.453761 
L 302.844106 213.068804 
L 299.522149 216.60848 
L 295.966241 220.074887 
L 292.181296 223.466885 
L 288.172388 226.78112 
L 283.944857 230.013077 
L 278.934615 233.544793 
L 273.663348 236.960401 
L 268.139964 240.255286 
L 262.373666 243.426053 
L 256.373894 246.469593 
L 250.150358 249.381444 
L 243.713225 252.15366 
L 237.073457 254.772474 
L 230.243344 257.216054 
L 224.023831 259.215655 
L 217.677027 261.022492 
L 212.030136 262.416988 
L 206.307556 263.607912 
L 200.522089 264.563804 
L 195.524162 265.170506 
L 190.501252 265.557658 
L 185.464912 265.703075 
L 181.2668 265.623936 
L 177.076019 265.349924 
L 172.900937 264.869957 
L 168.750363 264.174074 
L 164.633494 263.253705 
L 160.559851 262.101908 
L 156.539207 260.713598 
L 152.581506 259.085727 
L 148.696773 257.217446 
L 144.89502 255.110206 
L 141.18615 252.76783 
L 137.579858 250.196526 
L 134.085528 247.404855 
L 130.712139 244.403647 
L 127.468176 241.20587 
L 124.361538 237.826457 
L 121.399464 234.282079 
L 118.588465 230.590897 
L 115.934269 226.77227 
L 113.441777 222.846447 
L 110.669862 218.023278 
L 108.141893 213.112042 
L 105.861379 208.148688 
L 103.830052 203.167981 
L 102.047951 198.20275 
L 100.513529 193.283211 
L 99.223809 188.43639 
L 98.174546 183.685669 
L 97.360422 179.050457 
L 96.775254 174.546009 
L 96.412196 170.183372 
L 96.263955 165.969483 
L 96.322988 161.907377 
L 96.581693 157.996523 
L 97.032572 154.233247 
L 97.668383 150.611232 
L 98.482252 147.122066 
L 99.467769 143.755819 
L 100.826658 139.969358 
L 102.402799 136.317539 
L 104.188837 132.782882 
L 106.178406 129.349206 
L 108.366031 126.002363 
L 110.74699 122.730729 
L 113.699554 119.072617 
L 116.893783 115.492624 
L 120.324625 111.986528 
L 123.98718 108.553842 
L 127.87648 105.196864 
L 131.987341 101.919616 
L 136.314282 98.726831 
L 141.433144 95.241606 
L 146.809456 91.874544 
L 152.434179 88.629695 
L 158.298011 85.510171 
L 164.391415 82.519391 
L 170.704528 79.662945 
L 177.226915 76.950853 
L 183.94715 74.39991 
L 190.852221 72.035776 
L 197.132914 70.120033 
L 203.534788 68.412822 
L 209.22395 67.120811 
L 214.982349 66.048513 
L 219.962827 65.329093 
L 224.974242 64.816941 
L 230.005655 64.53427 
L 235.045019 64.503128 
L 239.241117 64.684675 
L 243.425481 65.06719 
L 247.5895 65.661196 
L 251.724146 66.475951 
L 255.820039 67.51919 
L 259.867509 68.796896 
L 263.856681 70.31309 
L 267.77755 72.069666 
L 271.620083 74.066258 
L 275.37431 76.300153 
L 279.030423 78.766251 
L 282.578879 81.45708 
L 286.010492 84.362847 
L 289.316534 87.471558 
L 292.488821 90.769163 
L 295.519793 94.239763 
L 298.40259 97.86585 
L 301.131111 101.628575 
L 303.700064 105.508055 
L 306.105004 109.483689 
L 308.76946 114.351827 
L 311.188121 119.291937 
L 313.358278 124.268483 
L 315.278963 129.247455 
L 316.950863 134.197094 
L 318.376183 139.088527 
L 319.558491 143.896288 
L 320.502537 148.598724 
L 321.214054 153.178253 
L 321.699552 157.621491 
L 321.966105 161.919239 
L 322.021147 166.066331 
L 321.872273 170.061369 
L 321.527063 173.906345 
L 320.992922 177.606183 
L 320.276944 181.168208 
L 319.38581 184.601591 
L 318.325706 187.916758 
L 316.882859 191.64989 
L 315.225679 195.255104 
L 313.361138 198.749499 
L 311.295249 202.148566 
L 309.033183 205.465548 
L 306.213462 209.169317 
L 303.149176 212.79087 
L 299.845573 216.336774 
L 296.307602 219.809435 
L 292.540171 223.207931 
L 288.54833 226.52904 
L 284.337393 229.768291 
L 279.345219 233.308684 
L 274.091354 236.733376 
L 268.584676 240.037643 
L 262.83437 243.218034 
L 256.849857 246.271482 
L 250.640821 249.193715 
L 244.217377 251.977148 
L 237.590409 254.608544 
L 230.772079 257.066748 
L 224.562039 259.081689 
L 218.223594 260.906658 
L 212.582942 262.319736 
L 206.865433 263.53211 
L 201.083694 264.512568 
L 196.087751 265.142921 
L 191.06558 265.556157 
L 186.028612 265.730051 
L 181.828848 265.676393 
L 177.635319 265.429343 
L 173.456335 264.977676 
L 169.300654 264.311257 
L 165.177426 263.421305 
L 161.09614 262.300639 
L 157.066543 260.943906 
L 153.098566 259.347773 
L 149.202235 257.511083 
L 145.387573 255.434977 
L 141.66451 253.122958 
L 138.042779 250.58092 
L 134.531817 247.817117 
L 131.140668 244.84209 
L 127.877891 241.66854 
L 124.751472 238.311158 
L 121.768747 234.786411 
L 118.936332 231.112289 
L 116.260064 227.308023 
L 113.744957 223.393777 
L 110.945355 218.580772 
L 108.389292 213.675653 
L 106.080476 208.714474 
L 104.020834 203.732199 
L 102.210583 198.761929 
L 100.648345 193.834222 
L 99.331288 188.976501 
L 98.255292 184.212585 
L 97.415145 179.562351 
L 96.804742 175.041526 
L 96.417293 170.661627 
L 96.245539 166.430039 
L 96.281948 162.350213 
L 96.518909 158.42199 
L 96.948899 154.642013 
L 97.564634 151.004221 
L 98.35919 147.500394 
L 99.326098 144.120729 
L 100.664082 140.320265 
L 102.220082 136.656215 
L 103.986644 133.110998 
L 105.957311 129.668258 
L 108.126525 126.31361 
L 110.489499 123.035161 
L 113.421966 119.370111 
L 116.596543 115.783704 
L 120.008154 112.271364 
L 123.651896 108.832327 
L 127.522817 105.468701 
L 131.615756 102.184409 
L 135.92526 98.984166 
L 141.025117 95.490111 
L 146.383101 92.113854 
L 151.990197 88.859544 
L 157.837123 85.730325 
L 163.914359 82.729525 
L 170.212077 79.862485 
L 176.7199 77.1388 
L 183.426497 74.574668 
L 190.319004 72.195018 
L 196.589594 70.262871 
L 202.98256 68.536196 
L 208.665081 67.224225 
L 214.418093 66.128916 
L 219.395093 65.387177 
L 224.404209 64.850227 
L 229.434629 64.540266 
L 234.474427 64.479403 
L 238.672063 64.634421 
L 242.859104 64.988931 
L 247.026997 65.553613 
L 251.166766 66.337916 
L 255.269072 67.349802 
L 259.32428 68.595505 
L 263.322532 70.079328 
L 267.253836 71.803463 
L 271.108154 73.767857 
L 274.875499 75.97012 
L 278.546034 78.405476 
L 282.11017 81.066769 
L 285.558666 83.944515 
L 288.882724 87.027004 
L 292.074078 90.300452 
L 295.12508 93.749192 
L 298.028767 97.355912 
L 300.778931 101.101923 
L 303.370168 104.967456 
L 305.797915 108.931983 
L 308.490262 113.790569 
L 310.93719 118.725205 
L 313.135788 123.700218 
L 315.084898 128.681377 
L 316.785026 133.636626 
L 318.238214 138.536726 
L 319.447888 143.3558 
L 320.418676 148.071739 
L 321.156215 152.666489 
L 321.666939 157.126188 
L 321.957872 161.441167 
L 322.036421 165.605817 
L 321.910175 169.618334 
L 321.586727 173.480352 
L 321.073511 177.196492 
L 320.377667 180.773844 
L 319.505926 184.221401 
L 318.464537 187.549486 
L 317.042751 191.296043 
L 315.4059 194.912944 
L 313.561052 198.417409 
L 311.51431 201.825125 
L 309.270921 205.149581 
L 306.835421 208.401634 
L 303.821844 212.039781 
L 300.567879 215.601281 
L 297.078515 219.089354 
L 293.35865 222.503694 
L 289.413291 225.841471 
L 285.247689 229.09839 
L 280.305064 232.659835 
L 275.099125 236.106625 
L 269.638683 239.433764 
L 263.932871 242.637608 
L 257.991068 245.715124 
L 251.8229 248.662418 
L 245.43838 251.472703 
L 238.848215 254.133981 
L 232.064277 256.626738 
L 225.882448 258.67787 
L 219.569582 260.545695 
L 213.139029 262.195894 
L 207.428157 263.429324 
L 201.651732 264.434003 
L 196.659149 265.087785 
L 191.6391 265.526969 
L 186.602891 265.729318 
L 182.40263 265.701226 
L 178.207503 265.48133 
L 174.025757 265.058277 
L 169.866091 264.421763 
L 165.737608 263.562804 
L 161.649753 262.473987 
L 157.612245 261.149695 
L 153.634995 259.586306 
L 149.728023 257.782361 
L 145.901359 255.738678 
L 142.164954 253.458437 
L 138.528573 250.947205 
L 135.0017 248.212919 
L 131.593441 245.265814 
L 128.312427 242.118309 
L 125.166727 238.784836 
L 122.163773 235.281635 
L 119.310281 231.626508 
L 116.612198 227.838537 
L 114.074656 223.937779 
L 111.247477 219.137175 
L 108.66332 214.240318 
L 106.326099 209.283342 
L 104.237939 204.301377 
L 102.399247 199.327779 
L 100.808819 194.393431 
L 99.46398 189.526143 
L 98.360745 184.750168 
L 97.494017 180.085845 
L 96.857778 175.54938 
L 96.445307 171.15277 
L 96.249384 166.903862 
L 96.262497 162.806541 
L 96.477035 158.861037 
L 96.885455 155.064332 
L 97.480439 151.410643 
L 98.255015 147.891965 
L 99.202656 144.498644 
L 100.518982 140.683864 
L 102.054109 137.007259 
L 103.800483 133.451173 
L 105.751551 129.999089 
L 107.901673 126.6364 
L 110.245993 123.35095 
L 113.157611 119.678816 
L 116.31179 116.085912 
L 119.703427 112.567299 
L 123.327616 109.121922 
L 127.179415 105.751684 
L 131.253686 102.460398 
L 135.545002 99.252747 
L 140.625007 95.749909 
L 145.963813 92.364495 
L 151.552431 89.100757 
L 157.381594 85.961882 
L 163.441805 82.951124 
L 169.723263 80.073595 
L 176.215646 77.338479 
L 182.907715 74.761392 
L 189.786747 72.366532 
L 196.046404 70.418311 
L 202.429608 68.672545 
L 208.104721 67.340955 
L 213.851558 66.222976 
L 218.824388 65.459193 
L 223.830501 64.897689 
L 228.859212 64.560637 
L 233.89872 64.47019 
L 238.097288 64.598735 
L 242.286398 64.925234 
L 246.457559 65.460517 
L 250.601848 66.214219 
L 254.709974 67.194518 
L 258.772336 68.407902 
L 262.779102 69.858948 
L 266.720292 71.550148 
L 270.585869 73.481763 
L 274.365832 75.651726 
L 278.050318 78.055591 
L 281.629696 80.686524 
L 285.094673 83.535354 
L 288.436384 86.590669 
L 291.646484 89.838957 
L 294.717235 93.264794 
L 297.641577 96.851079 
L 300.413194 100.579292 
L 303.02657 104.429792 
L 305.477024 108.382135 
L 308.197201 113.229909 
L 310.672397 118.157863 
L 312.899496 123.130206 
L 314.877144 128.112502 
L 316.605663 133.072409 
L 318.086929 137.980337 
L 319.324217 142.809998 
L 320.322031 147.538837 
L 321.0859 152.148325 
L 321.62218 156.624118 
L 321.937839 160.956074 
L 322.04025 165.13813 
L 321.936993 169.168065 
L 321.63567 173.047143 
L 321.14374 176.779669 
L 320.468382 180.37248 
L 319.616381 183.834384 
L 318.594044 187.175581 
L 317.1937 190.935804 
L 315.577544 194.564628 
L 313.752742 198.079383 
L 311.725489 201.495938 
L 309.501109 204.828024 
L 307.084201 208.086769 
L 304.091419 211.731772 
L 300.85781 215.299664 
L 297.38838 218.794006 
L 293.688027 222.214759 
L 289.761742 225.559265 
L 285.614753 228.823314 
L 281.25259 232.002137 
L 276.095249 235.470843 
L 270.681726 238.820722 
L 265.021101 242.04791 
L 259.122709 245.149352 
L 252.996125 248.121455 
L 246.651272 250.958149 
L 240.098693 253.648593 
L 233.349999 256.174845 
L 227.197215 258.260907 
L 220.910857 260.170019 
L 214.503801 261.869305 
L 208.810578 263.153126 
L 203.048635 264.21591 
L 198.06559 264.926037 
L 193.052102 265.427795 
L 188.019164 265.698955 
L 182.978879 265.717479 
L 178.782516 265.524604 
L 174.598373 265.13007 
L 170.435092 264.523413 
L 166.301722 263.695452 
L 162.207667 262.638544 
L 158.162612 261.346812 
L 154.176449 259.816351 
L 150.259185 258.045396 
L 146.420858 256.034446 
L 142.671433 253.786356 
L 139.020708 251.306364 
L 135.478213 248.602086 
L 132.053109 245.683448 
L 128.7541 242.562577 
L 125.589336 239.253642 
L 122.566341 235.772649 
L 119.691934 232.137202 
L 116.97217 228.366225 
L 114.412295 224.479662 
L 112.016704 220.498152 
L 109.36375 215.624588 
L 106.95682 210.680818 
L 104.798534 205.702336 
L 102.889774 200.723072 
L 101.229776 195.77467 
L 99.816261 190.885857 
L 98.645595 186.08193 
L 97.712973 181.384355 
L 97.012613 176.810514 
L 96.537972 172.373588 
L 96.281949 168.082576 
L 96.237093 163.942448 
L 96.395802 159.954426 
L 96.750497 156.116357 
L 97.293783 152.423183 
L 98.018581 148.867466 
L 98.918229 145.439954 
L 99.986565 142.130166 
L 101.438695 138.402654 
L 103.104849 134.802351 
L 104.978098 131.312202 
L 107.052464 127.916787 
L 109.322809 124.602962 
L 112.151781 120.902334 
L 115.22512 117.28359 
L 118.537596 113.740321 
L 122.084264 110.270262 
L 125.860218 106.874436 
L 129.860399 103.556133 
L 134.079483 100.319855 
L 139.080578 96.783001 
L 144.343092 93.362021 
L 149.858134 90.061591 
L 155.616512 86.88513 
L 161.608799 83.835713 
L 167.825301 80.917676 
L 174.255884 78.138742 
L 180.889636 75.512366 
L 187.714344 73.059983 
L 193.929655 71.051161 
L 200.272927 69.233461 
L 205.917369 67.82788 
L 211.638195 66.624223 
L 217.422704 65.653824 
L 222.420522 65.033227 
L 227.444054 64.630825 
L 232.481812 64.468842 
L 236.681762 64.533225 
L 240.875014 64.791689 
L 245.05323 65.255405 
L 249.20763 65.934442 
L 253.329038 66.837498 
L 257.40795 67.971656 
L 261.434603 69.342159 
L 265.399057 70.952221 
L 269.291284 72.802869 
L 273.10126 74.89283 
L 276.819063 77.218461 
L 280.434973 79.773732 
L 283.939573 82.550253 
L 287.323842 85.537353 
L 290.579251 88.722209 
L 293.697847 92.090018 
L 296.672334 95.624217 
L 299.496138 99.306733 
L 302.163469 103.118267 
L 304.66936 107.03861 
L 307.457603 111.857345 
L 310.002064 116.766455 
L 312.299121 121.729909 
L 314.346933 126.712814 
L 316.14536 131.682168 
L 317.695857 136.607546 
L 319.001322 141.461683 
L 320.065932 146.220938 
L 320.894949 150.86563 
L 321.494519 155.38023 
L 321.871459 159.753421 
L 322.033048 163.978013 
L 321.986828 168.050736 
L 321.740412 171.971916 
L 321.301314 175.745053 
L 320.676806 179.376328 
L 319.873793 182.874052 
L 318.898723 186.248093 
L 317.551555 190.042651 
L 315.986694 193.701514 
L 314.211553 197.242233 
L 312.232552 200.681103 
L 310.055214 204.032419 
L 307.684298 207.307967 
L 304.742948 210.970081 
L 301.559676 214.553798 
L 298.139545 218.063544 
L 294.487456 221.499962 
L 290.608368 224.860859 
L 286.507448 228.142265 
L 282.190162 231.339453 
L 277.081801 234.829888 
L 271.71559 238.202372 
L 266.100555 241.452798 
L 260.245986 244.578042 
L 254.161409 247.574745 
L 247.856666 250.437468 
L 241.342156 253.156447 
L 234.629247 255.715237 
L 227.730863 258.088607 
L 221.455481 260.014105 
L 215.058207 261.732868 
L 209.372386 263.0367 
L 203.616587 264.122592 
L 198.637665 264.855167 
L 193.627112 265.3819 
L 188.595793 265.68058 
L 183.555688 265.729117 
L 179.358284 265.563062 
L 175.17195 265.19687 
L 171.005265 264.619921 
L 166.867226 263.822842 
L 162.767192 262.797765 
L 158.714814 261.538558 
L 154.71996 260.041034 
L 150.792628 258.303125 
L 146.942856 256.325014 
L 143.180626 254.109228 
L 139.515765 251.660678 
L 135.957844 248.986656 
L 132.516082 246.096777 
L 129.19925 243.002874 
L 126.015581 239.718846 
L 122.972687 236.260461 
L 120.077489 232.645118 
L 117.336152 228.891579 
L 114.754032 225.019666 
L 112.335644 221.049942 
L 109.654776 216.186702 
L 107.219517 211.24913 
L 105.032694 206.272849 
L 103.095382 201.292006 
L 101.406999 196.338541 
L 99.965433 191.441544 
L 98.767195 186.626726 
L 97.807605 181.916008 
L 97.080983 177.327248 
L 96.580861 172.874109 
L 96.30019 168.566063 
L 96.231552 164.408531 
L 96.367351 160.403144 
L 96.699998 156.548115 
L 97.222068 152.838691 
L 97.92644 149.267679 
L 98.806402 145.826006 
L 99.85573 142.503301 
L 101.286456 138.762351 
L 102.93194 135.150343 
L 104.785155 131.650102 
L 106.840035 128.246016 
L 109.091365 124.924696 
L 111.899105 121.21659 
L 114.951683 117.591132 
L 118.243832 114.041527 
L 121.770594 110.565182 
L 125.527066 107.162879 
L 129.508208 103.837754 
L 133.708723 100.594244 
L 138.689523 97.048781 
L 143.932404 93.618774 
L 149.428504 90.309012 
L 155.168651 87.122986 
L 161.143434 84.063748 
L 167.343183 81.135469 
L 173.75781 78.345531 
L 180.376477 75.70687 
L 187.187092 73.24024 
L 193.39085 71.216465 
L 199.723656 69.381039 
L 205.359994 67.957218 
L 211.073865 66.732407 
L 216.852747 65.737661 
L 221.846945 65.093504 
L 226.868101 64.664997 
L 231.904855 64.474376 
L 236.105105 64.513023 
L 240.299765 64.744145 
L 244.480563 65.179045 
L 248.638774 65.827959 
L 252.765275 66.699787 
L 256.850603 67.801849 
L 260.885024 69.139653 
L 264.85862 70.716702 
L 268.761367 72.53433 
L 272.583236 74.591585 
L 276.314286 76.885154 
L 279.944762 79.409332 
L 283.465199 82.15605 
L 286.866517 85.114944 
L 290.140114 88.273477 
L 293.277953 91.617107 
L 296.272644 95.129498 
L 299.11751 98.792766 
L 301.806649 102.587766 
L 304.334979 106.494393 
L 307.150816 111.300471 
L 309.723401 116.201083 
L 312.048904 121.160121 
L 314.125285 126.142522 
L 315.952213 131.11503 
L 317.530968 136.046894 
L 318.864291 140.910461 
L 319.956222 145.681657 
L 320.811909 150.340333 
L 321.437407 154.870481 
L 321.839467 159.260302 
L 322.025326 163.502143 
L 322.002505 167.5923 
L 321.778618 171.530706 
L 321.3612 175.320523 
L 320.757556 178.96765 
L 319.974637 182.480186 
L 319.018949 185.867849 
L 317.693576 189.676687 
L 316.149727 193.348073 
L 314.394915 196.899636 
L 312.435656 200.347829 
L 310.277553 203.70717 
L 307.925435 206.989707 
L 305.0051 210.6589 
L 301.842391 214.249114 
L 298.442399 217.765137 
L 294.810028 221.207903 
L 290.950226 224.575422 
L 286.868137 227.863834 
L 282.569201 231.06844 
L 277.480875 234.567667 
L 272.134024 237.949314 
L 266.537649 241.209173 
L 260.701024 244.344075 
L 254.633654 247.35074 
L 248.345351 250.223964 
L 241.846459 252.954393 
L 235.148256 255.526176 
L 228.26352 257.914813 
L 221.99922 259.856457 
L 215.611853 261.594408 
L 209.933561 262.917961 
L 204.18405 264.026645 
L 199.20939 264.781382 
L 194.201925 265.332799 
L 189.172394 265.658713 
L 184.13265 265.736984 
L 179.934368 265.597534 
L 175.746013 265.259486 
L 171.576102 264.712073 
L 167.433579 263.945734 
L 163.327756 262.952379 
L 159.26825 261.725625 
L 155.264902 260.261007 
L 151.327698 258.556157 
L 147.466676 256.610942 
L 143.691833 254.427564 
L 140.013021 252.010607 
L 136.439853 249.367035 
L 132.981603 246.506152 
L 129.647108 243.439492 
L 126.44468 240.180683 
L 123.382022 236.745247 
L 120.466152 233.150378 
L 117.703343 229.414665 
L 115.099065 225.557803 
L 112.65795 221.600275 
L 109.949228 216.747852 
L 107.485677 211.816959 
L 107.485677 211.816959 
" clip-path="url(#p4940e58da2)" style="fill: none; stroke: #1f77b4; stroke-width: 1.5; stroke-linecap: square"/>
   </g>
   <g id="line2d_15">
    <path d="M 237.418285 162.382869 
" clip-path="url(#p4940e58da2)" style="fill: none; stroke: #1f77b4; stroke-width: 1.5; stroke-linecap: square"/>
    <defs>
     <path id="m0d944dbf7d" d="M 0 2 
C 0.530406 2 1.03916 1.789267 1.414214 1.414214 
C 1.789267 1.03916 2 0.530406 2 0 
C 2 -0.530406 1.789267 -1.03916 1.414214 -1.414214 
C 1.03916 -1.789267 0.530406 -2 0 -2 
C -0.530406 -2 -1.03916 -1.789267 -1.414214 -1.414214 
C -1.789267 -1.03916 -2 -0.530406 -2 0 
C -2 0.530406 -1.789267 1.03916 -1.414214 1.414214 
C -1.03916 1.789267 -0.530406 2 0 2 
z
" style="stroke: #000000; stroke-opacity: 0"/>
    </defs>
    <g clip-path="url(#p4940e58da2)">
     <use xlink:href="#m0d944dbf7d" x="237.418285" y="162.382869" style="fill: #1f77b4; stroke: #000000; stroke-opacity: 0"/>
    </g>
   </g>
   <g id="line2d_16">
    <path d="M 398.487273 237.812966 
L 394.302238 235.68687 
L 390.806134 234.164604 
L 387.378875 232.941266 
L 384.564302 232.163314 
L 381.777459 231.613736 
L 379.00869 231.298033 
L 376.248169 231.218643 
L 373.486039 231.374701 
L 370.712549 231.761925 
L 367.9182 232.37264 
L 365.093879 233.195922 
L 361.653077 234.444645 
L 358.143163 235.950229 
L 353.944942 237.986549 
L 348.359555 240.956856 
L 325.783066 253.27554 
L 319.034195 256.558676 
L 312.832539 259.345133 
L 306.449403 261.992616 
L 299.062934 264.81043 
L 290.614429 267.775895 
L 280.157043 271.190283 
L 261.974523 276.841003 
L 231.879272 285.996718 
L 221.66609 288.860371 
L 213.329454 290.964254 
L 205.925984 292.583716 
L 199.51049 293.747899 
L 194.123923 294.522323 
L 188.70929 295.087785 
L 183.275917 295.415566 
L 177.834306 295.477974 
L 173.482864 295.319277 
L 169.140008 294.961765 
L 164.812566 294.394293 
L 160.507719 293.607038 
L 156.232948 292.591666 
L 151.995988 291.341477 
L 147.804767 289.851527 
L 143.667348 288.118733 
L 139.591866 286.141948 
L 135.58646 283.922009 
L 131.659206 281.461762 
L 127.818055 278.766052 
L 124.070761 275.841692 
L 120.424819 272.697403 
L 116.887401 269.343725 
L 113.465301 265.792903 
L 110.164874 262.058759 
L 106.991991 258.156526 
L 103.951995 254.102682 
L 101.049656 249.914751 
L 98.28915 245.611107 
L 95.043311 240.097826 
L 92.030096 234.471439 
L 89.253427 228.770244 
L 86.715633 223.032195 
L 84.417475 217.294249 
L 82.358205 211.591746 
L 80.535643 205.957838 
L 78.946281 200.422988 
L 77.340151 193.950163 
L 76.052824 187.699707 
L 75.07231 181.704322 
L 74.385185 175.988488 
L 73.977006 170.568369 
L 73.832727 165.45199 
L 73.937096 160.639658 
L 74.275024 156.124617 
L 74.831921 151.893887 
L 75.593982 147.92926 
L 76.548424 144.2084 
L 77.68366 140.706004 
L 78.98942 137.394977 
L 80.456814 134.247578 
L 82.078334 131.236489 
L 84.156742 127.861344 
L 86.428914 124.599201 
L 89.255787 120.96877 
L 92.32265 117.407026 
L 95.625848 113.888028 
L 99.621598 109.962397 
L 103.911174 106.066888 
L 108.492113 102.208632 
L 113.361064 98.403344 
L 118.513318 94.670769 
L 123.942664 91.03042 
L 129.641548 87.498143 
L 135.601432 84.083911 
L 141.813282 80.7911 
L 148.268032 77.61733 
L 155.714252 74.223372 
L 163.438261 70.961324 
L 171.429158 67.830331 
L 179.675566 64.843749 
L 187.304866 62.30681 
L 195.118106 59.95584 
L 202.204729 58.069698 
L 208.502968 56.6192 
L 214.879482 55.39797 
L 220.396298 54.567744 
L 225.94903 53.968955 
L 230.594874 53.668768 
L 235.249146 53.568 
L 239.903167 53.683604 
L 244.547565 54.031578 
L 249.172332 54.626575 
L 253.766879 55.481522 
L 257.413324 56.36001 
L 261.027476 57.416314 
L 264.603337 58.653818 
L 268.134816 60.074751 
L 271.615768 61.680118 
L 275.040035 63.469657 
L 278.401488 65.441805 
L 281.694075 67.593683 
L 284.91186 69.921099 
L 288.04907 72.418574 
L 291.100134 75.079379 
L 294.784736 78.622892 
L 298.316669 82.391248 
L 301.686964 86.364099 
L 304.887547 90.518984 
L 307.911319 94.831704 
L 310.752222 99.276733 
L 313.405281 103.827656 
L 315.866637 108.45762 
L 318.133549 113.139788 
L 320.594968 118.790227 
L 322.773346 124.434121 
L 324.670051 130.030515 
L 326.288412 135.54217 
L 327.633514 140.936286 
L 328.711964 146.185069 
L 329.531624 151.266113 
L 330.101342 156.162597 
L 330.430666 160.863292 
L 330.529571 165.36239 
L 330.408193 169.659164 
L 330.076588 173.757488 
L 329.544514 177.665224 
L 328.82125 181.39353 
L 327.915449 184.956103 
L 326.835033 188.368389 
L 325.58712 191.646812 
L 323.927865 195.324645 
L 322.057722 198.868507 
L 319.98382 202.301909 
L 317.711998 205.645305 
L 314.879335 209.377392 
L 311.80009 213.032075 
L 308.47901 216.620829 
L 304.920296 220.148748 
L 301.127993 223.615621 
L 297.106296 227.017335 
L 292.859764 230.347435 
L 287.819945 233.999146 
L 282.509813 237.541479 
L 276.937874 240.967281 
L 271.113055 244.272465 
L 265.044486 247.45563 
L 258.741341 250.516632 
L 252.212828 253.454297 
L 245.46837 256.263557 
L 238.518014 258.932382 
L 231.373062 261.438923 
L 224.869388 263.503628 
L 218.233873 265.380951 
L 212.330451 266.837954 
L 206.347764 268.088098 
L 201.166546 268.967816 
L 195.946236 269.644851 
L 190.697615 270.093985 
L 185.432736 270.289783 
L 181.042489 270.241427 
L 176.658533 269.986078 
L 172.289781 269.51095 
L 167.94565 268.804534 
L 163.636009 267.856907 
L 159.371101 266.660012 
L 155.161462 265.207912 
L 151.017829 263.497009 
L 146.951035 261.526212 
L 142.971907 259.297062 
L 139.091149 256.8138 
L 135.319232 254.083379 
L 131.666282 251.115423 
L 128.141967 247.922121 
L 124.755397 244.51807 
L 121.515027 240.920068 
L 118.428566 237.146855 
L 115.502908 233.218815 
L 112.744066 229.157644 
L 110.157129 224.985991 
L 107.746223 220.727082 
L 105.089869 215.534177 
L 102.69509 210.289364 
L 100.563509 205.031352 
L 98.69486 199.79667 
L 97.087121 194.618889 
L 95.736676 189.527968 
L 94.638507 184.549736 
L 93.786419 179.705512 
L 93.173261 175.011899 
L 92.791175 170.480723 
L 92.631826 166.119138 
L 92.686632 161.929873 
L 92.94698 157.911602 
L 93.404414 154.059439 
L 94.050799 150.365497 
L 94.878458 146.819525 
L 95.880274 143.409561 
L 97.049757 140.122596 
L 98.618332 136.425363 
L 100.399118 132.85636 
L 102.385201 129.39608 
L 104.570743 126.027317 
L 106.950829 122.735784 
L 109.903816 119.054622 
L 113.100085 115.44896 
L 116.534813 111.913064 
L 120.203401 108.445786 
L 124.101206 105.04947 
L 128.223343 101.728704 
L 132.564583 98.489086 
L 137.703378 94.948352 
L 143.103873 91.523773 
L 148.757162 88.219799 
L 154.654074 85.039059 
L 160.78528 81.983479 
L 167.141272 79.056174 
L 173.712192 76.263879 
L 180.487454 73.619594 
L 187.455181 71.145083 
L 193.799113 69.114059 
L 200.272524 67.273384 
L 206.032073 65.848761 
L 211.869046 64.628906 
L 217.770517 63.64717 
L 222.868977 63.022356 
L 227.993204 62.622274 
L 233.13135 62.470498 
L 237.414413 62.550327 
L 241.68999 62.831252 
L 245.949438 63.325015 
L 250.183648 64.042148 
L 254.383102 64.991692 
L 258.53794 66.180938 
L 262.638039 67.615191 
L 266.673099 69.297577 
L 270.632738 71.228881 
L 274.506592 73.407433 
L 278.284418 75.829053 
L 281.956203 78.487028 
L 285.512263 81.372164 
L 288.943351 84.472875 
L 292.24075 87.775329 
L 295.396363 91.263647 
L 298.402796 94.920133 
L 301.253425 98.725562 
L 303.942456 102.659477 
L 306.46497 106.70053 
L 308.81695 110.826831 
L 311.409925 115.859843 
L 313.74931 120.946074 
L 315.833363 126.048984 
L 317.662123 131.134055 
L 319.237291 136.169508 
L 320.56208 141.126921 
L 321.641031 145.981719 
L 322.479813 150.713518 
L 323.085005 155.306339 
L 323.463877 159.74865 
L 323.624164 164.033288 
L 323.573857 168.157223 
L 323.321 172.121218 
L 322.873516 175.92938 
L 322.239047 179.588626 
L 321.424831 183.10811 
L 320.437604 186.498602 
L 319.283536 189.77188 
L 317.733647 193.458821 
L 315.972011 197.021873 
L 314.005342 200.478836 
L 311.839367 203.845434 
L 309.478971 207.134735 
L 306.548683 210.812086 
L 303.375437 214.411728 
L 299.964222 217.93894 
L 296.319817 221.39482 
L 292.447041 224.777283 
L 288.350928 228.082193 
L 284.036824 231.304491 
L 278.929982 234.824608 
L 273.563019 238.227846 
L 267.944887 241.509904 
L 262.084807 244.667873 
L 255.992198 247.699098 
L 249.676725 250.599348 
L 243.148503 253.3605 
L 236.418479 255.968053 
L 229.499003 258.398828 
L 223.200954 260.384176 
L 216.776705 262.172267 
L 211.063228 263.545137 
L 205.275504 264.70811 
L 200.265465 265.513063 
L 195.220029 266.117697 
L 190.149799 266.499295 
L 185.066516 266.635056 
L 180.829732 266.544329 
L 176.600835 266.255204 
L 172.388346 265.756359 
L 168.201235 265.037651 
L 164.048866 264.090387 
L 159.940933 262.907574 
L 155.887378 261.484141 
L 151.898317 259.817134 
L 147.983938 257.905867 
L 144.15441 255.752031 
L 140.419781 253.359751 
L 136.789874 250.735607 
L 133.274189 247.888583 
L 129.881801 244.829985 
L 126.621267 241.573295 
L 123.50054 238.133983 
L 120.526888 234.529282 
L 117.706828 230.777917 
L 115.046071 226.899805 
L 112.549475 222.915736 
L 109.775794 218.025031 
L 107.249361 213.0496 
L 104.973499 208.026106 
L 102.949722 202.989915 
L 101.177823 197.974324 
L 99.655991 193.009879 
L 98.380969 188.123792 
L 97.348228 183.339492 
L 96.552168 178.676301 
L 95.986329 174.14926 
L 95.643603 169.769095 
L 95.516454 165.542328 
L 95.597118 161.471508 
L 95.877796 157.555566 
L 96.350825 153.79026 
L 97.008823 150.168697 
L 97.844805 146.681898 
L 98.852281 143.319398 
L 100.236519 139.538397 
L 101.837669 135.892565 
L 103.648366 132.363862 
L 105.662259 128.935681 
L 107.873906 125.59358 
L 110.278637 122.325771 
L 113.258133 118.670843 
L 116.479122 115.09284 
L 119.936627 111.587721 
L 123.625805 108.155249 
L 127.541733 104.797987 
L 131.679251 101.520201 
L 136.032887 98.326808 
L 141.181829 94.840949 
L 146.588265 91.473323 
L 152.243155 88.227881 
L 158.137206 85.107541 
L 164.260905 82.115488 
L 170.604433 79.257098 
L 177.157411 76.542266 
L 183.908473 73.987801 
L 190.844659 71.619563 
L 197.153276 69.700007 
L 203.583323 67.989265 
L 209.297312 66.694814 
L 215.080652 65.621114 
L 220.082544 64.901658 
L 225.115342 64.390853 
L 230.16803 64.111195 
L 235.22847 64.085001 
L 239.441906 64.272325 
L 243.643334 64.662245 
L 247.82407 65.265384 
L 251.975016 66.091069 
L 256.086714 67.147077 
L 260.149419 68.4394 
L 264.153175 69.972039 
L 268.087906 71.746833 
L 271.943505 73.763326 
L 275.709934 76.018687 
L 279.377323 78.507669 
L 282.936073 81.222621 
L 286.376951 84.153553 
L 289.691189 87.288249 
L 292.870575 90.612424 
L 295.907528 94.109935 
L 298.795181 97.763022 
L 301.527433 101.552583 
L 304.099004 105.45849 
L 306.505472 109.459904 
L 309.170368 114.357809 
L 311.588017 119.326084 
L 313.755797 124.328889 
L 315.672844 129.331967 
L 317.339956 134.303371 
L 318.759458 139.214102 
L 319.935045 144.038633 
L 320.871594 148.755309 
L 321.574964 153.346609 
L 322.051784 157.79926 
L 322.309243 162.104222 
L 322.35488 166.256525 
L 322.196387 170.254997 
L 321.841425 174.101874 
L 321.297469 177.802336 
L 320.571672 181.363966 
L 319.67076 184.796179 
L 318.60095 188.109637 
L 317.1469 191.840371 
L 315.478664 195.443028 
L 313.603214 198.934937 
L 311.526555 202.33176 
L 309.253841 205.646855 
L 306.422069 209.348977 
L 303.345824 212.969432 
L 300.030318 216.514739 
L 296.48047 219.987207 
L 292.701165 223.385801 
L 288.697436 226.707182 
L 284.474591 229.946781 
L 279.468991 233.487574 
L 274.20167 236.912635 
L 268.681511 240.217258 
L 262.917695 243.398062 
L 256.919636 246.452078 
L 250.697001 249.375139 
L 244.259885 252.159744 
L 237.619142 254.792684 
L 230.786908 257.252766 
L 224.564384 259.26955 
L 218.213329 261.096368 
L 212.561548 262.510906 
L 206.832832 263.724413 
L 201.039834 264.705485 
L 196.034227 265.335799 
L 191.002409 265.748335 
L 185.955848 265.920742 
L 181.748162 265.86516 
L 177.546806 265.615497 
L 173.36012 265.160478 
L 169.196891 264.489925 
L 165.066307 263.595028 
L 160.977886 262.46859 
L 156.941414 261.105256 
L 152.966854 259.501703 
L 149.064266 257.656804 
L 145.243706 255.571738 
L 141.515134 253.250067 
L 137.88831 250.697751 
L 134.372695 247.923125 
L 130.977355 244.936821 
L 127.710865 241.751641 
L 124.581225 238.382379 
L 121.595778 234.845614 
L 118.761144 231.159447 
L 116.083157 227.343223 
L 113.566827 223.417213 
L 110.766397 218.590498 
L 108.210178 213.672269 
L 105.901845 208.698732 
L 103.843282 203.704978 
L 102.034662 198.724212 
L 100.474554 193.787066 
L 99.160072 188.921012 
L 98.087041 184.14989 
L 97.250192 179.493567 
L 96.643363 174.967737 
L 96.259715 170.583862 
L 96.091935 166.349252 
L 96.132448 162.267266 
L 96.373601 158.337642 
L 96.807838 154.556913 
L 97.427843 150.918903 
L 98.226669 147.415281 
L 99.197829 144.036136 
L 100.540731 140.236541 
L 102.101594 136.573509 
L 103.872959 133.029342 
L 105.848369 129.58759 
L 108.022271 126.233801 
L 110.389887 122.956045 
L 113.327618 119.29156 
L 116.507429 115.705481 
L 119.924259 112.193264 
L 123.573218 108.75419 
L 127.449362 105.390416 
L 131.547536 102.105917 
L 135.862289 98.905445 
L 140.96807 95.411134 
L 146.331997 92.034632 
L 151.945056 88.780071 
L 157.797963 85.650556 
L 163.881206 82.649368 
L 170.184966 79.7818 
L 176.698876 77.057415 
L 183.411619 74.492406 
L 190.310345 72.111727 
L 196.58653 70.178595 
L 202.985158 68.450948 
L 208.672684 67.138215 
L 214.43074 66.04231 
L 219.412086 65.30026 
L 224.425559 64.763244 
L 229.460331 64.45352 
L 234.504461 64.393254 
L 238.705677 64.549082 
L 242.896258 64.904713 
L 247.067637 65.47085 
L 251.210824 66.256961 
L 255.316465 67.271018 
L 259.37491 68.519262 
L 263.376285 70.005997 
L 267.310583 71.733408 
L 271.167751 73.701429 
L 274.937787 75.90765 
L 278.610841 78.347269 
L 282.177313 81.013101 
L 285.62795 83.895624 
L 288.953946 86.983087 
L 292.147027 90.261662 
L 295.199539 93.715635 
L 298.104516 97.327646 
L 300.85575 101.078955 
L 303.447835 104.949744 
L 305.876213 108.919437 
L 308.569037 113.784041 
L 311.016147 118.724425 
L 313.214647 123.704854 
L 315.163397 128.69104 
L 316.862924 133.650884 
L 318.315292 138.555116 
L 319.523952 143.377836 
L 320.493555 148.096932 
L 321.229763 152.694353 
L 321.739035 157.156252 
L 322.028416 161.472986 
L 322.105336 165.63898 
L 321.977403 169.652469 
L 321.652227 173.515134 
L 321.137259 177.231643 
L 320.43965 180.809135 
L 319.566142 184.256655 
L 318.52299 187.584569 
L 317.099163 191.330817 
L 315.46029 194.947347 
L 313.613443 198.451431 
L 311.564723 201.858794 
L 309.319377 205.182953 
L 306.881933 208.434781 
L 303.866148 212.072767 
L 300.609982 215.634206 
L 297.118419 219.122303 
L 293.396351 222.536734 
L 289.448781 225.874647 
L 285.280959 229.131726 
L 280.335822 232.693361 
L 275.127356 236.140341 
L 269.664373 239.467671 
L 263.956007 242.671716 
L 258.011633 245.749464 
L 251.840874 248.697043 
L 245.45374 251.50769 
L 238.860929 254.169421 
L 232.074309 256.662724 
L 225.890059 258.714408 
L 219.574733 260.582826 
L 213.14168 262.233627 
L 207.428588 263.467554 
L 201.649916 264.472667 
L 196.655388 265.12674 
L 191.633383 265.566115 
L 186.595211 265.768526 
L 182.393314 265.74037 
L 178.196557 265.52029 
L 174.013191 265.09692 
L 169.851921 264.459946 
L 165.721856 263.600375 
L 161.632448 262.510786 
L 157.593423 261.18556 
L 153.614699 259.621073 
L 149.706301 257.815865 
L 145.878268 255.770762 
L 142.140556 253.488948 
L 138.502937 250.976001 
L 134.9749 248.23987 
L 131.565556 245.290805 
L 128.283541 242.14124 
L 125.136929 238.805628 
L 122.133153 235.300227 
L 119.278931 231.642859 
L 116.580214 227.852629 
L 114.04213 223.949615 
L 111.214426 219.146337 
L 108.629876 214.246873 
L 106.292389 209.287391 
L 104.204086 204.30305 
L 102.365367 199.327231 
L 100.775019 194.390837 
L 99.430356 189.521692 
L 98.327387 184.74406 
L 97.461002 180.078285 
L 96.825174 175.540573 
L 96.413171 171.142916 
L 96.217763 166.89315 
L 96.231432 162.795149 
L 96.446554 158.849125 
L 96.85558 155.052043 
L 97.451186 151.3981 
L 98.226395 147.879271 
L 99.174674 144.48588 
L 100.491746 140.671095 
L 102.027619 136.994541 
L 103.774734 133.438535 
L 105.726537 129.986539 
L 107.87739 126.623929 
L 110.222437 123.338539 
L 113.134882 119.666437 
L 116.289888 116.073524 
L 119.682354 112.554862 
L 123.307376 109.109401 
L 127.160015 105.739054 
L 131.235134 102.447639 
L 135.527307 99.23985 
L 140.608286 95.736852 
L 145.94808 92.351274 
L 151.537697 89.087369 
L 157.367873 85.948316 
L 163.42911 82.937358 
L 169.711611 80.059593 
L 176.205056 77.324197 
L 182.898211 74.746774 
L 189.778356 72.351519 
L 196.039029 70.402901 
L 202.423276 68.656702 
L 208.099326 67.324715 
L 213.847124 66.206333 
L 218.820796 65.442212 
L 223.827768 64.88039 
L 228.857352 64.543049 
L 233.897748 64.452355 
L 238.097064 64.580735 
L 242.286929 64.907114 
L 246.458847 65.442328 
L 250.603896 66.196017 
L 254.712781 67.176367 
L 258.775898 68.389867 
L 262.783413 69.841101 
L 266.725343 71.532561 
L 270.591647 73.46451 
L 274.372323 75.634883 
L 278.057501 78.03923 
L 281.637552 80.670716 
L 285.103176 83.520167 
L 288.445506 86.576166 
L 291.656197 89.825194 
L 294.727505 93.251824 
L 297.652371 96.838944 
L 300.424477 100.568027 
L 303.038305 104.419424 
L 305.489172 108.372681 
L 308.209795 113.221563 
L 310.685381 118.150623 
L 312.912815 123.124053 
L 314.890745 128.107405 
L 316.619495 133.068323 
L 318.100941 137.977206 
L 319.338364 142.807757 
L 320.336268 147.537414 
L 321.10019 152.147642 
L 321.636487 156.624096 
L 321.952132 160.956631 
L 322.054503 165.139187 
L 321.951182 169.169544 
L 321.649776 173.048972 
L 321.157746 176.781781 
L 320.482277 180.374817 
L 319.630155 183.836894 
L 318.607688 187.17822 
L 317.207187 190.93855 
L 315.590868 194.567446 
L 313.7659 198.082249 
L 311.738478 201.498841 
L 309.513928 204.830958 
L 307.096847 208.089737 
L 304.103866 211.73479 
L 300.870053 215.302747 
L 297.400415 218.797169 
L 293.699847 222.218018 
L 289.773341 225.562634 
L 285.626123 228.826803 
L 281.263723 232.005753 
L 276.106105 235.474606 
L 270.692293 238.824638 
L 265.031368 242.051983 
L 259.132664 245.153589 
L 253.005755 248.125872 
L 246.660562 250.962768 
L 240.107628 253.653446 
L 233.358559 256.179971 
L 227.205424 258.266316 
L 220.918694 260.17575 
L 214.511244 261.875401 
L 208.817654 263.159573 
L 203.055323 264.222735 
L 198.071928 264.933204 
L 193.058072 265.435314 
L 188.024748 265.706833 
L 182.98406 265.725717 
L 178.787346 265.533137 
L 174.602842 265.13889 
L 170.439186 264.532506 
L 166.305432 263.704802 
L 162.210982 262.64813 
L 158.165522 261.356608 
L 154.178946 259.826329 
L 150.261262 258.055522 
L 146.42251 256.044685 
L 142.672656 253.796669 
L 139.0215 251.316712 
L 135.478573 248.612426 
L 132.053039 245.693737 
L 128.753601 242.572773 
L 125.588415 239.263701 
L 122.565003 235.782531 
L 119.690188 232.146867 
L 116.970027 228.375635 
L 114.409764 224.488783 
L 112.013799 220.506954 
L 109.360415 215.632971 
L 106.953075 210.688751 
L 104.794404 205.709796 
L 102.885283 200.730042 
L 101.224948 195.781143 
L 99.811121 190.891835 
L 98.640168 186.087419 
L 97.707283 181.38937 
L 97.006684 176.815077 
L 96.531825 172.377725 
L 96.275604 168.086315 
L 96.23057 163.945824 
L 96.389118 159.957474 
L 96.743669 156.119112 
L 97.286823 152.425681 
L 98.011501 148.86974 
L 98.911041 145.442038 
L 99.979277 142.132088 
L 101.431299 138.404418 
L 103.097354 134.803988 
L 104.97051 131.313735 
L 107.044789 127.918232 
L 109.315052 124.60433 
L 112.143935 120.90362 
L 115.217191 117.284795 
L 118.529589 113.741441 
L 122.076186 110.27129 
L 125.852074 106.875364 
L 129.852197 103.556952 
L 134.07123 100.320557 
L 139.072277 96.783565 
L 144.334754 93.36244 
L 149.84977 90.061862 
L 155.608134 86.885249 
L 161.600418 83.835671 
L 167.816929 80.917462 
L 174.247535 78.138339 
L 180.881325 75.511746 
L 187.70609 73.05911 
L 193.921468 71.050025 
L 200.264825 69.232019 
L 205.90936 67.826133 
L 211.630298 66.622132 
L 217.41494 65.651352 
L 222.412891 65.030398 
L 227.436574 64.627613 
L 232.474504 64.465224 
L 236.674611 64.529255 
L 240.868036 64.787355 
L 245.046442 65.250699 
L 249.201046 65.92936 
L 253.322674 66.832039 
L 257.401821 67.965823 
L 261.428725 69.33596 
L 265.393446 70.945667 
L 269.285953 72.795975 
L 273.096224 74.885615 
L 276.814334 77.210949 
L 280.430564 79.76595 
L 283.935494 82.542231 
L 287.320102 85.529124 
L 290.575858 88.713808 
L 293.694808 92.081484 
L 296.669653 95.615588 
L 299.493819 99.298047 
L 302.161513 103.109565 
L 304.667766 107.02993 
L 307.456443 111.848742 
L 310.001332 116.757978 
L 312.298809 121.721607 
L 314.347031 126.704728 
L 316.145858 131.674334 
L 317.696739 136.599994 
L 319.002575 141.454436 
L 320.06754 146.214012 
L 320.896896 150.859034 
L 321.496789 155.373966 
L 321.874034 159.747484 
L 322.035913 163.972395 
L 321.989966 168.045423 
L 321.743809 171.96689 
L 321.304956 175.740292 
L 320.680681 179.37181 
L 319.877888 182.869753 
L 318.903028 186.243989 
L 317.556094 190.038745 
L 315.991456 193.697776 
L 314.21653 197.238638 
L 312.237735 200.677629 
L 310.060597 204.029049 
L 307.689875 207.304689 
L 304.748741 210.966899 
L 301.565678 214.550708 
L 298.145751 218.060546 
L 294.493859 221.497061 
L 290.61496 224.858061 
L 286.514224 228.139578 
L 282.197113 231.336882 
L 277.08894 234.827455 
L 271.722907 238.200083 
L 266.108039 241.450657 
L 260.253625 244.576053 
L 254.169192 247.572914 
L 247.86458 250.435807 
L 241.350188 253.154973 
L 234.637382 255.713977 
L 227.739083 258.087599 
L 221.463759 260.013362 
L 215.066525 261.732436 
L 209.38072 263.036582 
L 203.624918 264.122833 
L 198.645975 264.85575 
L 193.635383 265.38286 
L 188.604007 265.681949 
L 183.563822 265.730925 
L 179.366335 265.565258 
L 175.179901 265.199471 
L 171.013098 264.622941 
L 166.874924 263.826293 
L 162.774737 262.801654 
L 158.722188 261.542888 
L 154.727144 260.045805 
L 150.799604 258.308331 
L 146.949606 256.330647 
L 143.187132 254.115273 
L 139.52201 251.667117 
L 135.963812 248.993466 
L 132.521759 246.103931 
L 129.204622 243.010342 
L 126.020635 239.726593 
L 122.977412 236.268451 
L 120.081877 232.653313 
L 117.340193 228.899938 
L 114.757722 225.028148 
L 112.338978 221.058506 
L 109.65768 216.195311 
L 107.22199 211.257725 
L 105.034737 206.281376 
L 103.097001 201.300416 
L 101.408201 196.346789 
L 99.966226 191.449592 
L 98.767591 186.634542 
L 97.807616 181.923566 
L 97.080622 177.334532 
L 96.580142 172.881107 
L 96.299129 168.57277 
L 96.230162 164.414949 
L 96.365646 160.409282 
L 96.697992 156.553983 
L 97.219775 152.844307 
L 97.923872 149.27306 
L 98.803569 145.831173 
L 99.852644 142.508274 
L 101.283085 138.767126 
L 102.928295 135.154947 
L 104.781246 131.65456 
L 106.835869 128.250348 
L 109.086949 124.928919 
L 111.89441 121.220705 
L 114.946717 117.595148 
L 118.238601 114.045447 
L 121.765104 110.569007 
L 125.521324 107.166604 
L 129.502221 103.841374 
L 133.702498 100.597752 
L 138.683039 97.052155 
L 143.925672 93.622009 
L 149.421535 90.312102 
L 155.161455 87.125928 
L 161.136022 84.066537 
L 167.335568 81.138097 
L 173.750004 78.347987 
L 180.368493 75.709132 
L 187.178946 73.242277 
L 193.382576 71.218267 
L 199.715271 69.382563 
L 205.351527 67.958459 
L 211.065335 66.733322 
L 216.844175 65.738201 
L 221.838355 65.093685 
L 226.859511 64.664782 
L 231.896287 64.47373 
L 236.096571 64.511991 
L 240.291283 64.742705 
L 244.47215 65.177178 
L 248.630449 65.825646 
L 252.757056 66.697016 
L 256.842508 67.798609 
L 260.877075 69.135937 
L 264.850836 70.712509 
L 268.753768 72.529662 
L 272.575842 74.58645 
L 276.307115 76.879564 
L 279.937834 79.403304 
L 283.458532 82.149606 
L 286.860127 85.10811 
L 290.134017 88.266283 
L 293.272163 91.609587 
L 296.267174 95.121688 
L 299.112371 98.784706 
L 301.801851 102.579497 
L 304.33053 106.485957 
L 307.146794 111.291891 
L 309.71981 116.192421 
L 312.045749 121.151438 
L 314.122563 126.133873 
L 315.949923 131.106468 
L 317.529104 136.038467 
L 318.862844 140.90221 
L 319.955183 145.673616 
L 320.811267 150.332529 
L 321.43715 154.862934 
L 321.839581 159.253026 
L 322.025798 163.495144 
L 322.003321 167.585577 
L 321.779764 171.524254 
L 321.362662 175.314331 
L 320.759322 178.961704 
L 319.976695 182.474467 
L 319.021288 185.862338 
L 317.69623 189.671393 
L 316.152685 193.342969 
L 314.398167 196.894695 
L 312.439192 200.343028 
L 310.281366 203.70249 
L 307.929519 206.985132 
L 305.009485 210.654432 
L 301.847071 214.244745 
L 298.447368 217.760864 
L 294.81528 221.203727 
L 290.955752 224.571348 
L 286.873933 227.859868 
L 282.575258 231.064589 
L 277.487216 234.563951 
L 272.140638 237.94574 
L 266.544527 241.205744 
L 260.708153 244.340796 
L 254.641024 247.347615 
L 248.35295 250.221001 
L 241.854275 252.951609 
L 235.156272 255.523593 
L 228.271722 257.912467 
L 222.007571 259.85436 
L 215.620334 261.592608 
L 209.942139 262.916464 
L 204.192706 264.025498 
L 199.218094 264.780574 
L 194.21066 265.332369 
L 189.181141 265.658697 
L 184.141387 265.73742 
L 179.943078 265.598373 
L 175.754679 265.260752 
L 171.584706 264.713784 
L 167.442102 263.947909 
L 163.336179 262.955031 
L 159.276551 261.728765 
L 155.273062 260.26464 
L 151.335696 258.560284 
L 147.474492 256.615561 
L 143.699445 254.432665 
L 140.020411 252.016177 
L 136.447001 249.373056 
L 132.988491 246.5126 
L 129.653718 243.446341 
L 126.450997 240.1879 
L 123.38803 236.752799 
L 120.471839 233.158225 
L 117.708696 229.422768 
L 115.104076 225.566119 
L 112.66261 221.608761 
L 109.953459 216.756483 
L 107.489473 211.825673 
L 105.273687 206.852077 
L 103.307376 201.870053 
L 101.590144 196.91183 
L 100.120049 192.006862 
L 98.893754 187.181274 
L 97.906707 182.457445 
L 97.153333 177.853716 
L 96.627244 173.384238 
L 96.321451 169.058966 
L 96.228565 164.883781 
L 96.341002 160.860736 
L 96.651163 156.98842 
L 97.151598 153.262399 
L 97.835143 149.675734 
L 98.695034 146.219542 
L 99.724988 142.883571 
L 101.133904 139.128801 
L 102.758335 135.504739 
L 104.591152 131.994096 
L 106.626197 128.581074 
L 108.858177 125.252037 
L 111.28252 121.995963 
L 114.283617 118.353693 
L 117.525367 114.788342 
L 121.002769 111.296487 
L 124.710928 107.878276 
L 128.644845 104.536433 
L 132.799284 101.275206 
L 137.168702 98.099366 
L 142.333961 94.634185 
L 147.755132 91.287968 
L 153.423125 88.064541 
L 159.328599 84.966952 
L 165.461971 81.998838 
L 171.813305 79.166378 
L 178.372032 76.480595 
L 185.126499 73.959679 
L 191.284052 71.879171 
L 197.574776 69.976619 
L 203.985719 68.285131 
L 209.681882 67.009323 
L 215.44626 65.955788 
L 220.430933 65.254642 
L 225.445576 64.76287 
L 230.479143 64.502709 
L 235.51948 64.49617 
L 239.715414 64.699748 
L 243.898666 65.105587 
L 248.060574 65.724086 
L 252.192066 66.564349 
L 256.283722 67.633929 
L 260.325842 68.9386 
L 264.308529 70.482155 
L 268.221767 72.266239 
L 272.055522 74.290224 
L 275.799835 76.551128 
L 279.44492 79.043581 
L 282.981265 81.75984 
L 286.39973 84.689855 
L 289.691641 87.821382 
L 292.848878 91.140148 
L 295.863955 94.630052 
L 298.730093 98.273411 
L 301.441279 102.051237 
L 303.992314 105.943539 
L 306.378849 109.929648 
L 309.020717 114.807217 
L 311.416403 119.753356 
L 313.563366 124.732624 
L 315.460801 129.71118 
L 317.109544 134.657501 
L 318.511941 139.543003 
L 319.671681 144.342557 
L 320.59362 149.034877 
L 321.283577 153.60277 
L 321.748127 158.033247 
L 321.994391 162.317497 
L 322.02983 166.450725 
L 321.862051 170.431874 
L 321.498625 174.263239 
L 320.946937 177.949997 
L 320.214051 181.499682 
L 319.306604 184.921614 
L 318.230737 188.226318 
L 316.770125 191.948547 
L 315.095777 195.54425 
L 313.214585 199.030435 
L 311.13249 202.422443 
L 308.854601 205.733322 
L 306.017205 209.431005 
L 302.935627 213.047099 
L 299.615084 216.587858 
L 296.060514 220.055423 
L 292.276828 223.448674 
L 288.269092 226.764262 
L 284.042639 229.997664 
L 279.033491 233.531094 
L 273.763187 236.948488 
L 268.240629 240.245212 
L 262.475017 243.417875 
L 256.475785 246.463393 
L 250.252638 249.377358 
L 243.815725 252.151909 
L 237.175991 254.773381 
L 230.345697 257.220067 
L 224.125811 259.222902 
L 217.7784 261.033503 
L 212.130757 262.431778 
L 206.407191 263.626965 
L 200.620473 264.587619 
L 195.621244 265.198793 
L 190.596798 265.590761 
L 185.558672 265.741307 
L 181.358872 265.666653 
L 177.166211 265.397285 
L 172.989052 264.922083 
L 168.836202 264.231049 
L 164.716852 263.315566 
L 160.640526 262.168645 
L 156.616996 260.785148 
L 152.656209 259.161978 
L 148.768198 257.298231 
L 144.962982 255.195307 
L 141.250475 252.856979 
L 137.640382 250.289406 
L 134.142103 247.501108 
L 130.764634 244.502873 
L 127.516474 241.30764 
L 124.405542 237.930312 
L 121.439098 234.387542 
L 118.623672 230.697478 
L 115.965013 226.879475 
L 113.468041 222.953785 
L 110.690759 218.130143 
L 108.157463 213.217777 
L 105.871694 208.252681 
L 103.835213 203.26968 
L 102.048085 198.301673 
L 100.508787 193.378953 
L 99.214358 188.52863 
L 98.160567 183.774171 
L 97.342107 179.135073 
L 96.752799 174.626672 
L 96.3858 170.260097 
L 96.233813 166.042353 
L 96.28929 161.976539 
L 96.544619 158.062176 
L 96.992293 154.29563 
L 97.625055 150.670611 
L 98.436019 147.178725 
L 99.41876 143.810046 
L 100.774555 140.021104 
L 102.347735 136.367162 
L 104.130927 132.830701 
L 106.117749 129.395491 
L 108.302708 126.047327 
L 110.681074 122.774528 
L 113.630754 119.115202 
L 116.822178 115.534053 
L 120.250292 112.026795 
L 123.910197 108.592899 
L 127.796931 105.234636 
L 131.905315 101.956018 
L 136.229873 98.761781 
L 141.346173 95.274841 
L 146.720054 91.905997 
L 152.342483 88.659315 
L 158.20416 85.537906 
L 164.295553 82.545162 
L 170.606807 79.686616 
L 177.127502 76.972204 
L 183.846229 74.418604 
L 190.75001 72.051344 
L 197.02977 70.132314 
L 203.43095 68.421237 
L 209.119732 67.125305 
L 214.877996 66.048536 
L 219.858578 65.324829 
L 224.870323 64.807965 
L 229.902313 64.520164 
L 234.94252 64.483498 
L 239.139539 64.660164 
L 243.325032 65.037574 
L 247.490396 65.626287 
L 251.626613 66.435599 
L 255.724305 67.473291 
L 259.773809 68.745394 
L 263.765247 70.255982 
L 267.688616 72.007005 
L 271.533879 73.998153 
L 275.291059 76.226771 
L 278.950342 78.687816 
L 282.502172 81.37387 
L 285.937353 84.275192 
L 289.24714 87.379833 
L 292.423333 90.673787 
L 295.458355 94.14119 
L 298.345325 97.76456 
L 301.078122 101.525072 
L 303.651432 105.402854 
L 306.060789 109.377312 
L 308.730595 114.244717 
L 311.154625 119.184817 
L 313.330133 124.162037 
L 315.25612 129.142316 
L 316.933242 134.09383 
L 318.363676 138.98763 
L 319.55097 143.798172 
L 320.499854 148.503714 
L 321.216048 153.086584 
L 321.70605 157.533313 
L 321.976931 161.834617 
L 322.036122 165.985252 
L 321.891222 169.983752 
L 321.549816 173.832049 
L 321.019317 177.535018 
L 320.30683 181.099951 
L 319.419048 184.535991 
L 318.362169 187.853556 
L 316.922941 191.589156 
L 315.269247 195.196501 
L 313.408075 198.692721 
L 311.345457 202.093352 
L 309.086577 205.411688 
L 306.270407 209.116818 
L 303.209586 212.739607 
L 299.909366 216.286697 
L 296.3747 219.76055 
L 292.610493 223.160288 
L 288.621791 226.482712 
L 284.413902 229.723358 
L 279.425042 233.265412 
L 274.174362 236.691843 
L 268.670738 239.997908 
L 262.923349 243.180143 
L 256.941612 246.23549 
L 250.735205 249.159713 
L 244.314237 251.945297 
L 237.689574 254.579102 
L 230.873353 257.040105 
L 224.664998 259.057977 
L 218.328023 260.886407 
L 212.688454 262.303027 
L 206.971805 263.519487 
L 201.190669 264.504618 
L 196.195015 265.139467 
L 191.172894 265.557657 
L 186.135717 265.736956 
L 181.935565 265.68813 
L 177.741441 265.44619 
L 173.561643 264.999884 
L 169.404918 264.339044 
L 165.280412 263.454847 
L 161.197603 262.340067 
L 157.166236 260.989301 
L 153.196239 259.39916 
L 149.297638 257.568432 
L 145.48046 255.498196 
L 141.754638 253.191896 
L 138.129914 250.655365 
L 134.615734 247.8968 
L 131.221155 244.926687 
L 127.95475 241.757677 
L 124.824523 238.404416 
L 121.837828 234.883331 
L 119.001299 231.212381 
L 116.320796 227.410773 
L 113.801353 223.498654 
L 110.996449 218.687494 
L 108.43501 213.783449 
L 106.120784 208.822599 
L 104.055732 203.83994 
L 102.240108 198.86863 
L 100.672564 193.93929 
L 99.350296 189.07942 
L 98.269208 184.312925 
L 97.424108 179.659766 
L 96.808903 175.135763 
L 96.416818 170.752523 
L 96.240596 166.517514 
L 96.272709 162.43427 
L 96.505544 158.502699 
L 96.931572 154.719505 
L 97.543503 151.078677 
L 98.334401 147.57203 
L 99.297787 144.189786 
L 100.631815 140.386631 
L 102.184007 136.720232 
L 103.946889 133.172989 
L 105.913985 129.72851 
L 108.079723 126.372365 
L 110.439303 123.09261 
L 113.367978 119.426232 
L 116.538849 115.838599 
L 119.946833 112.325065 
L 123.587029 108.884815 
L 127.454487 105.519918 
L 131.54405 102.23428 
L 135.85027 99.032611 
L 140.94655 95.536866 
L 146.301087 92.15885 
L 151.90487 88.902729 
L 157.74862 85.771654 
L 163.822823 82.768936 
L 170.117655 79.899869 
L 176.622751 77.173969 
L 183.326798 74.60732 
L 190.216959 72.224712 
L 196.485667 70.289442 
L 202.876979 68.559065 
L 208.558272 67.243297 
L 214.310295 66.143613 
L 219.286662 65.39763 
L 224.295371 64.855966 
L 229.325631 64.540817 
L 234.365541 64.474303 
L 238.563495 64.624277 
L 242.75107 64.973461 
L 246.919724 65.532565 
L 251.060491 66.311076 
L 255.164042 67.316997 
L 259.220745 68.556611 
L 263.220749 70.034274 
L 267.154063 71.752235 
L 271.010648 73.710501 
L 274.780513 75.906742 
L 278.453816 78.336245 
L 282.02096 80.991915 
L 285.472693 83.864325 
L 288.800204 86.941821 
L 291.995211 90.210669 
L 295.050049 93.655246 
L 297.957736 97.258278 
L 300.712044 101.001107 
L 303.307546 104.863986 
L 305.739658 108.8264 
L 308.437342 113.683173 
L 310.889679 118.616773 
L 313.093719 123.591504 
L 315.048266 128.573093 
L 316.753793 133.529424 
L 318.212311 138.431193 
L 319.427219 143.252442 
L 320.403121 147.970975 
L 321.145635 152.56865 
L 321.661181 157.031511 
L 321.956774 161.349801 
L 322.039815 165.517826 
L 321.917892 169.533703 
L 321.5986 173.398998 
L 321.089381 177.118274 
L 320.397379 180.698574 
L 319.52934 184.14886 
L 318.491521 187.479432 
L 317.073751 191.228575 
L 315.440775 194.847727 
L 313.59968 198.354132 
L 311.556586 201.763514 
L 309.316755 205.089408 
L 306.884734 208.342725 
L 303.875047 211.982172 
L 300.624888 215.544889 
L 297.13925 219.03416 
L 293.423031 222.449729 
L 289.481233 225.788799 
L 285.319104 229.047088 
L 280.380273 232.610168 
L 275.178001 236.058675 
L 269.721095 239.387594 
L 264.018683 242.593265 
L 258.080142 245.672655 
L 251.915092 248.621897 
L 245.53354 251.434264 
L 238.946178 254.097851 
L 232.164858 256.593269 
L 225.985173 258.647181 
L 219.67425 260.518292 
L 213.245401 262.172396 
L 207.535787 263.409827 
L 201.76037 264.41911 
L 196.768424 265.077346 
L 191.748776 265.521466 
L 186.712709 265.729229 
L 181.672614 265.678755 
L 177.479139 265.424336 
L 173.300525 264.964879 
L 169.145547 264.290293 
L 165.023371 263.391848 
L 160.943496 262.262427 
L 156.915681 260.896745 
L 152.949862 259.291549 
L 149.056066 257.445764 
L 145.24432 255.360616 
L 141.524548 253.0397 
L 137.906474 250.488998 
L 134.399524 247.716852 
L 131.012727 244.73389 
L 127.754624 241.55289 
L 124.633178 238.188619 
L 121.655702 234.657606 
L 118.828782 230.977898 
L 116.158227 227.16877 
L 113.649021 223.250416 
L 110.856703 218.433508 
L 108.30809 213.525613 
L 106.006836 208.562772 
L 103.954812 203.579906 
L 102.152183 198.610054 
L 100.597522 193.68369 
L 99.287953 188.828136 
L 98.21932 184.067098 
L 97.386376 179.420326 
L 96.78299 174.90342 
L 96.402354 170.527767 
L 96.237194 166.300626 
L 96.279972 162.22533 
L 96.523075 158.301611 
L 96.958984 154.526018 
L 97.580423 150.892412 
L 98.380481 147.392512 
L 99.3527 144.01647 
L 100.696662 140.219818 
L 102.258432 136.559119 
L 104.030582 133.016812 
L 106.006678 129.576576 
L 108.181185 126.224084 
L 110.549334 122.947511 
L 113.487591 119.284357 
L 116.667837 115.699684 
L 120.085003 112.189013 
L 123.734189 108.751658 
L 127.61044 105.389782 
L 131.708588 102.10734 
L 136.023174 98.909056 
L 141.128588 95.417322 
L 146.49195 92.043485 
L 152.104241 88.791666 
L 157.956171 85.664996 
L 164.038218 82.666822 
L 170.340544 79.802545 
L 176.852759 77.081872 
L 183.563508 74.521155 
L 190.459889 72.14552 
L 196.733647 70.217625 
L 203.129471 68.496013 
L 208.814192 67.189254 
L 214.569076 66.099979 
L 219.54738 65.364118 
L 224.55749 64.833725 
L 229.588558 64.53101 
L 234.628624 64.47807 
L 238.826169 64.640188 
L 243.012814 65.002217 
L 247.179988 65.5748 
L 251.318702 66.367336 
L 255.419604 67.387728 
L 259.473047 68.642145 
L 263.469168 70.134815 
L 267.39797 71.867851 
L 271.249415 73.841115 
L 275.013519 76.05213 
L 278.680452 78.496031 
L 282.240634 81.165576 
L 285.68484 84.051196 
L 289.004288 87.141101 
L 292.190735 90.421432 
L 295.236553 93.876456 
L 298.134808 97.488805 
L 300.87932 101.239743 
L 303.464714 105.109464 
L 305.886459 109.077417 
L 308.57144 113.939096 
L 311.010874 118.875717 
L 313.201906 123.851638 
L 315.14343 128.83268 
L 316.836002 133.786861 
L 318.281709 138.685038 
L 319.484019 143.50144 
L 320.447593 148.214078 
L 321.178095 152.805024 
L 321.681983 157.260545 
L 321.966297 161.571099 
L 322.038451 165.731197 
L 321.906039 169.739148 
L 321.576652 173.596684 
L 321.057719 177.308513 
L 320.356366 180.881791 
L 319.479315 184.325565 
L 318.432796 187.650188 
L 317.005233 191.393134 
L 315.362802 195.006882 
L 313.512546 198.508625 
L 311.460544 201.914001 
L 309.212022 205.236435 
L 306.407417 208.945651 
L 303.357903 212.572103 
L 300.068755 216.122645 
L 296.544932 219.599916 
L 292.791336 223.003173 
L 288.813004 226.329301 
L 284.615231 229.573874 
L 279.637428 233.120605 
L 274.397446 236.55194 
L 268.904143 239.863078 
L 263.16669 243.050513 
L 257.194492 246.111198 
L 250.997218 249.040984 
L 244.584949 251.832539 
L 237.968513 254.473002 
L 231.159982 256.941719 
L 224.957935 258.967682 
L 218.62668 260.805701 
L 212.991546 262.232189 
L 207.27871 263.460095 
L 201.500669 264.458405 
L 196.507015 265.106014 
L 191.486222 265.538347 
L 186.449629 265.733167 
L 182.249347 265.698296 
L 178.054491 265.471189 
L 173.873326 265.040523 
L 169.714567 264.396039 
L 165.587329 263.528805 
L 161.50107 262.431468 
L 157.465518 261.098481 
L 153.49059 259.5263 
L 149.586306 257.713544 
L 145.762698 255.661117 
L 142.02971 253.372287 
L 138.3971 250.852708 
L 134.87434 248.110402 
L 131.470521 245.155688 
L 131.470521 245.155688 
" clip-path="url(#p4940e58da2)" style="fill: none; stroke: #d62728; stroke-width: 1.5; stroke-linecap: square"/>
   </g>
   <g id="line2d_17">
    <path d="M 398.487273 237.812966 
" clip-path="url(#p4940e58da2)" style="fill: none; stroke: #ff7f0e; stroke-width: 1.5; stroke-linecap: square"/>
    <defs>
     <path id="mfbaa52afd7" d="M 0 2 
C 0.530406 2 1.03916 1.789267 1.414214 1.414214 
C 1.789267 1.03916 2 0.530406 2 0 
C 2 -0.530406 1.789267 -1.03916 1.414214 -1.414214 
C 1.03916 -1.789267 0.530406 -2 0 -2 
C -0.530406 -2 -1.03916 -1.789267 -1.414214 -1.414214 
C -1.789267 -1.03916 -2 -0.530406 -2 0 
C -2 0.530406 -1.789267 1.03916 -1.414214 1.414214 
C -1.03916 1.789267 -0.530406 2 0 2 
z
" style="stroke: #000000; stroke-opacity: 0"/>
    </defs>
    <g clip-path="url(#p4940e58da2)">
     <use xlink:href="#mfbaa52afd7" x="398.487273" y="237.812966" style="fill: #d62728; stroke: #000000; stroke-opacity: 0"/>
    </g>
   </g>
   <g id="patch_3">
    <path d="M 57.6 307.584 
L 57.6 41.472 
" style="fill: none; stroke: #000000; stroke-width: 0.8; stroke-linejoin: miter; stroke-linecap: square"/>
   </g>
   <g id="patch_4">
    <path d="M 414.72 307.584 
L 414.72 41.472 
" style="fill: none; stroke: #000000; stroke-width: 0.8; stroke-linejoin: miter; stroke-linecap: square"/>
   </g>
   <g id="patch_5">
    <path d="M 57.6 307.584 
L 414.72 307.584 
" style="fill: none; stroke: #000000; stroke-width: 0.8; stroke-linejoin: miter; stroke-linecap: square"/>
   </g>
   <g id="patch_6">
    <path d="M 57.6 41.472 
L 414.72 41.472 
" style="fill: none; stroke: #000000; stroke-width: 0.8; stroke-linejoin: miter; stroke-linecap: square"/>
   </g>
   <g id="line2d_18">
    <path d="M 321.54802 173.847326 
L 320.984027 177.738866 
L 320.219003 181.478142 
L 319.24606 185.124971 
L 318.064617 188.686447 
L 316.673847 192.171483 
L 315.050238 195.634416 
L 313.184708 199.081961 
L 311.06784 202.521382 
L 308.689832 205.95956 
L 306.008075 209.442121 
L 303.039459 212.930756 
L 299.77334 216.426114 
L 296.199113 219.925527 
L 292.306446 223.423051 
L 288.130747 226.874046 
L 283.670469 230.270665 
L 278.924758 233.604457 
L 273.89349 236.867265 
L 268.522384 240.083342 
L 262.863003 243.212202 
L 256.858051 246.276448 
L 250.565458 249.236392 
L 244.052906 252.053734 
L 237.397316 254.689788 
L 230.818786 257.058767 
L 224.350748 259.154259 
L 218.094928 260.948985 
L 212.084313 262.442333 
L 206.348503 263.637929 
L 200.913453 264.545261 
L 195.727988 265.187918 
L 190.735786 265.583009 
L 185.950726 265.738693 
L 181.384611 265.667624 
L 176.973669 265.379955 
L 172.653354 264.874443 
L 168.504833 264.166011 
L 164.462365 263.251073 
L 160.532974 262.134915 
L 156.72299 260.82487 
L 152.969027 259.299954 
L 149.2796 257.559296 
L 145.663224 255.603874 
L 142.128337 253.436568 
L 138.683224 251.062179 
L 135.335946 248.487413 
L 132.03527 245.66785 
L 128.795181 242.60388 
L 125.630122 239.298853 
L 122.606602 235.821708 
L 119.633329 232.059998 
L 116.779582 228.086333 
L 114.060134 223.917103 
L 111.489388 219.571848 
L 109.044641 215.001054 
L 106.782364 210.300237 
L 104.714949 205.497683 
L 102.82765 200.550469 
L 101.163604 195.562858 
L 99.73135 190.566206 
L 98.537877 185.590646 
L 97.600039 180.731686 
L 96.911265 176.008166 
L 96.459524 171.370748 
L 96.247909 166.89647 
L 96.267679 162.589971 
L 96.509971 158.451413 
L 96.966016 154.477009 
L 97.627339 150.659651 
L 98.485909 146.989621 
L 99.550124 143.407136 
L 100.820754 139.904387 
L 102.319831 136.427053 
L 104.056289 132.969032 
L 106.039355 129.523209 
L 108.27862 126.082349 
L 110.784065 122.640046 
L 113.599633 119.15196 
L 116.707356 115.657223 
L 120.11789 112.156698 
L 123.841745 108.654604 
L 127.845177 105.194655 
L 132.176478 101.748438 
L 136.795515 98.361559 
L 141.702726 95.042531 
L 146.897811 91.799249 
L 152.37977 88.638684 
L 158.205167 85.537427 
L 164.317809 82.534696 
L 170.714328 79.639963 
L 177.325647 76.893421 
L 183.940586 74.384517 
L 190.530252 72.122645 
L 196.927508 70.161736 
L 203.026734 68.521621 
L 208.864996 67.178581 
L 214.414796 66.125934 
L 219.725394 65.341562 
L 224.77809 64.815489 
L 229.630724 64.529501 
L 234.344326 64.474038 
L 238.834475 64.640705 
L 243.165623 65.019389 
L 247.402764 65.611648 
L 251.537725 66.415781 
L 255.562917 67.427816 
L 259.471417 68.641591 
L 263.257037 70.048901 
L 266.982777 71.671701 
L 270.640112 73.510033 
L 274.220555 75.56206 
L 277.715726 77.82403 
L 281.117433 80.290275 
L 284.477857 83.004351 
L 287.725075 85.912574 
L 290.907184 89.060981 
L 294.009812 92.445083 
L 297.018322 96.057244 
L 299.917967 99.886584 
L 302.694062 103.918959 
L 305.373831 108.207048 
L 307.895116 112.66324 
L 310.244198 117.26323 
L 312.439771 122.053158 
L 314.431406 126.931899 
L 316.208367 131.868649 
L 317.761322 136.832374 
L 319.082425 141.792695 
L 320.165343 146.720784 
L 320.995329 151.523587 
L 321.579348 156.184351 
L 321.92832 160.753532 
L 322.040838 165.157033 
L 321.925724 169.392168 
L 321.591826 173.460519 
L 321.54802 173.847326 
L 321.54802 173.847326 
" clip-path="url(#p4940e58da2)" style="fill: none; stroke: #000000; stroke-width: 2; stroke-linecap: square"/>
   </g>
  </g>
 </g>
 <defs>
  <clipPath id="p4940e58da2">
   <rect x="57.6" y="41.472" width="357.12" height="266.112"/>
  </clipPath>
 </defs>
</svg>
