<?xml version="1.0" encoding="utf-8" standalone="no"?>
<!DOCTYPE svg PUBLIC "-//W3C//DTD SVG 1.1//EN"
  "http://www.w3.org/Graphics/SVG/1.1/DTD/svg11.dtd">
<svg xmlns:xlink="http://www.w3.org/1999/xlink" width="460.8pt" height="345.6pt" viewBox="0 0 460.8 345.6" xmlns="http://www.w3.org/2000/svg" version="1.1">
 <metadata>
  <rdf:RDF xmlns:dc="http://purl.org/dc/elements/1.1/" xmlns:cc="http://creativecommons.org/ns#" xmlns:rdf="http://www.w3.org/1999/02/22-rdf-syntax-ns#">
   <cc:Work>
    <dc:type rdf:resource="http://purl.org/dc/dcmitype/StillImage"/>
    <dc:date>2026-04-17T14:17:20.034491</dc:date>
    <dc:format>image/svg+xml</dc:format>
    <dc:creator>
     <cc:Agent>
      <dc:title>Matplotlib v3.10.6, https://matplotlib.org/</dc:title>
     </cc:Agent>
    </dc:creator>
   </cc:Work>
  </rdf:RDF>
 </metadata>
 <defs>
  <style type="text/css">*{stroke-linejoin: round; stroke-linecap: butt}</style>
 </defs>
 <g id="figure_1">
  <g id="patch_1">
   <path d="M 0 345.6 
L 460.8 345.6 
L 460.8 0 
L 0 0 
z
" style="fill: #ffffff"/>
  </g>
  <g id="axes_1">
   <g id="patch_2">
    <path d="M 57.6 307.584 
L 414.72 307.584 
L 414.72 41.472 
L 57.6 41.472 
z
" style="fill: #ffffff"/>
   </g>
   <g id="matplotlib.axis_1">
    <g id="xtick_1">
     <g id="line2d_1">
      <defs>
       <path id="m7c719d9973" d="M 0 0 
L 0 3.5 
" style="stroke: #000000; stroke-width: 0.8"/>
      </defs>
      <g>
       <use xlink:href="#m7c719d9973" x="73.832727" y="307.584" style="stroke: #000000; stroke-width: 0.8"/>
      </g>
     </g>
     <g id="text_1">
      <!-- 0 -->
      <g transform="translate(70.651477 322.182437) scale(0.1 -0.1)">
       <defs>
        <path id="DejaVuSans-30" d="M 2034 4250 
Q 1547 4250 1301 3770 
Q 1056 3291 1056 2328 
Q 1056 1369 1301 889 
Q 1547 409 2034 409 
Q 2525 409 2770 889 
Q 3016 1369 3016 2328 
Q 3016 3291 2770 3770 
Q 2525 4250 2034 4250 
z
M 2034 4750 
Q 2819 4750 3233 4129 
Q 3647 3509 3647 2328 
Q 3647 1150 3233 529 
Q 2819 -91 2034 -91 
Q 1250 -91 836 529 
Q 422 1150 422 2328 
Q 422 3509 836 4129 
Q 1250 4750 2034 4750 
z
" transform="scale(0.015625)"/>
       </defs>
       <use xlink:href="#DejaVuSans-30"/>
      </g>
     </g>
    </g>
    <g id="xtick_2">
     <g id="line2d_2">
      <g>
       <use xlink:href="#m7c719d9973" x="127.941818" y="307.584" style="stroke: #000000; stroke-width: 0.8"/>
      </g>
     </g>
     <g id="text_2">
      <!-- 10 -->
      <g transform="translate(121.579318 322.182437) scale(0.1 -0.1)">
       <defs>
        <path id="DejaVuSans-31" d="M 794 531 
L 1825 531 
L 1825 4091 
L 703 3866 
L 703 4441 
L 1819 4666 
L 2450 4666 
L 2450 531 
L 3481 531 
L 3481 0 
L 794 0 
L 794 531 
z
" transform="scale(0.015625)"/>
       </defs>
       <use xlink:href="#DejaVuSans-31"/>
       <use xlink:href="#DejaVuSans-30" transform="translate(63.623047 0)"/>
      </g>
     </g>
    </g>
    <g id="xtick_3">
     <g id="line2d_3">
      <g>
       <use xlink:href="#m7c719d9973" x="182.050909" y="307.584" style="stroke: #000000; stroke-width: 0.8"/>
      </g>
     </g>
     <g id="text_3">
      <!-- 20 -->
      <g transform="translate(175.688409 322.182437) scale(0.1 -0.1)">
       <defs>
        <path id="DejaVuSans-32" d="M 1228 531 
L 3431 531 
L 3431 0 
L 469 0 
L 469 531 
Q 828 903 1448 1529 
Q 2069 2156 2228 2338 
Q 2531 2678 2651 2914 
Q 2772 3150 2772 3378 
Q 2772 3750 2511 3984 
Q 2250 4219 1831 4219 
Q 1534 4219 1204 4116 
Q 875 4013 500 3803 
L 500 4441 
Q 881 4594 1212 4672 
Q 1544 4750 1819 4750 
Q 2544 4750 2975 4387 
Q 3406 4025 3406 3419 
Q 3406 3131 3298 2873 
Q 3191 2616 2906 2266 
Q 2828 2175 2409 1742 
Q 1991 1309 1228 531 
z
" transform="scale(0.015625)"/>
       </defs>
       <use xlink:href="#DejaVuSans-32"/>
       <use xlink:href="#DejaVuSans-30" transform="translate(63.623047 0)"/>
      </g>
     </g>
    </g>
    <g id="xtick_4">
     <g id="line2d_4">
      <g>
       <use xlink:href="#m7c719d9973" x="236.16" y="307.584" style="stroke: #000000; stroke-width: 0.8"/>
      </g>
     </g>
     <g id="text_4">
      <!-- 30 -->
      <g transform="translate(229.7975 322.182437) scale(0.1 -0.1)">
       <defs>
        <path id="DejaVuSans-33" d="M 2597 2516 
Q 3050 2419 3304 2112 
Q 3559 1806 3559 1356 
Q 3559 666 3084 287 
Q 2609 -91 1734 -91 
Q 1441 -91 1130 -33 
Q 819 25 488 141 
L 488 750 
Q 750 597 1062 519 
Q 1375 441 1716 441 
Q 2309 441 2620 675 
Q 2931 909 2931 1356 
Q 2931 1769 2642 2001 
Q 2353 2234 1838 2234 
L 1294 2234 
L 1294 2753 
L 1863 2753 
Q 2328 2753 2575 2939 
Q 2822 3125 2822 3475 
Q 2822 3834 2567 4026 
Q 2313 4219 1838 4219 
Q 1578 4219 1281 4162 
Q 984 4106 628 3988 
L 628 4550 
Q 988 4650 1302 4700 
Q 1616 4750 1894 4750 
Q 2613 4750 3031 4423 
Q 3450 4097 3450 3541 
Q 3450 3153 3228 2886 
Q 3006 2619 2597 2516 
z
" transform="scale(0.015625)"/>
       </defs>
       <use xlink:href="#DejaVuSans-33"/>
       <use xlink:href="#DejaVuSans-30" transform="translate(63.623047 0)"/>
      </g>
     </g>
    </g>
    <g id="xtick_5">
     <g id="line2d_5">
      <g>
       <use xlink:href="#m7c719d9973" x="290.269091" y="307.584" style="stroke: #000000; stroke-width: 0.8"/>
      </g>
     </g>
     <g id="text_5">
      <!-- 40 -->
      <g transform="translate(283.906591 322.182437) scale(0.1 -0.1)">
       <defs>
        <path id="DejaVuSans-34" d="M 2419 4116 
L 825 1625 
L 2419 1625 
L 2419 4116 
z
M 2253 4666 
L 3047 4666 
L 3047 1625 
L 3713 1625 
L 3713 1100 
L 3047 1100 
L 3047 0 
L 2419 0 
L 2419 1100 
L 313 1100 
L 313 1709 
L 2253 4666 
z
" transform="scale(0.015625)"/>
       </defs>
       <use xlink:href="#DejaVuSans-34"/>
       <use xlink:href="#DejaVuSans-30" transform="translate(63.623047 0)"/>
      </g>
     </g>
    </g>
    <g id="xtick_6">
     <g id="line2d_6">
      <g>
       <use xlink:href="#m7c719d9973" x="344.378182" y="307.584" style="stroke: #000000; stroke-width: 0.8"/>
      </g>
     </g>
     <g id="text_6">
      <!-- 50 -->
      <g transform="translate(338.015682 322.182437) scale(0.1 -0.1)">
       <defs>
        <path id="DejaVuSans-35" d="M 691 4666 
L 3169 4666 
L 3169 4134 
L 1269 4134 
L 1269 2991 
Q 1406 3038 1543 3061 
Q 1681 3084 1819 3084 
Q 2600 3084 3056 2656 
Q 3513 2228 3513 1497 
Q 3513 744 3044 326 
Q 2575 -91 1722 -91 
Q 1428 -91 1123 -41 
Q 819 9 494 109 
L 494 744 
Q 775 591 1075 516 
Q 1375 441 1709 441 
Q 2250 441 2565 725 
Q 2881 1009 2881 1497 
Q 2881 1984 2565 2268 
Q 2250 2553 1709 2553 
Q 1456 2553 1204 2497 
Q 953 2441 691 2322 
L 691 4666 
z
" transform="scale(0.015625)"/>
       </defs>
       <use xlink:href="#DejaVuSans-35"/>
       <use xlink:href="#DejaVuSans-30" transform="translate(63.623047 0)"/>
      </g>
     </g>
    </g>
    <g id="xtick_7">
     <g id="line2d_7">
      <g>
       <use xlink:href="#m7c719d9973" x="398.487273" y="307.584" style="stroke: #000000; stroke-width: 0.8"/>
      </g>
     </g>
     <g id="text_7">
      <!-- 60 -->
      <g transform="translate(392.124773 322.182437) scale(0.1 -0.1)">
       <defs>
        <path id="DejaVuSans-36" d="M 2113 2584 
Q 1688 2584 1439 2293 
Q 1191 2003 1191 1497 
Q 1191 994 1439 701 
Q 1688 409 2113 409 
Q 2538 409 2786 701 
Q 3034 994 3034 1497 
Q 3034 2003 2786 2293 
Q 2538 2584 2113 2584 
z
M 3366 4563 
L 3366 3988 
Q 3128 4100 2886 4159 
Q 2644 4219 2406 4219 
Q 1781 4219 1451 3797 
Q 1122 3375 1075 2522 
Q 1259 2794 1537 2939 
Q 1816 3084 2150 3084 
Q 2853 3084 3261 2657 
Q 3669 2231 3669 1497 
Q 3669 778 3244 343 
Q 2819 -91 2113 -91 
Q 1303 -91 875 529 
Q 447 1150 447 2328 
Q 447 3434 972 4092 
Q 1497 4750 2381 4750 
Q 2619 4750 2861 4703 
Q 3103 4656 3366 4563 
z
" transform="scale(0.015625)"/>
       </defs>
       <use xlink:href="#DejaVuSans-36"/>
       <use xlink:href="#DejaVuSans-30" transform="translate(63.623047 0)"/>
      </g>
     </g>
    </g>
    <g id="text_8">
     <!-- $t$ -->
     <g transform="translate(234.16 335.860562) scale(0.1 -0.1)">
      <defs>
       <path id="DejaVuSans-Oblique-74" d="M 2706 3500 
L 2619 3053 
L 1472 3053 
L 1100 1153 
Q 1081 1047 1072 975 
Q 1063 903 1063 863 
Q 1063 663 1183 572 
Q 1303 481 1569 481 
L 2150 481 
L 2053 0 
L 1503 0 
Q 991 0 739 200 
Q 488 400 488 806 
Q 488 878 497 964 
Q 506 1050 525 1153 
L 897 3053 
L 409 3053 
L 500 3500 
L 978 3500 
L 1172 4494 
L 1747 4494 
L 1556 3500 
L 2706 3500 
z
" transform="scale(0.015625)"/>
      </defs>
      <use xlink:href="#DejaVuSans-Oblique-74" transform="translate(0 0.78125)"/>
     </g>
    </g>
   </g>
   <g id="matplotlib.axis_2">
    <g id="ytick_1">
     <g id="line2d_8">
      <defs>
       <path id="mfedb555694" d="M 0 0 
L -3.5 0 
" style="stroke: #000000; stroke-width: 0.8"/>
      </defs>
      <g>
       <use xlink:href="#mfedb555694" x="57.6" y="295.755628" style="stroke: #000000; stroke-width: 0.8"/>
      </g>
     </g>
     <g id="text_9">
      <!-- −2.0 -->
      <g transform="translate(26.317187 299.554847) scale(0.1 -0.1)">
       <defs>
        <path id="DejaVuSans-2212" d="M 678 2272 
L 4684 2272 
L 4684 1741 
L 678 1741 
L 678 2272 
z
" transform="scale(0.015625)"/>
        <path id="DejaVuSans-2e" d="M 684 794 
L 1344 794 
L 1344 0 
L 684 0 
L 684 794 
z
" transform="scale(0.015625)"/>
       </defs>
       <use xlink:href="#DejaVuSans-2212"/>
       <use xlink:href="#DejaVuSans-32" transform="translate(83.789062 0)"/>
       <use xlink:href="#DejaVuSans-2e" transform="translate(147.412109 0)"/>
       <use xlink:href="#DejaVuSans-30" transform="translate(179.199219 0)"/>
      </g>
     </g>
    </g>
    <g id="ytick_2">
     <g id="line2d_9">
      <g>
       <use xlink:href="#mfedb555694" x="57.6" y="265.448685" style="stroke: #000000; stroke-width: 0.8"/>
      </g>
     </g>
     <g id="text_10">
      <!-- −1.5 -->
      <g transform="translate(26.317187 269.247904) scale(0.1 -0.1)">
       <use xlink:href="#DejaVuSans-2212"/>
       <use xlink:href="#DejaVuSans-31" transform="translate(83.789062 0)"/>
       <use xlink:href="#DejaVuSans-2e" transform="translate(147.412109 0)"/>
       <use xlink:href="#DejaVuSans-35" transform="translate(179.199219 0)"/>
      </g>
     </g>
    </g>
    <g id="ytick_3">
     <g id="line2d_10">
      <g>
       <use xlink:href="#mfedb555694" x="57.6" y="235.141742" style="stroke: #000000; stroke-width: 0.8"/>
      </g>
     </g>
     <g id="text_11">
      <!-- −1.0 -->
      <g transform="translate(26.317187 238.940961) scale(0.1 -0.1)">
       <use xlink:href="#DejaVuSans-2212"/>
       <use xlink:href="#DejaVuSans-31" transform="translate(83.789062 0)"/>
       <use xlink:href="#DejaVuSans-2e" transform="translate(147.412109 0)"/>
       <use xlink:href="#DejaVuSans-30" transform="translate(179.199219 0)"/>
      </g>
     </g>
    </g>
    <g id="ytick_4">
     <g id="line2d_11">
      <g>
       <use xlink:href="#mfedb555694" x="57.6" y="204.834799" style="stroke: #000000; stroke-width: 0.8"/>
      </g>
     </g>
     <g id="text_12">
      <!-- −0.5 -->
      <g transform="translate(26.317187 208.634018) scale(0.1 -0.1)">
       <use xlink:href="#DejaVuSans-2212"/>
       <use xlink:href="#DejaVuSans-30" transform="translate(83.789062 0)"/>
       <use xlink:href="#DejaVuSans-2e" transform="translate(147.412109 0)"/>
       <use xlink:href="#DejaVuSans-35" transform="translate(179.199219 0)"/>
      </g>
     </g>
    </g>
    <g id="ytick_5">
     <g id="line2d_12">
      <g>
       <use xlink:href="#mfedb555694" x="57.6" y="174.527856" style="stroke: #000000; stroke-width: 0.8"/>
      </g>
     </g>
     <g id="text_13">
      <!-- 0.0 -->
      <g transform="translate(34.696875 178.327075) scale(0.1 -0.1)">
       <use xlink:href="#DejaVuSans-30"/>
       <use xlink:href="#DejaVuSans-2e" transform="translate(63.623047 0)"/>
       <use xlink:href="#DejaVuSans-30" transform="translate(95.410156 0)"/>
      </g>
     </g>
    </g>
    <g id="ytick_6">
     <g id="line2d_13">
      <g>
       <use xlink:href="#mfedb555694" x="57.6" y="144.220913" style="stroke: #000000; stroke-width: 0.8"/>
      </g>
     </g>
     <g id="text_14">
      <!-- 0.5 -->
      <g transform="translate(34.696875 148.020132) scale(0.1 -0.1)">
       <use xlink:href="#DejaVuSans-30"/>
       <use xlink:href="#DejaVuSans-2e" transform="translate(63.623047 0)"/>
       <use xlink:href="#DejaVuSans-35" transform="translate(95.410156 0)"/>
      </g>
     </g>
    </g>
    <g id="ytick_7">
     <g id="line2d_14">
      <g>
       <use xlink:href="#mfedb555694" x="57.6" y="113.913971" style="stroke: #000000; stroke-width: 0.8"/>
      </g>
     </g>
     <g id="text_15">
      <!-- 1.0 -->
      <g transform="translate(34.696875 117.713189) scale(0.1 -0.1)">
       <use xlink:href="#DejaVuSans-31"/>
       <use xlink:href="#DejaVuSans-2e" transform="translate(63.623047 0)"/>
       <use xlink:href="#DejaVuSans-30" transform="translate(95.410156 0)"/>
      </g>
     </g>
    </g>
    <g id="ytick_8">
     <g id="line2d_15">
      <g>
       <use xlink:href="#mfedb555694" x="57.6" y="83.607028" style="stroke: #000000; stroke-width: 0.8"/>
      </g>
     </g>
     <g id="text_16">
      <!-- 1.5 -->
      <g transform="translate(34.696875 87.406246) scale(0.1 -0.1)">
       <use xlink:href="#DejaVuSans-31"/>
       <use xlink:href="#DejaVuSans-2e" transform="translate(63.623047 0)"/>
       <use xlink:href="#DejaVuSans-35" transform="translate(95.410156 0)"/>
      </g>
     </g>
    </g>
    <g id="ytick_9">
     <g id="line2d_16">
      <g>
       <use xlink:href="#mfedb555694" x="57.6" y="53.300085" style="stroke: #000000; stroke-width: 0.8"/>
      </g>
     </g>
     <g id="text_17">
      <!-- 2.0 -->
      <g transform="translate(34.696875 57.099303) scale(0.1 -0.1)">
       <use xlink:href="#DejaVuSans-32"/>
       <use xlink:href="#DejaVuSans-2e" transform="translate(63.623047 0)"/>
       <use xlink:href="#DejaVuSans-30" transform="translate(95.410156 0)"/>
      </g>
     </g>
    </g>
    <g id="text_18">
     <!-- $x_0$ -->
     <g transform="translate(20.2375 179.878) rotate(-90) scale(0.1 -0.1)">
      <defs>
       <path id="DejaVuSans-Oblique-78" d="M 3841 3500 
L 2234 1784 
L 3219 0 
L 2559 0 
L 1819 1388 
L 531 0 
L -166 0 
L 1556 1844 
L 641 3500 
L 1300 3500 
L 1972 2234 
L 3144 3500 
L 3841 3500 
z
" transform="scale(0.015625)"/>
      </defs>
      <use xlink:href="#DejaVuSans-Oblique-78" transform="translate(0 0.3125)"/>
      <use xlink:href="#DejaVuSans-30" transform="translate(59.179688 -16.09375) scale(0.7)"/>
     </g>
    </g>
   </g>
   <g id="line2d_17">
    <path d="M 73.832727 144.226685 
L 74.25482 144.040999 
L 74.644445 144.104956 
L 75.034069 144.398246 
L 75.488631 145.03238 
L 76.040599 146.22456 
L 76.689973 148.211498 
L 77.436753 151.250685 
L 78.345877 155.966764 
L 79.417344 162.783612 
L 80.813498 173.231504 
L 85.164304 206.952274 
L 86.138365 212.279699 
L 86.917614 215.404379 
L 87.534519 217.065461 
L 88.02155 217.83472 
L 88.411174 218.093404 
L 88.735861 218.062289 
L 89.060548 217.80484 
L 89.450173 217.196103 
L 89.937203 215.976478 
L 90.52164 213.848323 
L 91.203483 210.473781 
L 92.0152 205.266365 
L 92.989261 197.456897 
L 94.158134 186.179892 
L 95.781569 168.142382 
L 98.703753 135.487611 
L 99.807688 125.788671 
L 100.651875 120.1685 
L 101.333717 116.969335 
L 101.885685 115.32757 
L 102.307778 114.665272 
L 102.632465 114.510738 
L 102.892215 114.61025 
L 103.216902 115.013277 
L 103.606526 115.903317 
L 104.093557 117.631718 
L 104.677994 120.589221 
L 105.392305 125.465138 
L 106.236491 132.913839 
L 107.243021 143.96548 
L 108.444363 159.774307 
L 110.132735 185.269978 
L 112.730232 224.444986 
L 113.801699 237.265829 
L 114.645885 244.900415 
L 115.327728 249.21334 
L 115.879696 251.415466 
L 116.301789 252.307426 
L 116.594007 252.523398 
L 116.821288 252.466 
L 117.081038 252.161343 
L 117.438193 251.331815 
L 117.892755 249.602721 
L 118.444723 246.520115 
L 119.126566 241.286399 
L 119.905815 233.482913 
L 120.847407 221.658703 
L 121.951343 204.832868 
L 123.347497 179.880124 
L 127.503491 102.913251 
L 128.380146 91.97124 
L 129.094457 85.619132 
L 129.678894 82.244679 
L 130.133456 80.760098 
L 130.458143 80.299874 
L 130.685423 80.268859 
L 130.912704 80.472631 
L 131.204923 81.071959 
L 131.594547 82.444401 
L 132.081578 85.04615 
L 132.698483 89.686565 
L 133.445263 97.198257 
L 134.321918 108.481352 
L 135.360916 124.996031 
L 136.594727 148.453806 
L 138.185693 183.312363 
L 141.010471 245.704775 
L 141.984532 262.045062 
L 142.76378 271.640673 
L 143.380686 276.810839 
L 143.900185 279.484072 
L 144.289809 280.507595 
L 144.582028 280.743664 
L 144.77684 280.656404 
L 145.036589 280.245195 
L 145.393745 279.149162 
L 145.848307 276.907481 
L 146.400275 272.983439 
L 147.082118 266.431501 
L 147.893835 256.338746 
L 148.835428 241.74091 
L 149.971832 220.397762 
L 151.335518 190.240862 
L 153.445983 137.703055 
L 155.069418 99.572321 
L 156.043479 81.538166 
L 156.822728 70.985873 
L 157.439633 65.329362 
L 157.959133 62.416692 
L 158.348757 61.3006 
L 158.608507 61.041878 
L 158.803319 61.092432 
L 159.0306 61.407088 
L 159.355287 62.31529 
L 159.77738 64.261239 
L 160.329348 68.026977 
L 160.978722 74.104197 
L 161.757971 83.583483 
L 162.667094 97.448804 
L 163.738561 117.336388 
L 165.004841 145.1603 
L 166.660745 186.910033 
L 169.258241 252.590306 
L 170.199833 270.755584 
L 170.946613 281.358037 
L 171.563519 287.32986 
L 172.083018 290.410364 
L 172.472642 291.602209 
L 172.76486 291.900224 
L 172.959673 291.828293 
L 173.186954 291.481919 
L 173.511641 290.518264 
L 173.933734 288.487298 
L 174.485702 284.596554 
L 175.167544 278.003892 
L 175.979262 267.766905 
L 176.920854 252.866522 
L 178.02479 231.621317 
L 179.323538 202.090842 
L 181.044379 157.342442 
L 183.382126 96.839058 
L 184.356187 77.339702 
L 185.102967 66.344931 
L 185.719872 60.122886 
L 186.239372 56.884076 
L 186.628996 55.602018 
L 186.921214 55.25027 
L 187.116027 55.292149 
L 187.343307 55.608554 
L 187.667994 56.537482 
L 188.090088 58.534484 
L 188.642055 62.394143 
L 189.323898 68.961625 
L 190.135616 79.18226 
L 191.077208 94.083653 
L 192.181144 115.363954 
L 193.479892 144.991666 
L 195.168264 189.138707 
L 197.635886 253.668706 
L 198.609947 273.151544 
L 199.356727 284.045479 
L 199.973632 290.141955 
L 200.493131 293.257008 
L 200.882756 294.440944 
L 201.142506 294.712274 
L 201.337318 294.656911 
L 201.564599 294.323604 
L 201.889286 293.368962 
L 202.311379 291.336926 
L 202.863347 287.430487 
L 203.545189 280.805282 
L 204.356907 270.515873 
L 205.298499 255.532355 
L 206.402435 234.150288 
L 207.701183 204.393432 
L 209.357087 160.942235 
L 211.889646 94.450786 
L 212.831238 75.597443 
L 213.578018 64.645497 
L 214.194923 58.518326 
L 214.714423 55.388394 
L 215.104047 54.198783 
L 215.363797 53.925793 
L 215.558609 53.980835 
L 215.78589 54.314606 
L 216.110577 55.271165 
L 216.53267 57.307283 
L 217.084638 61.22069 
L 217.766481 67.855801 
L 218.578198 78.1583 
L 219.519791 93.159513 
L 220.623726 114.567138 
L 221.922474 144.362135 
L 223.578378 187.883845 
L 226.110937 254.561117 
L 227.052529 273.494698 
L 227.799309 284.50404 
L 228.416215 290.671332 
L 228.935714 293.829178 
L 229.325338 295.036277 
L 229.585088 295.31942 
L 229.7799 295.271277 
L 230.007181 294.944854 
L 230.331868 293.997649 
L 230.753961 291.972053 
L 231.305929 288.070378 
L 231.987772 281.447715 
L 232.799489 271.158062 
L 233.741082 256.16908 
L 234.845018 234.771219 
L 236.143766 204.980162 
L 237.799669 161.443737 
L 240.332228 94.652868 
L 241.27382 75.649675 
L 242.020601 64.583162 
L 242.637506 58.37131 
L 243.157005 55.179449 
L 243.54663 53.949347 
L 243.838848 53.643194 
L 244.03366 53.717737 
L 244.260941 54.073892 
L 244.585628 55.061599 
L 245.007721 57.136595 
L 245.559689 61.098153 
L 246.241532 67.789325 
L 247.053249 78.155302 
L 247.994842 93.227281 
L 249.098778 114.714036 
L 250.397526 144.59611 
L 252.085898 189.109281 
L 254.553519 254.191922 
L 255.52758 273.821634 
L 256.274361 284.779378 
L 256.891266 290.897398 
L 257.378296 293.870424 
L 257.767921 295.126082 
L 258.060139 295.450112 
L 258.254951 295.386867 
L 258.482232 295.043285 
L 258.806919 294.072468 
L 259.229012 292.017757 
L 259.78098 288.080427 
L 260.462823 281.416637 
L 261.274541 271.080812 
L 262.216133 256.041001 
L 263.320069 234.587495 
L 264.618817 204.73728 
L 266.274721 161.140805 
L 268.807279 94.358488 
L 269.748872 75.404687 
L 270.495652 64.389896 
L 271.112557 58.224422 
L 271.632056 55.071538 
L 272.021681 53.869628 
L 272.28143 53.590431 
L 272.476243 53.641715 
L 272.703523 53.97194 
L 273.02821 54.92474 
L 273.450304 56.957718 
L 274.002271 60.868981 
L 274.684114 67.503213 
L 275.495832 77.806381 
L 276.437424 92.811139 
L 277.54136 114.227987 
L 278.840108 144.042282 
L 280.496012 187.61117 
L 283.02857 254.452451 
L 283.970163 273.467819 
L 284.716943 284.539592 
L 285.333848 290.752965 
L 285.853348 293.944464 
L 286.242972 295.17354 
L 286.53519 295.478606 
L 286.730002 295.403225 
L 286.957283 295.046002 
L 287.28197 294.05665 
L 287.704063 291.979391 
L 288.256031 288.014792 
L 288.937874 281.319865 
L 289.749592 270.949407 
L 290.691184 255.872046 
L 291.79512 234.378543 
L 293.093868 204.487775 
L 294.78224 159.96105 
L 297.249862 94.853548 
L 298.223923 75.215115 
L 298.970703 64.252292 
L 299.587608 58.131303 
L 300.074639 55.156678 
L 300.464263 53.900151 
L 300.756481 53.575671 
L 300.951294 53.638696 
L 301.178575 53.982091 
L 301.503262 54.952746 
L 301.925355 57.007386 
L 302.477323 60.944774 
L 303.159165 67.608767 
L 303.970883 77.944961 
L 304.912475 92.985419 
L 306.016411 114.440095 
L 307.315159 144.292373 
L 308.971063 187.893331 
L 311.503622 254.689796 
L 312.445214 273.650347 
L 313.191994 284.670194 
L 313.808899 290.839345 
L 314.328399 293.994877 
L 314.718023 295.198499 
L 314.977773 295.478712 
L 315.172585 295.428131 
L 315.399866 295.098665 
L 315.724553 294.146851 
L 316.146646 292.115009 
L 316.698614 288.205046 
L 317.380457 281.57223 
L 318.192174 271.270564 
L 319.133766 256.267313 
L 320.237702 234.851832 
L 321.53645 205.038492 
L 323.192354 161.469117 
L 325.724913 94.618883 
L 326.666505 75.597535 
L 327.413285 64.520725 
L 328.030191 58.303359 
L 328.54969 55.108772 
L 328.939314 53.877588 
L 329.231533 53.571063 
L 329.426345 53.64553 
L 329.653626 54.00174 
L 329.978313 54.989741 
L 330.400406 57.06539 
L 330.952374 61.02808 
L 331.634217 67.720863 
L 332.445934 78.088974 
L 333.387526 93.163857 
L 334.491462 114.65485 
L 335.79021 144.54331 
L 337.478583 189.068754 
L 339.946204 254.182799 
L 340.920265 273.827061 
L 341.667045 284.794913 
L 342.283951 290.920029 
L 342.770981 293.897729 
L 343.160606 295.156547 
L 343.452824 295.482633 
L 343.647636 295.420625 
L 343.874917 295.078363 
L 344.199604 294.109232 
L 344.621697 292.056425 
L 345.173665 288.121229 
L 345.855508 281.459718 
L 346.667225 271.126259 
L 347.608818 256.088726 
L 348.712753 234.637088 
L 350.011502 204.787746 
L 351.667405 161.188914 
L 354.199964 94.386848 
L 355.141556 75.420811 
L 355.888336 64.395941 
L 356.505242 58.222596 
L 357.024741 55.063696 
L 357.414365 53.857713 
L 357.674115 53.576015 
L 357.868927 53.625532 
L 358.096208 53.953809 
L 358.420895 54.904019 
L 358.842988 56.933924 
L 359.394956 60.841563 
L 360.076799 67.471743 
L 360.888516 77.770495 
L 361.830109 92.770616 
L 362.934045 114.182817 
L 364.232793 143.992933 
L 365.888697 187.55979 
L 368.453724 255.152613 
L 369.395316 274.002037 
L 370.142096 284.917839 
L 370.759002 290.998971 
L 371.246032 293.943243 
L 371.635657 295.17683 
L 371.927875 295.485053 
L 372.122687 295.411666 
L 372.349968 295.056664 
L 372.674655 294.070296 
L 373.096748 291.996621 
L 373.648716 288.036305 
L 374.330559 281.34622 
L 375.142276 270.981097 
L 376.083869 255.909429 
L 377.187805 234.421815 
L 378.486553 204.536696 
L 380.174925 160.013925 
L 382.642546 94.895062 
L 383.616607 75.245244 
L 384.363388 64.272368 
L 384.980293 58.143015 
L 385.467323 55.1621 
L 385.856948 53.900859 
L 386.149166 53.573058 
L 386.343978 53.633974 
L 386.571259 53.975015 
L 386.895946 54.942494 
L 387.318039 56.993302 
L 387.870007 60.926093 
L 388.55185 67.584872 
L 389.363568 77.915304 
L 390.30516 92.949576 
L 391.409096 114.397782 
L 392.707844 144.243718 
L 394.363748 187.839803 
L 396.896306 254.646663 
L 397.837899 273.618066 
L 398.487273 283.427899 
L 398.487273 283.427899 
" clip-path="url(#p3d6efc9a09)" style="fill: none; stroke: #1f77b4; stroke-width: 1.5; stroke-linecap: square"/>
   </g>
   <g id="line2d_18">
    <path d="M 57.6 53.300085 
L 414.72 53.300085 
" clip-path="url(#p3d6efc9a09)" style="fill: none; stroke: #000000; stroke-width: 0.5; stroke-linecap: square"/>
   </g>
   <g id="line2d_19">
    <path d="M 57.6 295.755628 
L 414.72 295.755628 
" clip-path="url(#p3d6efc9a09)" style="fill: none; stroke: #000000; stroke-width: 0.5; stroke-linecap: square"/>
   </g>
   <g id="patch_3">
    <path d="M 57.6 307.584 
L 57.6 41.472 
" style="fill: none; stroke: #000000; stroke-width: 0.8; stroke-linejoin: miter; stroke-linecap: square"/>
   </g>
   <g id="patch_4">
    <path d="M 414.72 307.584 
L 414.72 41.472 
" style="fill: none; stroke: #000000; stroke-width: 0.8; stroke-linejoin: miter; stroke-linecap: square"/>
   </g>
   <g id="patch_5">
    <path d="M 57.6 307.584 
L 414.72 307.584 
" style="fill: none; stroke: #000000; stroke-width: 0.8; stroke-linejoin: miter; stroke-linecap: square"/>
   </g>
   <g id="patch_6">
    <path d="M 57.6 41.472 
L 414.72 41.472 
" style="fill: none; stroke: #000000; stroke-width: 0.8; stroke-linejoin: miter; stroke-linecap: square"/>
   </g>
  </g>
 </g>
 <defs>
  <clipPath id="p3d6efc9a09">
   <rect x="57.6" y="41.472" width="357.12" height="266.112"/>
  </clipPath>
 </defs>
</svg>
