<?xml version="1.0" encoding="utf-8" standalone="no"?>
<!DOCTYPE svg PUBLIC "-//W3C//DTD SVG 1.1//EN"
  "http://www.w3.org/Graphics/SVG/1.1/DTD/svg11.dtd">
<svg xmlns:xlink="http://www.w3.org/1999/xlink" width="468pt" height="345.6pt" viewBox="0 0 468 345.6" xmlns="http://www.w3.org/2000/svg" version="1.1">
 <metadata>
  <rdf:RDF xmlns:dc="http://purl.org/dc/elements/1.1/" xmlns:cc="http://creativecommons.org/ns#" xmlns:rdf="http://www.w3.org/1999/02/22-rdf-syntax-ns#">
   <cc:Work>
    <dc:type rdf:resource="http://purl.org/dc/dcmitype/StillImage"/>
    <dc:date>2026-03-12T22:13:48.257039</dc:date>
    <dc:format>image/svg+xml</dc:format>
    <dc:creator>
     <cc:Agent>
      <dc:title>Matplotlib v3.10.8, https://matplotlib.org/</dc:title>
     </cc:Agent>
    </dc:creator>
   </cc:Work>
  </rdf:RDF>
 </metadata>
 <defs>
  <style type="text/css">*{stroke-linejoin: round; stroke-linecap: butt}</style>
 </defs>
 <g id="figure_1">
  <g id="patch_1">
   <path d="M 0 345.6 
L 468 345.6 
L 468 0 
L 0 0 
z
" style="fill: #ffffff"/>
  </g>
  <g id="axes_1">
   <g id="patch_2">
    <path d="M 0 345.6 
L 468 345.6 
L 468 0 
L 0 0 
z
" style="fill: #ffffff"/>
   </g>
   <g id="patch_3">
    <path d="M 29.192727 57.808264 
L 97.92 57.808264 
L 97.92 37.190083 
L 29.192727 37.190083 
L 29.192727 57.808264 
z
" clip-path="url(#pa92228f52d)" style="fill: none; stroke: #000000; stroke-linejoin: miter"/>
   </g>
   <g id="patch_4">
    <path d="M 29.192727 221.444628 
L 97.92 221.444628 
L 97.92 200.826446 
L 29.192727 200.826446 
L 29.192727 221.444628 
z
" clip-path="url(#pa92228f52d)" style="fill: none; stroke: #000000; stroke-linejoin: miter"/>
   </g>
   <g id="matplotlib.axis_1">
    <g id="xtick_1"/>
    <g id="xtick_2"/>
    <g id="xtick_3"/>
    <g id="xtick_4"/>
    <g id="xtick_5"/>
    <g id="xtick_6"/>
    <g id="xtick_7"/>
   </g>
   <g id="matplotlib.axis_2">
    <g id="ytick_1"/>
    <g id="ytick_2"/>
    <g id="ytick_3"/>
    <g id="ytick_4"/>
    <g id="ytick_5"/>
   </g>
   <g id="line2d_1">
    <path d="M 14.465455 337.581818 
L 14.465455 10.309091 
" clip-path="url(#pa92228f52d)" style="fill: none; stroke: #000000; stroke-width: 2; stroke-linecap: square"/>
   </g>
   <g id="line2d_2">
    <path d="M 14.465455 321.218182 
L 7.365539 335.961309 
" clip-path="url(#pa92228f52d)" style="fill: none; stroke: #000000; stroke-linecap: square"/>
   </g>
   <g id="line2d_3">
    <path d="M 14.465455 308.945455 
L 7.365539 323.688581 
" clip-path="url(#pa92228f52d)" style="fill: none; stroke: #000000; stroke-linecap: square"/>
   </g>
   <g id="line2d_4">
    <path d="M 14.465455 296.672727 
L 7.365539 311.415854 
" clip-path="url(#pa92228f52d)" style="fill: none; stroke: #000000; stroke-linecap: square"/>
   </g>
   <g id="line2d_5">
    <path d="M 14.465455 284.4 
L 7.365539 299.143127 
" clip-path="url(#pa92228f52d)" style="fill: none; stroke: #000000; stroke-linecap: square"/>
   </g>
   <g id="line2d_6">
    <path d="M 14.465455 272.127273 
L 7.365539 286.8704 
" clip-path="url(#pa92228f52d)" style="fill: none; stroke: #000000; stroke-linecap: square"/>
   </g>
   <g id="line2d_7">
    <path d="M 14.465455 259.854545 
L 7.365539 274.597672 
" clip-path="url(#pa92228f52d)" style="fill: none; stroke: #000000; stroke-linecap: square"/>
   </g>
   <g id="line2d_8">
    <path d="M 14.465455 247.581818 
L 7.365539 262.324945 
" clip-path="url(#pa92228f52d)" style="fill: none; stroke: #000000; stroke-linecap: square"/>
   </g>
   <g id="line2d_9">
    <path d="M 14.465455 235.309091 
L 7.365539 250.052218 
" clip-path="url(#pa92228f52d)" style="fill: none; stroke: #000000; stroke-linecap: square"/>
   </g>
   <g id="line2d_10">
    <path d="M 14.465455 223.036364 
L 7.365539 237.779491 
" clip-path="url(#pa92228f52d)" style="fill: none; stroke: #000000; stroke-linecap: square"/>
   </g>
   <g id="line2d_11">
    <path d="M 14.465455 210.763636 
L 7.365539 225.506763 
" clip-path="url(#pa92228f52d)" style="fill: none; stroke: #000000; stroke-linecap: square"/>
   </g>
   <g id="line2d_12">
    <path d="M 14.465455 198.490909 
L 7.365539 213.234036 
" clip-path="url(#pa92228f52d)" style="fill: none; stroke: #000000; stroke-linecap: square"/>
   </g>
   <g id="line2d_13">
    <path d="M 14.465455 186.218182 
L 7.365539 200.961309 
" clip-path="url(#pa92228f52d)" style="fill: none; stroke: #000000; stroke-linecap: square"/>
   </g>
   <g id="line2d_14">
    <path d="M 14.465455 173.945455 
L 7.365539 188.688581 
" clip-path="url(#pa92228f52d)" style="fill: none; stroke: #000000; stroke-linecap: square"/>
   </g>
   <g id="line2d_15">
    <path d="M 14.465455 161.672727 
L 7.365539 176.415854 
" clip-path="url(#pa92228f52d)" style="fill: none; stroke: #000000; stroke-linecap: square"/>
   </g>
   <g id="line2d_16">
    <path d="M 14.465455 149.4 
L 7.365539 164.143127 
" clip-path="url(#pa92228f52d)" style="fill: none; stroke: #000000; stroke-linecap: square"/>
   </g>
   <g id="line2d_17">
    <path d="M 14.465455 137.127273 
L 7.365539 151.8704 
" clip-path="url(#pa92228f52d)" style="fill: none; stroke: #000000; stroke-linecap: square"/>
   </g>
   <g id="line2d_18">
    <path d="M 14.465455 124.854545 
L 7.365539 139.597672 
" clip-path="url(#pa92228f52d)" style="fill: none; stroke: #000000; stroke-linecap: square"/>
   </g>
   <g id="line2d_19">
    <path d="M 14.465455 112.581818 
L 7.365539 127.324945 
" clip-path="url(#pa92228f52d)" style="fill: none; stroke: #000000; stroke-linecap: square"/>
   </g>
   <g id="line2d_20">
    <path d="M 14.465455 100.309091 
L 7.365539 115.052218 
" clip-path="url(#pa92228f52d)" style="fill: none; stroke: #000000; stroke-linecap: square"/>
   </g>
   <g id="line2d_21">
    <path d="M 14.465455 88.036364 
L 7.365539 102.779491 
" clip-path="url(#pa92228f52d)" style="fill: none; stroke: #000000; stroke-linecap: square"/>
   </g>
   <g id="line2d_22">
    <path d="M 14.465455 75.763636 
L 7.365539 90.506763 
" clip-path="url(#pa92228f52d)" style="fill: none; stroke: #000000; stroke-linecap: square"/>
   </g>
   <g id="line2d_23">
    <path d="M 14.465455 63.490909 
L 7.365539 78.234036 
" clip-path="url(#pa92228f52d)" style="fill: none; stroke: #000000; stroke-linecap: square"/>
   </g>
   <g id="line2d_24">
    <path d="M 14.465455 51.218182 
L 7.365539 65.961309 
" clip-path="url(#pa92228f52d)" style="fill: none; stroke: #000000; stroke-linecap: square"/>
   </g>
   <g id="line2d_25">
    <path d="M 14.465455 38.945455 
L 7.365539 53.688581 
" clip-path="url(#pa92228f52d)" style="fill: none; stroke: #000000; stroke-linecap: square"/>
   </g>
   <g id="line2d_26">
    <path d="M 14.465455 26.672727 
L 7.365539 41.415854 
" clip-path="url(#pa92228f52d)" style="fill: none; stroke: #000000; stroke-linecap: square"/>
   </g>
   <g id="line2d_27">
    <path d="M 14.465455 47.499174 
L 29.192727 47.499174 
" clip-path="url(#pa92228f52d)" style="fill: none; stroke: #000000; stroke-width: 1.5; stroke-linecap: square"/>
   </g>
   <g id="line2d_28">
    <path d="M 97.92 47.499174 
L 112.647273 47.499174 
" clip-path="url(#pa92228f52d)" style="fill: none; stroke: #000000; stroke-width: 1.5; stroke-linecap: square"/>
   </g>
   <g id="line2d_29">
    <path d="M 14.465455 92.127273 
L 24.283636 92.127273 
" clip-path="url(#pa92228f52d)" style="fill: none; stroke: #000000; stroke-linecap: square"/>
   </g>
   <g id="line2d_30">
    <path d="M 102.829091 92.127273 
L 112.647273 92.127273 
" clip-path="url(#pa92228f52d)" style="fill: none; stroke: #000000; stroke-linecap: square"/>
   </g>
   <g id="line2d_31">
    <path d="M 26.738182 83.618182 
L 31.647273 100.636364 
" clip-path="url(#pa92228f52d)" style="fill: none; stroke: #000000; stroke-linecap: square"/>
   </g>
   <g id="line2d_32">
    <path d="M 31.647273 100.636364 
L 36.556364 83.618182 
" clip-path="url(#pa92228f52d)" style="fill: none; stroke: #000000; stroke-linecap: square"/>
   </g>
   <g id="line2d_33">
    <path d="M 36.556364 83.618182 
L 41.465455 100.636364 
" clip-path="url(#pa92228f52d)" style="fill: none; stroke: #000000; stroke-linecap: square"/>
   </g>
   <g id="line2d_34">
    <path d="M 41.465455 100.636364 
L 46.374545 83.618182 
" clip-path="url(#pa92228f52d)" style="fill: none; stroke: #000000; stroke-linecap: square"/>
   </g>
   <g id="line2d_35">
    <path d="M 46.374545 83.618182 
L 51.283636 100.636364 
" clip-path="url(#pa92228f52d)" style="fill: none; stroke: #000000; stroke-linecap: square"/>
   </g>
   <g id="line2d_36">
    <path d="M 51.283636 100.636364 
L 56.192727 83.618182 
" clip-path="url(#pa92228f52d)" style="fill: none; stroke: #000000; stroke-linecap: square"/>
   </g>
   <g id="line2d_37">
    <path d="M 56.192727 83.618182 
L 61.101818 100.636364 
" clip-path="url(#pa92228f52d)" style="fill: none; stroke: #000000; stroke-linecap: square"/>
   </g>
   <g id="line2d_38">
    <path d="M 61.101818 100.636364 
L 66.010909 83.618182 
" clip-path="url(#pa92228f52d)" style="fill: none; stroke: #000000; stroke-linecap: square"/>
   </g>
   <g id="line2d_39">
    <path d="M 66.010909 83.618182 
L 70.92 100.636364 
" clip-path="url(#pa92228f52d)" style="fill: none; stroke: #000000; stroke-linecap: square"/>
   </g>
   <g id="line2d_40">
    <path d="M 70.92 100.636364 
L 75.829091 83.618182 
" clip-path="url(#pa92228f52d)" style="fill: none; stroke: #000000; stroke-linecap: square"/>
   </g>
   <g id="line2d_41">
    <path d="M 75.829091 83.618182 
L 80.738182 100.636364 
" clip-path="url(#pa92228f52d)" style="fill: none; stroke: #000000; stroke-linecap: square"/>
   </g>
   <g id="line2d_42">
    <path d="M 80.738182 100.636364 
L 85.647273 83.618182 
" clip-path="url(#pa92228f52d)" style="fill: none; stroke: #000000; stroke-linecap: square"/>
   </g>
   <g id="line2d_43">
    <path d="M 85.647273 83.618182 
L 90.556364 100.636364 
" clip-path="url(#pa92228f52d)" style="fill: none; stroke: #000000; stroke-linecap: square"/>
   </g>
   <g id="line2d_44">
    <path d="M 90.556364 100.636364 
L 95.465455 83.618182 
" clip-path="url(#pa92228f52d)" style="fill: none; stroke: #000000; stroke-linecap: square"/>
   </g>
   <g id="line2d_45">
    <path d="M 95.465455 83.618182 
L 100.374545 100.636364 
" clip-path="url(#pa92228f52d)" style="fill: none; stroke: #000000; stroke-linecap: square"/>
   </g>
   <g id="line2d_46">
    <path d="M 24.283636 92.127273 
L 26.738182 83.618182 
" clip-path="url(#pa92228f52d)" style="fill: none; stroke: #000000; stroke-linecap: square"/>
   </g>
   <g id="line2d_47">
    <path d="M 100.374545 100.636364 
L 102.829091 92.127273 
" clip-path="url(#pa92228f52d)" style="fill: none; stroke: #000000; stroke-linecap: square"/>
   </g>
   <g id="line2d_48">
    <path d="M 14.465455 136.755372 
L 43.92 136.755372 
" clip-path="url(#pa92228f52d)" style="fill: none; stroke: #000000; stroke-linecap: square"/>
   </g>
   <g id="line2d_49">
    <path d="M 63.556364 136.755372 
L 112.647273 136.755372 
" clip-path="url(#pa92228f52d)" style="fill: none; stroke: #000000; stroke-linecap: square"/>
   </g>
   <g id="line2d_50">
    <path d="M 43.92 126.93719 
L 83.192727 126.93719 
" clip-path="url(#pa92228f52d)" style="fill: none; stroke: #000000; stroke-linecap: square"/>
   </g>
   <g id="line2d_51">
    <path d="M 43.92 146.573554 
L 83.192727 146.573554 
" clip-path="url(#pa92228f52d)" style="fill: none; stroke: #000000; stroke-linecap: square"/>
   </g>
   <g id="line2d_52">
    <path d="M 43.92 146.573554 
L 43.92 126.93719 
" clip-path="url(#pa92228f52d)" style="fill: none; stroke: #000000; stroke-linecap: square"/>
   </g>
   <g id="line2d_53">
    <path d="M 63.556364 143.13719 
L 63.556364 130.373554 
" clip-path="url(#pa92228f52d)" style="fill: none; stroke: #000000; stroke-linecap: square"/>
   </g>
   <g id="line2d_54">
    <path d="M 14.465455 211.135537 
L 29.192727 211.135537 
" clip-path="url(#pa92228f52d)" style="fill: none; stroke: #000000; stroke-width: 1.5; stroke-linecap: square"/>
   </g>
   <g id="line2d_55">
    <path d="M 97.92 211.135537 
L 112.647273 211.135537 
" clip-path="url(#pa92228f52d)" style="fill: none; stroke: #000000; stroke-width: 1.5; stroke-linecap: square"/>
   </g>
   <g id="line2d_56">
    <path d="M 14.465455 255.763636 
L 24.283636 255.763636 
" clip-path="url(#pa92228f52d)" style="fill: none; stroke: #000000; stroke-linecap: square"/>
   </g>
   <g id="line2d_57">
    <path d="M 102.829091 255.763636 
L 112.647273 255.763636 
" clip-path="url(#pa92228f52d)" style="fill: none; stroke: #000000; stroke-linecap: square"/>
   </g>
   <g id="line2d_58">
    <path d="M 26.738182 247.254545 
L 31.647273 264.272727 
" clip-path="url(#pa92228f52d)" style="fill: none; stroke: #000000; stroke-linecap: square"/>
   </g>
   <g id="line2d_59">
    <path d="M 31.647273 264.272727 
L 36.556364 247.254545 
" clip-path="url(#pa92228f52d)" style="fill: none; stroke: #000000; stroke-linecap: square"/>
   </g>
   <g id="line2d_60">
    <path d="M 36.556364 247.254545 
L 41.465455 264.272727 
" clip-path="url(#pa92228f52d)" style="fill: none; stroke: #000000; stroke-linecap: square"/>
   </g>
   <g id="line2d_61">
    <path d="M 41.465455 264.272727 
L 46.374545 247.254545 
" clip-path="url(#pa92228f52d)" style="fill: none; stroke: #000000; stroke-linecap: square"/>
   </g>
   <g id="line2d_62">
    <path d="M 46.374545 247.254545 
L 51.283636 264.272727 
" clip-path="url(#pa92228f52d)" style="fill: none; stroke: #000000; stroke-linecap: square"/>
   </g>
   <g id="line2d_63">
    <path d="M 51.283636 264.272727 
L 56.192727 247.254545 
" clip-path="url(#pa92228f52d)" style="fill: none; stroke: #000000; stroke-linecap: square"/>
   </g>
   <g id="line2d_64">
    <path d="M 56.192727 247.254545 
L 61.101818 264.272727 
" clip-path="url(#pa92228f52d)" style="fill: none; stroke: #000000; stroke-linecap: square"/>
   </g>
   <g id="line2d_65">
    <path d="M 61.101818 264.272727 
L 66.010909 247.254545 
" clip-path="url(#pa92228f52d)" style="fill: none; stroke: #000000; stroke-linecap: square"/>
   </g>
   <g id="line2d_66">
    <path d="M 66.010909 247.254545 
L 70.92 264.272727 
" clip-path="url(#pa92228f52d)" style="fill: none; stroke: #000000; stroke-linecap: square"/>
   </g>
   <g id="line2d_67">
    <path d="M 70.92 264.272727 
L 75.829091 247.254545 
" clip-path="url(#pa92228f52d)" style="fill: none; stroke: #000000; stroke-linecap: square"/>
   </g>
   <g id="line2d_68">
    <path d="M 75.829091 247.254545 
L 80.738182 264.272727 
" clip-path="url(#pa92228f52d)" style="fill: none; stroke: #000000; stroke-linecap: square"/>
   </g>
   <g id="line2d_69">
    <path d="M 80.738182 264.272727 
L 85.647273 247.254545 
" clip-path="url(#pa92228f52d)" style="fill: none; stroke: #000000; stroke-linecap: square"/>
   </g>
   <g id="line2d_70">
    <path d="M 85.647273 247.254545 
L 90.556364 264.272727 
" clip-path="url(#pa92228f52d)" style="fill: none; stroke: #000000; stroke-linecap: square"/>
   </g>
   <g id="line2d_71">
    <path d="M 90.556364 264.272727 
L 95.465455 247.254545 
" clip-path="url(#pa92228f52d)" style="fill: none; stroke: #000000; stroke-linecap: square"/>
   </g>
   <g id="line2d_72">
    <path d="M 95.465455 247.254545 
L 100.374545 264.272727 
" clip-path="url(#pa92228f52d)" style="fill: none; stroke: #000000; stroke-linecap: square"/>
   </g>
   <g id="line2d_73">
    <path d="M 24.283636 255.763636 
L 26.738182 247.254545 
" clip-path="url(#pa92228f52d)" style="fill: none; stroke: #000000; stroke-linecap: square"/>
   </g>
   <g id="line2d_74">
    <path d="M 100.374545 264.272727 
L 102.829091 255.763636 
" clip-path="url(#pa92228f52d)" style="fill: none; stroke: #000000; stroke-linecap: square"/>
   </g>
   <g id="line2d_75">
    <path d="M 14.465455 300.391736 
L 43.92 300.391736 
" clip-path="url(#pa92228f52d)" style="fill: none; stroke: #000000; stroke-linecap: square"/>
   </g>
   <g id="line2d_76">
    <path d="M 63.556364 300.391736 
L 112.647273 300.391736 
" clip-path="url(#pa92228f52d)" style="fill: none; stroke: #000000; stroke-linecap: square"/>
   </g>
   <g id="line2d_77">
    <path d="M 43.92 290.573554 
L 83.192727 290.573554 
" clip-path="url(#pa92228f52d)" style="fill: none; stroke: #000000; stroke-linecap: square"/>
   </g>
   <g id="line2d_78">
    <path d="M 43.92 310.209917 
L 83.192727 310.209917 
" clip-path="url(#pa92228f52d)" style="fill: none; stroke: #000000; stroke-linecap: square"/>
   </g>
   <g id="line2d_79">
    <path d="M 43.92 310.209917 
L 43.92 290.573554 
" clip-path="url(#pa92228f52d)" style="fill: none; stroke: #000000; stroke-linecap: square"/>
   </g>
   <g id="line2d_80">
    <path d="M 63.556364 306.773554 
L 63.556364 294.009917 
" clip-path="url(#pa92228f52d)" style="fill: none; stroke: #000000; stroke-linecap: square"/>
   </g>
   <g id="patch_5">
    <path d="M 112.647273 141.218182 
L 276.283636 141.218182 
L 276.283636 43.036364 
L 112.647273 43.036364 
z
" clip-path="url(#pa92228f52d)" style="fill: #1f77b4; opacity: 0.5; stroke: #000000; stroke-width: 1.5; stroke-linejoin: miter"/>
   </g>
   <g id="text_1">
    <!-- $m=1$ -->
    <g transform="translate(173.239692 96.112329) scale(0.16 -0.16)">
     <defs>
      <path id="CMMI12-6d" d="M 1318 1871 
C 1331 1910 1491 2229 1728 2433 
C 1894 2586 2112 2689 2362 2689 
C 2618 2689 2707 2497 2707 2242 
C 2707 2203 2707 2076 2630 1775 
L 2470 1118 
C 2419 926 2298 453 2285 383 
C 2259 287 2221 121 2221 96 
C 2221 6 2291 -64 2387 -64 
C 2579 -64 2611 83 2669 313 
L 3053 1839 
C 3066 1890 3398 2689 4102 2689 
C 4358 2689 4448 2497 4448 2242 
C 4448 1884 4198 1188 4058 805 
C 4000 651 3968 568 3968 453 
C 3968 166 4166 -64 4474 -64 
C 5069 -64 5293 875 5293 913 
C 5293 945 5267 971 5229 971 
C 5171 971 5165 952 5133 843 
C 4986 332 4749 64 4493 64 
C 4429 64 4326 64 4326 269 
C 4326 436 4403 640 4429 710 
C 4544 1018 4832 1773 4832 2145 
C 4832 2528 4608 2816 4122 2816 
C 3693 2816 3347 2574 3091 2197 
C 3072 2542 2861 2816 2381 2816 
C 1811 2816 1510 2415 1395 2255 
C 1376 2618 1114 2816 832 2816 
C 646 2816 499 2727 378 2484 
C 262 2254 173 1865 173 1839 
C 173 1814 198 1782 243 1782 
C 294 1782 301 1788 339 1935 
C 435 2312 557 2689 813 2689 
C 960 2689 1011 2586 1011 2395 
C 1011 2254 947 2005 902 1807 
L 723 1118 
C 698 996 627 709 595 594 
C 550 428 480 128 480 96 
C 480 6 550 -64 646 -64 
C 723 -64 813 -26 864 70 
C 877 102 934 326 966 453 
L 1107 1028 
L 1318 1871 
z
" transform="scale(0.015625)"/>
      <path id="CMR17-3d" d="M 4115 2017 
C 4211 2017 4307 2017 4307 2125 
C 4307 2240 4198 2240 4090 2240 
L 512 2240 
C 403 2240 294 2240 294 2125 
C 294 2017 390 2017 486 2017 
L 4115 2017 
z
M 4090 896 
C 4198 896 4307 896 4307 1011 
C 4307 1119 4211 1119 4115 1119 
L 486 1119 
C 390 1119 294 1119 294 1011 
C 294 896 403 896 512 896 
L 4090 896 
z
" transform="scale(0.015625)"/>
      <path id="CMR17-31" d="M 1702 4058 
C 1702 4192 1696 4192 1606 4192 
C 1357 3916 979 3827 621 3827 
C 602 3827 570 3827 563 3808 
C 557 3795 557 3782 557 3648 
C 755 3648 1088 3686 1344 3839 
L 1344 461 
C 1344 236 1331 160 781 160 
L 589 160 
L 589 0 
C 896 0 1216 0 1523 0 
C 1830 0 2150 0 2458 0 
L 2458 160 
L 2266 160 
C 1715 160 1702 230 1702 458 
L 1702 4058 
z
" transform="scale(0.015625)"/>
     </defs>
     <use xlink:href="#CMMI12-6d" transform="scale(0.996264)"/>
     <use xlink:href="#CMR17-3d" transform="translate(113.001233 0) scale(0.996264)"/>
     <use xlink:href="#CMR17-31" transform="translate(212.39003 0) scale(0.996264)"/>
    </g>
   </g>
   <g id="patch_6">
    <path d="M 27.307531 62.513932 
Q 63.557234 47.498813 98.774009 32.911547 
" style="fill: none; stroke: #000000; stroke-linecap: round"/>
    <path d="M 91.636593 32.404307 
L 98.774009 32.911547 
L 94.085767 38.317136 
z
" style="stroke: #000000; stroke-linecap: round"/>
   </g>
   <g id="text_2">
    <!-- $f_{\text{nl1}} (\zeta_1, \zeta_1', \zeta_1'')$ -->
    <g transform="translate(18.73777 25.675123) scale(0.16 -0.16)">
     <defs>
      <path id="CMMI12-66" d="M 2854 2566 
C 2982 2566 3034 2566 3034 2688 
C 3034 2752 2982 2752 2867 2752 
L 2349 2752 
C 2470 3429 2560 3897 2611 4107 
C 2650 4265 2784 4416 2950 4416 
C 3085 4416 3219 4358 3283 4298 
C 3034 4272 2957 4082 2957 3969 
C 2957 3837 3053 3759 3174 3759 
C 3302 3759 3494 3870 3494 4119 
C 3494 4393 3226 4544 2944 4544 
C 2669 4544 2400 4334 2272 4078 
C 2157 3848 2093 3611 1946 2752 
L 1517 2752 
C 1395 2752 1331 2752 1331 2637 
C 1331 2566 1370 2566 1498 2566 
L 1907 2566 
C 1792 1976 1530 542 1382 -137 
C 1274 -689 1178 -1152 858 -1152 
C 838 -1152 653 -1152 538 -1031 
C 864 -1005 864 -726 864 -720 
C 864 -593 768 -517 646 -517 
C 518 -517 326 -625 326 -867 
C 326 -1140 608 -1280 858 -1280 
C 1510 -1280 1779 -118 1850 199 
C 1965 688 2278 2376 2310 2566 
L 2854 2566 
z
" transform="scale(0.015625)"/>
      <path id="CMR17-6e" d="M 2656 1933 
C 2656 2259 2592 2790 1837 2790 
C 1331 2790 1069 2400 973 2144 
L 966 2144 
L 966 2790 
L 211 2720 
L 211 2554 
C 589 2554 646 2515 646 2208 
L 646 428 
C 646 184 621 153 211 153 
L 211 -13 
C 365 0 646 0 813 0 
C 979 0 1267 0 1421 -13 
L 1421 153 
C 1011 153 986 178 986 428 
L 986 1658 
C 986 2247 1344 2688 1792 2688 
C 2266 2688 2317 2266 2317 1958 
L 2317 428 
C 2317 184 2291 153 1882 153 
L 1882 -13 
C 2035 0 2317 0 2483 0 
C 2650 0 2938 0 3091 -13 
L 3091 153 
C 2682 153 2656 178 2656 428 
L 2656 1933 
z
" transform="scale(0.015625)"/>
      <path id="CMR17-6c" d="M 979 4396 
L 218 4326 
L 218 4160 
C 595 4160 653 4122 653 3817 
L 653 426 
C 653 184 627 153 218 153 
L 218 -13 
C 371 0 653 0 813 0 
C 979 0 1261 0 1414 -13 
L 1414 153 
C 1005 153 979 178 979 426 
L 979 4396 
z
" transform="scale(0.015625)"/>
      <path id="CMR17-28" d="M 1958 -1561 
C 1958 -1555 1958 -1542 1939 -1523 
C 1645 -1224 858 -407 858 1581 
C 858 3569 1632 4379 1946 4697 
C 1946 4704 1958 4717 1958 4736 
C 1958 4755 1939 4768 1914 4768 
C 1843 4768 1299 4296 986 3594 
C 666 2887 576 2199 576 1588 
C 576 1128 621 351 1005 -471 
C 1312 -1135 1837 -1600 1914 -1600 
C 1946 -1600 1958 -1587 1958 -1561 
z
" transform="scale(0.015625)"/>
      <path id="CMMI12-10" d="M 1210 339 
C 832 487 614 774 614 1254 
C 614 2131 1261 3302 2048 3756 
C 2163 3648 2310 3648 2432 3648 
C 2592 3648 2982 3648 2982 3820 
C 2982 3961 2694 3961 2490 3961 
C 2362 3961 2253 3961 2086 3897 
C 2048 3980 2029 4068 2029 4163 
C 2029 4277 2054 4365 2054 4384 
C 2054 4422 2022 4448 1990 4448 
C 1888 4448 1888 4212 1888 4161 
C 1888 4104 1888 3971 1965 3837 
C 1222 3455 288 2265 288 1076 
C 288 204 870 0 1203 -115 
C 1286 -140 1491 -210 1574 -242 
C 1837 -331 2086 -414 2086 -719 
C 2086 -904 1952 -1152 1715 -1152 
C 1587 -1152 1414 -1108 1254 -947 
C 1229 -922 1216 -909 1184 -909 
C 1133 -909 1120 -960 1120 -973 
C 1120 -1037 1395 -1280 1715 -1280 
C 2125 -1280 2406 -851 2406 -519 
C 2406 -71 2035 58 1798 134 
L 1210 339 
z
M 2189 3808 
C 2285 3840 2374 3840 2483 3840 
C 2688 3840 2707 3836 2835 3812 
C 2758 3789 2707 3775 2438 3775 
C 2304 3775 2259 3775 2189 3808 
z
" transform="scale(0.015625)"/>
      <path id="CMMI12-3b" d="M 1248 -31 
C 1248 343 1126 619 864 619 
C 659 619 557 453 557 313 
C 557 172 653 0 870 0 
C 954 0 1024 26 1082 83 
C 1094 96 1101 96 1107 96 
C 1120 96 1120 5 1120 -27 
C 1120 -240 1082 -659 710 -1080 
C 640 -1157 640 -1170 640 -1183 
C 640 -1216 672 -1248 704 -1248 
C 755 -1248 1248 -771 1248 -31 
z
" transform="scale(0.015625)"/>
      <path id="CMSY10-30" d="M 1619 3040 
C 1651 3117 1677 3174 1677 3238 
C 1677 3424 1510 3578 1312 3578 
C 1133 3578 1018 3456 973 3290 
L 211 493 
C 211 480 186 410 186 403 
C 186 333 352 288 403 288 
C 442 288 448 307 486 390 
L 1619 3040 
z
" transform="scale(0.015625)"/>
      <path id="CMR17-29" d="M 1683 1581 
C 1683 2040 1638 2817 1254 3639 
C 947 4303 422 4768 346 4768 
C 326 4768 301 4761 301 4729 
C 301 4717 307 4710 314 4697 
C 621 4378 1402 3568 1402 1584 
C 1402 -407 627 -1217 314 -1537 
C 307 -1549 301 -1556 301 -1568 
C 301 -1600 326 -1600 346 -1600 
C 416 -1600 960 -1128 1274 -426 
C 1594 281 1683 969 1683 1581 
z
" transform="scale(0.015625)"/>
     </defs>
     <use xlink:href="#CMMI12-66" transform="scale(0.996264)"/>
     <use xlink:href="#CMR17-6e" transform="translate(48.083238 -14.943915) scale(0.697382)"/>
     <use xlink:href="#CMR17-6c" transform="translate(83.709846 -14.943915) scale(0.697382)"/>
     <use xlink:href="#CMR17-31" transform="translate(101.119505 -14.943915) scale(0.697382)"/>
     <use xlink:href="#CMR17-28" transform="translate(133.600819 0) scale(0.996264)"/>
     <use xlink:href="#CMMI12-10" transform="translate(168.881587 0) scale(0.996264)"/>
     <use xlink:href="#CMR17-31" transform="translate(211.487622 -14.943915) scale(0.697382)"/>
     <use xlink:href="#CMMI12-3b" transform="translate(243.968936 0) scale(0.996264)"/>
     <use xlink:href="#CMMI12-10" transform="translate(287.670518 0) scale(0.996264)"/>
     <use xlink:href="#CMSY10-30" transform="translate(337.80057 36.153639) scale(0.697382)"/>
     <use xlink:href="#CMR17-31" transform="translate(330.276554 -24.62935) scale(0.697382)"/>
     <use xlink:href="#CMMI12-3b" transform="translate(362.757868 0) scale(0.996264)"/>
     <use xlink:href="#CMMI12-10" transform="translate(406.45945 0) scale(0.996264)"/>
     <use xlink:href="#CMSY10-30" transform="translate(456.589501 36.153639) scale(0.697382)"/>
     <use xlink:href="#CMSY10-30" transform="translate(475.767462 36.153639) scale(0.697382)"/>
     <use xlink:href="#CMR17-31" transform="translate(449.065486 -24.62935) scale(0.697382)"/>
     <use xlink:href="#CMR17-29" transform="translate(495.443555 0) scale(0.996264)"/>
    </g>
   </g>
   <g id="text_3">
    <!-- $n_p^2$ -->
    <g transform="translate(56.090996 75.923426) scale(0.16 -0.16)">
     <defs>
      <path id="CMMI12-6e" d="M 1318 1871 
C 1331 1910 1491 2229 1728 2433 
C 1894 2586 2112 2689 2362 2689 
C 2618 2689 2707 2497 2707 2242 
C 2707 1878 2445 1150 2317 805 
C 2259 651 2227 568 2227 453 
C 2227 166 2426 -64 2733 -64 
C 3328 -64 3552 875 3552 913 
C 3552 945 3526 971 3488 971 
C 3430 971 3424 952 3392 843 
C 3245 319 3002 64 2752 64 
C 2688 64 2586 64 2586 269 
C 2586 429 2656 621 2694 710 
C 2822 1063 3091 1780 3091 2145 
C 3091 2528 2867 2816 2381 2816 
C 1811 2816 1510 2415 1395 2255 
C 1376 2618 1114 2816 832 2816 
C 627 2816 486 2695 378 2478 
C 262 2248 173 1865 173 1839 
C 173 1814 198 1782 243 1782 
C 294 1782 301 1788 339 1935 
C 442 2325 557 2689 813 2689 
C 960 2689 1011 2586 1011 2395 
C 1011 2254 947 2005 902 1807 
L 723 1118 
C 698 996 627 709 595 594 
C 550 428 480 128 480 96 
C 480 6 550 -64 646 -64 
C 723 -64 813 -26 864 70 
C 877 102 934 326 966 453 
L 1107 1028 
L 1318 1871 
z
" transform="scale(0.015625)"/>
      <path id="CMR17-32" d="M 2669 989 
L 2554 989 
C 2490 536 2438 459 2413 420 
C 2381 369 1920 369 1830 369 
L 602 369 
C 832 619 1280 1072 1824 1597 
C 2214 1967 2669 2402 2669 3035 
C 2669 3790 2067 4224 1395 4224 
C 691 4224 262 3604 262 3030 
C 262 2780 448 2748 525 2748 
C 589 2748 781 2787 781 3010 
C 781 3207 614 3264 525 3264 
C 486 3264 448 3258 422 3245 
C 544 3790 915 4058 1306 4058 
C 1862 4058 2227 3617 2227 3035 
C 2227 2479 1901 2000 1536 1584 
L 262 146 
L 262 0 
L 2515 0 
L 2669 989 
z
" transform="scale(0.015625)"/>
      <path id="CMMI12-70" d="M 275 -789 
C 230 -980 205 -1031 -58 -1031 
C -134 -1031 -198 -1031 -198 -1152 
C -198 -1165 -192 -1216 -122 -1216 
C -38 -1216 51 -1216 134 -1216 
L 410 -1216 
C 544 -1216 870 -1216 1005 -1216 
C 1043 -1216 1120 -1216 1120 -1101 
C 1120 -1031 1075 -1031 966 -1031 
C 672 -1031 653 -987 653 -937 
C 653 -861 941 219 979 364 
C 1050 185 1222 -64 1555 -64 
C 2278 -64 3059 875 3059 1814 
C 3059 2401 2726 2816 2246 2816 
C 1837 2816 1491 2420 1421 2331 
C 1370 2650 1120 2816 864 2816 
C 678 2816 531 2727 410 2484 
C 294 2254 205 1865 205 1839 
C 205 1814 230 1782 275 1782 
C 326 1782 333 1788 371 1935 
C 467 2312 589 2689 845 2689 
C 992 2689 1043 2587 1043 2397 
C 1043 2245 1024 2181 998 2067 
L 275 -789 
z
M 1382 1993 
C 1427 2171 1606 2357 1709 2446 
C 1779 2510 1990 2689 2234 2689 
C 2515 2689 2643 2408 2643 2076 
C 2643 1769 2464 1047 2304 715 
C 2144 370 1850 64 1555 64 
C 1120 64 1050 613 1050 639 
C 1050 658 1062 709 1069 741 
L 1382 1993 
z
" transform="scale(0.015625)"/>
     </defs>
     <use xlink:href="#CMMI12-6e" transform="scale(0.996264)"/>
     <use xlink:href="#CMR17-32" transform="translate(58.230047 36.153639) scale(0.697382)"/>
     <use xlink:href="#CMMI12-70" transform="translate(58.230047 -24.62935) scale(0.697382)"/>
    </g>
   </g>
   <g id="text_4">
    <!-- $b$ -->
    <g transform="translate(60.238293 122.294147) scale(0.16 -0.16)">
     <defs>
      <path id="CMMI12-62" d="M 1478 4257 
C 1485 4283 1498 4321 1498 4352 
C 1498 4416 1434 4416 1421 4416 
C 1414 4416 1184 4393 1069 4377 
C 960 4377 864 4358 749 4358 
C 595 4345 550 4339 550 4224 
C 550 4160 614 4160 678 4160 
C 1005 4160 1005 4103 1005 4040 
C 1005 3996 954 3811 928 3696 
L 774 3085 
C 710 2831 346 1387 320 1272 
C 288 1114 288 1005 288 922 
C 288 274 653 -64 1069 -64 
C 1811 -64 2579 888 2579 1814 
C 2579 2401 2246 2816 1766 2816 
C 1434 2816 1133 2542 1011 2414 
L 1478 4257 
z
M 1075 64 
C 870 64 646 217 646 715 
C 646 926 666 1047 781 1494 
C 800 1577 902 1986 928 2069 
C 941 2120 1318 2689 1754 2689 
C 2035 2689 2163 2408 2163 2076 
C 2163 1769 1984 1047 1824 715 
C 1664 370 1370 64 1075 64 
z
" transform="scale(0.015625)"/>
     </defs>
     <use xlink:href="#CMMI12-62" transform="scale(0.996264)"/>
    </g>
   </g>
   <g id="patch_7">
    <path d="M 194.465455 141.218182 
L 194.465455 154.309091 
L 232.620148 154.309091 
" style="fill: none; stroke: #000000; stroke-linecap: round"/>
    <path d="M 226.220148 151.109091 
L 232.620148 154.309091 
L 226.220148 157.509091 
z
" style="stroke: #000000; stroke-linecap: round"/>
   </g>
   <g id="text_5">
    <!-- $\zeta_{1}(\vartheta)$ -->
    <g transform="translate(196.985599 171.385056) scale(0.16 -0.16)">
     <defs>
      <path id="CMMI12-23" d="M 3181 2272 
C 3296 2760 3309 3027 3309 3243 
C 3309 3680 3213 4480 2630 4480 
C 2106 4480 1709 3795 1709 3325 
C 1709 2698 2342 2393 2733 2267 
C 2566 1551 2432 1182 2253 817 
C 1984 300 1766 64 1510 64 
C 1050 64 1043 447 1043 574 
C 1043 721 1075 875 1126 1098 
C 1165 1258 1203 1398 1248 1589 
C 1306 1807 1274 1673 1325 1896 
C 1357 2011 1389 2139 1389 2241 
C 1389 2631 1094 2815 832 2815 
C 646 2815 499 2726 378 2483 
C 262 2254 173 1864 173 1839 
C 173 1813 198 1781 243 1781 
C 294 1781 301 1788 339 1934 
C 435 2311 557 2688 813 2688 
C 960 2688 1011 2586 1011 2394 
C 1011 2253 986 2156 941 1978 
C 909 1837 851 1619 826 1510 
L 710 1043 
C 659 819 659 730 659 646 
C 659 557 659 269 890 90 
C 1101 -64 1389 -64 1491 -64 
C 2227 -64 2893 1149 3149 2145 
C 3296 2114 3411 2088 3443 2088 
C 3482 2088 3501 2133 3501 2158 
C 3501 2203 3456 2208 3360 2227 
L 3181 2272 
z
M 2771 2384 
C 2176 2581 1850 2900 1850 3327 
C 1850 3741 2189 4352 2618 4352 
C 2925 4352 2957 3951 2957 3594 
C 2957 3225 2886 2894 2771 2384 
z
" transform="scale(0.015625)"/>
     </defs>
     <use xlink:href="#CMMI12-10" transform="scale(0.996264)"/>
     <use xlink:href="#CMR17-31" transform="translate(42.606035 -14.943915) scale(0.697382)"/>
     <use xlink:href="#CMR17-28" transform="translate(75.087349 0) scale(0.996264)"/>
     <use xlink:href="#CMMI12-23" transform="translate(110.368117 0) scale(0.996264)"/>
     <use xlink:href="#CMR17-29" transform="translate(167.860209 0) scale(0.996264)"/>
    </g>
   </g>
   <g id="patch_8">
    <path d="M 112.647273 304.854545 
L 276.283636 304.854545 
L 276.283636 206.672727 
L 112.647273 206.672727 
z
" clip-path="url(#pa92228f52d)" style="fill: #2ca02c; opacity: 0.5; stroke: #000000; stroke-width: 1.5; stroke-linejoin: miter"/>
   </g>
   <g id="text_6">
    <!-- $m=1$ -->
    <g transform="translate(173.239692 259.748692) scale(0.16 -0.16)">
     <use xlink:href="#CMMI12-6d" transform="scale(0.996264)"/>
     <use xlink:href="#CMR17-3d" transform="translate(113.001233 0) scale(0.996264)"/>
     <use xlink:href="#CMR17-31" transform="translate(212.39003 0) scale(0.996264)"/>
    </g>
   </g>
   <g id="patch_9">
    <path d="M 27.307531 226.150295 
Q 63.557234 211.135177 98.774009 196.547911 
" style="fill: none; stroke: #000000; stroke-linecap: round"/>
    <path d="M 91.636593 196.04067 
L 98.774009 196.547911 
L 94.085767 201.953499 
z
" style="stroke: #000000; stroke-linecap: round"/>
   </g>
   <g id="text_7">
    <!-- $f_{\text{nl2}} (\zeta_2, \zeta_2', \zeta_2'')$ -->
    <g transform="translate(18.73777 189.311487) scale(0.16 -0.16)">
     <use xlink:href="#CMMI12-66" transform="scale(0.996264)"/>
     <use xlink:href="#CMR17-6e" transform="translate(48.083238 -14.943915) scale(0.697382)"/>
     <use xlink:href="#CMR17-6c" transform="translate(83.709846 -14.943915) scale(0.697382)"/>
     <use xlink:href="#CMR17-32" transform="translate(101.119505 -14.943915) scale(0.697382)"/>
     <use xlink:href="#CMR17-28" transform="translate(133.600819 0) scale(0.996264)"/>
     <use xlink:href="#CMMI12-10" transform="translate(168.881587 0) scale(0.996264)"/>
     <use xlink:href="#CMR17-32" transform="translate(211.487622 -14.943915) scale(0.697382)"/>
     <use xlink:href="#CMMI12-3b" transform="translate(243.968936 0) scale(0.996264)"/>
     <use xlink:href="#CMMI12-10" transform="translate(287.670518 0) scale(0.996264)"/>
     <use xlink:href="#CMSY10-30" transform="translate(337.80057 36.153639) scale(0.697382)"/>
     <use xlink:href="#CMR17-32" transform="translate(330.276554 -24.62935) scale(0.697382)"/>
     <use xlink:href="#CMMI12-3b" transform="translate(362.757868 0) scale(0.996264)"/>
     <use xlink:href="#CMMI12-10" transform="translate(406.45945 0) scale(0.996264)"/>
     <use xlink:href="#CMSY10-30" transform="translate(456.589501 36.153639) scale(0.697382)"/>
     <use xlink:href="#CMSY10-30" transform="translate(475.767462 36.153639) scale(0.697382)"/>
     <use xlink:href="#CMR17-32" transform="translate(449.065486 -24.62935) scale(0.697382)"/>
     <use xlink:href="#CMR17-29" transform="translate(495.443555 0) scale(0.996264)"/>
    </g>
   </g>
   <g id="text_8">
    <!-- $n_p$ -->
    <g transform="translate(56.090996 238.651149) scale(0.16 -0.16)">
     <use xlink:href="#CMMI12-6e" transform="scale(0.996264)"/>
     <use xlink:href="#CMMI12-70" transform="translate(58.230047 -14.943915) scale(0.697382)"/>
    </g>
   </g>
   <g id="text_9">
    <!-- $b$ -->
    <g transform="translate(60.238293 285.930511) scale(0.16 -0.16)">
     <use xlink:href="#CMMI12-62" transform="scale(0.996264)"/>
    </g>
   </g>
   <g id="patch_10">
    <path d="M 194.465455 304.854545 
L 194.465455 317.945455 
L 232.620148 317.945455 
" style="fill: none; stroke: #000000; stroke-linecap: round"/>
    <path d="M 226.220148 314.745455 
L 232.620148 317.945455 
L 226.220148 321.145455 
z
" style="stroke: #000000; stroke-linecap: round"/>
   </g>
   <g id="text_10">
    <!-- $\zeta_{2}(\vartheta)$ -->
    <g transform="translate(196.985599 335.02142) scale(0.16 -0.16)">
     <use xlink:href="#CMMI12-10" transform="scale(0.996264)"/>
     <use xlink:href="#CMR17-32" transform="translate(42.606035 -14.943915) scale(0.697382)"/>
     <use xlink:href="#CMR17-28" transform="translate(75.087349 0) scale(0.996264)"/>
     <use xlink:href="#CMMI12-23" transform="translate(110.368117 0) scale(0.996264)"/>
     <use xlink:href="#CMR17-29" transform="translate(167.860209 0) scale(0.996264)"/>
    </g>
   </g>
   <g id="patch_11">
    <path d="M 307.892875 62.672727 
Q 292.647273 62.672727 276.283636 62.672727 
" style="fill: none; stroke: #d62728; stroke-linecap: round"/>
    <path d="M 301.492875 59.472727 
L 307.892875 62.672727 
L 301.492875 65.872727 
z
" style="fill: #d62728; stroke: #d62728; stroke-linecap: round"/>
   </g>
   <g id="text_11">
    <!-- $f_{f1}(\zeta_1, \zeta_1', \zeta_1'')T_1 \cos (n \vartheta)$ -->
    <g transform="translate(313.92 66.384174) scale(0.16 -0.16)">
     <defs>
      <path id="CMMI12-54" d="M 2669 3910 
C 2707 4064 2720 4121 2816 4147 
C 2867 4160 3078 4160 3213 4160 
C 3853 4160 4154 4134 4154 3634 
C 4154 3537 4128 3295 4090 3057 
L 4083 2980 
C 4083 2954 4109 2916 4147 2916 
C 4211 2916 4211 2948 4230 3050 
L 4416 4184 
C 4429 4243 4429 4256 4429 4275 
C 4429 4345 4390 4345 4262 4345 
L 762 4345 
C 614 4345 608 4339 570 4224 
L 179 3070 
C 173 3056 154 2986 154 2980 
C 154 2948 179 2916 218 2916 
C 269 2916 282 2941 307 3024 
C 576 3801 710 4160 1562 4160 
L 1990 4160 
C 2144 4160 2208 4160 2208 4089 
C 2208 4069 2208 4057 2176 3941 
L 1318 499 
C 1254 249 1242 185 563 185 
C 403 185 358 185 358 64 
C 358 0 429 0 461 0 
C 621 0 787 0 947 0 
L 1946 0 
C 2106 0 2278 0 2438 0 
C 2509 0 2573 0 2573 121 
C 2573 185 2528 185 2362 185 
C 1786 185 1786 243 1786 339 
C 1786 346 1786 391 1811 494 
L 2669 3910 
z
" transform="scale(0.015625)"/>
      <path id="CMR17-63" d="M 2234 2240 
C 2112 2240 1933 2240 1933 2017 
C 1933 1838 2080 1787 2163 1787 
C 2208 1787 2394 1807 2394 2024 
C 2394 2467 1958 2803 1466 2803 
C 787 2803 211 2178 211 1363 
C 211 516 813 -64 1466 -64 
C 2259 -64 2458 677 2458 748 
C 2458 774 2451 793 2406 793 
C 2362 793 2355 787 2330 703 
C 2163 180 1798 51 1523 51 
C 1114 51 621 427 621 1369 
C 621 2338 1094 2688 1472 2688 
C 1722 2688 2093 2573 2234 2240 
z
" transform="scale(0.015625)"/>
      <path id="CMR17-6f" d="M 2758 1356 
C 2758 2176 2163 2816 1466 2816 
C 768 2816 173 2176 173 1356 
C 173 551 768 -64 1466 -64 
C 2163 -64 2758 551 2758 1356 
z
M 1466 51 
C 1165 51 909 230 762 480 
C 602 767 582 1126 582 1408 
C 582 1677 595 2010 762 2298 
C 890 2509 1139 2714 1466 2714 
C 1754 2714 1997 2554 2150 2330 
C 2349 2029 2349 1607 2349 1408 
C 2349 1158 2336 775 2163 467 
C 1984 173 1709 51 1466 51 
z
" transform="scale(0.015625)"/>
      <path id="CMR17-73" d="M 1978 2697 
C 1978 2813 1971 2819 1933 2819 
C 1907 2819 1901 2813 1824 2717 
C 1805 2691 1747 2626 1728 2601 
C 1523 2819 1235 2819 1126 2819 
C 416 2819 160 2447 160 2076 
C 160 1498 813 1365 998 1325 
C 1402 1243 1542 1217 1677 1101 
C 1760 1025 1901 884 1901 654 
C 1901 384 1747 38 1158 38 
C 602 38 403 460 288 1021 
C 269 1110 269 1117 218 1117 
C 166 1117 160 1110 160 983 
L 160 63 
C 160 -51 166 -58 205 -58 
C 237 -58 243 -51 275 0 
C 314 57 410 211 448 276 
C 576 103 800 -64 1158 -64 
C 1792 -64 2131 283 2131 784 
C 2131 1112 1958 1285 1875 1362 
C 1683 1561 1459 1606 1190 1657 
C 838 1735 390 1825 390 2217 
C 390 2383 480 2737 1126 2737 
C 1811 2737 1850 2094 1862 1888 
C 1869 1856 1901 1849 1920 1849 
C 1978 1849 1978 1869 1978 1978 
L 1978 2697 
z
" transform="scale(0.015625)"/>
     </defs>
     <use xlink:href="#CMMI12-66" transform="scale(0.996264)"/>
     <use xlink:href="#CMMI12-66" transform="translate(48.083238 -14.943915) scale(0.697382)"/>
     <use xlink:href="#CMR17-31" transform="translate(89.187261 -14.943915) scale(0.697382)"/>
     <use xlink:href="#CMR17-28" transform="translate(121.668575 0) scale(0.996264)"/>
     <use xlink:href="#CMMI12-10" transform="translate(156.949343 0) scale(0.996264)"/>
     <use xlink:href="#CMR17-31" transform="translate(199.555378 -14.943915) scale(0.697382)"/>
     <use xlink:href="#CMMI12-3b" transform="translate(232.036692 0) scale(0.996264)"/>
     <use xlink:href="#CMMI12-10" transform="translate(275.738275 0) scale(0.996264)"/>
     <use xlink:href="#CMSY10-30" transform="translate(325.868326 36.153639) scale(0.697382)"/>
     <use xlink:href="#CMR17-31" transform="translate(318.34431 -24.62935) scale(0.697382)"/>
     <use xlink:href="#CMMI12-3b" transform="translate(350.825624 0) scale(0.996264)"/>
     <use xlink:href="#CMMI12-10" transform="translate(394.527206 0) scale(0.996264)"/>
     <use xlink:href="#CMSY10-30" transform="translate(444.657258 36.153639) scale(0.697382)"/>
     <use xlink:href="#CMSY10-30" transform="translate(463.835218 36.153639) scale(0.697382)"/>
     <use xlink:href="#CMR17-31" transform="translate(437.133242 -24.62935) scale(0.697382)"/>
     <use xlink:href="#CMR17-29" transform="translate(483.511311 0) scale(0.996264)"/>
     <use xlink:href="#CMMI12-54" transform="translate(518.792079 0) scale(0.996264)"/>
     <use xlink:href="#CMR17-31" transform="translate(575.967122 -14.943915) scale(0.697382)"/>
     <use xlink:href="#CMR17-63" transform="translate(625.052841 0) scale(0.996264)"/>
     <use xlink:href="#CMR17-6f" transform="translate(665.538502 0) scale(0.996264)"/>
     <use xlink:href="#CMR17-73" transform="translate(711.228979 0) scale(0.996264)"/>
     <use xlink:href="#CMR17-28" transform="translate(747.030317 0) scale(0.996264)"/>
     <use xlink:href="#CMMI12-6e" transform="translate(782.311084 0) scale(0.996264)"/>
     <use xlink:href="#CMMI12-23" transform="translate(840.541132 0) scale(0.996264)"/>
     <use xlink:href="#CMR17-29" transform="translate(898.033224 0) scale(0.996264)"/>
    </g>
   </g>
   <g id="patch_12">
    <path d="M 307.892875 121.581818 
Q 292.647273 121.581818 276.283636 121.581818 
" style="fill: none; stroke: #9467bd; stroke-linecap: round"/>
    <path d="M 301.492875 118.381818 
L 307.892875 121.581818 
L 301.492875 124.781818 
z
" style="fill: #9467bd; stroke: #9467bd; stroke-linecap: round"/>
   </g>
   <g id="text_12">
    <!-- $g_{{\text{{nl1}}}}(\boldsymbol{\zeta}, \boldsymbol{\zeta}', \boldsymbol{\zeta}'')$ -->
    <g transform="translate(313.92 126.06946) scale(0.16 -0.16)">
     <defs>
      <path id="CMMI12-67" d="M 2163 811 
C 2138 709 2125 683 2042 588 
C 1779 249 1510 128 1312 128 
C 1101 128 902 294 902 734 
C 902 1073 1094 1788 1235 2076 
C 1421 2433 1709 2689 1978 2689 
C 2400 2689 2483 2165 2483 2127 
L 2464 2037 
L 2163 811 
z
M 2560 2395 
C 2477 2580 2298 2816 1978 2816 
C 1280 2816 486 1941 486 990 
C 486 326 890 0 1299 0 
C 1638 0 1939 268 2054 396 
L 1914 -171 
C 1824 -516 1786 -674 1555 -894 
C 1293 -1152 1050 -1152 909 -1152 
C 717 -1152 557 -1139 397 -1089 
C 602 -1033 653 -858 653 -789 
C 653 -689 576 -588 435 -588 
C 282 -588 115 -714 115 -922 
C 115 -1180 378 -1280 922 -1280 
C 1747 -1280 2176 -753 2259 -410 
L 2970 2435 
C 2989 2511 2989 2524 2989 2536 
C 2989 2625 2918 2695 2822 2695 
C 2669 2695 2579 2567 2560 2395 
z
" transform="scale(0.015625)"/>
      <path id="CMMIB10-10" d="M 1638 438 
C 1363 521 896 661 896 1355 
C 896 2221 1587 3156 2170 3519 
C 2310 3328 2522 3328 2650 3328 
C 2822 3328 3341 3328 3341 3677 
C 3341 3929 3027 3929 2752 3929 
C 2643 3929 2515 3929 2336 3878 
C 2323 4057 2368 4249 2374 4275 
C 2387 4327 2387 4333 2387 4352 
C 2387 4480 2259 4480 2253 4480 
C 2042 4480 2042 4105 2042 3995 
C 2042 3957 2042 3849 2067 3754 
C 1184 3264 307 2156 307 1042 
C 307 724 397 400 621 151 
C 870 -116 1043 -167 1856 -408 
C 2131 -485 2342 -548 2342 -791 
C 2342 -816 2330 -1051 2112 -1051 
C 1978 -1051 1786 -1020 1568 -892 
C 1517 -867 1510 -867 1472 -867 
C 1402 -867 1350 -929 1350 -979 
C 1350 -1111 1805 -1280 2112 -1280 
C 2586 -1280 2893 -810 2893 -440 
C 2893 62 2464 190 2202 267 
L 1638 438 
z
M 2400 3641 
C 2528 3712 2618 3712 2733 3712 
C 2918 3712 2944 3706 3040 3667 
C 2995 3602 2989 3590 2886 3570 
C 2797 3557 2662 3557 2650 3557 
C 2560 3557 2451 3557 2400 3641 
z
" transform="scale(0.015625)"/>
     </defs>
     <use xlink:href="#CMMI12-67" transform="scale(0.996264)"/>
     <use xlink:href="#CMR17-6e" transform="translate(46.710897 -14.943915) scale(0.697382)"/>
     <use xlink:href="#CMR17-6c" transform="translate(82.337505 -14.943915) scale(0.697382)"/>
     <use xlink:href="#CMR17-31" transform="translate(99.747164 -14.943915) scale(0.697382)"/>
     <use xlink:href="#CMR17-28" transform="translate(132.228478 0) scale(0.996264)"/>
     <use xlink:href="#CMMIB10-10" transform="translate(167.509246 0) scale(0.996264)"/>
     <use xlink:href="#CMMI12-3b" transform="translate(224.344621 0) scale(0.996264)"/>
     <use xlink:href="#CMMIB10-10" transform="translate(268.046203 0) scale(0.996264)"/>
     <use xlink:href="#CMSY10-30" transform="translate(324.881578 42.258523) scale(0.697382)"/>
     <use xlink:href="#CMMI12-3b" transform="translate(344.557671 0) scale(0.996264)"/>
     <use xlink:href="#CMMIB10-10" transform="translate(388.259253 0) scale(0.996264)"/>
     <use xlink:href="#CMSY10-30" transform="translate(445.094628 42.258523) scale(0.697382)"/>
     <use xlink:href="#CMSY10-30" transform="translate(464.272589 42.258523) scale(0.697382)"/>
     <use xlink:href="#CMR17-29" transform="translate(483.948681 0) scale(0.996264)"/>
    </g>
   </g>
   <g id="patch_13">
    <path d="M 307.892875 226.309091 
Q 292.647273 226.309091 276.283636 226.309091 
" style="fill: none; stroke: #d62728; stroke-linecap: round"/>
    <path d="M 301.492875 223.109091 
L 307.892875 226.309091 
L 301.492875 229.509091 
z
" style="fill: #d62728; stroke: #d62728; stroke-linecap: round"/>
   </g>
   <g id="text_13">
    <!-- $f_{f2}(\zeta_2, \zeta_2', \zeta_2'')T_1 \cos (n \vartheta)$ -->
    <g transform="translate(313.92 230.020538) scale(0.16 -0.16)">
     <use xlink:href="#CMMI12-66" transform="scale(0.996264)"/>
     <use xlink:href="#CMMI12-66" transform="translate(48.083238 -14.943915) scale(0.697382)"/>
     <use xlink:href="#CMR17-32" transform="translate(89.187261 -14.943915) scale(0.697382)"/>
     <use xlink:href="#CMR17-28" transform="translate(121.668575 0) scale(0.996264)"/>
     <use xlink:href="#CMMI12-10" transform="translate(156.949343 0) scale(0.996264)"/>
     <use xlink:href="#CMR17-32" transform="translate(199.555378 -14.943915) scale(0.697382)"/>
     <use xlink:href="#CMMI12-3b" transform="translate(232.036692 0) scale(0.996264)"/>
     <use xlink:href="#CMMI12-10" transform="translate(275.738275 0) scale(0.996264)"/>
     <use xlink:href="#CMSY10-30" transform="translate(325.868326 36.153639) scale(0.697382)"/>
     <use xlink:href="#CMR17-32" transform="translate(318.34431 -24.62935) scale(0.697382)"/>
     <use xlink:href="#CMMI12-3b" transform="translate(350.825624 0) scale(0.996264)"/>
     <use xlink:href="#CMMI12-10" transform="translate(394.527206 0) scale(0.996264)"/>
     <use xlink:href="#CMSY10-30" transform="translate(444.657258 36.153639) scale(0.697382)"/>
     <use xlink:href="#CMSY10-30" transform="translate(463.835218 36.153639) scale(0.697382)"/>
     <use xlink:href="#CMR17-32" transform="translate(437.133242 -24.62935) scale(0.697382)"/>
     <use xlink:href="#CMR17-29" transform="translate(483.511311 0) scale(0.996264)"/>
     <use xlink:href="#CMMI12-54" transform="translate(518.792079 0) scale(0.996264)"/>
     <use xlink:href="#CMR17-31" transform="translate(575.967122 -14.943915) scale(0.697382)"/>
     <use xlink:href="#CMR17-63" transform="translate(625.052841 0) scale(0.996264)"/>
     <use xlink:href="#CMR17-6f" transform="translate(665.538502 0) scale(0.996264)"/>
     <use xlink:href="#CMR17-73" transform="translate(711.228979 0) scale(0.996264)"/>
     <use xlink:href="#CMR17-28" transform="translate(747.030317 0) scale(0.996264)"/>
     <use xlink:href="#CMMI12-6e" transform="translate(782.311084 0) scale(0.996264)"/>
     <use xlink:href="#CMMI12-23" transform="translate(840.541132 0) scale(0.996264)"/>
     <use xlink:href="#CMR17-29" transform="translate(898.033224 0) scale(0.996264)"/>
    </g>
   </g>
   <g id="patch_14">
    <path d="M 307.892875 285.218182 
Q 292.647273 285.218182 276.283636 285.218182 
" style="fill: none; stroke: #9467bd; stroke-linecap: round"/>
    <path d="M 301.492875 282.018182 
L 307.892875 285.218182 
L 301.492875 288.418182 
z
" style="fill: #9467bd; stroke: #9467bd; stroke-linecap: round"/>
   </g>
   <g id="text_14">
    <!-- $g_{{\text{{nl2}}}}(\boldsymbol{\zeta}, \boldsymbol{\zeta}', \boldsymbol{\zeta}'')$ -->
    <g transform="translate(313.92 289.705824) scale(0.16 -0.16)">
     <use xlink:href="#CMMI12-67" transform="scale(0.996264)"/>
     <use xlink:href="#CMR17-6e" transform="translate(46.710897 -14.943915) scale(0.697382)"/>
     <use xlink:href="#CMR17-6c" transform="translate(82.337505 -14.943915) scale(0.697382)"/>
     <use xlink:href="#CMR17-32" transform="translate(99.747164 -14.943915) scale(0.697382)"/>
     <use xlink:href="#CMR17-28" transform="translate(132.228478 0) scale(0.996264)"/>
     <use xlink:href="#CMMIB10-10" transform="translate(167.509246 0) scale(0.996264)"/>
     <use xlink:href="#CMMI12-3b" transform="translate(224.344621 0) scale(0.996264)"/>
     <use xlink:href="#CMMIB10-10" transform="translate(268.046203 0) scale(0.996264)"/>
     <use xlink:href="#CMSY10-30" transform="translate(324.881578 42.258523) scale(0.697382)"/>
     <use xlink:href="#CMMI12-3b" transform="translate(344.557671 0) scale(0.996264)"/>
     <use xlink:href="#CMMIB10-10" transform="translate(388.259253 0) scale(0.996264)"/>
     <use xlink:href="#CMSY10-30" transform="translate(445.094628 42.258523) scale(0.697382)"/>
     <use xlink:href="#CMSY10-30" transform="translate(464.272589 42.258523) scale(0.697382)"/>
     <use xlink:href="#CMR17-29" transform="translate(483.948681 0) scale(0.996264)"/>
    </g>
   </g>
  </g>
 </g>
 <defs>
  <clipPath id="pa92228f52d">
   <rect x="0" y="0" width="468" height="345.6"/>
  </clipPath>
 </defs>
</svg>
