<?xml version="1.0" encoding="utf-8" standalone="no"?>
<!DOCTYPE svg PUBLIC "-//W3C//DTD SVG 1.1//EN"
  "http://www.w3.org/Graphics/SVG/1.1/DTD/svg11.dtd">
<svg xmlns:xlink="http://www.w3.org/1999/xlink" width="504pt" height="345.6pt" viewBox="0 0 504 345.6" xmlns="http://www.w3.org/2000/svg" version="1.1">
 <metadata>
  <rdf:RDF xmlns:dc="http://purl.org/dc/elements/1.1/" xmlns:cc="http://creativecommons.org/ns#" xmlns:rdf="http://www.w3.org/1999/02/22-rdf-syntax-ns#">
   <cc:Work>
    <dc:type rdf:resource="http://purl.org/dc/dcmitype/StillImage"/>
    <dc:date>2026-03-05T12:06:38.841000</dc:date>
    <dc:format>image/svg+xml</dc:format>
    <dc:creator>
     <cc:Agent>
      <dc:title>Matplotlib v3.10.8, https://matplotlib.org/</dc:title>
     </cc:Agent>
    </dc:creator>
   </cc:Work>
  </rdf:RDF>
 </metadata>
 <defs>
  <style type="text/css">*{stroke-linejoin: round; stroke-linecap: butt}</style>
 </defs>
 <g id="figure_1">
  <g id="patch_1">
   <path d="M 0 345.6 
L 504 345.6 
L 504 0 
L 0 0 
z
" style="fill: #ffffff"/>
  </g>
  <g id="axes_1">
   <g id="patch_2">
    <path d="M 0 345.6 
L 504 345.6 
L 504 0 
L 0 0 
z
" style="fill: #ffffff"/>
   </g>
   <g id="patch_3">
    <path d="M 24.741818 44.159207 
L 90.72 44.159207 
L 90.72 24.365752 
L 24.741818 24.365752 
L 24.741818 44.159207 
z
" clip-path="url(#p11576d2ddb)" style="fill: none; stroke: #000000; stroke-linejoin: miter"/>
   </g>
   <g id="patch_4">
    <path d="M 24.741818 232.668298 
L 90.72 232.668298 
L 90.72 212.874843 
L 24.741818 212.874843 
L 24.741818 232.668298 
z
" clip-path="url(#p11576d2ddb)" style="fill: none; stroke: #000000; stroke-linejoin: miter"/>
   </g>
   <g id="matplotlib.axis_1">
    <g id="xtick_1"/>
    <g id="xtick_2"/>
    <g id="xtick_3"/>
    <g id="xtick_4"/>
    <g id="xtick_5"/>
    <g id="xtick_6"/>
    <g id="xtick_7"/>
    <g id="xtick_8"/>
   </g>
   <g id="matplotlib.axis_2">
    <g id="ytick_1"/>
    <g id="ytick_2"/>
    <g id="ytick_3"/>
    <g id="ytick_4"/>
    <g id="ytick_5"/>
   </g>
   <g id="line2d_1">
    <path d="M 10.603636 328.450909 
L 10.603636 14.269091 
" clip-path="url(#p11576d2ddb)" style="fill: none; stroke: #000000; stroke-width: 2; stroke-linecap: square"/>
   </g>
   <g id="line2d_2">
    <path d="M 10.603636 312.741818 
L 3.787717 326.89522 
" clip-path="url(#p11576d2ddb)" style="fill: none; stroke: #000000; stroke-linecap: square"/>
   </g>
   <g id="line2d_3">
    <path d="M 10.603636 300.96 
L 3.787717 315.113402 
" clip-path="url(#p11576d2ddb)" style="fill: none; stroke: #000000; stroke-linecap: square"/>
   </g>
   <g id="line2d_4">
    <path d="M 10.603636 289.178182 
L 3.787717 303.331584 
" clip-path="url(#p11576d2ddb)" style="fill: none; stroke: #000000; stroke-linecap: square"/>
   </g>
   <g id="line2d_5">
    <path d="M 10.603636 277.396364 
L 3.787717 291.549765 
" clip-path="url(#p11576d2ddb)" style="fill: none; stroke: #000000; stroke-linecap: square"/>
   </g>
   <g id="line2d_6">
    <path d="M 10.603636 265.614545 
L 3.787717 279.767947 
" clip-path="url(#p11576d2ddb)" style="fill: none; stroke: #000000; stroke-linecap: square"/>
   </g>
   <g id="line2d_7">
    <path d="M 10.603636 253.832727 
L 3.787717 267.986129 
" clip-path="url(#p11576d2ddb)" style="fill: none; stroke: #000000; stroke-linecap: square"/>
   </g>
   <g id="line2d_8">
    <path d="M 10.603636 242.050909 
L 3.787717 256.204311 
" clip-path="url(#p11576d2ddb)" style="fill: none; stroke: #000000; stroke-linecap: square"/>
   </g>
   <g id="line2d_9">
    <path d="M 10.603636 230.269091 
L 3.787717 244.422493 
" clip-path="url(#p11576d2ddb)" style="fill: none; stroke: #000000; stroke-linecap: square"/>
   </g>
   <g id="line2d_10">
    <path d="M 10.603636 218.487273 
L 3.787717 232.640675 
" clip-path="url(#p11576d2ddb)" style="fill: none; stroke: #000000; stroke-linecap: square"/>
   </g>
   <g id="line2d_11">
    <path d="M 10.603636 206.705455 
L 3.787717 220.858856 
" clip-path="url(#p11576d2ddb)" style="fill: none; stroke: #000000; stroke-linecap: square"/>
   </g>
   <g id="line2d_12">
    <path d="M 10.603636 194.923636 
L 3.787717 209.077038 
" clip-path="url(#p11576d2ddb)" style="fill: none; stroke: #000000; stroke-linecap: square"/>
   </g>
   <g id="line2d_13">
    <path d="M 10.603636 183.141818 
L 3.787717 197.29522 
" clip-path="url(#p11576d2ddb)" style="fill: none; stroke: #000000; stroke-linecap: square"/>
   </g>
   <g id="line2d_14">
    <path d="M 10.603636 171.36 
L 3.787717 185.513402 
" clip-path="url(#p11576d2ddb)" style="fill: none; stroke: #000000; stroke-linecap: square"/>
   </g>
   <g id="line2d_15">
    <path d="M 10.603636 159.578182 
L 3.787717 173.731584 
" clip-path="url(#p11576d2ddb)" style="fill: none; stroke: #000000; stroke-linecap: square"/>
   </g>
   <g id="line2d_16">
    <path d="M 10.603636 147.796364 
L 3.787717 161.949765 
" clip-path="url(#p11576d2ddb)" style="fill: none; stroke: #000000; stroke-linecap: square"/>
   </g>
   <g id="line2d_17">
    <path d="M 10.603636 136.014545 
L 3.787717 150.167947 
" clip-path="url(#p11576d2ddb)" style="fill: none; stroke: #000000; stroke-linecap: square"/>
   </g>
   <g id="line2d_18">
    <path d="M 10.603636 124.232727 
L 3.787717 138.386129 
" clip-path="url(#p11576d2ddb)" style="fill: none; stroke: #000000; stroke-linecap: square"/>
   </g>
   <g id="line2d_19">
    <path d="M 10.603636 112.450909 
L 3.787717 126.604311 
" clip-path="url(#p11576d2ddb)" style="fill: none; stroke: #000000; stroke-linecap: square"/>
   </g>
   <g id="line2d_20">
    <path d="M 10.603636 100.669091 
L 3.787717 114.822493 
" clip-path="url(#p11576d2ddb)" style="fill: none; stroke: #000000; stroke-linecap: square"/>
   </g>
   <g id="line2d_21">
    <path d="M 10.603636 88.887273 
L 3.787717 103.040675 
" clip-path="url(#p11576d2ddb)" style="fill: none; stroke: #000000; stroke-linecap: square"/>
   </g>
   <g id="line2d_22">
    <path d="M 10.603636 77.105455 
L 3.787717 91.258856 
" clip-path="url(#p11576d2ddb)" style="fill: none; stroke: #000000; stroke-linecap: square"/>
   </g>
   <g id="line2d_23">
    <path d="M 10.603636 65.323636 
L 3.787717 79.477038 
" clip-path="url(#p11576d2ddb)" style="fill: none; stroke: #000000; stroke-linecap: square"/>
   </g>
   <g id="line2d_24">
    <path d="M 10.603636 53.541818 
L 3.787717 67.69522 
" clip-path="url(#p11576d2ddb)" style="fill: none; stroke: #000000; stroke-linecap: square"/>
   </g>
   <g id="line2d_25">
    <path d="M 10.603636 41.76 
L 3.787717 55.913402 
" clip-path="url(#p11576d2ddb)" style="fill: none; stroke: #000000; stroke-linecap: square"/>
   </g>
   <g id="line2d_26">
    <path d="M 10.603636 29.978182 
L 3.787717 44.131584 
" clip-path="url(#p11576d2ddb)" style="fill: none; stroke: #000000; stroke-linecap: square"/>
   </g>
   <g id="line2d_27">
    <path d="M 10.603636 34.262479 
L 24.741818 34.262479 
" clip-path="url(#p11576d2ddb)" style="fill: none; stroke: #000000; stroke-width: 1.5; stroke-linecap: square"/>
   </g>
   <g id="line2d_28">
    <path d="M 90.72 34.262479 
L 104.858182 34.262479 
" clip-path="url(#p11576d2ddb)" style="fill: none; stroke: #000000; stroke-width: 1.5; stroke-linecap: square"/>
   </g>
   <g id="line2d_29">
    <path d="M 10.603636 77.105455 
L 20.029091 77.105455 
" clip-path="url(#p11576d2ddb)" style="fill: none; stroke: #000000; stroke-linecap: square"/>
   </g>
   <g id="line2d_30">
    <path d="M 95.432727 77.105455 
L 104.858182 77.105455 
" clip-path="url(#p11576d2ddb)" style="fill: none; stroke: #000000; stroke-linecap: square"/>
   </g>
   <g id="line2d_31">
    <path d="M 22.385455 68.936727 
L 27.098182 85.274182 
" clip-path="url(#p11576d2ddb)" style="fill: none; stroke: #000000; stroke-linecap: square"/>
   </g>
   <g id="line2d_32">
    <path d="M 27.098182 85.274182 
L 31.810909 68.936727 
" clip-path="url(#p11576d2ddb)" style="fill: none; stroke: #000000; stroke-linecap: square"/>
   </g>
   <g id="line2d_33">
    <path d="M 31.810909 68.936727 
L 36.523636 85.274182 
" clip-path="url(#p11576d2ddb)" style="fill: none; stroke: #000000; stroke-linecap: square"/>
   </g>
   <g id="line2d_34">
    <path d="M 36.523636 85.274182 
L 41.236364 68.936727 
" clip-path="url(#p11576d2ddb)" style="fill: none; stroke: #000000; stroke-linecap: square"/>
   </g>
   <g id="line2d_35">
    <path d="M 41.236364 68.936727 
L 45.949091 85.274182 
" clip-path="url(#p11576d2ddb)" style="fill: none; stroke: #000000; stroke-linecap: square"/>
   </g>
   <g id="line2d_36">
    <path d="M 45.949091 85.274182 
L 50.661818 68.936727 
" clip-path="url(#p11576d2ddb)" style="fill: none; stroke: #000000; stroke-linecap: square"/>
   </g>
   <g id="line2d_37">
    <path d="M 50.661818 68.936727 
L 55.374545 85.274182 
" clip-path="url(#p11576d2ddb)" style="fill: none; stroke: #000000; stroke-linecap: square"/>
   </g>
   <g id="line2d_38">
    <path d="M 55.374545 85.274182 
L 60.087273 68.936727 
" clip-path="url(#p11576d2ddb)" style="fill: none; stroke: #000000; stroke-linecap: square"/>
   </g>
   <g id="line2d_39">
    <path d="M 60.087273 68.936727 
L 64.8 85.274182 
" clip-path="url(#p11576d2ddb)" style="fill: none; stroke: #000000; stroke-linecap: square"/>
   </g>
   <g id="line2d_40">
    <path d="M 64.8 85.274182 
L 69.512727 68.936727 
" clip-path="url(#p11576d2ddb)" style="fill: none; stroke: #000000; stroke-linecap: square"/>
   </g>
   <g id="line2d_41">
    <path d="M 69.512727 68.936727 
L 74.225455 85.274182 
" clip-path="url(#p11576d2ddb)" style="fill: none; stroke: #000000; stroke-linecap: square"/>
   </g>
   <g id="line2d_42">
    <path d="M 74.225455 85.274182 
L 78.938182 68.936727 
" clip-path="url(#p11576d2ddb)" style="fill: none; stroke: #000000; stroke-linecap: square"/>
   </g>
   <g id="line2d_43">
    <path d="M 78.938182 68.936727 
L 83.650909 85.274182 
" clip-path="url(#p11576d2ddb)" style="fill: none; stroke: #000000; stroke-linecap: square"/>
   </g>
   <g id="line2d_44">
    <path d="M 83.650909 85.274182 
L 88.363636 68.936727 
" clip-path="url(#p11576d2ddb)" style="fill: none; stroke: #000000; stroke-linecap: square"/>
   </g>
   <g id="line2d_45">
    <path d="M 88.363636 68.936727 
L 93.076364 85.274182 
" clip-path="url(#p11576d2ddb)" style="fill: none; stroke: #000000; stroke-linecap: square"/>
   </g>
   <g id="line2d_46">
    <path d="M 20.029091 77.105455 
L 22.385455 68.936727 
" clip-path="url(#p11576d2ddb)" style="fill: none; stroke: #000000; stroke-linecap: square"/>
   </g>
   <g id="line2d_47">
    <path d="M 93.076364 85.274182 
L 95.432727 77.105455 
" clip-path="url(#p11576d2ddb)" style="fill: none; stroke: #000000; stroke-linecap: square"/>
   </g>
   <g id="line2d_48">
    <path d="M 10.603636 119.94843 
L 38.88 119.94843 
" clip-path="url(#p11576d2ddb)" style="fill: none; stroke: #000000; stroke-linecap: square"/>
   </g>
   <g id="line2d_49">
    <path d="M 57.730909 119.94843 
L 104.858182 119.94843 
" clip-path="url(#p11576d2ddb)" style="fill: none; stroke: #000000; stroke-linecap: square"/>
   </g>
   <g id="line2d_50">
    <path d="M 38.88 110.522975 
L 76.581818 110.522975 
" clip-path="url(#p11576d2ddb)" style="fill: none; stroke: #000000; stroke-linecap: square"/>
   </g>
   <g id="line2d_51">
    <path d="M 38.88 129.373884 
L 76.581818 129.373884 
" clip-path="url(#p11576d2ddb)" style="fill: none; stroke: #000000; stroke-linecap: square"/>
   </g>
   <g id="line2d_52">
    <path d="M 38.88 129.373884 
L 38.88 110.522975 
" clip-path="url(#p11576d2ddb)" style="fill: none; stroke: #000000; stroke-linecap: square"/>
   </g>
   <g id="line2d_53">
    <path d="M 57.730909 126.074975 
L 57.730909 113.821884 
" clip-path="url(#p11576d2ddb)" style="fill: none; stroke: #000000; stroke-linecap: square"/>
   </g>
   <g id="line2d_54">
    <path d="M 10.603636 222.77157 
L 24.741818 222.77157 
" clip-path="url(#p11576d2ddb)" style="fill: none; stroke: #000000; stroke-width: 1.5; stroke-linecap: square"/>
   </g>
   <g id="line2d_55">
    <path d="M 90.72 222.77157 
L 104.858182 222.77157 
" clip-path="url(#p11576d2ddb)" style="fill: none; stroke: #000000; stroke-width: 1.5; stroke-linecap: square"/>
   </g>
   <g id="line2d_56">
    <path d="M 10.603636 265.614545 
L 20.029091 265.614545 
" clip-path="url(#p11576d2ddb)" style="fill: none; stroke: #000000; stroke-linecap: square"/>
   </g>
   <g id="line2d_57">
    <path d="M 95.432727 265.614545 
L 104.858182 265.614545 
" clip-path="url(#p11576d2ddb)" style="fill: none; stroke: #000000; stroke-linecap: square"/>
   </g>
   <g id="line2d_58">
    <path d="M 22.385455 257.445818 
L 27.098182 273.783273 
" clip-path="url(#p11576d2ddb)" style="fill: none; stroke: #000000; stroke-linecap: square"/>
   </g>
   <g id="line2d_59">
    <path d="M 27.098182 273.783273 
L 31.810909 257.445818 
" clip-path="url(#p11576d2ddb)" style="fill: none; stroke: #000000; stroke-linecap: square"/>
   </g>
   <g id="line2d_60">
    <path d="M 31.810909 257.445818 
L 36.523636 273.783273 
" clip-path="url(#p11576d2ddb)" style="fill: none; stroke: #000000; stroke-linecap: square"/>
   </g>
   <g id="line2d_61">
    <path d="M 36.523636 273.783273 
L 41.236364 257.445818 
" clip-path="url(#p11576d2ddb)" style="fill: none; stroke: #000000; stroke-linecap: square"/>
   </g>
   <g id="line2d_62">
    <path d="M 41.236364 257.445818 
L 45.949091 273.783273 
" clip-path="url(#p11576d2ddb)" style="fill: none; stroke: #000000; stroke-linecap: square"/>
   </g>
   <g id="line2d_63">
    <path d="M 45.949091 273.783273 
L 50.661818 257.445818 
" clip-path="url(#p11576d2ddb)" style="fill: none; stroke: #000000; stroke-linecap: square"/>
   </g>
   <g id="line2d_64">
    <path d="M 50.661818 257.445818 
L 55.374545 273.783273 
" clip-path="url(#p11576d2ddb)" style="fill: none; stroke: #000000; stroke-linecap: square"/>
   </g>
   <g id="line2d_65">
    <path d="M 55.374545 273.783273 
L 60.087273 257.445818 
" clip-path="url(#p11576d2ddb)" style="fill: none; stroke: #000000; stroke-linecap: square"/>
   </g>
   <g id="line2d_66">
    <path d="M 60.087273 257.445818 
L 64.8 273.783273 
" clip-path="url(#p11576d2ddb)" style="fill: none; stroke: #000000; stroke-linecap: square"/>
   </g>
   <g id="line2d_67">
    <path d="M 64.8 273.783273 
L 69.512727 257.445818 
" clip-path="url(#p11576d2ddb)" style="fill: none; stroke: #000000; stroke-linecap: square"/>
   </g>
   <g id="line2d_68">
    <path d="M 69.512727 257.445818 
L 74.225455 273.783273 
" clip-path="url(#p11576d2ddb)" style="fill: none; stroke: #000000; stroke-linecap: square"/>
   </g>
   <g id="line2d_69">
    <path d="M 74.225455 273.783273 
L 78.938182 257.445818 
" clip-path="url(#p11576d2ddb)" style="fill: none; stroke: #000000; stroke-linecap: square"/>
   </g>
   <g id="line2d_70">
    <path d="M 78.938182 257.445818 
L 83.650909 273.783273 
" clip-path="url(#p11576d2ddb)" style="fill: none; stroke: #000000; stroke-linecap: square"/>
   </g>
   <g id="line2d_71">
    <path d="M 83.650909 273.783273 
L 88.363636 257.445818 
" clip-path="url(#p11576d2ddb)" style="fill: none; stroke: #000000; stroke-linecap: square"/>
   </g>
   <g id="line2d_72">
    <path d="M 88.363636 257.445818 
L 93.076364 273.783273 
" clip-path="url(#p11576d2ddb)" style="fill: none; stroke: #000000; stroke-linecap: square"/>
   </g>
   <g id="line2d_73">
    <path d="M 20.029091 265.614545 
L 22.385455 257.445818 
" clip-path="url(#p11576d2ddb)" style="fill: none; stroke: #000000; stroke-linecap: square"/>
   </g>
   <g id="line2d_74">
    <path d="M 93.076364 273.783273 
L 95.432727 265.614545 
" clip-path="url(#p11576d2ddb)" style="fill: none; stroke: #000000; stroke-linecap: square"/>
   </g>
   <g id="line2d_75">
    <path d="M 10.603636 308.457521 
L 38.88 308.457521 
" clip-path="url(#p11576d2ddb)" style="fill: none; stroke: #000000; stroke-linecap: square"/>
   </g>
   <g id="line2d_76">
    <path d="M 57.730909 308.457521 
L 104.858182 308.457521 
" clip-path="url(#p11576d2ddb)" style="fill: none; stroke: #000000; stroke-linecap: square"/>
   </g>
   <g id="line2d_77">
    <path d="M 38.88 299.032066 
L 76.581818 299.032066 
" clip-path="url(#p11576d2ddb)" style="fill: none; stroke: #000000; stroke-linecap: square"/>
   </g>
   <g id="line2d_78">
    <path d="M 38.88 317.882975 
L 76.581818 317.882975 
" clip-path="url(#p11576d2ddb)" style="fill: none; stroke: #000000; stroke-linecap: square"/>
   </g>
   <g id="line2d_79">
    <path d="M 38.88 317.882975 
L 38.88 299.032066 
" clip-path="url(#p11576d2ddb)" style="fill: none; stroke: #000000; stroke-linecap: square"/>
   </g>
   <g id="line2d_80">
    <path d="M 57.730909 314.584066 
L 57.730909 302.330975 
" clip-path="url(#p11576d2ddb)" style="fill: none; stroke: #000000; stroke-linecap: square"/>
   </g>
   <g id="line2d_81">
    <path d="M 177.12 155.650909 
L 177.12 187.069091 
" clip-path="url(#p11576d2ddb)" style="fill: none; stroke-dasharray: 7.4,3.2; stroke-dashoffset: 0; stroke: #000000; stroke-width: 2"/>
   </g>
   <g id="patch_5">
    <path d="M 104.858182 124.232727 
L 261.949091 124.232727 
L 261.949091 29.978182 
L 104.858182 29.978182 
z
" clip-path="url(#p11576d2ddb)" style="fill: #1f77b4; opacity: 0.5; stroke: #000000; stroke-width: 1.5; stroke-linejoin: miter"/>
   </g>
   <g id="text_1">
    <!-- $m=1$ -->
    <g transform="translate(164.831117 80.592379) scale(0.14 -0.14)">
     <defs>
      <path id="CMMI12-6d" d="M 1318 1871 
C 1331 1910 1491 2229 1728 2433 
C 1894 2586 2112 2689 2362 2689 
C 2618 2689 2707 2497 2707 2242 
C 2707 2203 2707 2076 2630 1775 
L 2470 1118 
C 2419 926 2298 453 2285 383 
C 2259 287 2221 121 2221 96 
C 2221 6 2291 -64 2387 -64 
C 2579 -64 2611 83 2669 313 
L 3053 1839 
C 3066 1890 3398 2689 4102 2689 
C 4358 2689 4448 2497 4448 2242 
C 4448 1884 4198 1188 4058 805 
C 4000 651 3968 568 3968 453 
C 3968 166 4166 -64 4474 -64 
C 5069 -64 5293 875 5293 913 
C 5293 945 5267 971 5229 971 
C 5171 971 5165 952 5133 843 
C 4986 332 4749 64 4493 64 
C 4429 64 4326 64 4326 269 
C 4326 436 4403 640 4429 710 
C 4544 1018 4832 1773 4832 2145 
C 4832 2528 4608 2816 4122 2816 
C 3693 2816 3347 2574 3091 2197 
C 3072 2542 2861 2816 2381 2816 
C 1811 2816 1510 2415 1395 2255 
C 1376 2618 1114 2816 832 2816 
C 646 2816 499 2727 378 2484 
C 262 2254 173 1865 173 1839 
C 173 1814 198 1782 243 1782 
C 294 1782 301 1788 339 1935 
C 435 2312 557 2689 813 2689 
C 960 2689 1011 2586 1011 2395 
C 1011 2254 947 2005 902 1807 
L 723 1118 
C 698 996 627 709 595 594 
C 550 428 480 128 480 96 
C 480 6 550 -64 646 -64 
C 723 -64 813 -26 864 70 
C 877 102 934 326 966 453 
L 1107 1028 
L 1318 1871 
z
" transform="scale(0.015625)"/>
      <path id="CMR17-3d" d="M 4115 2017 
C 4211 2017 4307 2017 4307 2125 
C 4307 2240 4198 2240 4090 2240 
L 512 2240 
C 403 2240 294 2240 294 2125 
C 294 2017 390 2017 486 2017 
L 4115 2017 
z
M 4090 896 
C 4198 896 4307 896 4307 1011 
C 4307 1119 4211 1119 4115 1119 
L 486 1119 
C 390 1119 294 1119 294 1011 
C 294 896 403 896 512 896 
L 4090 896 
z
" transform="scale(0.015625)"/>
      <path id="CMR17-31" d="M 1702 4058 
C 1702 4192 1696 4192 1606 4192 
C 1357 3916 979 3827 621 3827 
C 602 3827 570 3827 563 3808 
C 557 3795 557 3782 557 3648 
C 755 3648 1088 3686 1344 3839 
L 1344 461 
C 1344 236 1331 160 781 160 
L 589 160 
L 589 0 
C 896 0 1216 0 1523 0 
C 1830 0 2150 0 2458 0 
L 2458 160 
L 2266 160 
C 1715 160 1702 230 1702 458 
L 1702 4058 
z
" transform="scale(0.015625)"/>
     </defs>
     <use xlink:href="#CMMI12-6d" transform="scale(0.996264)"/>
     <use xlink:href="#CMR17-3d" transform="translate(113.001233 0) scale(0.996264)"/>
     <use xlink:href="#CMR17-31" transform="translate(212.39003 0) scale(0.996264)"/>
    </g>
   </g>
   <g id="patch_6">
    <path d="M 23.00123 48.647983 
Q 57.728037 34.263669 91.421914 20.307208 
" style="fill: none; stroke: #9467bd; stroke-linecap: round"/>
    <path d="M 85.176675 19.863373 
L 91.421914 20.307208 
L 87.319702 25.037098 
z
" style="fill: #9467bd; stroke: #9467bd; stroke-linecap: round"/>
   </g>
   <g id="text_2">
    <!-- $f_{\text{nl},{0}} (x_{0}, \dot{x}_{0}, \ddot{x}_{0})$ -->
    <g transform="translate(24.741818 12.791463) scale(0.14 -0.14)">
     <defs>
      <path id="CMMI12-66" d="M 2854 2566 
C 2982 2566 3034 2566 3034 2688 
C 3034 2752 2982 2752 2867 2752 
L 2349 2752 
C 2470 3429 2560 3897 2611 4107 
C 2650 4265 2784 4416 2950 4416 
C 3085 4416 3219 4358 3283 4298 
C 3034 4272 2957 4082 2957 3969 
C 2957 3837 3053 3759 3174 3759 
C 3302 3759 3494 3870 3494 4119 
C 3494 4393 3226 4544 2944 4544 
C 2669 4544 2400 4334 2272 4078 
C 2157 3848 2093 3611 1946 2752 
L 1517 2752 
C 1395 2752 1331 2752 1331 2637 
C 1331 2566 1370 2566 1498 2566 
L 1907 2566 
C 1792 1976 1530 542 1382 -137 
C 1274 -689 1178 -1152 858 -1152 
C 838 -1152 653 -1152 538 -1031 
C 864 -1005 864 -726 864 -720 
C 864 -593 768 -517 646 -517 
C 518 -517 326 -625 326 -867 
C 326 -1140 608 -1280 858 -1280 
C 1510 -1280 1779 -118 1850 199 
C 1965 688 2278 2376 2310 2566 
L 2854 2566 
z
" transform="scale(0.015625)"/>
      <path id="CMR17-6e" d="M 2656 1933 
C 2656 2259 2592 2790 1837 2790 
C 1331 2790 1069 2400 973 2144 
L 966 2144 
L 966 2790 
L 211 2720 
L 211 2554 
C 589 2554 646 2515 646 2208 
L 646 428 
C 646 184 621 153 211 153 
L 211 -13 
C 365 0 646 0 813 0 
C 979 0 1267 0 1421 -13 
L 1421 153 
C 1011 153 986 178 986 428 
L 986 1658 
C 986 2247 1344 2688 1792 2688 
C 2266 2688 2317 2266 2317 1958 
L 2317 428 
C 2317 184 2291 153 1882 153 
L 1882 -13 
C 2035 0 2317 0 2483 0 
C 2650 0 2938 0 3091 -13 
L 3091 153 
C 2682 153 2656 178 2656 428 
L 2656 1933 
z
" transform="scale(0.015625)"/>
      <path id="CMR17-6c" d="M 979 4396 
L 218 4326 
L 218 4160 
C 595 4160 653 4122 653 3817 
L 653 426 
C 653 184 627 153 218 153 
L 218 -13 
C 371 0 653 0 813 0 
C 979 0 1261 0 1414 -13 
L 1414 153 
C 1005 153 979 178 979 426 
L 979 4396 
z
" transform="scale(0.015625)"/>
      <path id="CMMI12-3b" d="M 1248 -31 
C 1248 343 1126 619 864 619 
C 659 619 557 453 557 313 
C 557 172 653 0 870 0 
C 954 0 1024 26 1082 83 
C 1094 96 1101 96 1107 96 
C 1120 96 1120 5 1120 -27 
C 1120 -240 1082 -659 710 -1080 
C 640 -1157 640 -1170 640 -1183 
C 640 -1216 672 -1248 704 -1248 
C 755 -1248 1248 -771 1248 -31 
z
" transform="scale(0.015625)"/>
      <path id="CMR17-30" d="M 2688 2025 
C 2688 2416 2682 3080 2413 3591 
C 2176 4039 1798 4198 1466 4198 
C 1158 4198 768 4058 525 3597 
C 269 3118 243 2524 243 2025 
C 243 1661 250 1106 448 619 
C 723 -39 1216 -128 1466 -128 
C 1760 -128 2208 -7 2470 600 
C 2662 1042 2688 1559 2688 2025 
z
M 1466 -26 
C 1056 -26 813 325 723 812 
C 653 1188 653 1738 653 2096 
C 653 2588 653 2997 736 3387 
C 858 3929 1216 4096 1466 4096 
C 1728 4096 2067 3923 2189 3400 
C 2272 3036 2278 2607 2278 2096 
C 2278 1680 2278 1169 2202 792 
C 2067 95 1690 -26 1466 -26 
z
" transform="scale(0.015625)"/>
      <path id="CMR17-28" d="M 1958 -1561 
C 1958 -1555 1958 -1542 1939 -1523 
C 1645 -1224 858 -407 858 1581 
C 858 3569 1632 4379 1946 4697 
C 1946 4704 1958 4717 1958 4736 
C 1958 4755 1939 4768 1914 4768 
C 1843 4768 1299 4296 986 3594 
C 666 2887 576 2199 576 1588 
C 576 1128 621 351 1005 -471 
C 1312 -1135 1837 -1600 1914 -1600 
C 1946 -1600 1958 -1587 1958 -1561 
z
" transform="scale(0.015625)"/>
      <path id="CMMI12-78" d="M 3034 2606 
C 2829 2567 2752 2414 2752 2293 
C 2752 2139 2874 2088 2963 2088 
C 3155 2088 3290 2254 3290 2427 
C 3290 2695 2982 2816 2714 2816 
C 2323 2816 2106 2433 2048 2312 
C 1901 2816 1504 2816 1389 2816 
C 736 2816 390 1980 390 1839 
C 390 1814 416 1782 461 1782 
C 512 1782 525 1820 538 1846 
C 755 2555 1184 2689 1370 2689 
C 1658 2689 1715 2420 1715 2267 
C 1715 2127 1677 1980 1600 1673 
L 1382 798 
C 1286 415 1101 64 762 64 
C 730 64 570 64 435 147 
C 666 192 717 383 717 460 
C 717 588 621 664 499 664 
C 346 664 179 530 179 326 
C 179 57 480 -64 755 -64 
C 1062 -64 1280 179 1414 441 
C 1517 64 1837 -64 2074 -64 
C 2726 -64 3072 773 3072 913 
C 3072 945 3046 971 3008 971 
C 2950 971 2944 939 2925 888 
C 2752 326 2381 64 2093 64 
C 1869 64 1747 230 1747 492 
C 1747 632 1773 734 1875 1156 
L 2099 2024 
C 2195 2408 2413 2689 2707 2689 
C 2720 2689 2899 2689 3034 2606 
z
" transform="scale(0.015625)"/>
      <path id="CMR17-5f" d="M 1056 3909 
C 1056 4062 934 4170 800 4170 
C 646 4170 538 4049 538 3909 
C 538 3756 659 3648 794 3648 
C 947 3648 1056 3769 1056 3909 
z
" transform="scale(0.015625)"/>
      <path id="CMR17-7f" d="M 1133 3961 
C 1133 4120 1005 4215 883 4215 
C 717 4215 627 4075 627 3967 
C 627 3840 730 3712 883 3712 
C 1018 3712 1133 3821 1133 3961 
z
M 2304 3961 
C 2304 4088 2202 4215 2048 4215 
C 1914 4215 1798 4107 1798 3967 
C 1798 3808 1926 3712 2048 3712 
C 2214 3712 2304 3852 2304 3961 
z
" transform="scale(0.015625)"/>
      <path id="CMR17-29" d="M 1683 1581 
C 1683 2040 1638 2817 1254 3639 
C 947 4303 422 4768 346 4768 
C 326 4768 301 4761 301 4729 
C 301 4717 307 4710 314 4697 
C 621 4378 1402 3568 1402 1584 
C 1402 -407 627 -1217 314 -1537 
C 307 -1549 301 -1556 301 -1568 
C 301 -1600 326 -1600 346 -1600 
C 416 -1600 960 -1128 1274 -426 
C 1594 281 1683 969 1683 1581 
z
" transform="scale(0.015625)"/>
     </defs>
     <use xlink:href="#CMMI12-66" transform="scale(0.996264)"/>
     <use xlink:href="#CMR17-6e" transform="translate(48.083238 -14.943915) scale(0.697382)"/>
     <use xlink:href="#CMR17-6c" transform="translate(83.709846 -14.943915) scale(0.697382)"/>
     <use xlink:href="#CMMI12-3b" transform="translate(101.119505 -14.943915) scale(0.697382)"/>
     <use xlink:href="#CMR17-30" transform="translate(120.087438 -14.943915) scale(0.697382)"/>
     <use xlink:href="#CMR17-28" transform="translate(152.568752 0) scale(0.996264)"/>
     <use xlink:href="#CMMI12-78" transform="translate(187.849519 0) scale(0.996264)"/>
     <use xlink:href="#CMR17-30" transform="translate(243.283579 -14.943915) scale(0.697382)"/>
     <use xlink:href="#CMMI12-3b" transform="translate(275.764893 0) scale(0.996264)"/>
     <use xlink:href="#CMR17-5f" transform="translate(337.457693 0.006461) scale(0.996264)"/>
     <use xlink:href="#CMMI12-78" transform="translate(319.466475 0) scale(0.996264)"/>
     <use xlink:href="#CMR17-30" transform="translate(374.900535 -14.943915) scale(0.697382)"/>
     <use xlink:href="#CMMI12-3b" transform="translate(407.381849 0) scale(0.996264)"/>
     <use xlink:href="#CMR17-7f" transform="translate(458.66494 0.006461) scale(0.996264)"/>
     <use xlink:href="#CMMI12-78" transform="translate(451.083431 0) scale(0.996264)"/>
     <use xlink:href="#CMR17-30" transform="translate(506.517491 -14.943915) scale(0.697382)"/>
     <use xlink:href="#CMR17-29" transform="translate(538.998805 0) scale(0.996264)"/>
    </g>
   </g>
   <g id="text_3">
    <!-- $\omega_{0}^2$ -->
    <g transform="translate(50.720014 62.168412) scale(0.14 -0.14)">
     <defs>
      <path id="CMMI12-21" d="M 3802 2395 
C 3802 2580 3750 2816 3526 2816 
C 3398 2816 3251 2657 3251 2529 
C 3251 2472 3277 2434 3328 2376 
C 3424 2268 3546 2096 3546 1797 
C 3546 1567 3405 1204 3302 1007 
C 3123 656 2829 357 2496 357 
C 2093 357 1939 615 1869 975 
C 1939 1143 2086 1560 2086 1728 
C 2086 1798 2061 1856 1978 1856 
C 1933 1856 1882 1831 1850 1779 
C 1760 1638 1677 1129 1683 994 
C 1562 756 1216 357 806 357 
C 378 357 262 733 262 1096 
C 262 1758 678 2338 794 2497 
C 858 2593 902 2657 902 2669 
C 902 2714 877 2784 819 2784 
C 717 2784 685 2701 634 2625 
C 307 2121 77 1414 77 803 
C 77 408 224 -64 704 -64 
C 1235 -64 1568 391 1702 634 
C 1754 275 1946 -64 2413 -64 
C 2899 -64 3206 363 3437 879 
C 3603 1249 3802 2045 3802 2395 
z
" transform="scale(0.015625)"/>
      <path id="CMR17-32" d="M 2669 989 
L 2554 989 
C 2490 536 2438 459 2413 420 
C 2381 369 1920 369 1830 369 
L 602 369 
C 832 619 1280 1072 1824 1597 
C 2214 1967 2669 2402 2669 3035 
C 2669 3790 2067 4224 1395 4224 
C 691 4224 262 3604 262 3030 
C 262 2780 448 2748 525 2748 
C 589 2748 781 2787 781 3010 
C 781 3207 614 3264 525 3264 
C 486 3264 448 3258 422 3245 
C 544 3790 915 4058 1306 4058 
C 1862 4058 2227 3617 2227 3035 
C 2227 2479 1901 2000 1536 1584 
L 262 146 
L 262 0 
L 2515 0 
L 2669 989 
z
" transform="scale(0.015625)"/>
     </defs>
     <use xlink:href="#CMMI12-21" transform="scale(0.996264)"/>
     <use xlink:href="#CMR17-32" transform="translate(64.318346 36.153639) scale(0.697382)"/>
     <use xlink:href="#CMR17-30" transform="translate(60.743753 -24.62935) scale(0.697382)"/>
    </g>
   </g>
   <g id="text_4">
    <!-- $c_{0}$ -->
    <g transform="translate(52.283472 105.726924) scale(0.14 -0.14)">
     <defs>
      <path id="CMMI12-63" d="M 2502 2431 
C 2381 2431 2323 2431 2234 2355 
C 2195 2323 2125 2227 2125 2125 
C 2125 1997 2221 1920 2342 1920 
C 2496 1920 2669 2044 2669 2292 
C 2669 2588 2374 2816 1933 2816 
C 1094 2816 256 1903 256 996 
C 256 441 602 -64 1254 -64 
C 2125 -64 2675 622 2675 706 
C 2675 744 2637 776 2611 776 
C 2592 776 2586 770 2528 713 
C 2118 162 1510 64 1267 64 
C 826 64 685 446 685 764 
C 685 988 794 1605 1024 2039 
C 1190 2338 1536 2682 1939 2682 
C 2022 2682 2374 2682 2502 2431 
z
" transform="scale(0.015625)"/>
     </defs>
     <use xlink:href="#CMMI12-63" transform="scale(0.996264)"/>
     <use xlink:href="#CMR17-30" transform="translate(41.983234 -14.943915) scale(0.697382)"/>
    </g>
   </g>
   <g id="patch_7">
    <path d="M 183.403636 124.232727 
L 183.403636 136.8 
L 219.987421 136.8 
" style="fill: none; stroke: #000000; stroke-linecap: round"/>
    <path d="M 214.387421 134 
L 219.987421 136.8 
L 214.387421 139.6 
z
" style="stroke: #000000; stroke-linecap: round"/>
   </g>
   <g id="text_5">
    <!-- $x_{0}(t)$ -->
    <g transform="translate(187.839592 152.854197) scale(0.14 -0.14)">
     <defs>
      <path id="CMMI12-74" d="M 1286 2566 
L 1875 2566 
C 1997 2566 2061 2566 2061 2681 
C 2061 2752 2022 2752 1894 2752 
L 1331 2752 
L 1568 3692 
C 1594 3781 1594 3794 1594 3840 
C 1594 3943 1510 4000 1427 4000 
C 1376 4000 1229 3981 1178 3775 
L 928 2752 
L 326 2752 
C 198 2752 141 2752 141 2630 
C 141 2566 186 2566 307 2566 
L 877 2566 
L 454 881 
C 403 658 384 594 384 511 
C 384 211 595 -64 954 -64 
C 1600 -64 1946 868 1946 912 
C 1946 951 1920 970 1882 970 
C 1869 970 1843 970 1830 944 
C 1824 938 1818 931 1773 829 
C 1638 511 1344 64 973 64 
C 781 64 768 224 768 364 
C 768 370 768 492 787 568 
L 1286 2566 
z
" transform="scale(0.015625)"/>
     </defs>
     <use xlink:href="#CMMI12-78" transform="scale(0.996264)"/>
     <use xlink:href="#CMR17-30" transform="translate(55.43406 -14.943915) scale(0.697382)"/>
     <use xlink:href="#CMR17-28" transform="translate(87.915374 0) scale(0.996264)"/>
     <use xlink:href="#CMMI12-74" transform="translate(123.196141 0) scale(0.996264)"/>
     <use xlink:href="#CMR17-29" transform="translate(158.422472 0) scale(0.996264)"/>
    </g>
   </g>
   <g id="patch_8">
    <path d="M 104.858182 312.741818 
L 261.949091 312.741818 
L 261.949091 218.487273 
L 104.858182 218.487273 
z
" clip-path="url(#p11576d2ddb)" style="fill: #2ca02c; opacity: 0.5; stroke: #000000; stroke-width: 1.5; stroke-linejoin: miter"/>
   </g>
   <g id="text_6">
    <!-- $m=1$ -->
    <g transform="translate(164.831117 269.101469) scale(0.14 -0.14)">
     <use xlink:href="#CMMI12-6d" transform="scale(0.996264)"/>
     <use xlink:href="#CMR17-3d" transform="translate(113.001233 0) scale(0.996264)"/>
     <use xlink:href="#CMR17-31" transform="translate(212.39003 0) scale(0.996264)"/>
    </g>
   </g>
   <g id="patch_9">
    <path d="M 23.00123 237.157074 
Q 57.728037 222.77276 91.421914 208.816299 
" style="fill: none; stroke: #9467bd; stroke-linecap: round"/>
    <path d="M 85.176675 208.372464 
L 91.421914 208.816299 
L 87.319702 213.546189 
z
" style="fill: #9467bd; stroke: #9467bd; stroke-linecap: round"/>
   </g>
   <g id="text_7">
    <!-- $f_{\text{nl},{N-1}} (x_{N-1}, \dot{x}_{N-1}, \ddot{x}_{N-1})$ -->
    <g transform="translate(24.741818 201.300553) scale(0.14 -0.14)">
     <defs>
      <path id="CMMI12-4e" d="M 4736 3698 
C 4806 3974 4909 4166 5395 4166 
C 5414 4166 5491 4166 5491 4279 
C 5491 4352 5434 4352 5408 4352 
C 5280 4352 4954 4352 4826 4352 
L 4518 4352 
C 4429 4352 4314 4352 4224 4352 
C 4186 4352 4109 4352 4109 4230 
C 4109 4166 4160 4166 4205 4166 
C 4589 4166 4614 4019 4614 3903 
C 4614 3846 4608 3826 4589 3737 
L 3866 850 
L 2496 4249 
C 2451 4352 2445 4352 2304 4352 
L 1523 4352 
C 1395 4352 1338 4352 1338 4230 
C 1338 4166 1382 4166 1504 4166 
C 1536 4166 1914 4166 1914 4115 
C 1914 4102 1901 4051 1894 4032 
L 1043 635 
C 966 320 813 186 390 186 
C 358 186 294 186 294 67 
C 294 0 358 0 378 0 
C 506 0 832 0 960 0 
L 1267 0 
C 1357 0 1466 0 1555 0 
C 1600 0 1670 0 1670 122 
C 1670 180 1606 186 1581 186 
C 1370 186 1165 224 1165 454 
C 1165 505 1178 562 1190 613 
L 2054 4032 
C 2093 3968 2093 3956 2118 3898 
L 3642 115 
C 3674 38 3686 0 3744 0 
C 3808 0 3814 19 3840 128 
L 4736 3698 
z
" transform="scale(0.015625)"/>
      <path id="CMSY10-0" d="M 4218 1472 
C 4326 1472 4442 1472 4442 1600 
C 4442 1728 4326 1728 4218 1728 
L 755 1728 
C 646 1728 531 1728 531 1600 
C 531 1472 646 1472 755 1472 
L 4218 1472 
z
" transform="scale(0.015625)"/>
     </defs>
     <use xlink:href="#CMMI12-66" transform="scale(0.996264)"/>
     <use xlink:href="#CMR17-6e" transform="translate(48.083238 -14.943915) scale(0.697382)"/>
     <use xlink:href="#CMR17-6c" transform="translate(83.709846 -14.943915) scale(0.697382)"/>
     <use xlink:href="#CMMI12-3b" transform="translate(101.119505 -14.943915) scale(0.697382)"/>
     <use xlink:href="#CMMI12-4e" transform="translate(120.087438 -14.943915) scale(0.697382)"/>
     <use xlink:href="#CMSY10-0" transform="translate(182.052411 -14.943915) scale(0.697382)"/>
     <use xlink:href="#CMR17-31" transform="translate(236.293404 -14.943915) scale(0.697382)"/>
     <use xlink:href="#CMR17-28" transform="translate(268.774718 0) scale(0.996264)"/>
     <use xlink:href="#CMMI12-78" transform="translate(304.055486 0) scale(0.996264)"/>
     <use xlink:href="#CMMI12-4e" transform="translate(359.489545 -14.943915) scale(0.697382)"/>
     <use xlink:href="#CMSY10-0" transform="translate(421.454519 -14.943915) scale(0.697382)"/>
     <use xlink:href="#CMR17-31" transform="translate(475.695512 -14.943915) scale(0.697382)"/>
     <use xlink:href="#CMMI12-3b" transform="translate(508.176826 0) scale(0.996264)"/>
     <use xlink:href="#CMR17-5f" transform="translate(569.869626 0.006461) scale(0.996264)"/>
     <use xlink:href="#CMMI12-78" transform="translate(551.878408 0) scale(0.996264)"/>
     <use xlink:href="#CMMI12-4e" transform="translate(607.312468 -14.943915) scale(0.697382)"/>
     <use xlink:href="#CMSY10-0" transform="translate(669.277441 -14.943915) scale(0.697382)"/>
     <use xlink:href="#CMR17-31" transform="translate(723.518434 -14.943915) scale(0.697382)"/>
     <use xlink:href="#CMMI12-3b" transform="translate(755.999748 0) scale(0.996264)"/>
     <use xlink:href="#CMR17-7f" transform="translate(807.282839 0.006461) scale(0.996264)"/>
     <use xlink:href="#CMMI12-78" transform="translate(799.701331 0) scale(0.996264)"/>
     <use xlink:href="#CMMI12-4e" transform="translate(855.13539 -14.943915) scale(0.697382)"/>
     <use xlink:href="#CMSY10-0" transform="translate(917.100363 -14.943915) scale(0.697382)"/>
     <use xlink:href="#CMR17-31" transform="translate(971.341357 -14.943915) scale(0.697382)"/>
     <use xlink:href="#CMR17-29" transform="translate(1003.822671 0) scale(0.996264)"/>
    </g>
   </g>
   <g id="text_8">
    <!-- $\omega_{N-1}^2$ -->
    <g transform="translate(42.529811 250.487663) scale(0.14 -0.14)">
     <use xlink:href="#CMMI12-21" transform="scale(0.996264)"/>
     <use xlink:href="#CMR17-32" transform="translate(64.318346 36.153639) scale(0.697382)"/>
     <use xlink:href="#CMMI12-4e" transform="translate(60.743753 -24.62935) scale(0.697382)"/>
     <use xlink:href="#CMSY10-0" transform="translate(122.708727 -24.62935) scale(0.697382)"/>
     <use xlink:href="#CMR17-31" transform="translate(176.94972 -24.62935) scale(0.697382)"/>
    </g>
   </g>
   <g id="text_9">
    <!-- $c_{N-1}$ -->
    <g transform="translate(43.843047 294.236015) scale(0.14 -0.14)">
     <use xlink:href="#CMMI12-63" transform="scale(0.996264)"/>
     <use xlink:href="#CMMI12-4e" transform="translate(41.983234 -14.943915) scale(0.697382)"/>
     <use xlink:href="#CMSY10-0" transform="translate(103.948207 -14.943915) scale(0.697382)"/>
     <use xlink:href="#CMR17-31" transform="translate(158.1892 -14.943915) scale(0.697382)"/>
    </g>
   </g>
   <g id="patch_10">
    <path d="M 183.403636 312.741818 
L 183.403636 325.309091 
L 219.987421 325.309091 
" style="fill: none; stroke: #000000; stroke-linecap: round"/>
    <path d="M 214.387421 322.509091 
L 219.987421 325.309091 
L 214.387421 328.109091 
z
" style="stroke: #000000; stroke-linecap: round"/>
   </g>
   <g id="text_10">
    <!-- $x_{N-1}(t)$ -->
    <g transform="translate(179.399167 341.363288) scale(0.14 -0.14)">
     <use xlink:href="#CMMI12-78" transform="scale(0.996264)"/>
     <use xlink:href="#CMMI12-4e" transform="translate(55.43406 -14.943915) scale(0.697382)"/>
     <use xlink:href="#CMSY10-0" transform="translate(117.399033 -14.943915) scale(0.697382)"/>
     <use xlink:href="#CMR17-31" transform="translate(171.640026 -14.943915) scale(0.697382)"/>
     <use xlink:href="#CMR17-28" transform="translate(204.12134 0) scale(0.996264)"/>
     <use xlink:href="#CMMI12-74" transform="translate(239.402108 0) scale(0.996264)"/>
     <use xlink:href="#CMR17-29" transform="translate(274.628438 0) scale(0.996264)"/>
    </g>
   </g>
   <g id="patch_11">
    <path d="M 292.249239 48.829091 
Q 277.658182 48.829091 261.949091 48.829091 
" style="fill: none; stroke: #d62728; stroke-linecap: round"/>
    <path d="M 286.649239 46.029091 
L 292.249239 48.829091 
L 286.649239 51.629091 
z
" style="fill: #d62728; stroke: #d62728; stroke-linecap: round"/>
   </g>
   <g id="text_11">
    <!-- $f_{\text{f},{0}}(x_{0}, \dot{x}_{0}, \ddot{x}_{0}) F \cos (\omega t)$ -->
    <g transform="translate(298.08 52.06419) scale(0.14 -0.14)">
     <defs>
      <path id="CMR17-66" d="M 979 2560 
L 1709 2560 
L 1709 2725 
L 966 2725 
L 966 3494 
C 966 4022 1235 4352 1510 4352 
C 1594 4352 1690 4327 1754 4282 
C 1702 4269 1568 4225 1568 4067 
C 1568 3901 1696 3850 1786 3850 
C 1875 3850 2003 3901 2003 4067 
C 2003 4308 1773 4454 1517 4454 
C 1152 4454 653 4156 653 3481 
L 653 2725 
L 141 2725 
L 141 2560 
L 653 2560 
L 653 427 
C 653 184 627 153 218 153 
L 218 -13 
C 371 0 666 0 832 0 
C 1018 0 1344 0 1517 -13 
L 1517 153 
C 1056 153 979 153 979 439 
L 979 2560 
z
" transform="scale(0.015625)"/>
      <path id="CMMI12-46" d="M 1901 2055 
L 2515 2055 
C 3002 2055 3040 1946 3040 1761 
C 3040 1678 3027 1589 2995 1448 
C 2982 1423 2976 1391 2976 1378 
C 2976 1333 3002 1308 3046 1308 
C 3098 1308 3104 1333 3130 1435 
L 3501 2935 
C 3501 2961 3482 2999 3437 2999 
C 3379 2999 3373 2974 3347 2863 
C 3213 2376 3085 2240 2528 2240 
L 1946 2240 
L 2362 3926 
C 2419 4154 2432 4154 2694 4154 
L 3552 4154 
C 4352 4154 4467 3918 4467 3464 
C 4467 3426 4467 3285 4448 3119 
C 4442 3094 4429 3011 4429 2985 
C 4429 2934 4461 2915 4499 2915 
C 4544 2915 4570 2941 4582 3055 
L 4717 4174 
C 4717 4195 4730 4263 4730 4277 
C 4730 4352 4672 4352 4557 4352 
L 1523 4352 
C 1402 4352 1338 4352 1338 4229 
C 1338 4154 1382 4154 1491 4154 
C 1888 4154 1888 4113 1888 4050 
C 1888 4018 1882 3992 1862 3922 
L 998 473 
C 941 249 928 185 480 185 
C 358 185 294 185 294 70 
C 294 0 352 0 390 0 
C 512 0 640 0 762 0 
L 1594 0 
C 1734 0 1888 0 2029 0 
C 2086 0 2163 0 2163 115 
C 2163 185 2125 185 1984 185 
C 1478 185 1466 229 1466 324 
C 1466 356 1478 406 1491 449 
L 1901 2055 
z
" transform="scale(0.015625)"/>
      <path id="CMR17-63" d="M 2234 2240 
C 2112 2240 1933 2240 1933 2017 
C 1933 1838 2080 1787 2163 1787 
C 2208 1787 2394 1807 2394 2024 
C 2394 2467 1958 2803 1466 2803 
C 787 2803 211 2178 211 1363 
C 211 516 813 -64 1466 -64 
C 2259 -64 2458 677 2458 748 
C 2458 774 2451 793 2406 793 
C 2362 793 2355 787 2330 703 
C 2163 180 1798 51 1523 51 
C 1114 51 621 427 621 1369 
C 621 2338 1094 2688 1472 2688 
C 1722 2688 2093 2573 2234 2240 
z
" transform="scale(0.015625)"/>
      <path id="CMR17-6f" d="M 2758 1356 
C 2758 2176 2163 2816 1466 2816 
C 768 2816 173 2176 173 1356 
C 173 551 768 -64 1466 -64 
C 2163 -64 2758 551 2758 1356 
z
M 1466 51 
C 1165 51 909 230 762 480 
C 602 767 582 1126 582 1408 
C 582 1677 595 2010 762 2298 
C 890 2509 1139 2714 1466 2714 
C 1754 2714 1997 2554 2150 2330 
C 2349 2029 2349 1607 2349 1408 
C 2349 1158 2336 775 2163 467 
C 1984 173 1709 51 1466 51 
z
" transform="scale(0.015625)"/>
      <path id="CMR17-73" d="M 1978 2697 
C 1978 2813 1971 2819 1933 2819 
C 1907 2819 1901 2813 1824 2717 
C 1805 2691 1747 2626 1728 2601 
C 1523 2819 1235 2819 1126 2819 
C 416 2819 160 2447 160 2076 
C 160 1498 813 1365 998 1325 
C 1402 1243 1542 1217 1677 1101 
C 1760 1025 1901 884 1901 654 
C 1901 384 1747 38 1158 38 
C 602 38 403 460 288 1021 
C 269 1110 269 1117 218 1117 
C 166 1117 160 1110 160 983 
L 160 63 
C 160 -51 166 -58 205 -58 
C 237 -58 243 -51 275 0 
C 314 57 410 211 448 276 
C 576 103 800 -64 1158 -64 
C 1792 -64 2131 283 2131 784 
C 2131 1112 1958 1285 1875 1362 
C 1683 1561 1459 1606 1190 1657 
C 838 1735 390 1825 390 2217 
C 390 2383 480 2737 1126 2737 
C 1811 2737 1850 2094 1862 1888 
C 1869 1856 1901 1849 1920 1849 
C 1978 1849 1978 1869 1978 1978 
L 1978 2697 
z
" transform="scale(0.015625)"/>
     </defs>
     <use xlink:href="#CMMI12-66" transform="scale(0.996264)"/>
     <use xlink:href="#CMR17-66" transform="translate(48.083238 -14.943915) scale(0.697382)"/>
     <use xlink:href="#CMMI12-3b" transform="translate(67.314602 -14.943915) scale(0.697382)"/>
     <use xlink:href="#CMR17-30" transform="translate(86.282535 -14.943915) scale(0.697382)"/>
     <use xlink:href="#CMR17-28" transform="translate(118.763849 0) scale(0.996264)"/>
     <use xlink:href="#CMMI12-78" transform="translate(154.044617 0) scale(0.996264)"/>
     <use xlink:href="#CMR17-30" transform="translate(209.478676 -14.943915) scale(0.697382)"/>
     <use xlink:href="#CMMI12-3b" transform="translate(241.95999 0) scale(0.996264)"/>
     <use xlink:href="#CMR17-5f" transform="translate(303.652791 0.006461) scale(0.996264)"/>
     <use xlink:href="#CMMI12-78" transform="translate(285.661572 0) scale(0.996264)"/>
     <use xlink:href="#CMR17-30" transform="translate(341.095632 -14.943915) scale(0.697382)"/>
     <use xlink:href="#CMMI12-3b" transform="translate(373.576946 0) scale(0.996264)"/>
     <use xlink:href="#CMR17-7f" transform="translate(424.860037 0.006461) scale(0.996264)"/>
     <use xlink:href="#CMMI12-78" transform="translate(417.278528 0) scale(0.996264)"/>
     <use xlink:href="#CMR17-30" transform="translate(472.712588 -14.943915) scale(0.697382)"/>
     <use xlink:href="#CMR17-29" transform="translate(505.193902 0) scale(0.996264)"/>
     <use xlink:href="#CMMI12-46" transform="translate(540.47467 0) scale(0.996264)"/>
     <use xlink:href="#CMR17-63" transform="translate(633.775867 0) scale(0.996264)"/>
     <use xlink:href="#CMR17-6f" transform="translate(674.261528 0) scale(0.996264)"/>
     <use xlink:href="#CMR17-73" transform="translate(719.952005 0) scale(0.996264)"/>
     <use xlink:href="#CMR17-28" transform="translate(755.753343 0) scale(0.996264)"/>
     <use xlink:href="#CMMI12-21" transform="translate(791.03411 0) scale(0.996264)"/>
     <use xlink:href="#CMMI12-74" transform="translate(855.352456 0) scale(0.996264)"/>
     <use xlink:href="#CMR17-29" transform="translate(890.578787 0) scale(0.996264)"/>
    </g>
   </g>
   <g id="patch_12">
    <path d="M 292.249239 105.381818 
Q 277.658182 105.381818 261.949091 105.381818 
" style="fill: none; stroke: #e377c2; stroke-linecap: round"/>
    <path d="M 286.649239 102.581818 
L 292.249239 105.381818 
L 286.649239 108.181818 
z
" style="fill: #e377c2; stroke: #e377c2; stroke-linecap: round"/>
   </g>
   <g id="text_12">
    <!-- $g_{\text{nl},0}(\boldsymbol{x}, \dot{\boldsymbol{x}}, \ddot{\boldsymbol{x}})$ -->
    <g transform="translate(298.08 108.616917) scale(0.14 -0.14)">
     <defs>
      <path id="CMMI12-67" d="M 2163 811 
C 2138 709 2125 683 2042 588 
C 1779 249 1510 128 1312 128 
C 1101 128 902 294 902 734 
C 902 1073 1094 1788 1235 2076 
C 1421 2433 1709 2689 1978 2689 
C 2400 2689 2483 2165 2483 2127 
L 2464 2037 
L 2163 811 
z
M 2560 2395 
C 2477 2580 2298 2816 1978 2816 
C 1280 2816 486 1941 486 990 
C 486 326 890 0 1299 0 
C 1638 0 1939 268 2054 396 
L 1914 -171 
C 1824 -516 1786 -674 1555 -894 
C 1293 -1152 1050 -1152 909 -1152 
C 717 -1152 557 -1139 397 -1089 
C 602 -1033 653 -858 653 -789 
C 653 -689 576 -588 435 -588 
C 282 -588 115 -714 115 -922 
C 115 -1180 378 -1280 922 -1280 
C 1747 -1280 2176 -753 2259 -410 
L 2970 2435 
C 2989 2511 2989 2524 2989 2536 
C 2989 2625 2918 2695 2822 2695 
C 2669 2695 2579 2567 2560 2395 
z
" transform="scale(0.015625)"/>
      <path id="CMMIB10-78" d="M 3430 2554 
C 3200 2490 3085 2273 3085 2112 
C 3085 1971 3194 1817 3405 1817 
C 3629 1817 3866 2003 3866 2316 
C 3866 2656 3526 2880 3136 2880 
C 2771 2880 2534 2605 2451 2490 
C 2291 2759 1933 2880 1568 2880 
C 762 2880 326 2092 326 1881 
C 326 1792 422 1792 480 1792 
C 557 1792 602 1792 627 1875 
C 813 2458 1274 2650 1536 2650 
C 1779 2650 1894 2535 1894 2330 
C 1894 2209 1805 1856 1747 1626 
L 1530 748 
C 1434 358 1203 165 986 165 
C 954 165 806 165 678 261 
C 909 325 1024 543 1024 703 
C 1024 844 915 998 704 998 
C 480 998 243 812 243 499 
C 243 160 582 -64 973 -64 
C 1338 -64 1574 210 1658 325 
C 1818 57 2176 -64 2541 -64 
C 3347 -64 3782 723 3782 934 
C 3782 1023 3686 1023 3629 1023 
C 3552 1023 3507 1023 3482 940 
C 3296 358 2835 165 2573 165 
C 2330 165 2214 281 2214 486 
C 2214 620 2298 959 2355 1196 
C 2400 1363 2547 1965 2579 2068 
C 2675 2452 2899 2650 3123 2650 
C 3155 2650 3302 2650 3430 2554 
z
" transform="scale(0.015625)"/>
     </defs>
     <use xlink:href="#CMMI12-67" transform="scale(0.996264)"/>
     <use xlink:href="#CMR17-6e" transform="translate(46.710897 -14.943915) scale(0.697382)"/>
     <use xlink:href="#CMR17-6c" transform="translate(82.337505 -14.943915) scale(0.697382)"/>
     <use xlink:href="#CMMI12-3b" transform="translate(99.747164 -14.943915) scale(0.697382)"/>
     <use xlink:href="#CMR17-30" transform="translate(118.715097 -14.943915) scale(0.697382)"/>
     <use xlink:href="#CMR17-28" transform="translate(151.196411 0) scale(0.996264)"/>
     <use xlink:href="#CMMIB10-78" transform="translate(186.477178 0) scale(0.996264)"/>
     <use xlink:href="#CMMI12-3b" transform="translate(252.133677 0) scale(0.996264)"/>
     <use xlink:href="#CMR17-5f" transform="translate(316.227979 1.390112) scale(0.996264)"/>
     <use xlink:href="#CMMIB10-78" transform="translate(295.835259 0) scale(0.996264)"/>
     <use xlink:href="#CMMI12-3b" transform="translate(361.491757 0) scale(0.996264)"/>
     <use xlink:href="#CMR17-7f" transform="translate(415.17635 1.390112) scale(0.996264)"/>
     <use xlink:href="#CMMIB10-78" transform="translate(405.193339 0) scale(0.996264)"/>
     <use xlink:href="#CMR17-29" transform="translate(470.849837 0) scale(0.996264)"/>
    </g>
   </g>
   <g id="patch_13">
    <path d="M 292.249239 237.338182 
Q 277.658182 237.338182 261.949091 237.338182 
" style="fill: none; stroke: #d62728; stroke-linecap: round"/>
    <path d="M 286.649239 234.538182 
L 292.249239 237.338182 
L 286.649239 240.138182 
z
" style="fill: #d62728; stroke: #d62728; stroke-linecap: round"/>
   </g>
   <g id="text_13">
    <!-- $f_{\text{f},{N-1}}(x_{N-1}, \dot{x}_{N-1}, \ddot{x}_{N-1}) F \cos (\omega t)$ -->
    <g transform="translate(298.08 240.573281) scale(0.14 -0.14)">
     <use xlink:href="#CMMI12-66" transform="scale(0.996264)"/>
     <use xlink:href="#CMR17-66" transform="translate(48.083238 -14.943915) scale(0.697382)"/>
     <use xlink:href="#CMMI12-3b" transform="translate(67.314602 -14.943915) scale(0.697382)"/>
     <use xlink:href="#CMMI12-4e" transform="translate(86.282535 -14.943915) scale(0.697382)"/>
     <use xlink:href="#CMSY10-0" transform="translate(148.247508 -14.943915) scale(0.697382)"/>
     <use xlink:href="#CMR17-31" transform="translate(202.488501 -14.943915) scale(0.697382)"/>
     <use xlink:href="#CMR17-28" transform="translate(234.969815 0) scale(0.996264)"/>
     <use xlink:href="#CMMI12-78" transform="translate(270.250583 0) scale(0.996264)"/>
     <use xlink:href="#CMMI12-4e" transform="translate(325.684643 -14.943915) scale(0.697382)"/>
     <use xlink:href="#CMSY10-0" transform="translate(387.649616 -14.943915) scale(0.697382)"/>
     <use xlink:href="#CMR17-31" transform="translate(441.890609 -14.943915) scale(0.697382)"/>
     <use xlink:href="#CMMI12-3b" transform="translate(474.371923 0) scale(0.996264)"/>
     <use xlink:href="#CMR17-5f" transform="translate(536.064724 0.006461) scale(0.996264)"/>
     <use xlink:href="#CMMI12-78" transform="translate(518.073505 0) scale(0.996264)"/>
     <use xlink:href="#CMMI12-4e" transform="translate(573.507565 -14.943915) scale(0.697382)"/>
     <use xlink:href="#CMSY10-0" transform="translate(635.472538 -14.943915) scale(0.697382)"/>
     <use xlink:href="#CMR17-31" transform="translate(689.713532 -14.943915) scale(0.697382)"/>
     <use xlink:href="#CMMI12-3b" transform="translate(722.194846 0) scale(0.996264)"/>
     <use xlink:href="#CMR17-7f" transform="translate(773.477937 0.006461) scale(0.996264)"/>
     <use xlink:href="#CMMI12-78" transform="translate(765.896428 0) scale(0.996264)"/>
     <use xlink:href="#CMMI12-4e" transform="translate(821.330487 -14.943915) scale(0.697382)"/>
     <use xlink:href="#CMSY10-0" transform="translate(883.295461 -14.943915) scale(0.697382)"/>
     <use xlink:href="#CMR17-31" transform="translate(937.536454 -14.943915) scale(0.697382)"/>
     <use xlink:href="#CMR17-29" transform="translate(970.017768 0) scale(0.996264)"/>
     <use xlink:href="#CMMI12-46" transform="translate(1005.298536 0) scale(0.996264)"/>
     <use xlink:href="#CMR17-63" transform="translate(1098.599733 0) scale(0.996264)"/>
     <use xlink:href="#CMR17-6f" transform="translate(1139.085394 0) scale(0.996264)"/>
     <use xlink:href="#CMR17-73" transform="translate(1184.775871 0) scale(0.996264)"/>
     <use xlink:href="#CMR17-28" transform="translate(1220.577209 0) scale(0.996264)"/>
     <use xlink:href="#CMMI12-21" transform="translate(1255.857976 0) scale(0.996264)"/>
     <use xlink:href="#CMMI12-74" transform="translate(1320.176322 0) scale(0.996264)"/>
     <use xlink:href="#CMR17-29" transform="translate(1355.402653 0) scale(0.996264)"/>
    </g>
   </g>
   <g id="patch_14">
    <path d="M 292.249239 293.890909 
Q 277.658182 293.890909 261.949091 293.890909 
" style="fill: none; stroke: #e377c2; stroke-linecap: round"/>
    <path d="M 286.649239 291.090909 
L 292.249239 293.890909 
L 286.649239 296.690909 
z
" style="fill: #e377c2; stroke: #e377c2; stroke-linecap: round"/>
   </g>
   <g id="text_14">
    <!-- $g_{\text{nl},N-1}(\boldsymbol{x}, \dot{\boldsymbol{x}}, \ddot{\boldsymbol{x}})$ -->
    <g transform="translate(298.08 297.126008) scale(0.14 -0.14)">
     <use xlink:href="#CMMI12-67" transform="scale(0.996264)"/>
     <use xlink:href="#CMR17-6e" transform="translate(46.710897 -14.943915) scale(0.697382)"/>
     <use xlink:href="#CMR17-6c" transform="translate(82.337505 -14.943915) scale(0.697382)"/>
     <use xlink:href="#CMMI12-3b" transform="translate(99.747164 -14.943915) scale(0.697382)"/>
     <use xlink:href="#CMMI12-4e" transform="translate(118.715097 -14.943915) scale(0.697382)"/>
     <use xlink:href="#CMSY10-0" transform="translate(180.68007 -14.943915) scale(0.697382)"/>
     <use xlink:href="#CMR17-31" transform="translate(234.921063 -14.943915) scale(0.697382)"/>
     <use xlink:href="#CMR17-28" transform="translate(267.402377 0) scale(0.996264)"/>
     <use xlink:href="#CMMIB10-78" transform="translate(302.683145 0) scale(0.996264)"/>
     <use xlink:href="#CMMI12-3b" transform="translate(368.339643 0) scale(0.996264)"/>
     <use xlink:href="#CMR17-5f" transform="translate(432.433945 1.390112) scale(0.996264)"/>
     <use xlink:href="#CMMIB10-78" transform="translate(412.041225 0) scale(0.996264)"/>
     <use xlink:href="#CMMI12-3b" transform="translate(477.697724 0) scale(0.996264)"/>
     <use xlink:href="#CMR17-7f" transform="translate(531.382316 1.390112) scale(0.996264)"/>
     <use xlink:href="#CMMIB10-78" transform="translate(521.399306 0) scale(0.996264)"/>
     <use xlink:href="#CMR17-29" transform="translate(587.055804 0) scale(0.996264)"/>
    </g>
   </g>
  </g>
 </g>
 <defs>
  <clipPath id="p11576d2ddb">
   <rect x="0" y="0" width="504" height="345.6"/>
  </clipPath>
 </defs>
</svg>
