<?xml version="1.0" encoding="utf-8" standalone="no"?>
<!DOCTYPE svg PUBLIC "-//W3C//DTD SVG 1.1//EN"
  "http://www.w3.org/Graphics/SVG/1.1/DTD/svg11.dtd">
<svg xmlns:xlink="http://www.w3.org/1999/xlink" width="576pt" height="237.6pt" viewBox="0 0 576 237.6" xmlns="http://www.w3.org/2000/svg" version="1.1">
 <metadata>
  <rdf:RDF xmlns:dc="http://purl.org/dc/elements/1.1/" xmlns:cc="http://creativecommons.org/ns#" xmlns:rdf="http://www.w3.org/1999/02/22-rdf-syntax-ns#">
   <cc:Work>
    <dc:type rdf:resource="http://purl.org/dc/dcmitype/StillImage"/>
    <dc:date>2026-03-12T22:01:02.820194</dc:date>
    <dc:format>image/svg+xml</dc:format>
    <dc:creator>
     <cc:Agent>
      <dc:title>Matplotlib v3.10.8, https://matplotlib.org/</dc:title>
     </cc:Agent>
    </dc:creator>
   </cc:Work>
  </rdf:RDF>
 </metadata>
 <defs>
  <style type="text/css">*{stroke-linejoin: round; stroke-linecap: butt}</style>
 </defs>
 <g id="figure_1">
  <g id="patch_1">
   <path d="M 0 237.6 
L 576 237.6 
L 576 0 
L 0 0 
z
" style="fill: #ffffff"/>
  </g>
  <g id="axes_1">
   <g id="patch_2">
    <path d="M 0 237.6 
L 192 237.6 
L 192 11.88 
L 0 11.88 
z
" style="fill: #ffffff"/>
   </g>
   <g id="patch_3">
    <path d="M 96 206.877614 
C 117.78315 206.877614 138.677051 198.223077 154.080064 182.820064 
C 169.483077 167.417051 178.137614 146.52315 178.137614 124.74 
C 178.137614 102.95685 169.483077 82.062949 154.080064 66.659936 
C 138.677051 51.256923 117.78315 42.602386 96 42.602386 
C 74.21685 42.602386 53.322949 51.256923 37.919936 66.659936 
C 22.516923 82.062949 13.862386 102.95685 13.862386 124.74 
C 13.862386 146.52315 22.516923 167.417051 37.919936 182.820064 
C 53.322949 198.223077 74.21685 206.877614 96 206.877614 
z
" clip-path="url(#pc6d5437ed7)" style="fill: #d8dcd6; opacity: 0.2; stroke: #000000; stroke-linejoin: miter"/>
   </g>
   <g id="line2d_1">
    <path d="M 96 124.74 
L 96 198.663853 
" clip-path="url(#pc6d5437ed7)" style="fill: none; stroke-dasharray: 5.12,1.28,0.8,1.28; stroke-dashoffset: 0; stroke: #7f7f7f; stroke-opacity: 0.2; stroke-width: 0.8"/>
   </g>
   <g id="line2d_2">
    <path d="M 96 124.74 
L 96 50.816147 
" clip-path="url(#pc6d5437ed7)" style="fill: none; stroke-dasharray: 5.12,1.28,0.8,1.28; stroke-dashoffset: 0; stroke: #7f7f7f; stroke-opacity: 0.2; stroke-width: 0.8"/>
   </g>
   <g id="line2d_3">
    <path d="M 96 124.74 
L 169.923853 124.74 
" clip-path="url(#pc6d5437ed7)" style="fill: none; stroke-dasharray: 5.12,1.28,0.8,1.28; stroke-dashoffset: 0; stroke: #7f7f7f; stroke-opacity: 0.2; stroke-width: 0.8"/>
   </g>
   <g id="line2d_4">
    <path d="M 96 124.74 
L 22.076147 124.74 
" clip-path="url(#pc6d5437ed7)" style="fill: none; stroke-dasharray: 5.12,1.28,0.8,1.28; stroke-dashoffset: 0; stroke: #7f7f7f; stroke-opacity: 0.2; stroke-width: 0.8"/>
   </g>
   <g id="patch_4">
    <path d="M 96.008636 192.02966 
C 97.097793 192.02966 98.142488 191.596933 98.912639 190.826782 
C 99.68279 190.056632 100.115516 189.011937 100.115516 187.922779 
C 100.115516 186.833622 99.68279 185.788927 98.912639 185.018776 
C 98.142488 184.248625 97.097793 183.815899 96.008636 183.815899 
C 94.919478 183.815899 93.874783 184.248625 93.104633 185.018776 
C 92.334482 185.788927 91.901755 186.833622 91.901755 187.922779 
C 91.901755 189.011937 92.334482 190.056632 93.104633 190.826782 
C 93.874783 191.596933 94.919478 192.02966 96.008636 192.02966 
z
" clip-path="url(#pc6d5437ed7)" style="opacity: 0.2"/>
   </g>
   <g id="patch_5">
    <path d="M 95.991364 65.664101 
C 97.080522 65.664101 98.125217 65.231375 98.895367 64.461224 
C 99.665518 63.691073 100.098245 62.646378 100.098245 61.557221 
C 100.098245 60.468063 99.665518 59.423368 98.895367 58.653218 
C 98.125217 57.883067 97.080522 57.45034 95.991364 57.45034 
C 94.902207 57.45034 93.857512 57.883067 93.087361 58.653218 
C 92.31721 59.423368 91.884484 60.468063 91.884484 61.557221 
C 91.884484 62.646378 92.31721 63.691073 93.087361 64.461224 
C 93.857512 65.231375 94.902207 65.664101 95.991364 65.664101 
z
" clip-path="url(#pc6d5437ed7)" style="opacity: 0.2"/>
   </g>
   <g id="patch_6">
    <path d="M 96 206.877614 
C 117.78315 206.877614 138.677051 198.223077 154.080064 182.820064 
C 169.483077 167.417051 178.137614 146.52315 178.137614 124.74 
C 178.137614 102.95685 169.483077 82.062949 154.080064 66.659936 
C 138.677051 51.256923 117.78315 42.602386 96 42.602386 
C 74.21685 42.602386 53.322949 51.256923 37.919936 66.659936 
C 22.516923 82.062949 13.862386 102.95685 13.862386 124.74 
C 13.862386 146.52315 22.516923 167.417051 37.919936 182.820064 
C 53.322949 198.223077 74.21685 206.877614 96 206.877614 
z
" clip-path="url(#pc6d5437ed7)" style="fill: #d8dcd6; stroke: #000000; stroke-linejoin: miter"/>
   </g>
   <g id="patch_7">
    <path d="M 96 206.877614 
C 117.78315 206.877614 138.677051 198.223077 154.080064 182.820064 
C 169.483077 167.417051 178.137614 146.52315 178.137614 124.74 
C 178.137614 102.95685 169.483077 82.062949 154.080064 66.659936 
C 138.677051 51.256923 117.78315 42.602386 96 42.602386 
C 74.21685 42.602386 53.322949 51.256923 37.919936 66.659936 
C 22.516923 82.062949 13.862386 102.95685 13.862386 124.74 
C 13.862386 146.52315 22.516923 167.417051 37.919936 182.820064 
C 53.322949 198.223077 74.21685 206.877614 96 206.877614 
z
" clip-path="url(#pc6d5437ed7)" style="fill: #d8dcd6; stroke: #000000; stroke-linejoin: miter"/>
   </g>
   <g id="line2d_5">
    <path d="M 96 124.74 
L 148.272058 177.012058 
" clip-path="url(#pc6d5437ed7)" style="fill: none; stroke-dasharray: 5.12,1.28,0.8,1.28; stroke-dashoffset: 0; stroke: #000000; stroke-width: 0.8"/>
   </g>
   <g id="line2d_6">
    <path d="M 96 124.74 
L 43.727942 72.467942 
" clip-path="url(#pc6d5437ed7)" style="fill: none; stroke-dasharray: 5.12,1.28,0.8,1.28; stroke-dashoffset: 0; stroke: #000000; stroke-width: 0.8"/>
   </g>
   <g id="line2d_7">
    <path d="M 96 124.74 
L 148.272058 72.467942 
" clip-path="url(#pc6d5437ed7)" style="fill: none; stroke-dasharray: 5.12,1.28,0.8,1.28; stroke-dashoffset: 0; stroke: #000000; stroke-width: 0.8"/>
   </g>
   <g id="line2d_8">
    <path d="M 96 124.74 
L 43.727942 177.012058 
" clip-path="url(#pc6d5437ed7)" style="fill: none; stroke-dasharray: 5.12,1.28,0.8,1.28; stroke-dashoffset: 0; stroke: #000000; stroke-width: 0.8"/>
   </g>
   <g id="patch_8">
    <path d="M 50.824312 46.493413 
C 40.549065 52.42583 31.542288 60.324562 24.319434 69.737567 
C 17.096581 79.150573 11.798118 89.894794 8.727273 101.355343 
" clip-path="url(#pc6d5437ed7)" style="fill: none; stroke: #000000; stroke-width: 1.5; stroke-linejoin: miter"/>
   </g>
   <g id="matplotlib.axis_1">
    <g id="xtick_1"/>
    <g id="xtick_2"/>
    <g id="xtick_3"/>
   </g>
   <g id="matplotlib.axis_2">
    <g id="ytick_1"/>
    <g id="ytick_2"/>
    <g id="ytick_3"/>
    <g id="ytick_4"/>
    <g id="ytick_5"/>
   </g>
   <g id="line2d_9">
    <path d="M 96 124.965653 
L 96 124.514347 
" clip-path="url(#pc6d5437ed7)" style="fill: none; stroke: #d8dcd6; stroke-opacity: 0.2; stroke-width: 1.5; stroke-linecap: square"/>
   </g>
   <g id="line2d_10">
    <path d="M 95.774347 124.74 
L 96.225653 124.74 
" clip-path="url(#pc6d5437ed7)" style="fill: none; stroke: #d8dcd6; stroke-opacity: 0.2; stroke-width: 1.5; stroke-linecap: square"/>
   </g>
   <g id="line2d_11">
    <path d="M 62.247953 165.484475 
L 63.159721 167.806835 
L 64.297341 170.095041 
L 65.657493 172.329479 
L 67.225322 174.477154 
L 68.992553 176.521426 
L 70.950345 178.446126 
L 73.082327 180.230217 
L 75.376986 181.859988 
L 77.814613 183.318113 
L 80.373608 184.590188 
L 83.04713 185.670762 
L 85.812224 186.547998 
L 88.6447 187.213264 
L 91.528142 187.662252 
L 94.445981 187.891424 
L 97.372799 187.898313 
L 100.291685 187.682896 
L 103.177219 187.247548 
L 106.012827 186.595761 
L 108.782096 185.731792 
L 111.460823 184.664182 
L 114.03363 183.400578 
L 116.485407 181.949356 
L 118.794393 180.3249 
L 120.947132 178.538757 
L 122.924574 176.609455 
L 124.710049 174.558161 
L 126.294444 172.401226 
L 127.669215 170.155493 
L 128.819207 167.854171 
L 129.743651 165.508985 
L 129.752047 165.484475 
L 129.752047 165.484475 
" clip-path="url(#pc6d5437ed7)" style="fill: none; stroke: #448ee4; stroke-opacity: 0.2; stroke-width: 1.5; stroke-linecap: square"/>
   </g>
   <g id="line2d_12">
    <path d="M 129.752047 83.995525 
L 128.840279 81.673165 
L 127.702659 79.384959 
L 126.342507 77.150521 
L 124.774678 75.002846 
L 123.007447 72.958574 
L 121.049655 71.033874 
L 118.917673 69.249783 
L 116.623014 67.620012 
L 114.185387 66.161887 
L 111.626392 64.889812 
L 108.95287 63.809238 
L 106.187776 62.932002 
L 103.3553 62.266736 
L 100.471858 61.817748 
L 97.554019 61.588576 
L 94.627201 61.581687 
L 91.708315 61.797104 
L 88.822781 62.232452 
L 85.987173 62.884239 
L 83.217904 63.748208 
L 80.539177 64.815818 
L 77.96637 66.079422 
L 75.514593 67.530644 
L 73.205607 69.1551 
L 71.052868 70.941243 
L 69.075426 72.870545 
L 67.289951 74.921839 
L 65.705556 77.078774 
L 64.330785 79.324507 
L 63.180793 81.625829 
L 62.256349 83.971015 
L 62.247953 83.995525 
L 62.247953 83.995525 
" clip-path="url(#pc6d5437ed7)" style="fill: none; stroke: #448ee4; stroke-opacity: 0.2; stroke-width: 1.5; stroke-linecap: square"/>
   </g>
   <g id="line2d_13">
    <path d="M 96.159561 124.899561 
L 95.840439 124.580439 
" clip-path="url(#pc6d5437ed7)" style="fill: none; stroke: #000000; stroke-width: 1.5; stroke-linecap: square"/>
   </g>
   <g id="line2d_14">
    <path d="M 95.840439 124.899561 
L 96.159561 124.580439 
" clip-path="url(#pc6d5437ed7)" style="fill: none; stroke: #000000; stroke-width: 1.5; stroke-linecap: square"/>
   </g>
   <g id="line2d_15">
    <path d="M 100.944393 177.416996 
L 103.231267 178.414435 
L 105.653692 179.228023 
L 108.195451 179.846236 
L 110.822709 180.256249 
L 113.517848 180.452146 
L 116.263185 180.428747 
L 119.032267 180.182751 
L 121.807258 179.712604 
L 124.561971 179.019991 
L 127.270945 178.110001 
L 129.925493 176.983617 
L 132.501009 175.6487 
L 134.974286 174.116251 
L 137.33067 172.394832 
L 139.555942 170.493657 
L 141.630387 168.428956 
L 143.542028 166.212669 
L 145.274571 163.864451 
L 146.818766 161.39849 
L 148.166016 158.829403 
L 149.305249 156.180342 
L 150.230994 153.46759 
L 150.938494 150.707753 
L 151.42253 147.92639 
L 151.681752 145.14118 
L 151.715792 142.378694 
L 151.52783 139.665689 
L 151.122983 137.020169 
L 150.507119 134.460086 
L 149.693006 132.019639 
L 148.68839 129.707661 
L 148.676996 129.684393 
L 148.676996 129.684393 
" clip-path="url(#pc6d5437ed7)" style="fill: none; stroke: #448ee4; stroke-width: 1.5; stroke-linecap: square"/>
   </g>
   <g id="line2d_16">
    <path d="M 91.055607 72.063004 
L 88.768733 71.065565 
L 86.346308 70.251977 
L 83.804549 69.633764 
L 81.177291 69.223751 
L 78.482152 69.027854 
L 75.736815 69.051253 
L 72.967733 69.297249 
L 70.192742 69.767396 
L 67.438029 70.460009 
L 64.729055 71.369999 
L 62.074507 72.496383 
L 59.498991 73.8313 
L 57.025714 75.363749 
L 54.66933 77.085168 
L 52.444058 78.986343 
L 50.369613 81.051044 
L 48.457972 83.267331 
L 46.725429 85.615549 
L 45.181234 88.08151 
L 43.833984 90.650597 
L 42.694751 93.299658 
L 41.769006 96.01241 
L 41.061506 98.772247 
L 40.57747 101.55361 
L 40.318248 104.33882 
L 40.284208 107.101306 
L 40.47217 109.814311 
L 40.877017 112.459831 
L 41.492881 115.019914 
L 42.306994 117.460361 
L 43.31161 119.772339 
L 43.323004 119.795607 
L 43.323004 119.795607 
" clip-path="url(#pc6d5437ed7)" style="fill: none; stroke: #448ee4; stroke-width: 1.5; stroke-linecap: square"/>
   </g>
   <g id="patch_9">
    <path d="M 9.033568 100.280084 
Q 9.11607 99.990461 9.504866 98.62558 
" style="fill: none; stroke: #000000; stroke-linecap: round"/>
    <path d="M 13.86448 95.001609 
L 9.033568 100.280084 
L 7.709335 93.24827 
z
" style="stroke: #000000; stroke-linecap: round"/>
   </g>
   <g id="text_1">
    <!-- rigid body  -->
    <g transform="translate(60.665281 19.441117) scale(0.16 -0.16)">
     <defs>
      <path id="CMR17-72" d="M 960 1497 
C 960 2112 1222 2688 1702 2688 
C 1747 2688 1792 2682 1837 2662 
C 1837 2662 1696 2617 1696 2452 
C 1696 2298 1818 2234 1914 2234 
C 1990 2234 2131 2279 2131 2458 
C 2131 2663 1926 2790 1709 2790 
C 1222 2790 1011 2317 947 2093 
L 941 2093 
L 941 2790 
L 198 2720 
L 198 2554 
C 576 2554 634 2515 634 2208 
L 634 428 
C 634 184 608 153 198 153 
L 198 -13 
C 352 0 646 0 813 0 
C 998 0 1325 0 1498 -13 
L 1498 153 
C 1037 153 960 153 960 440 
L 960 1497 
z
" transform="scale(0.015625)"/>
      <path id="CMR17-69" d="M 992 3909 
C 992 4049 877 4170 730 4170 
C 589 4170 467 4056 467 3909 
C 467 3769 582 3648 730 3648 
C 870 3648 992 3763 992 3909 
z
M 243 2706 
L 243 2541 
C 602 2541 653 2502 653 2197 
L 653 427 
C 653 184 627 153 218 153 
L 218 -13 
C 371 0 646 0 806 0 
C 960 0 1222 0 1370 -13 
L 1370 153 
C 992 153 979 191 979 420 
L 979 2776 
L 243 2706 
z
" transform="scale(0.015625)"/>
      <path id="CMR17-67" d="M 710 1164 
C 832 1068 1043 960 1299 960 
C 1805 960 2240 1357 2240 1888 
C 2240 2054 2189 2310 1997 2509 
C 2176 2692 2438 2752 2586 2752 
C 2611 2752 2650 2752 2682 2734 
C 2656 2728 2598 2703 2598 2605 
C 2598 2527 2656 2471 2739 2471 
C 2835 2471 2886 2533 2886 2614 
C 2886 2731 2790 2854 2586 2854 
C 2330 2854 2106 2738 1926 2580 
C 1734 2753 1504 2816 1299 2816 
C 794 2816 358 2419 358 1888 
C 358 1522 570 1292 634 1228 
C 442 1004 442 743 442 711 
C 442 545 506 302 723 168 
C 390 85 128 -169 128 -486 
C 128 -943 736 -1280 1466 -1280 
C 2170 -1280 2803 -956 2803 -479 
C 2803 384 1856 384 1363 384 
C 1216 384 954 384 922 391 
C 723 423 589 602 589 826 
C 589 883 589 1024 710 1164 
z
M 1299 1068 
C 736 1068 736 1760 736 1889 
C 736 2016 736 2708 1299 2708 
C 1862 2708 1862 2016 1862 1889 
C 1862 1760 1862 1068 1299 1068 
z
M 1466 -1171 
C 826 -1171 384 -835 384 -486 
C 384 -289 493 -105 634 -4 
C 794 104 858 104 1293 104 
C 1818 104 2547 104 2547 -486 
C 2547 -835 2106 -1171 1466 -1171 
z
" transform="scale(0.015625)"/>
      <path id="CMR17-64" d="M 1869 4326 
L 1869 4160 
C 2246 4160 2304 4122 2304 3820 
L 2304 2345 
C 2278 2377 2016 2790 1498 2790 
C 845 2790 211 2208 211 1364 
C 211 525 806 -64 1434 -64 
C 1978 -64 2259 337 2291 380 
L 2291 -63 
L 3066 -63 
L 3066 128 
C 2688 128 2630 166 2630 473 
L 2630 4396 
L 1869 4326 
z
M 2291 755 
C 2291 563 2176 390 2029 262 
C 1811 70 1594 38 1472 38 
C 1286 38 621 134 621 1356 
C 621 2612 1363 2688 1530 2688 
C 1824 2688 2061 2522 2208 2291 
C 2291 2157 2291 2138 2291 2023 
L 2291 755 
z
" transform="scale(0.015625)"/>
      <path id="CMR17-62" d="M 960 4396 
L 198 4326 
L 198 4160 
C 576 4160 634 4122 634 3817 
L 634 -13 
L 749 -13 
L 934 441 
C 1120 141 1395 -64 1766 -64 
C 2406 -64 3053 500 3053 1370 
C 3053 2188 2477 2790 1830 2790 
C 1434 2790 1152 2579 960 2330 
L 960 4396 
z
M 973 2004 
C 973 2118 973 2138 1062 2272 
C 1312 2657 1670 2688 1792 2688 
C 1984 2688 2643 2585 2643 1376 
C 2643 108 1888 38 1734 38 
C 1536 38 1248 114 1043 486 
C 973 608 973 621 973 735 
L 973 2004 
z
" transform="scale(0.015625)"/>
      <path id="CMR17-6f" d="M 2758 1356 
C 2758 2176 2163 2816 1466 2816 
C 768 2816 173 2176 173 1356 
C 173 551 768 -64 1466 -64 
C 2163 -64 2758 551 2758 1356 
z
M 1466 51 
C 1165 51 909 230 762 480 
C 602 767 582 1126 582 1408 
C 582 1677 595 2010 762 2298 
C 890 2509 1139 2714 1466 2714 
C 1754 2714 1997 2554 2150 2330 
C 2349 2029 2349 1607 2349 1408 
C 2349 1158 2336 775 2163 467 
C 1984 173 1709 51 1466 51 
z
" transform="scale(0.015625)"/>
      <path id="CMR17-79" d="M 2496 2197 
C 2656 2586 2944 2586 3034 2586 
L 3034 2752 
C 2912 2752 2752 2752 2630 2752 
C 2496 2752 2285 2752 2157 2758 
L 2157 2592 
C 2400 2573 2406 2394 2406 2343 
C 2406 2280 2394 2248 2362 2171 
L 1664 449 
L 902 2306 
C 870 2382 870 2426 870 2433 
C 870 2573 1018 2586 1171 2586 
L 1171 2758 
C 1018 2752 742 2752 582 2752 
C 410 2752 205 2752 64 2758 
L 64 2586 
C 410 2586 448 2554 531 2350 
L 1485 15 
C 1197 -738 1030 -1178 627 -1178 
C 557 -1178 397 -1159 282 -1044 
C 429 -1031 493 -942 493 -833 
C 493 -725 416 -629 288 -629 
C 147 -629 77 -725 77 -840 
C 77 -1095 339 -1280 627 -1280 
C 998 -1280 1229 -922 1357 -604 
L 2496 2197 
z
" transform="scale(0.015625)"/>
     </defs>
     <use xlink:href="#CMR17-72" transform="scale(0.996264)"/>
     <use xlink:href="#CMR17-69" transform="translate(35.280768 0) scale(0.996264)"/>
     <use xlink:href="#CMR17-67" transform="translate(60.151826 0) scale(0.996264)"/>
     <use xlink:href="#CMR17-69" transform="translate(105.842303 0) scale(0.996264)"/>
     <use xlink:href="#CMR17-64" transform="translate(130.713362 0) scale(0.996264)"/>
     <use xlink:href="#CMR17-62" transform="translate(211.684698 0) scale(0.996264)"/>
     <use xlink:href="#CMR17-6f" transform="translate(265.182507 0) scale(0.996264)"/>
     <use xlink:href="#CMR17-64" transform="translate(313.475422 0) scale(0.996264)"/>
     <use xlink:href="#CMR17-79" transform="translate(364.370792 0) scale(0.996264)"/>
    </g>
    <!--  mode -->
    <g transform="translate(77.57392 35.824099) scale(0.16 -0.16)">
     <defs>
      <path id="CMR17-6d" d="M 4326 1933 
C 4326 2252 4269 2790 3507 2790 
C 3072 2790 2771 2496 2656 2151 
L 2650 2151 
C 2573 2676 2195 2790 1837 2790 
C 1331 2790 1069 2400 973 2144 
L 966 2144 
L 966 2790 
L 211 2720 
L 211 2554 
C 589 2554 646 2515 646 2208 
L 646 428 
C 646 184 621 153 211 153 
L 211 -13 
C 365 0 646 0 813 0 
C 979 0 1267 0 1421 -13 
L 1421 153 
C 1011 153 986 178 986 428 
L 986 1658 
C 986 2247 1344 2688 1792 2688 
C 2266 2688 2317 2266 2317 1958 
L 2317 428 
C 2317 184 2291 153 1882 153 
L 1882 -13 
C 2035 0 2317 0 2483 0 
C 2650 0 2938 0 3091 -13 
L 3091 153 
C 2682 153 2656 178 2656 428 
L 2656 1658 
C 2656 2247 3014 2688 3462 2688 
C 3936 2688 3987 2266 3987 1958 
L 3987 428 
C 3987 184 3962 153 3552 153 
L 3552 -13 
C 3706 0 3987 0 4154 0 
C 4320 0 4608 0 4762 -13 
L 4762 153 
C 4352 153 4326 178 4326 428 
L 4326 1933 
z
" transform="scale(0.015625)"/>
      <path id="CMR17-65" d="M 2438 1472 
C 2464 1498 2464 1511 2464 1576 
C 2464 2238 2118 2816 1389 2816 
C 710 2816 173 2169 173 1383 
C 173 551 781 -64 1459 -64 
C 2176 -64 2458 607 2458 740 
C 2458 784 2419 784 2406 784 
C 2362 784 2355 771 2330 696 
C 2189 265 1837 51 1504 51 
C 1229 51 954 203 781 480 
C 582 803 582 1176 582 1472 
L 2438 1472 
z
M 589 1568 
C 634 2505 1126 2714 1382 2714 
C 1818 2714 2112 2297 2118 1568 
L 589 1568 
z
" transform="scale(0.015625)"/>
     </defs>
     <use xlink:href="#CMR17-6d" transform="scale(0.996264)"/>
     <use xlink:href="#CMR17-6f" transform="translate(76.91959 0) scale(0.996264)"/>
     <use xlink:href="#CMR17-64" transform="translate(125.212506 0) scale(0.996264)"/>
     <use xlink:href="#CMR17-65" transform="translate(176.107875 0) scale(0.996264)"/>
    </g>
   </g>
   <g id="text_2">
    <!-- $n_{0} = 0$ -->
    <g transform="translate(73.903411 223.499226) scale(0.16 -0.16)">
     <defs>
      <path id="CMMI12-6e" d="M 1318 1871 
C 1331 1910 1491 2229 1728 2433 
C 1894 2586 2112 2689 2362 2689 
C 2618 2689 2707 2497 2707 2242 
C 2707 1878 2445 1150 2317 805 
C 2259 651 2227 568 2227 453 
C 2227 166 2426 -64 2733 -64 
C 3328 -64 3552 875 3552 913 
C 3552 945 3526 971 3488 971 
C 3430 971 3424 952 3392 843 
C 3245 319 3002 64 2752 64 
C 2688 64 2586 64 2586 269 
C 2586 429 2656 621 2694 710 
C 2822 1063 3091 1780 3091 2145 
C 3091 2528 2867 2816 2381 2816 
C 1811 2816 1510 2415 1395 2255 
C 1376 2618 1114 2816 832 2816 
C 627 2816 486 2695 378 2478 
C 262 2248 173 1865 173 1839 
C 173 1814 198 1782 243 1782 
C 294 1782 301 1788 339 1935 
C 442 2325 557 2689 813 2689 
C 960 2689 1011 2586 1011 2395 
C 1011 2254 947 2005 902 1807 
L 723 1118 
C 698 996 627 709 595 594 
C 550 428 480 128 480 96 
C 480 6 550 -64 646 -64 
C 723 -64 813 -26 864 70 
C 877 102 934 326 966 453 
L 1107 1028 
L 1318 1871 
z
" transform="scale(0.015625)"/>
      <path id="CMR17-30" d="M 2688 2025 
C 2688 2416 2682 3080 2413 3591 
C 2176 4039 1798 4198 1466 4198 
C 1158 4198 768 4058 525 3597 
C 269 3118 243 2524 243 2025 
C 243 1661 250 1106 448 619 
C 723 -39 1216 -128 1466 -128 
C 1760 -128 2208 -7 2470 600 
C 2662 1042 2688 1559 2688 2025 
z
M 1466 -26 
C 1056 -26 813 325 723 812 
C 653 1188 653 1738 653 2096 
C 653 2588 653 2997 736 3387 
C 858 3929 1216 4096 1466 4096 
C 1728 4096 2067 3923 2189 3400 
C 2272 3036 2278 2607 2278 2096 
C 2278 1680 2278 1169 2202 792 
C 2067 95 1690 -26 1466 -26 
z
" transform="scale(0.015625)"/>
      <path id="CMR17-3d" d="M 4115 2017 
C 4211 2017 4307 2017 4307 2125 
C 4307 2240 4198 2240 4090 2240 
L 512 2240 
C 403 2240 294 2240 294 2125 
C 294 2017 390 2017 486 2017 
L 4115 2017 
z
M 4090 896 
C 4198 896 4307 896 4307 1011 
C 4307 1119 4211 1119 4115 1119 
L 486 1119 
C 390 1119 294 1119 294 1011 
C 294 896 403 896 512 896 
L 4090 896 
z
" transform="scale(0.015625)"/>
     </defs>
     <use xlink:href="#CMMI12-6e" transform="scale(0.996264)"/>
     <use xlink:href="#CMR17-30" transform="translate(58.230047 -14.943915) scale(0.697382)"/>
     <use xlink:href="#CMR17-3d" transform="translate(118.38537 0) scale(0.996264)"/>
     <use xlink:href="#CMR17-30" transform="translate(217.774167 0) scale(0.996264)"/>
    </g>
   </g>
   <g id="patch_10">
    <path d="M 140.683078 173.517746 
C 141.772236 173.517746 142.816931 173.085019 143.587081 172.314868 
C 144.357232 171.544718 144.789959 170.500023 144.789959 169.410865 
C 144.789959 168.321708 144.357232 167.277013 143.587081 166.506862 
C 142.816931 165.736711 141.772236 165.303985 140.683078 165.303985 
C 139.593921 165.303985 138.549226 165.736711 137.779075 166.506862 
C 137.008924 167.277013 136.576197 168.321708 136.576197 169.410865 
C 136.576197 170.500023 137.008924 171.544718 137.779075 172.314868 
C 138.549226 173.085019 139.593921 173.517746 140.683078 173.517746 
z
" clip-path="url(#pc6d5437ed7)"/>
   </g>
   <g id="patch_11">
    <path d="M 51.316922 84.176015 
C 52.406079 84.176015 53.450774 83.743289 54.220925 82.973138 
C 54.991076 82.202987 55.423803 81.158292 55.423803 80.069135 
C 55.423803 78.979977 54.991076 77.935282 54.220925 77.165132 
C 53.450774 76.394981 52.406079 75.962254 51.316922 75.962254 
C 50.227764 75.962254 49.183069 76.394981 48.412919 77.165132 
C 47.642768 77.935282 47.210041 78.979977 47.210041 80.069135 
C 47.210041 81.158292 47.642768 82.202987 48.412919 82.973138 
C 49.183069 83.743289 50.227764 84.176015 51.316922 84.176015 
z
" clip-path="url(#pc6d5437ed7)"/>
   </g>
  </g>
  <g id="axes_2">
   <g id="patch_12">
    <path d="M 192 237.6 
L 384 237.6 
L 384 11.88 
L 192 11.88 
z
" style="fill: #ffffff"/>
   </g>
   <g id="patch_13">
    <path d="M 288 206.877614 
C 309.78315 206.877614 330.677051 198.223077 346.080064 182.820064 
C 361.483077 167.417051 370.137614 146.52315 370.137614 124.74 
C 370.137614 102.95685 361.483077 82.062949 346.080064 66.659936 
C 330.677051 51.256923 309.78315 42.602386 288 42.602386 
C 266.21685 42.602386 245.322949 51.256923 229.919936 66.659936 
C 214.516923 82.062949 205.862386 102.95685 205.862386 124.74 
C 205.862386 146.52315 214.516923 167.417051 229.919936 182.820064 
C 245.322949 198.223077 266.21685 206.877614 288 206.877614 
z
" clip-path="url(#p2453cb32ff)" style="fill: #d8dcd6; opacity: 0.2; stroke: #000000; stroke-linejoin: miter"/>
   </g>
   <g id="line2d_17">
    <path d="M 288 124.74 
L 288 198.663853 
" clip-path="url(#p2453cb32ff)" style="fill: none; stroke-dasharray: 5.12,1.28,0.8,1.28; stroke-dashoffset: 0; stroke: #7f7f7f; stroke-opacity: 0.2; stroke-width: 0.8"/>
   </g>
   <g id="line2d_18">
    <path d="M 288 124.74 
L 288 50.816147 
" clip-path="url(#p2453cb32ff)" style="fill: none; stroke-dasharray: 5.12,1.28,0.8,1.28; stroke-dashoffset: 0; stroke: #7f7f7f; stroke-opacity: 0.2; stroke-width: 0.8"/>
   </g>
   <g id="line2d_19">
    <path d="M 288 124.74 
L 361.923853 124.74 
" clip-path="url(#p2453cb32ff)" style="fill: none; stroke-dasharray: 5.12,1.28,0.8,1.28; stroke-dashoffset: 0; stroke: #7f7f7f; stroke-opacity: 0.2; stroke-width: 0.8"/>
   </g>
   <g id="line2d_20">
    <path d="M 288 124.74 
L 214.076147 124.74 
" clip-path="url(#p2453cb32ff)" style="fill: none; stroke-dasharray: 5.12,1.28,0.8,1.28; stroke-dashoffset: 0; stroke: #7f7f7f; stroke-opacity: 0.2; stroke-width: 0.8"/>
   </g>
   <g id="patch_14">
    <path d="M 288.008636 192.02966 
C 289.097793 192.02966 290.142488 191.596933 290.912639 190.826782 
C 291.68279 190.056632 292.115516 189.011937 292.115516 187.922779 
C 292.115516 186.833622 291.68279 185.788927 290.912639 185.018776 
C 290.142488 184.248625 289.097793 183.815899 288.008636 183.815899 
C 286.919478 183.815899 285.874783 184.248625 285.104633 185.018776 
C 284.334482 185.788927 283.901755 186.833622 283.901755 187.922779 
C 283.901755 189.011937 284.334482 190.056632 285.104633 190.826782 
C 285.874783 191.596933 286.919478 192.02966 288.008636 192.02966 
z
" clip-path="url(#p2453cb32ff)" style="opacity: 0.2"/>
   </g>
   <g id="patch_15">
    <path d="M 287.991364 65.664101 
C 289.080522 65.664101 290.125217 65.231375 290.895367 64.461224 
C 291.665518 63.691073 292.098245 62.646378 292.098245 61.557221 
C 292.098245 60.468063 291.665518 59.423368 290.895367 58.653218 
C 290.125217 57.883067 289.080522 57.45034 287.991364 57.45034 
C 286.902207 57.45034 285.857512 57.883067 285.087361 58.653218 
C 284.31721 59.423368 283.884484 60.468063 283.884484 61.557221 
C 283.884484 62.646378 284.31721 63.691073 285.087361 64.461224 
C 285.857512 65.231375 286.902207 65.664101 287.991364 65.664101 
z
" clip-path="url(#p2453cb32ff)" style="opacity: 0.2"/>
   </g>
   <g id="patch_16">
    <path d="M 288 206.877614 
C 309.78315 206.877614 330.677051 198.223077 346.080064 182.820064 
C 361.483077 167.417051 370.137614 146.52315 370.137614 124.74 
C 370.137614 102.95685 361.483077 82.062949 346.080064 66.659936 
C 330.677051 51.256923 309.78315 42.602386 288 42.602386 
C 266.21685 42.602386 245.322949 51.256923 229.919936 66.659936 
C 214.516923 82.062949 205.862386 102.95685 205.862386 124.74 
C 205.862386 146.52315 214.516923 167.417051 229.919936 182.820064 
C 245.322949 198.223077 266.21685 206.877614 288 206.877614 
z
" clip-path="url(#p2453cb32ff)" style="fill: #d8dcd6; stroke: #000000; stroke-linejoin: miter"/>
   </g>
   <g id="patch_17">
    <path d="M 288 206.877614 
C 309.78315 206.877614 330.677051 198.223077 346.080064 182.820064 
C 361.483077 167.417051 370.137614 146.52315 370.137614 124.74 
C 370.137614 102.95685 361.483077 82.062949 346.080064 66.659936 
C 330.677051 51.256923 309.78315 42.602386 288 42.602386 
C 266.21685 42.602386 245.322949 51.256923 229.919936 66.659936 
C 214.516923 82.062949 205.862386 102.95685 205.862386 124.74 
C 205.862386 146.52315 214.516923 167.417051 229.919936 182.820064 
C 245.322949 198.223077 266.21685 206.877614 288 206.877614 
z
" clip-path="url(#p2453cb32ff)" style="fill: #d8dcd6; stroke: #000000; stroke-linejoin: miter"/>
   </g>
   <g id="line2d_21">
    <path d="M 288 124.74 
L 288 198.663853 
" clip-path="url(#p2453cb32ff)" style="fill: none; stroke-dasharray: 5.12,1.28,0.8,1.28; stroke-dashoffset: 0; stroke: #000000; stroke-width: 0.8"/>
   </g>
   <g id="line2d_22">
    <path d="M 288 124.74 
L 288 50.816147 
" clip-path="url(#p2453cb32ff)" style="fill: none; stroke-dasharray: 5.12,1.28,0.8,1.28; stroke-dashoffset: 0; stroke: #000000; stroke-width: 0.8"/>
   </g>
   <g id="line2d_23">
    <path d="M 288 124.74 
L 361.923853 124.74 
" clip-path="url(#p2453cb32ff)" style="fill: none; stroke-dasharray: 5.12,1.28,0.8,1.28; stroke-dashoffset: 0; stroke: #000000; stroke-width: 0.8"/>
   </g>
   <g id="line2d_24">
    <path d="M 288 124.74 
L 214.076147 124.74 
" clip-path="url(#p2453cb32ff)" style="fill: none; stroke-dasharray: 5.12,1.28,0.8,1.28; stroke-dashoffset: 0; stroke: #000000; stroke-width: 0.8"/>
   </g>
   <g id="matplotlib.axis_3">
    <g id="xtick_4"/>
    <g id="xtick_5"/>
    <g id="xtick_6"/>
   </g>
   <g id="matplotlib.axis_4">
    <g id="ytick_6"/>
    <g id="ytick_7"/>
    <g id="ytick_8"/>
    <g id="ytick_9"/>
    <g id="ytick_10"/>
   </g>
   <g id="line2d_25">
    <path d="M 288 124.965653 
L 288 124.514347 
" clip-path="url(#p2453cb32ff)" style="fill: none; stroke: #d8dcd6; stroke-opacity: 0.2; stroke-width: 1.5; stroke-linecap: square"/>
   </g>
   <g id="line2d_26">
    <path d="M 287.774347 124.74 
L 288.225653 124.74 
" clip-path="url(#p2453cb32ff)" style="fill: none; stroke: #d8dcd6; stroke-opacity: 0.2; stroke-width: 1.5; stroke-linecap: square"/>
   </g>
   <g id="line2d_27">
    <path d="M 254.247953 165.484475 
L 255.159721 167.806835 
L 256.297341 170.095041 
L 257.657493 172.329479 
L 259.225322 174.477154 
L 260.992553 176.521426 
L 262.950345 178.446126 
L 265.082327 180.230217 
L 267.376986 181.859988 
L 269.814613 183.318113 
L 272.373608 184.590188 
L 275.04713 185.670762 
L 277.812224 186.547998 
L 280.6447 187.213264 
L 283.528142 187.662252 
L 286.445981 187.891424 
L 289.372799 187.898313 
L 292.291685 187.682896 
L 295.177219 187.247548 
L 298.012827 186.595761 
L 300.782096 185.731792 
L 303.460823 184.664182 
L 306.03363 183.400578 
L 308.485407 181.949356 
L 310.794393 180.3249 
L 312.947132 178.538757 
L 314.924574 176.609455 
L 316.710049 174.558161 
L 318.294444 172.401226 
L 319.669215 170.155493 
L 320.819207 167.854171 
L 321.743651 165.508985 
L 321.752047 165.484475 
L 321.752047 165.484475 
" clip-path="url(#p2453cb32ff)" style="fill: none; stroke: #448ee4; stroke-opacity: 0.2; stroke-width: 1.5; stroke-linecap: square"/>
   </g>
   <g id="line2d_28">
    <path d="M 321.752047 83.995525 
L 320.840279 81.673165 
L 319.702659 79.384959 
L 318.342507 77.150521 
L 316.774678 75.002846 
L 315.007447 72.958574 
L 313.049655 71.033874 
L 310.917673 69.249783 
L 308.623014 67.620012 
L 306.185387 66.161887 
L 303.626392 64.889812 
L 300.95287 63.809238 
L 298.187776 62.932002 
L 295.3553 62.266736 
L 292.471858 61.817748 
L 289.554019 61.588576 
L 286.627201 61.581687 
L 283.708315 61.797104 
L 280.822781 62.232452 
L 277.987173 62.884239 
L 275.217904 63.748208 
L 272.539177 64.815818 
L 269.96637 66.079422 
L 267.514593 67.530644 
L 265.205607 69.1551 
L 263.052868 70.941243 
L 261.075426 72.870545 
L 259.289951 74.921839 
L 257.705556 77.078774 
L 256.330785 79.324507 
L 255.180793 81.625829 
L 254.256349 83.971015 
L 254.247953 83.995525 
L 254.247953 83.995525 
" clip-path="url(#p2453cb32ff)" style="fill: none; stroke: #448ee4; stroke-opacity: 0.2; stroke-width: 1.5; stroke-linecap: square"/>
   </g>
   <g id="line2d_29">
    <path d="M 288 124.965653 
L 288 124.514347 
" clip-path="url(#p2453cb32ff)" style="fill: none; stroke: #000000; stroke-width: 1.5; stroke-linecap: square"/>
   </g>
   <g id="line2d_30">
    <path d="M 287.774347 124.74 
L 288.225653 124.74 
" clip-path="url(#p2453cb32ff)" style="fill: none; stroke: #000000; stroke-width: 1.5; stroke-linecap: square"/>
   </g>
   <g id="line2d_31">
    <path d="M 254.247953 165.484475 
L 255.159721 167.806835 
L 256.297341 170.095041 
L 257.657493 172.329479 
L 259.225322 174.477154 
L 260.992553 176.521426 
L 262.950345 178.446126 
L 265.082327 180.230217 
L 267.376986 181.859988 
L 269.814613 183.318113 
L 272.373608 184.590188 
L 275.04713 185.670762 
L 277.812224 186.547998 
L 280.6447 187.213264 
L 283.528142 187.662252 
L 286.445981 187.891424 
L 289.372799 187.898313 
L 292.291685 187.682896 
L 295.177219 187.247548 
L 298.012827 186.595761 
L 300.782096 185.731792 
L 303.460823 184.664182 
L 306.03363 183.400578 
L 308.485407 181.949356 
L 310.794393 180.3249 
L 312.947132 178.538757 
L 314.924574 176.609455 
L 316.710049 174.558161 
L 318.294444 172.401226 
L 319.669215 170.155493 
L 320.819207 167.854171 
L 321.743651 165.508985 
L 321.752047 165.484475 
L 321.752047 165.484475 
" clip-path="url(#p2453cb32ff)" style="fill: none; stroke: #448ee4; stroke-width: 1.5; stroke-linecap: square"/>
   </g>
   <g id="line2d_32">
    <path d="M 321.752047 83.995525 
L 320.840279 81.673165 
L 319.702659 79.384959 
L 318.342507 77.150521 
L 316.774678 75.002846 
L 315.007447 72.958574 
L 313.049655 71.033874 
L 310.917673 69.249783 
L 308.623014 67.620012 
L 306.185387 66.161887 
L 303.626392 64.889812 
L 300.95287 63.809238 
L 298.187776 62.932002 
L 295.3553 62.266736 
L 292.471858 61.817748 
L 289.554019 61.588576 
L 286.627201 61.581687 
L 283.708315 61.797104 
L 280.822781 62.232452 
L 277.987173 62.884239 
L 275.217904 63.748208 
L 272.539177 64.815818 
L 269.96637 66.079422 
L 267.514593 67.530644 
L 265.205607 69.1551 
L 263.052868 70.941243 
L 261.075426 72.870545 
L 259.289951 74.921839 
L 257.705556 77.078774 
L 256.330785 79.324507 
L 255.180793 81.625829 
L 254.256349 83.971015 
L 254.247953 83.995525 
L 254.247953 83.995525 
" clip-path="url(#p2453cb32ff)" style="fill: none; stroke: #448ee4; stroke-width: 1.5; stroke-linecap: square"/>
   </g>
   <g id="text_3">
    <!-- phase-opposition  -->
    <g transform="translate(230.900828 19.441117) scale(0.16 -0.16)">
     <defs>
      <path id="CMR17-70" d="M 1408 -1063 
C 998 -1063 973 -1037 973 -789 
L 973 402 
C 1158 134 1427 -38 1766 -38 
C 2406 -38 3053 523 3053 1388 
C 3053 2191 2496 2802 1837 2802 
C 1453 2802 1139 2592 960 2338 
L 960 2802 
L 198 2732 
L 198 2567 
C 576 2567 634 2528 634 2223 
L 634 -789 
C 634 -1031 608 -1063 198 -1063 
L 198 -1228 
C 352 -1216 634 -1216 800 -1216 
C 966 -1216 1254 -1216 1408 -1228 
L 1408 -1063 
z
M 973 2012 
C 973 2102 973 2235 1222 2471 
C 1254 2497 1472 2688 1792 2688 
C 2259 2688 2643 2108 2643 1382 
C 2643 656 2234 64 1728 64 
C 1498 64 1248 172 1056 472 
C 973 612 973 650 973 752 
L 973 2012 
z
" transform="scale(0.015625)"/>
      <path id="CMR17-68" d="M 2656 1933 
C 2656 2259 2592 2790 1837 2790 
C 1312 2790 1056 2368 979 2157 
L 973 2157 
L 973 4396 
L 211 4326 
L 211 4160 
C 589 4160 646 4122 646 3817 
L 646 426 
C 646 184 621 153 211 153 
L 211 -13 
C 365 0 646 0 813 0 
C 979 0 1267 0 1421 -13 
L 1421 153 
C 1011 153 986 178 986 428 
L 986 1658 
C 986 2247 1344 2688 1792 2688 
C 2266 2688 2317 2266 2317 1958 
L 2317 428 
C 2317 184 2291 153 1882 153 
L 1882 -13 
C 2035 0 2317 0 2483 0 
C 2650 0 2938 0 3091 -13 
L 3091 153 
C 2682 153 2656 178 2656 428 
L 2656 1933 
z
" transform="scale(0.015625)"/>
      <path id="CMR17-61" d="M 2304 1653 
C 2304 2072 2304 2294 2035 2543 
C 1798 2752 1523 2816 1306 2816 
C 800 2816 435 2407 435 1971 
C 435 1728 627 1728 666 1728 
C 749 1728 896 1778 896 1954 
C 896 2112 774 2181 666 2181 
C 640 2181 608 2174 589 2168 
C 723 2592 1069 2714 1293 2714 
C 1613 2714 1965 2429 1965 1885 
L 1965 1600 
C 1587 1600 1133 1549 774 1357 
C 371 1133 256 813 256 570 
C 256 77 832 -64 1171 -64 
C 1523 -64 1850 139 1990 511 
C 2003 233 2182 -18 2464 -18 
C 2598 -18 2938 70 2938 567 
L 2938 920 
L 2822 920 
L 2822 562 
C 2822 178 2650 128 2566 128 
C 2304 128 2304 458 2304 738 
L 2304 1653 
z
M 1965 870 
C 1965 317 1568 38 1216 38 
C 896 38 646 275 646 570 
C 646 761 730 1100 1101 1305 
C 1408 1478 1760 1504 1965 1504 
L 1965 870 
z
" transform="scale(0.015625)"/>
      <path id="CMR17-73" d="M 1978 2697 
C 1978 2813 1971 2819 1933 2819 
C 1907 2819 1901 2813 1824 2717 
C 1805 2691 1747 2626 1728 2601 
C 1523 2819 1235 2819 1126 2819 
C 416 2819 160 2447 160 2076 
C 160 1498 813 1365 998 1325 
C 1402 1243 1542 1217 1677 1101 
C 1760 1025 1901 884 1901 654 
C 1901 384 1747 38 1158 38 
C 602 38 403 460 288 1021 
C 269 1110 269 1117 218 1117 
C 166 1117 160 1110 160 983 
L 160 63 
C 160 -51 166 -58 205 -58 
C 237 -58 243 -51 275 0 
C 314 57 410 211 448 276 
C 576 103 800 -64 1158 -64 
C 1792 -64 2131 283 2131 784 
C 2131 1112 1958 1285 1875 1362 
C 1683 1561 1459 1606 1190 1657 
C 838 1735 390 1825 390 2217 
C 390 2383 480 2737 1126 2737 
C 1811 2737 1850 2094 1862 1888 
C 1869 1856 1901 1849 1920 1849 
C 1978 1849 1978 1869 1978 1978 
L 1978 2697 
z
" transform="scale(0.015625)"/>
      <path id="CMR17-2d" d="M 1632 1216 
L 1632 1496 
L 26 1496 
L 26 1216 
L 1632 1216 
z
" transform="scale(0.015625)"/>
      <path id="CMR17-74" d="M 966 2560 
L 1862 2560 
L 1862 2725 
L 966 2725 
L 966 3904 
L 851 3904 
C 838 3245 614 2668 70 2668 
L 70 2560 
L 627 2560 
L 627 771 
C 627 650 627 -64 1370 -64 
C 1747 -64 1965 306 1965 777 
L 1965 1140 
L 1850 1140 
L 1850 783 
C 1850 344 1677 51 1408 51 
C 1222 51 966 178 966 758 
L 966 2560 
z
" transform="scale(0.015625)"/>
      <path id="CMR17-6e" d="M 2656 1933 
C 2656 2259 2592 2790 1837 2790 
C 1331 2790 1069 2400 973 2144 
L 966 2144 
L 966 2790 
L 211 2720 
L 211 2554 
C 589 2554 646 2515 646 2208 
L 646 428 
C 646 184 621 153 211 153 
L 211 -13 
C 365 0 646 0 813 0 
C 979 0 1267 0 1421 -13 
L 1421 153 
C 1011 153 986 178 986 428 
L 986 1658 
C 986 2247 1344 2688 1792 2688 
C 2266 2688 2317 2266 2317 1958 
L 2317 428 
C 2317 184 2291 153 1882 153 
L 1882 -13 
C 2035 0 2317 0 2483 0 
C 2650 0 2938 0 3091 -13 
L 3091 153 
C 2682 153 2656 178 2656 428 
L 2656 1933 
z
" transform="scale(0.015625)"/>
     </defs>
     <use xlink:href="#CMR17-70" transform="scale(0.996264)"/>
     <use xlink:href="#CMR17-68" transform="translate(50.89537 0) scale(0.996264)"/>
     <use xlink:href="#CMR17-61" transform="translate(101.79074 0) scale(0.996264)"/>
     <use xlink:href="#CMR17-73" transform="translate(147.481217 0) scale(0.996264)"/>
     <use xlink:href="#CMR17-65" transform="translate(183.282554 0) scale(0.996264)"/>
     <use xlink:href="#CMR17-2d" transform="translate(223.768215 0) scale(0.996264)"/>
     <use xlink:href="#CMR17-6f" transform="translate(253.844181 0) scale(0.996264)"/>
     <use xlink:href="#CMR17-70" transform="translate(299.534658 0) scale(0.996264)"/>
     <use xlink:href="#CMR17-70" transform="translate(350.430028 0) scale(0.996264)"/>
     <use xlink:href="#CMR17-6f" transform="translate(403.927837 0) scale(0.996264)"/>
     <use xlink:href="#CMR17-73" transform="translate(449.618314 0) scale(0.996264)"/>
     <use xlink:href="#CMR17-69" transform="translate(485.419651 0) scale(0.996264)"/>
     <use xlink:href="#CMR17-74" transform="translate(510.29071 0) scale(0.996264)"/>
     <use xlink:href="#CMR17-69" transform="translate(545.571478 0) scale(0.996264)"/>
     <use xlink:href="#CMR17-6f" transform="translate(570.442536 0) scale(0.996264)"/>
     <use xlink:href="#CMR17-6e" transform="translate(616.133013 0) scale(0.996264)"/>
    </g>
    <!--  mode -->
    <g transform="translate(269.57392 35.824099) scale(0.16 -0.16)">
     <use xlink:href="#CMR17-6d" transform="scale(0.996264)"/>
     <use xlink:href="#CMR17-6f" transform="translate(76.91959 0) scale(0.996264)"/>
     <use xlink:href="#CMR17-64" transform="translate(125.212506 0) scale(0.996264)"/>
     <use xlink:href="#CMR17-65" transform="translate(176.107875 0) scale(0.996264)"/>
    </g>
   </g>
   <g id="text_4">
    <!-- $n_{1} = n_{p}$ -->
    <g transform="translate(262.340037 222.038046) scale(0.16 -0.16)">
     <defs>
      <path id="CMR17-31" d="M 1702 4058 
C 1702 4192 1696 4192 1606 4192 
C 1357 3916 979 3827 621 3827 
C 602 3827 570 3827 563 3808 
C 557 3795 557 3782 557 3648 
C 755 3648 1088 3686 1344 3839 
L 1344 461 
C 1344 236 1331 160 781 160 
L 589 160 
L 589 0 
C 896 0 1216 0 1523 0 
C 1830 0 2150 0 2458 0 
L 2458 160 
L 2266 160 
C 1715 160 1702 230 1702 458 
L 1702 4058 
z
" transform="scale(0.015625)"/>
      <path id="CMMI12-70" d="M 275 -789 
C 230 -980 205 -1031 -58 -1031 
C -134 -1031 -198 -1031 -198 -1152 
C -198 -1165 -192 -1216 -122 -1216 
C -38 -1216 51 -1216 134 -1216 
L 410 -1216 
C 544 -1216 870 -1216 1005 -1216 
C 1043 -1216 1120 -1216 1120 -1101 
C 1120 -1031 1075 -1031 966 -1031 
C 672 -1031 653 -987 653 -937 
C 653 -861 941 219 979 364 
C 1050 185 1222 -64 1555 -64 
C 2278 -64 3059 875 3059 1814 
C 3059 2401 2726 2816 2246 2816 
C 1837 2816 1491 2420 1421 2331 
C 1370 2650 1120 2816 864 2816 
C 678 2816 531 2727 410 2484 
C 294 2254 205 1865 205 1839 
C 205 1814 230 1782 275 1782 
C 326 1782 333 1788 371 1935 
C 467 2312 589 2689 845 2689 
C 992 2689 1043 2587 1043 2397 
C 1043 2245 1024 2181 998 2067 
L 275 -789 
z
M 1382 1993 
C 1427 2171 1606 2357 1709 2446 
C 1779 2510 1990 2689 2234 2689 
C 2515 2689 2643 2408 2643 2076 
C 2643 1769 2464 1047 2304 715 
C 2144 370 1850 64 1555 64 
C 1120 64 1050 613 1050 639 
C 1050 658 1062 709 1069 741 
L 1382 1993 
z
" transform="scale(0.015625)"/>
     </defs>
     <use xlink:href="#CMMI12-6e" transform="scale(0.996264)"/>
     <use xlink:href="#CMR17-31" transform="translate(58.230047 -14.943915) scale(0.697382)"/>
     <use xlink:href="#CMR17-3d" transform="translate(118.38537 0) scale(0.996264)"/>
     <use xlink:href="#CMMI12-6e" transform="translate(217.774167 0) scale(0.996264)"/>
     <use xlink:href="#CMMI12-70" transform="translate(276.004215 -14.943915) scale(0.697382)"/>
    </g>
   </g>
   <g id="patch_18">
    <path d="M 311.935119 183.521603 
C 313.024277 183.521603 314.068972 183.088876 314.839122 182.318726 
C 315.609273 181.548575 316.042 180.50388 316.042 179.414723 
C 316.042 178.325565 315.609273 177.28087 314.839122 176.510719 
C 314.068972 175.740569 313.024277 175.307842 311.935119 175.307842 
C 310.845962 175.307842 309.801267 175.740569 309.031116 176.510719 
C 308.260965 177.28087 307.828238 178.325565 307.828238 179.414723 
C 307.828238 180.50388 308.260965 181.548575 309.031116 182.318726 
C 309.801267 183.088876 310.845962 183.521603 311.935119 183.521603 
z
" clip-path="url(#p2453cb32ff)"/>
   </g>
   <g id="patch_19">
    <path d="M 311.921843 74.161111 
C 313.011 74.161111 314.055695 73.728384 314.825846 72.958233 
C 315.595997 72.188083 316.028723 71.143388 316.028723 70.05423 
C 316.028723 68.965073 315.595997 67.920378 314.825846 67.150227 
C 314.055695 66.380076 313.011 65.94735 311.921843 65.94735 
C 310.832685 65.94735 309.78799 66.380076 309.017839 67.150227 
C 308.247689 67.920378 307.814962 68.965073 307.814962 70.05423 
C 307.814962 71.143388 308.247689 72.188083 309.017839 72.958233 
C 309.78799 73.728384 310.832685 74.161111 311.921843 74.161111 
z
" clip-path="url(#p2453cb32ff)"/>
   </g>
   <g id="line2d_33">
    <path d="M 288 187.92278 
L 290.924713 187.811584 
L 293.832507 187.478387 
L 296.698 186.926332 
L 299.50463 186.159328 
L 302.227954 185.185284 
L 304.852433 184.011515 
L 307.362831 182.646058 
L 309.737098 181.102688 
L 311.928482 179.420247 
L 311.928482 179.420247 
" clip-path="url(#p2453cb32ff)" style="fill: none; stroke: #d62728; stroke-width: 1.5; stroke-linecap: square"/>
   </g>
   <g id="line2d_34">
    <path d="M 311.921843 70.05423 
L 309.701836 68.352392 
L 307.333145 66.816278 
L 304.829206 65.457008 
L 302.20391 64.285067 
L 299.479916 63.312898 
L 296.681176 62.54976 
L 293.815435 61.998998 
L 290.916102 61.667761 
L 288.008636 61.557221 
L 288.008636 61.557221 
" clip-path="url(#p2453cb32ff)" style="fill: none; stroke: #d62728; stroke-width: 1.5; stroke-linecap: square"/>
   </g>
   <g id="patch_20">
    <path d="M 311.921843 179.42577 
Q 311.925162 179.423008 310.63921 180.492757 
" clip-path="url(#p2453cb32ff)" style="fill: none; stroke: #d62728; stroke-width: 1.5; stroke-linecap: round"/>
    <path d="M 304.978833 181.819459 
L 310.63921 180.492757 
L 308.304345 185.81708 
z
" clip-path="url(#p2453cb32ff)" style="fill: #d62728; stroke: #d62728; stroke-width: 1.5; stroke-linecap: round"/>
   </g>
   <g id="patch_21">
    <path d="M 310.632306 68.982038 
Q 311.918522 70.05147 311.915202 70.048709 
" clip-path="url(#p2453cb32ff)" style="fill: none; stroke: #d62728; stroke-width: 1.5; stroke-linecap: round"/>
    <path d="M 308.296127 63.658293 
L 310.632306 68.982038 
L 304.971602 67.656735 
z
" clip-path="url(#p2453cb32ff)" style="fill: #d62728; stroke: #d62728; stroke-width: 1.5; stroke-linecap: round"/>
   </g>
  </g>
  <g id="axes_3">
   <g id="patch_22">
    <path d="M 384 237.6 
L 576 237.6 
L 576 11.88 
L 384 11.88 
z
" style="fill: #ffffff"/>
   </g>
   <g id="patch_23">
    <path d="M 480 206.877614 
C 501.78315 206.877614 522.677051 198.223077 538.080064 182.820064 
C 553.483077 167.417051 562.137614 146.52315 562.137614 124.74 
C 562.137614 102.95685 553.483077 82.062949 538.080064 66.659936 
C 522.677051 51.256923 501.78315 42.602386 480 42.602386 
C 458.21685 42.602386 437.322949 51.256923 421.919936 66.659936 
C 406.516923 82.062949 397.862386 102.95685 397.862386 124.74 
C 397.862386 146.52315 406.516923 167.417051 421.919936 182.820064 
C 437.322949 198.223077 458.21685 206.877614 480 206.877614 
z
" clip-path="url(#p5ef6b61afe)" style="fill: #d8dcd6; opacity: 0.2; stroke: #000000; stroke-linejoin: miter"/>
   </g>
   <g id="line2d_35">
    <path d="M 480 124.74 
L 480 198.663853 
" clip-path="url(#p5ef6b61afe)" style="fill: none; stroke-dasharray: 5.12,1.28,0.8,1.28; stroke-dashoffset: 0; stroke: #7f7f7f; stroke-opacity: 0.2; stroke-width: 0.8"/>
   </g>
   <g id="line2d_36">
    <path d="M 480 124.74 
L 480 50.816147 
" clip-path="url(#p5ef6b61afe)" style="fill: none; stroke-dasharray: 5.12,1.28,0.8,1.28; stroke-dashoffset: 0; stroke: #7f7f7f; stroke-opacity: 0.2; stroke-width: 0.8"/>
   </g>
   <g id="line2d_37">
    <path d="M 480 124.74 
L 553.923853 124.74 
" clip-path="url(#p5ef6b61afe)" style="fill: none; stroke-dasharray: 5.12,1.28,0.8,1.28; stroke-dashoffset: 0; stroke: #7f7f7f; stroke-opacity: 0.2; stroke-width: 0.8"/>
   </g>
   <g id="line2d_38">
    <path d="M 480 124.74 
L 406.076147 124.74 
" clip-path="url(#p5ef6b61afe)" style="fill: none; stroke-dasharray: 5.12,1.28,0.8,1.28; stroke-dashoffset: 0; stroke: #7f7f7f; stroke-opacity: 0.2; stroke-width: 0.8"/>
   </g>
   <g id="patch_24">
    <path d="M 480.008636 192.02966 
C 481.097793 192.02966 482.142488 191.596933 482.912639 190.826782 
C 483.68279 190.056632 484.115516 189.011937 484.115516 187.922779 
C 484.115516 186.833622 483.68279 185.788927 482.912639 185.018776 
C 482.142488 184.248625 481.097793 183.815899 480.008636 183.815899 
C 478.919478 183.815899 477.874783 184.248625 477.104633 185.018776 
C 476.334482 185.788927 475.901755 186.833622 475.901755 187.922779 
C 475.901755 189.011937 476.334482 190.056632 477.104633 190.826782 
C 477.874783 191.596933 478.919478 192.02966 480.008636 192.02966 
z
" clip-path="url(#p5ef6b61afe)" style="opacity: 0.2"/>
   </g>
   <g id="patch_25">
    <path d="M 479.991364 65.664101 
C 481.080522 65.664101 482.125217 65.231375 482.895367 64.461224 
C 483.665518 63.691073 484.098245 62.646378 484.098245 61.557221 
C 484.098245 60.468063 483.665518 59.423368 482.895367 58.653218 
C 482.125217 57.883067 481.080522 57.45034 479.991364 57.45034 
C 478.902207 57.45034 477.857512 57.883067 477.087361 58.653218 
C 476.31721 59.423368 475.884484 60.468063 475.884484 61.557221 
C 475.884484 62.646378 476.31721 63.691073 477.087361 64.461224 
C 477.857512 65.231375 478.902207 65.664101 479.991364 65.664101 
z
" clip-path="url(#p5ef6b61afe)" style="opacity: 0.2"/>
   </g>
   <g id="patch_26">
    <path d="M 480 206.877614 
C 501.78315 206.877614 522.677051 198.223077 538.080064 182.820064 
C 553.483077 167.417051 562.137614 146.52315 562.137614 124.74 
C 562.137614 102.95685 553.483077 82.062949 538.080064 66.659936 
C 522.677051 51.256923 501.78315 42.602386 480 42.602386 
C 458.21685 42.602386 437.322949 51.256923 421.919936 66.659936 
C 406.516923 82.062949 397.862386 102.95685 397.862386 124.74 
C 397.862386 146.52315 406.516923 167.417051 421.919936 182.820064 
C 437.322949 198.223077 458.21685 206.877614 480 206.877614 
z
" clip-path="url(#p5ef6b61afe)" style="fill: #d8dcd6; stroke: #000000; stroke-linejoin: miter"/>
   </g>
   <g id="patch_27">
    <path d="M 480 206.877614 
C 501.78315 206.877614 522.677051 198.223077 538.080064 182.820064 
C 553.483077 167.417051 562.137614 146.52315 562.137614 124.74 
C 562.137614 102.95685 553.483077 82.062949 538.080064 66.659936 
C 522.677051 51.256923 501.78315 42.602386 480 42.602386 
C 458.21685 42.602386 437.322949 51.256923 421.919936 66.659936 
C 406.516923 82.062949 397.862386 102.95685 397.862386 124.74 
C 397.862386 146.52315 406.516923 167.417051 421.919936 182.820064 
C 437.322949 198.223077 458.21685 206.877614 480 206.877614 
z
" clip-path="url(#p5ef6b61afe)" style="fill: #d8dcd6; stroke: #000000; stroke-linejoin: miter"/>
   </g>
   <g id="line2d_39">
    <path d="M 480 124.74 
L 427.727942 177.012058 
" clip-path="url(#p5ef6b61afe)" style="fill: none; stroke-dasharray: 5.12,1.28,0.8,1.28; stroke-dashoffset: 0; stroke: #000000; stroke-width: 0.8"/>
   </g>
   <g id="line2d_40">
    <path d="M 480 124.74 
L 532.272058 72.467942 
" clip-path="url(#p5ef6b61afe)" style="fill: none; stroke-dasharray: 5.12,1.28,0.8,1.28; stroke-dashoffset: 0; stroke: #000000; stroke-width: 0.8"/>
   </g>
   <g id="line2d_41">
    <path d="M 480 124.74 
L 532.272058 177.012058 
" clip-path="url(#p5ef6b61afe)" style="fill: none; stroke-dasharray: 5.12,1.28,0.8,1.28; stroke-dashoffset: 0; stroke: #000000; stroke-width: 0.8"/>
   </g>
   <g id="line2d_42">
    <path d="M 480 124.74 
L 427.727942 72.467942 
" clip-path="url(#p5ef6b61afe)" style="fill: none; stroke-dasharray: 5.12,1.28,0.8,1.28; stroke-dashoffset: 0; stroke: #000000; stroke-width: 0.8"/>
   </g>
   <g id="patch_28">
    <path d="M 567.272727 101.355343 
C 564.201882 89.894794 558.903419 79.150573 551.680566 69.737567 
C 544.457712 60.324562 535.450935 52.42583 525.175688 46.493413 
" clip-path="url(#p5ef6b61afe)" style="fill: none; stroke: #000000; stroke-width: 1.5; stroke-linejoin: miter"/>
   </g>
   <g id="matplotlib.axis_5">
    <g id="xtick_7"/>
    <g id="xtick_8"/>
    <g id="xtick_9"/>
   </g>
   <g id="matplotlib.axis_6">
    <g id="ytick_11"/>
    <g id="ytick_12"/>
    <g id="ytick_13"/>
    <g id="ytick_14"/>
    <g id="ytick_15"/>
   </g>
   <g id="line2d_43">
    <path d="M 480 124.965653 
L 480 124.514347 
" clip-path="url(#p5ef6b61afe)" style="fill: none; stroke: #d8dcd6; stroke-opacity: 0.2; stroke-width: 1.5; stroke-linecap: square"/>
   </g>
   <g id="line2d_44">
    <path d="M 479.774347 124.74 
L 480.225653 124.74 
" clip-path="url(#p5ef6b61afe)" style="fill: none; stroke: #d8dcd6; stroke-opacity: 0.2; stroke-width: 1.5; stroke-linecap: square"/>
   </g>
   <g id="line2d_45">
    <path d="M 446.247953 165.484475 
L 447.159721 167.806835 
L 448.297341 170.095041 
L 449.657493 172.329479 
L 451.225322 174.477154 
L 452.992553 176.521426 
L 454.950345 178.446126 
L 457.082327 180.230217 
L 459.376986 181.859988 
L 461.814613 183.318113 
L 464.373608 184.590188 
L 467.04713 185.670762 
L 469.812224 186.547998 
L 472.6447 187.213264 
L 475.528142 187.662252 
L 478.445981 187.891424 
L 481.372799 187.898313 
L 484.291685 187.682896 
L 487.177219 187.247548 
L 490.012827 186.595761 
L 492.782096 185.731792 
L 495.460823 184.664182 
L 498.03363 183.400578 
L 500.485407 181.949356 
L 502.794393 180.3249 
L 504.947132 178.538757 
L 506.924574 176.609455 
L 508.710049 174.558161 
L 510.294444 172.401226 
L 511.669215 170.155493 
L 512.819207 167.854171 
L 513.743651 165.508985 
L 513.752047 165.484475 
L 513.752047 165.484475 
" clip-path="url(#p5ef6b61afe)" style="fill: none; stroke: #448ee4; stroke-opacity: 0.2; stroke-width: 1.5; stroke-linecap: square"/>
   </g>
   <g id="line2d_46">
    <path d="M 513.752047 83.995525 
L 512.840279 81.673165 
L 511.702659 79.384959 
L 510.342507 77.150521 
L 508.774678 75.002846 
L 507.007447 72.958574 
L 505.049655 71.033874 
L 502.917673 69.249783 
L 500.623014 67.620012 
L 498.185387 66.161887 
L 495.626392 64.889812 
L 492.95287 63.809238 
L 490.187776 62.932002 
L 487.3553 62.266736 
L 484.471858 61.817748 
L 481.554019 61.588576 
L 478.627201 61.581687 
L 475.708315 61.797104 
L 472.822781 62.232452 
L 469.987173 62.884239 
L 467.217904 63.748208 
L 464.539177 64.815818 
L 461.96637 66.079422 
L 459.514593 67.530644 
L 457.205607 69.1551 
L 455.052868 70.941243 
L 453.075426 72.870545 
L 451.289951 74.921839 
L 449.705556 77.078774 
L 448.330785 79.324507 
L 447.180793 81.625829 
L 446.256349 83.971015 
L 446.247953 83.995525 
L 446.247953 83.995525 
" clip-path="url(#p5ef6b61afe)" style="fill: none; stroke: #448ee4; stroke-opacity: 0.2; stroke-width: 1.5; stroke-linecap: square"/>
   </g>
   <g id="line2d_47">
    <path d="M 479.840439 124.899561 
L 480.159561 124.580439 
" clip-path="url(#p5ef6b61afe)" style="fill: none; stroke: #000000; stroke-width: 1.5; stroke-linecap: square"/>
   </g>
   <g id="line2d_48">
    <path d="M 479.840439 124.580439 
L 480.159561 124.899561 
" clip-path="url(#p5ef6b61afe)" style="fill: none; stroke: #000000; stroke-width: 1.5; stroke-linecap: square"/>
   </g>
   <g id="line2d_49">
    <path d="M 427.323004 129.684393 
L 426.325565 131.971267 
L 425.511977 134.393692 
L 424.893764 136.935451 
L 424.483751 139.562709 
L 424.287854 142.257848 
L 424.311253 145.003185 
L 424.557249 147.772267 
L 425.027396 150.547258 
L 425.720009 153.301971 
L 426.629999 156.010945 
L 427.756383 158.665493 
L 429.0913 161.241009 
L 430.623749 163.714286 
L 432.345168 166.07067 
L 434.246343 168.295942 
L 436.311044 170.370387 
L 438.527331 172.282028 
L 440.875549 174.014571 
L 443.34151 175.558766 
L 445.910597 176.906016 
L 448.559658 178.045249 
L 451.27241 178.970994 
L 454.032247 179.678494 
L 456.81361 180.16253 
L 459.59882 180.421752 
L 462.361306 180.455792 
L 465.074311 180.26783 
L 467.719831 179.862983 
L 470.279914 179.247119 
L 472.720361 178.433006 
L 475.032339 177.42839 
L 475.055607 177.416996 
L 475.055607 177.416996 
" clip-path="url(#p5ef6b61afe)" style="fill: none; stroke: #448ee4; stroke-width: 1.5; stroke-linecap: square"/>
   </g>
   <g id="line2d_50">
    <path d="M 532.676996 119.795607 
L 533.674435 117.508733 
L 534.488023 115.086308 
L 535.106236 112.544549 
L 535.516249 109.917291 
L 535.712146 107.222152 
L 535.688747 104.476815 
L 535.442751 101.707733 
L 534.972604 98.932742 
L 534.279991 96.178029 
L 533.370001 93.469055 
L 532.243617 90.814507 
L 530.9087 88.238991 
L 529.376251 85.765714 
L 527.654832 83.40933 
L 525.753657 81.184058 
L 523.688956 79.109613 
L 521.472669 77.197972 
L 519.124451 75.465429 
L 516.65849 73.921234 
L 514.089403 72.573984 
L 511.440342 71.434751 
L 508.72759 70.509006 
L 505.967753 69.801506 
L 503.18639 69.31747 
L 500.40118 69.058248 
L 497.638694 69.024208 
L 494.925689 69.21217 
L 492.280169 69.617017 
L 489.720086 70.232881 
L 487.279639 71.046994 
L 484.967661 72.05161 
L 484.944393 72.063004 
L 484.944393 72.063004 
" clip-path="url(#p5ef6b61afe)" style="fill: none; stroke: #448ee4; stroke-width: 1.5; stroke-linecap: square"/>
   </g>
   <g id="patch_29">
    <path d="M 567.272727 101.355343 
Q 567.61846 102.731764 567.691823 103.023835 
" style="fill: none; stroke: #000000; stroke-linecap: round"/>
    <path d="M 569.236278 96.037086 
L 567.691823 103.023835 
L 563.029097 97.596222 
z
" style="stroke: #000000; stroke-linecap: round"/>
   </g>
   <g id="text_5">
    <!-- unison  -->
    <g transform="translate(457.845348 19.441117) scale(0.16 -0.16)">
     <defs>
      <path id="CMR17-75" d="M 1882 2693 
L 1882 2528 
C 2259 2528 2317 2489 2317 2186 
L 2317 1032 
C 2317 500 2029 38 1555 38 
C 1030 38 986 348 986 678 
L 986 2763 
L 211 2693 
L 211 2528 
C 467 2528 640 2528 646 2274 
L 646 1058 
C 646 633 646 361 813 183 
C 896 101 1056 -64 1517 -64 
C 2061 -64 2272 377 2323 506 
L 2330 506 
L 2330 -63 
L 3091 -63 
L 3091 128 
C 2714 128 2656 166 2656 473 
L 2656 2763 
L 1882 2693 
z
" transform="scale(0.015625)"/>
     </defs>
     <use xlink:href="#CMR17-75" transform="scale(0.996264)"/>
     <use xlink:href="#CMR17-6e" transform="translate(50.89537 0) scale(0.996264)"/>
     <use xlink:href="#CMR17-69" transform="translate(101.79074 0) scale(0.996264)"/>
     <use xlink:href="#CMR17-73" transform="translate(126.661798 0) scale(0.996264)"/>
     <use xlink:href="#CMR17-6f" transform="translate(162.463136 0) scale(0.996264)"/>
     <use xlink:href="#CMR17-6e" transform="translate(208.153613 0) scale(0.996264)"/>
    </g>
    <!--  mode -->
    <g transform="translate(461.57392 35.824099) scale(0.16 -0.16)">
     <use xlink:href="#CMR17-6d" transform="scale(0.996264)"/>
     <use xlink:href="#CMR17-6f" transform="translate(76.91959 0) scale(0.996264)"/>
     <use xlink:href="#CMR17-64" transform="translate(125.212506 0) scale(0.996264)"/>
     <use xlink:href="#CMR17-65" transform="translate(176.107875 0) scale(0.996264)"/>
    </g>
   </g>
   <g id="text_6">
    <!-- $n_{2} = n_{p}+\varepsilon$ -->
    <g transform="translate(440.82693 222.038046) scale(0.16 -0.16)">
     <defs>
      <path id="CMR17-32" d="M 2669 989 
L 2554 989 
C 2490 536 2438 459 2413 420 
C 2381 369 1920 369 1830 369 
L 602 369 
C 832 619 1280 1072 1824 1597 
C 2214 1967 2669 2402 2669 3035 
C 2669 3790 2067 4224 1395 4224 
C 691 4224 262 3604 262 3030 
C 262 2780 448 2748 525 2748 
C 589 2748 781 2787 781 3010 
C 781 3207 614 3264 525 3264 
C 486 3264 448 3258 422 3245 
C 544 3790 915 4058 1306 4058 
C 1862 4058 2227 3617 2227 3035 
C 2227 2479 1901 2000 1536 1584 
L 262 146 
L 262 0 
L 2515 0 
L 2669 989 
z
" transform="scale(0.015625)"/>
      <path id="CMR17-2b" d="M 2413 1472 
L 4109 1472 
C 4198 1472 4307 1472 4307 1580 
C 4307 1695 4205 1695 4109 1695 
L 2413 1695 
L 2413 3386 
C 2413 3475 2413 3584 2304 3584 
C 2189 3584 2189 3482 2189 3386 
L 2189 1695 
L 493 1695 
C 403 1695 294 1695 294 1587 
C 294 1472 397 1472 493 1472 
L 2189 1472 
L 2189 -218 
C 2189 -307 2189 -416 2298 -416 
C 2413 -416 2413 -314 2413 -218 
L 2413 1472 
z
" transform="scale(0.015625)"/>
      <path id="CMMI12-22" d="M 890 1427 
C 1094 1345 1312 1345 1434 1345 
C 1600 1345 1933 1345 1933 1550 
C 1933 1678 1811 1728 1485 1728 
C 1325 1728 1133 1709 909 1613 
C 710 1708 634 1852 634 1990 
C 634 2379 1261 2606 1830 2606 
C 1939 2606 2170 2606 2438 2411 
C 2477 2387 2496 2367 2541 2367 
C 2618 2367 2701 2449 2701 2526 
C 2701 2639 2330 2880 1888 2880 
C 1171 2880 493 2449 493 1972 
C 493 1734 646 1586 755 1509 
C 384 1301 166 961 166 652 
C 166 219 563 -128 1178 -128 
C 2022 -128 2362 424 2362 512 
C 2362 543 2336 568 2304 568 
C 2272 568 2259 549 2234 512 
C 2163 395 1997 146 1235 146 
C 838 146 314 245 314 686 
C 314 898 474 1214 890 1427 
z
M 1088 1518 
C 1261 1600 1427 1600 1472 1600 
C 1651 1600 1683 1583 1786 1545 
C 1677 1472 1664 1472 1434 1472 
C 1318 1472 1216 1472 1088 1518 
z
" transform="scale(0.015625)"/>
     </defs>
     <use xlink:href="#CMMI12-6e" transform="scale(0.996264)"/>
     <use xlink:href="#CMR17-32" transform="translate(58.230047 -14.943915) scale(0.697382)"/>
     <use xlink:href="#CMR17-3d" transform="translate(118.38537 0) scale(0.996264)"/>
     <use xlink:href="#CMMI12-6e" transform="translate(217.774167 0) scale(0.996264)"/>
     <use xlink:href="#CMMI12-70" transform="translate(276.004215 -14.943915) scale(0.697382)"/>
     <use xlink:href="#CMR17-2b" transform="translate(332.91306 0) scale(0.996264)"/>
     <use xlink:href="#CMMI12-22" transform="translate(426.767055 0) scale(0.996264)"/>
    </g>
   </g>
   <g id="patch_30">
    <path d="M 458.263818 184.432433 
C 459.352976 184.432433 460.397671 183.999706 461.167821 183.229555 
C 461.937972 182.459405 462.370699 181.41471 462.370699 180.325552 
C 462.370699 179.236395 461.937972 178.1917 461.167821 177.421549 
C 460.397671 176.651398 459.352976 176.218671 458.263818 176.218671 
C 457.174661 176.218671 456.129965 176.651398 455.359815 177.421549 
C 454.589664 178.1917 454.156937 179.236395 454.156937 180.325552 
C 454.156937 181.41471 454.589664 182.459405 455.359815 183.229555 
C 456.129965 183.999706 457.174661 184.432433 458.263818 184.432433 
z
" clip-path="url(#p5ef6b61afe)"/>
   </g>
   <g id="patch_31">
    <path d="M 501.736182 73.261329 
C 502.825339 73.261329 503.870035 72.828602 504.640185 72.058451 
C 505.410336 71.2883 505.843063 70.243605 505.843063 69.154448 
C 505.843063 68.06529 505.410336 67.020595 504.640185 66.250445 
C 503.870035 65.480294 502.825339 65.047567 501.736182 65.047567 
C 500.647024 65.047567 499.602329 65.480294 498.832179 66.250445 
C 498.062028 67.020595 497.629301 68.06529 497.629301 69.154448 
C 497.629301 70.243605 498.062028 71.2883 498.832179 72.058451 
C 499.602329 72.828602 500.647024 73.261329 501.736182 73.261329 
z
" clip-path="url(#p5ef6b61afe)"/>
   </g>
   <g id="line2d_51">
    <path d="M 435.323028 169.416972 
L 437.469739 171.406429 
L 439.761466 173.226945 
L 442.178038 174.862791 
L 444.704978 176.305025 
L 447.319412 177.541953 
L 450.00518 178.567759 
L 452.745822 179.377355 
L 455.51601 179.964889 
L 458.255218 180.324765 
L 458.255218 180.324765 
" clip-path="url(#p5ef6b61afe)" style="fill: none; stroke: #d62728; stroke-width: 1.5; stroke-linecap: square"/>
   </g>
   <g id="line2d_52">
    <path d="M 524.676972 80.063028 
L 522.530261 78.073571 
L 520.238534 76.253055 
L 517.821962 74.617209 
L 515.295022 73.174975 
L 512.680588 71.938047 
L 509.99482 70.912241 
L 507.254178 70.102645 
L 504.48399 69.515111 
L 501.744782 69.155235 
L 501.744782 69.155235 
" clip-path="url(#p5ef6b61afe)" style="fill: none; stroke: #d62728; stroke-width: 1.5; stroke-linecap: square"/>
   </g>
   <g id="patch_32">
    <path d="M 458.246619 180.323976 
Q 458.250918 180.32437 456.585186 180.171492 
" clip-path="url(#p5ef6b61afe)" style="fill: none; stroke: #d62728; stroke-width: 1.5; stroke-linecap: round"/>
    <path d="M 451.644576 177.107121 
L 456.585186 180.171492 
L 451.169323 182.285357 
z
" clip-path="url(#p5ef6b61afe)" style="fill: #d62728; stroke: #d62728; stroke-width: 1.5; stroke-linecap: round"/>
   </g>
   <g id="patch_33">
    <path d="M 501.753381 69.156024 
Q 501.749082 69.15563 503.414814 69.308508 
" clip-path="url(#p5ef6b61afe)" style="fill: none; stroke: #d62728; stroke-width: 1.5; stroke-linecap: round"/>
    <path d="M 508.355424 72.372879 
L 503.414814 69.308508 
L 508.830677 67.194643 
z
" clip-path="url(#p5ef6b61afe)" style="fill: #d62728; stroke: #d62728; stroke-width: 1.5; stroke-linecap: round"/>
   </g>
  </g>
 </g>
 <defs>
  <clipPath id="pc6d5437ed7">
   <rect x="0" y="11.88" width="192" height="225.72"/>
  </clipPath>
  <clipPath id="p2453cb32ff">
   <rect x="192" y="11.88" width="192" height="225.72"/>
  </clipPath>
  <clipPath id="p5ef6b61afe">
   <rect x="384" y="11.88" width="192" height="225.72"/>
  </clipPath>
 </defs>
</svg>
